<svg width="26" height="25" viewBox="0 0 26 25" fill="none" xmlns="http://www.w3.org/2000/svg">
<path d="M14.1924 2.04813C14.9393 2.04527 15.6862 2.05277 16.4329 2.07065L16.6314 2.07782C16.8607 2.086 17.0869 2.09624 17.3602 2.10852C18.4492 2.1597 19.1923 2.33165 19.8443 2.58446C20.5198 2.84444 21.0889 3.19653 21.658 3.76562C22.1783 4.27698 22.581 4.89554 22.8381 5.57829C23.0909 6.23028 23.2629 6.97438 23.3141 8.06342C23.3263 8.33568 23.3366 8.5629 23.3448 8.79217L23.3509 8.99074C23.3691 9.73709 23.3769 10.4837 23.3745 11.2302L23.3755 11.9938V13.3346C23.378 14.0815 23.3702 14.8284 23.3519 15.5751L23.3458 15.7737C23.3376 16.0029 23.3274 16.2291 23.3151 16.5024C23.2639 17.5915 23.0899 18.3345 22.8381 18.9865C22.5819 19.67 22.1791 20.2891 21.658 20.8002C21.1462 21.3205 20.5273 21.7232 19.8443 21.9803C19.1923 22.2332 18.4492 22.4051 17.3602 22.4563C17.0869 22.4686 16.8607 22.4788 16.6314 22.487L16.4329 22.4931C15.6862 22.5113 14.9393 22.5192 14.1924 22.5167L13.4288 22.5177H12.089C11.3421 22.5202 10.5952 22.5124 9.84851 22.4942L9.64995 22.488C9.40697 22.4792 9.16405 22.469 8.92119 22.4573C7.83216 22.4061 7.08908 22.2321 6.43606 21.9803C5.75305 21.7238 5.13438 21.321 4.62339 20.8002C4.10246 20.2887 3.69938 19.6698 3.44224 18.9865C3.18943 18.3345 3.01748 17.5915 2.9663 16.5024C2.9549 16.2596 2.94466 16.0166 2.93559 15.7737L2.93048 15.5751C2.91161 14.8284 2.90308 14.0815 2.90489 13.3346V11.2302C2.90203 10.4837 2.90954 9.73709 2.92741 8.99074L2.93457 8.79217C2.94276 8.5629 2.95299 8.33568 2.96528 8.06342C3.01645 6.97336 3.18841 6.2313 3.44122 5.57829C3.6985 4.8952 4.10238 4.27681 4.62442 3.76664C5.13505 3.24541 5.75333 2.84196 6.43606 2.58446C7.08908 2.33165 7.83113 2.1597 8.92119 2.10852L9.64995 2.07782L9.84851 2.0727C10.5949 2.05384 11.3414 2.04531 12.088 2.04711L14.1924 2.04813ZM13.1402 7.16578C12.4621 7.15619 11.7889 7.28147 11.1596 7.53432C10.5304 7.78718 9.95767 8.16258 9.47476 8.6387C8.99186 9.11482 8.6084 9.68217 8.34667 10.3078C8.08494 10.9334 7.95016 11.6048 7.95016 12.2829C7.95016 12.9611 8.08494 13.6325 8.34667 14.2581C8.6084 14.8837 8.99186 15.451 9.47476 15.9271C9.95767 16.4033 10.5304 16.7787 11.1596 17.0315C11.7889 17.2844 12.4621 17.4096 13.1402 17.4001C14.4975 17.4001 15.7992 16.8609 16.7589 15.9011C17.7186 14.9414 18.2578 13.6397 18.2578 12.2824C18.2578 10.9251 17.7186 9.62343 16.7589 8.66368C15.7992 7.70394 14.4975 7.16578 13.1402 7.16578ZM13.1402 9.21284C13.5481 9.20533 13.9534 9.27916 14.3324 9.43004C14.7114 9.58092 15.0566 9.80581 15.3477 10.0916C15.6388 10.3774 15.8701 10.7183 16.028 11.0944C16.1859 11.4706 16.2673 11.8744 16.2673 12.2824C16.2674 12.6903 16.1862 13.0942 16.0284 13.4704C15.8706 13.8466 15.6395 14.1876 15.3484 14.4735C15.0574 14.7594 14.7123 14.9844 14.3333 15.1354C13.9544 15.2864 13.5491 15.3604 13.1412 15.353C12.3268 15.353 11.5458 15.0295 10.97 14.4536C10.3941 13.8778 10.0706 13.0968 10.0706 12.2824C10.0706 11.468 10.3941 10.687 10.97 10.1112C11.5458 9.53532 12.3268 9.21182 13.1412 9.21182L13.1402 9.21284ZM18.5137 5.63049C18.1835 5.6437 17.8712 5.78417 17.6423 6.02247C17.4133 6.26077 17.2855 6.57841 17.2855 6.90888C17.2855 7.23934 17.4133 7.55698 17.6423 7.79528C17.8712 8.03358 18.1835 8.17405 18.5137 8.18726C18.853 8.18726 19.1785 8.05247 19.4184 7.81253C19.6583 7.5726 19.7931 7.24717 19.7931 6.90785C19.7931 6.56853 19.6583 6.24311 19.4184 6.00317C19.1785 5.76324 18.853 5.62844 18.5137 5.62844V5.63049Z" fill="white"/>
</svg>
