<svg width="25" height="25" viewBox="0 0 25 25" fill="none" xmlns="http://www.w3.org/2000/svg">
<g clip-path="url(#clip0_78_2038)">
<path fill-rule="evenodd" clip-rule="evenodd" d="M18.7192 3.06934C19.5335 3.06934 20.3145 3.39284 20.8904 3.96869C21.4662 4.54454 21.7897 5.32555 21.7897 6.13992V18.4223C21.7897 19.2366 21.4662 20.0177 20.8904 20.5935C20.3145 21.1694 19.5335 21.4929 18.7192 21.4929H6.4368C5.62243 21.4929 4.84141 21.1694 4.26557 20.5935C3.68972 20.0177 3.36621 19.2366 3.36621 18.4223V6.13992C3.36621 5.32555 3.68972 4.54454 4.26557 3.96869C4.84141 3.39284 5.62243 3.06934 6.4368 3.06934H18.7192ZM8.48386 10.234C8.2124 10.234 7.95206 10.3419 7.76011 10.5338C7.56816 10.7258 7.46033 10.9861 7.46033 11.2576V16.3752C7.46033 16.6467 7.56816 16.907 7.76011 17.099C7.95206 17.2909 8.2124 17.3987 8.48386 17.3987C8.75531 17.3987 9.01565 17.2909 9.2076 17.099C9.39955 16.907 9.50739 16.6467 9.50739 16.3752V11.2576C9.50739 10.9861 9.39955 10.7258 9.2076 10.5338C9.01565 10.3419 8.75531 10.234 8.48386 10.234ZM11.5544 9.21051C11.283 9.21051 11.0227 9.31835 10.8307 9.5103C10.6388 9.70225 10.5309 9.96258 10.5309 10.234V16.3752C10.5309 16.6467 10.6388 16.907 10.8307 17.099C11.0227 17.2909 11.283 17.3987 11.5544 17.3987C11.8259 17.3987 12.0862 17.2909 12.2782 17.099C12.4701 16.907 12.578 16.6467 12.578 16.3752V12.6291C12.8902 12.277 13.4173 11.8635 14.0038 11.6127C14.3446 11.4674 14.8574 11.408 15.2136 11.5206C15.3317 11.5506 15.437 11.6181 15.5135 11.713C15.5667 11.7847 15.6486 11.9444 15.6486 12.2811V16.3752C15.6486 16.6467 15.7564 16.907 15.9483 17.099C16.1403 17.2909 16.4006 17.3987 16.6721 17.3987C16.9436 17.3987 17.2039 17.2909 17.3958 17.099C17.5878 16.907 17.6956 16.6467 17.6956 16.3752V12.2811C17.6956 11.5953 17.5216 10.9853 17.1593 10.4961C16.8259 10.0524 16.3593 9.72711 15.8277 9.56772C14.9045 9.27807 13.882 9.43876 13.1993 9.73149C12.9805 9.82511 12.7676 9.93174 12.5616 10.0508C12.5187 9.815 12.3944 9.6017 12.2103 9.44814C12.0263 9.29457 11.7942 9.21048 11.5544 9.21051ZM8.48386 7.16345C8.2124 7.16345 7.95206 7.27129 7.76011 7.46324C7.56816 7.65519 7.46033 7.91553 7.46033 8.18698C7.46033 8.45844 7.56816 8.71878 7.76011 8.91073C7.95206 9.10268 8.2124 9.21051 8.48386 9.21051C8.75531 9.21051 9.01565 9.10268 9.2076 8.91073C9.39955 8.71878 9.50739 8.45844 9.50739 8.18698C9.50739 7.91553 9.39955 7.65519 9.2076 7.46324C9.01565 7.27129 8.75531 7.16345 8.48386 7.16345Z" fill="white"/>
</g>
<defs>
<clipPath id="clip0_78_2038">
<rect width="24.5647" height="24.5647" fill="white" transform="translate(0.293945)"/>
</clipPath>
</defs>
</svg>
