<svg width="25" height="25" viewBox="0 0 25 25" fill="none" xmlns="http://www.w3.org/2000/svg">
<path d="M17.4256 5.95667C16.7259 5.15793 16.3403 4.13215 16.3406 3.07031H13.1779V15.7621C13.1535 16.4489 12.8636 17.0994 12.3691 17.5767C11.8746 18.054 11.2142 18.3208 10.527 18.3209C9.07358 18.3209 7.86581 17.1336 7.86581 15.6597C7.86581 13.8993 9.56487 12.5789 11.3151 13.1214V9.88702C7.78393 9.41619 4.69287 12.1593 4.69287 15.6597C4.69287 19.0681 7.51781 21.4938 10.5168 21.4938C13.7306 21.4938 16.3406 18.8838 16.3406 15.6597V9.22172C17.6231 10.1427 19.1629 10.6369 20.7418 10.6342V7.47149C20.7418 7.47149 18.8176 7.56361 17.4256 5.95667Z" fill="white"/>
</svg>
