<svg width="26" height="25" viewBox="0 0 26 25" fill="none" xmlns="http://www.w3.org/2000/svg">
<path d="M12.728 22.2768C11.51 22.2768 10.6973 21.7016 9.97165 21.195C9.45579 20.8296 8.97268 20.4826 8.40258 20.3864C8.13114 20.3397 7.8561 20.3171 7.58068 20.3188C7.09758 20.3188 6.71375 20.3915 6.44047 20.4468C6.26647 20.4775 6.12113 20.5061 6.00649 20.5061C5.88776 20.5061 5.73731 20.4734 5.67896 20.2728C5.62779 20.109 5.59606 19.9534 5.56433 19.803C5.48245 19.4243 5.41387 19.1919 5.2716 19.1684C3.74756 18.936 2.8356 18.585 2.65751 18.1694C2.64318 18.1244 2.62578 18.0773 2.62578 18.0415C2.61554 17.9146 2.70766 17.8091 2.8356 17.7856C4.04439 17.586 5.13035 16.9422 6.04743 15.8839C6.75981 15.062 7.10679 14.2677 7.13852 14.1817C7.13852 14.1715 7.14773 14.1715 7.14773 14.1715C7.32173 13.8123 7.35755 13.5062 7.25213 13.2555C7.05561 12.7846 6.40772 12.584 5.96555 12.4469C5.85194 12.4162 5.75573 12.3793 5.67385 12.3517C5.29514 12.2012 4.66465 11.8809 4.74755 11.4387C4.80692 11.1193 5.23066 10.8911 5.57764 10.8911C5.67385 10.8911 5.75573 10.9054 5.82328 10.9423C6.21222 11.1193 6.56329 11.2104 6.86421 11.2104C7.23882 11.2104 7.41692 11.0692 7.46195 11.0242C7.45243 10.8217 7.44048 10.6194 7.42613 10.4172C7.33401 9.02009 7.22961 7.28623 7.67178 6.29238C9.00032 3.31698 11.8201 3.0785 12.6553 3.0785L13.0197 3.07031H13.0709C13.9051 3.07031 16.7249 3.30265 18.0534 6.28317C18.5007 7.27702 18.3912 9.01599 18.2991 10.408L18.2899 10.4766C18.2817 10.6629 18.2674 10.8409 18.2592 11.0242C18.3042 11.06 18.468 11.1971 18.8057 11.2012C19.0985 11.193 19.4178 11.0968 19.7822 10.932C19.8831 10.8885 19.9916 10.8655 20.1015 10.8645C20.2295 10.8645 20.3574 10.8952 20.4669 10.932H20.4761C20.7822 11.0467 20.9828 11.2606 20.9828 11.4847C20.992 11.6946 20.8272 12.0139 20.0473 12.3292C19.9654 12.3599 19.8692 12.3977 19.7556 12.4243C19.3216 12.5574 18.6737 12.7672 18.468 13.2329C18.3544 13.4786 18.3994 13.7938 18.5734 14.15C18.5734 14.1582 18.5826 14.1582 18.5826 14.1582C18.6328 14.2861 19.9511 17.28 22.8855 17.7682C22.9455 17.7783 22.9998 17.8098 23.0384 17.8568C23.0769 17.9039 23.0972 17.9633 23.0953 18.0241C23.096 18.0701 23.0851 18.1155 23.0636 18.1561C22.8855 18.5758 21.9817 18.9176 20.4485 19.1551C20.3072 19.1776 20.2387 19.411 20.1568 19.7897C20.1243 19.9475 20.0864 20.1042 20.0432 20.2595C19.9971 20.4099 19.9009 20.4918 19.7361 20.4918H19.7146C19.5687 20.4889 19.4234 20.4721 19.2806 20.4417C18.9055 20.3617 18.523 20.3219 18.1394 20.3229C17.8644 20.3236 17.5899 20.3465 17.3185 20.3915C16.7525 20.4836 16.2643 20.8347 15.7484 21.2001C15.0136 21.7016 14.1968 22.2768 12.988 22.2768H12.728Z" fill="white"/>
</svg>
