<svg width="35" height="36" viewBox="0 0 35 36" fill="none" xmlns="http://www.w3.org/2000/svg">
<path d="M5.52515 13.6791C4.49355 14.2375 1.78875 15.3777 3.43615 16.8045C4.2409 17.5015 5.13717 18 6.26401 18H12.694C13.8208 18 14.7171 17.5015 15.5219 16.8045C17.1693 15.3777 14.4645 14.2375 13.4329 13.6791C11.0138 12.3696 7.94424 12.3696 5.52515 13.6791Z" stroke="#ED3237" stroke-width="2.5625"/>
<path d="M12.7603 6.73105C12.7603 8.56154 11.2912 10.0454 9.479 10.0454C7.66682 10.0454 6.19775 8.56154 6.19775 6.73105C6.19775 4.90056 7.66682 3.41666 9.479 3.41666C11.2912 3.41666 12.7603 4.90056 12.7603 6.73105Z" stroke="#ED3237" stroke-width="2.5625"/>
<path d="M5.83301 22.375C5.83301 27.2125 9.74551 31.125 14.583 31.125L13.333 28.625" stroke="#ED3237" stroke-width="2.5625" stroke-linecap="round" stroke-linejoin="round"/>
<path d="M29.1665 13.625C29.1665 8.7875 25.254 4.875 20.4165 4.875L21.6665 7.375" stroke="#ED3237" stroke-width="2.5625" stroke-linecap="round" stroke-linejoin="round"/>
<path d="M21.5667 28.2624C20.5351 28.8208 17.8303 29.9611 19.4777 31.3879C20.2824 32.0849 21.1787 32.5833 22.3055 32.5833H28.7355C29.8623 32.5833 30.7586 32.0849 31.5634 31.3879C33.2108 29.9611 30.506 28.8208 29.4744 28.2624C27.0553 26.9529 23.9857 26.9529 21.5667 28.2624Z" stroke="#ED3237" stroke-width="2.5625"/>
<path d="M28.8018 21.3144C28.8018 23.1449 27.3327 24.6288 25.5205 24.6288C23.7083 24.6288 22.2393 23.1449 22.2393 21.3144C22.2393 19.4839 23.7083 18 25.5205 18C27.3327 18 28.8018 19.4839 28.8018 21.3144Z" stroke="#ED3237" stroke-width="2.5625"/>
</svg>
