<svg width="645" height="63" viewBox="0 0 645 63" fill="none" xmlns="http://www.w3.org/2000/svg">
<mask id="path-1-outside-1_205_522" maskUnits="userSpaceOnUse" x="-1" y="-1" width="647" height="65" fill="black">
<rect fill="white" x="-1" y="-1" width="647" height="65"/>
<path d="M0.0160003 50V5.2H21.008C26.384 5.2 30.48 6.26666 33.296 8.4C36.112 10.4907 37.52 13.3067 37.52 16.848C37.52 19.2373 36.9653 21.2853 35.856 22.992C34.7467 24.656 33.2533 25.9573 31.376 26.896C29.5413 27.792 27.536 28.24 25.36 28.24L26.512 25.936C29.0293 25.936 31.2907 26.4053 33.296 27.344C35.3013 28.24 36.88 29.5627 38.032 31.312C39.2267 33.0613 39.824 35.2373 39.824 37.84C39.824 41.68 38.352 44.6667 35.408 46.8C32.464 48.9333 28.0907 50 22.288 50H0.0160003ZM8.336 43.472H21.776C24.8907 43.472 27.28 42.96 28.944 41.936C30.608 40.912 31.44 39.2693 31.44 37.008C31.44 34.7893 30.608 33.168 28.944 32.144C27.28 31.0773 24.8907 30.544 21.776 30.544H7.696V24.08H20.112C23.0133 24.08 25.232 23.568 26.768 22.544C28.3467 21.52 29.136 19.984 29.136 17.936C29.136 15.8453 28.3467 14.288 26.768 13.264C25.232 12.24 23.0133 11.728 20.112 11.728H8.336V43.472ZM47.9355 50V15.824H55.5515V25.232L54.6555 22.48C55.6795 20.176 57.2795 18.4267 59.4555 17.232C61.6742 16.0373 64.4262 15.44 67.7115 15.44V23.056C67.3702 22.9707 67.0502 22.928 66.7515 22.928C66.4528 22.8853 66.1542 22.864 65.8555 22.864C62.8262 22.864 60.4155 23.76 58.6235 25.552C56.8315 27.3013 55.9355 29.9253 55.9355 33.424V50H47.9355ZM93.1165 50V43.088L92.6685 41.616V29.52C92.6685 27.1733 91.9645 25.36 90.5565 24.08C89.1485 22.7573 87.0152 22.096 84.1565 22.096C82.2365 22.096 80.3378 22.3947 78.4605 22.992C76.6258 23.5893 75.0685 24.4213 73.7885 25.488L70.6525 19.664C72.4872 18.256 74.6632 17.2107 77.1805 16.528C79.7405 15.8027 82.3858 15.44 85.1165 15.44C90.0658 15.44 93.8845 16.6347 96.5725 19.024C99.3032 21.3707 100.669 25.0187 100.669 29.968V50H93.1165ZM82.3645 50.448C79.8045 50.448 77.5645 50.0213 75.6445 49.168C73.7245 48.272 72.2312 47.056 71.1645 45.52C70.1405 43.9413 69.6285 42.1707 69.6285 40.208C69.6285 38.288 70.0765 36.56 70.9725 35.024C71.9112 33.488 73.4258 32.272 75.5165 31.376C77.6072 30.48 80.3805 30.032 83.8365 30.032H93.7565V35.344H84.4125C81.6818 35.344 79.8472 35.792 78.9085 36.688C77.9698 37.5413 77.5005 38.608 77.5005 39.888C77.5005 41.3387 78.0765 42.4907 79.2285 43.344C80.3805 44.1973 81.9805 44.624 84.0285 44.624C85.9912 44.624 87.7405 44.176 89.2765 43.28C90.8552 42.384 91.9858 41.0613 92.6685 39.312L94.0125 44.112C93.2445 46.1173 91.8578 47.6747 89.8525 48.784C87.8898 49.8933 85.3938 50.448 82.3645 50.448ZM130.328 15.44C133.058 15.44 135.49 15.9733 137.624 17.04C139.8 18.1067 141.506 19.7493 142.744 21.968C143.981 24.144 144.6 26.96 144.6 30.416V50H136.6V31.44C136.6 28.4107 135.874 26.1493 134.424 24.656C133.016 23.1627 131.032 22.416 128.472 22.416C126.594 22.416 124.93 22.8 123.48 23.568C122.029 24.336 120.898 25.488 120.088 27.024C119.32 28.5173 118.936 30.416 118.936 32.72V50H110.936V15.824H118.552V25.04L117.208 22.224C118.402 20.048 120.13 18.384 122.392 17.232C124.696 16.0373 127.341 15.44 130.328 15.44ZM169.275 50.448C165.989 50.448 163.024 49.7227 160.379 48.272C157.776 46.7787 155.728 44.7307 154.235 42.128C152.741 39.5253 151.995 36.4533 151.995 32.912C151.995 29.3707 152.741 26.2987 154.235 23.696C155.728 21.0933 157.776 19.0667 160.379 17.616C163.024 16.1653 165.989 15.44 169.275 15.44C172.133 15.44 174.693 16.08 176.955 17.36C179.216 18.5973 181.008 20.496 182.331 23.056C183.653 25.616 184.315 28.9013 184.315 32.912C184.315 36.88 183.675 40.1653 182.395 42.768C181.115 45.328 179.344 47.248 177.083 48.528C174.821 49.808 172.219 50.448 169.275 50.448ZM170.235 43.6C172.155 43.6 173.861 43.1733 175.355 42.32C176.891 41.4667 178.107 40.2293 179.003 38.608C179.941 36.9867 180.411 35.088 180.411 32.912C180.411 30.6933 179.941 28.7947 179.003 27.216C178.107 25.5947 176.891 24.3573 175.355 23.504C173.861 22.6507 172.155 22.224 170.235 22.224C168.315 22.224 166.587 22.6507 165.051 23.504C163.557 24.3573 162.341 25.5947 161.403 27.216C160.507 28.7947 160.059 30.6933 160.059 32.912C160.059 35.088 160.507 36.9867 161.403 38.608C162.341 40.2293 163.557 41.4667 165.051 42.32C166.587 43.1733 168.315 43.6 170.235 43.6ZM180.603 50V41.936L180.923 32.848L180.283 23.76V2.512H188.219V50H180.603ZM198.748 50V15.824H206.748V50H198.748ZM202.78 10.192C201.287 10.192 200.049 9.72266 199.068 8.784C198.129 7.84533 197.66 6.71467 197.66 5.392C197.66 4.02666 198.129 2.896 199.068 2C200.049 1.06133 201.287 0.591999 202.78 0.591999C204.273 0.591999 205.489 1.04 206.428 1.936C207.409 2.78933 207.9 3.87733 207.9 5.2C207.9 6.608 207.431 7.80266 206.492 8.784C205.553 9.72266 204.316 10.192 202.78 10.192ZM236.64 15.44C239.371 15.44 241.803 15.9733 243.936 17.04C246.112 18.1067 247.819 19.7493 249.056 21.968C250.293 24.144 250.912 26.96 250.912 30.416V50H242.912V31.44C242.912 28.4107 242.187 26.1493 240.736 24.656C239.328 23.1627 237.344 22.416 234.784 22.416C232.907 22.416 231.243 22.8 229.792 23.568C228.341 24.336 227.211 25.488 226.4 27.024C225.632 28.5173 225.248 30.416 225.248 32.72V50H217.248V15.824H224.864V25.04L223.52 22.224C224.715 20.048 226.443 18.384 228.704 17.232C231.008 16.0373 233.653 15.44 236.64 15.44ZM276.611 62.864C273.454 62.864 270.36 62.4373 267.331 61.584C264.344 60.7733 261.891 59.5787 259.971 58L263.555 51.984C265.048 53.2213 266.926 54.2027 269.187 54.928C271.491 55.696 273.816 56.08 276.163 56.08C279.918 56.08 282.67 55.2053 284.419 53.456C286.168 51.7493 287.043 49.168 287.043 45.712V39.632L287.683 31.888L287.427 24.144V15.824H295.043V44.816C295.043 51.0027 293.464 55.5467 290.307 58.448C287.15 61.392 282.584 62.864 276.611 62.864ZM275.587 48.464C272.344 48.464 269.4 47.7813 266.755 46.416C264.152 45.008 262.083 43.0667 260.547 40.592C259.054 38.1173 258.307 35.216 258.307 31.888C258.307 28.6027 259.054 25.7227 260.547 23.248C262.083 20.7733 264.152 18.8533 266.755 17.488C269.4 16.1227 272.344 15.44 275.587 15.44C278.488 15.44 281.091 16.016 283.395 17.168C285.699 18.32 287.534 20.112 288.899 22.544C290.307 24.976 291.011 28.0907 291.011 31.888C291.011 35.6853 290.307 38.8213 288.899 41.296C287.534 43.728 285.699 45.5413 283.395 46.736C281.091 47.888 278.488 48.464 275.587 48.464ZM276.803 41.68C278.808 41.68 280.6 41.2747 282.179 40.464C283.758 39.6107 284.974 38.4587 285.827 37.008C286.723 35.5147 287.171 33.808 287.171 31.888C287.171 29.968 286.723 28.2827 285.827 26.832C284.974 25.3387 283.758 24.208 282.179 23.44C280.6 22.6293 278.808 22.224 276.803 22.224C274.798 22.224 272.984 22.6293 271.363 23.44C269.784 24.208 268.547 25.3387 267.651 26.832C266.798 28.2827 266.371 29.968 266.371 31.888C266.371 33.808 266.798 35.5147 267.651 37.008C268.547 38.4587 269.784 39.6107 271.363 40.464C272.984 41.2747 274.798 41.68 276.803 41.68ZM336.944 50.64C333.829 50.64 331.035 50.128 328.56 49.104C326.085 48.08 324.144 46.672 322.736 44.88C321.328 43.088 320.624 41.0187 320.624 38.672C320.624 36.5387 321.093 34.6187 322.032 32.912C322.971 31.2053 324.464 29.584 326.512 28.048C328.56 26.4693 331.184 24.8907 334.384 23.312C336.901 22.0747 338.864 20.9867 340.272 20.048C341.723 19.1093 342.725 18.2133 343.28 17.36C343.877 16.5067 344.176 15.6107 344.176 14.672C344.176 13.392 343.728 12.368 342.832 11.6C341.936 10.7893 340.656 10.384 338.992 10.384C337.2 10.384 335.792 10.832 334.768 11.728C333.787 12.5813 333.296 13.712 333.296 15.12C333.296 15.8453 333.424 16.5493 333.68 17.232C333.979 17.9147 334.491 18.6827 335.216 19.536C335.941 20.3893 336.987 21.4773 338.352 22.8L362.032 45.52L357.616 50.704L332.016 26.128C330.565 24.72 329.392 23.4187 328.496 22.224C327.6 21.0293 326.96 19.8773 326.576 18.768C326.192 17.616 326 16.4427 326 15.248C326 13.1573 326.533 11.3227 327.6 9.744C328.667 8.12266 330.181 6.88533 332.144 6.032C334.107 5.136 336.389 4.688 338.992 4.688C341.424 4.688 343.515 5.09333 345.264 5.904C347.056 6.672 348.443 7.80267 349.424 9.296C350.448 10.7467 350.96 12.496 350.96 14.544C350.96 16.336 350.512 18 349.616 19.536C348.72 21.0293 347.312 22.4587 345.392 23.824C343.515 25.1893 340.997 26.6187 337.84 28.112C335.493 29.264 333.637 30.352 332.272 31.376C330.907 32.4 329.925 33.424 329.328 34.448C328.731 35.472 328.432 36.6027 328.432 37.84C328.432 39.0773 328.795 40.1653 329.52 41.104C330.288 42.0427 331.355 42.7893 332.72 43.344C334.085 43.856 335.685 44.112 337.52 44.112C340.251 44.112 342.725 43.5147 344.944 42.32C347.205 41.0827 349.104 39.248 350.64 36.816C352.176 34.384 353.285 31.376 353.968 27.792L360.432 29.904C359.536 34.2133 357.979 37.9253 355.76 41.04C353.584 44.112 350.896 46.48 347.696 48.144C344.496 49.808 340.912 50.64 336.944 50.64ZM386.891 50V5.2H406.475C411.339 5.2 415.606 6.13866 419.275 8.016C422.944 9.89333 425.803 12.496 427.851 15.824C429.899 19.152 430.923 23.0773 430.923 27.6C430.923 32.08 429.899 36.0053 427.851 39.376C425.803 42.704 422.944 45.3067 419.275 47.184C415.606 49.0613 411.339 50 406.475 50H386.891ZM395.211 42.96H406.091C409.462 42.96 412.363 42.32 414.795 41.04C417.27 39.76 419.168 37.968 420.491 35.664C421.856 33.36 422.539 30.672 422.539 27.6C422.539 24.4853 421.856 21.7973 420.491 19.536C419.168 17.232 417.27 15.44 414.795 14.16C412.363 12.88 409.462 12.24 406.091 12.24H395.211V42.96ZM455.062 50.448C451.265 50.448 447.937 49.7013 445.078 48.208C442.262 46.672 440.065 44.5813 438.486 41.936C436.95 39.2907 436.182 36.2827 436.182 32.912C436.182 29.4987 436.929 26.4907 438.422 23.888C439.958 21.2427 442.049 19.1733 444.694 17.68C447.382 16.1867 450.433 15.44 453.846 15.44C457.174 15.44 460.139 16.1653 462.742 17.616C465.345 19.0667 467.393 21.1147 468.886 23.76C470.379 26.4053 471.126 29.52 471.126 33.104C471.126 33.4453 471.105 33.8293 471.062 34.256C471.062 34.6827 471.041 35.088 470.998 35.472H442.518V30.16H466.774L463.638 31.824C463.681 29.8613 463.275 28.1333 462.422 26.64C461.569 25.1467 460.395 23.9733 458.902 23.12C457.451 22.2667 455.766 21.84 453.846 21.84C451.883 21.84 450.155 22.2667 448.662 23.12C447.211 23.9733 446.059 25.168 445.206 26.704C444.395 28.1973 443.99 29.968 443.99 32.016V33.296C443.99 35.344 444.459 37.1573 445.398 38.736C446.337 40.3147 447.659 41.5307 449.366 42.384C451.073 43.2373 453.035 43.664 455.254 43.664C457.174 43.664 458.902 43.3653 460.438 42.768C461.974 42.1707 463.339 41.232 464.534 39.952L468.822 44.88C467.286 46.672 465.345 48.0587 462.998 49.04C460.694 49.9787 458.049 50.448 455.062 50.448ZM489.371 50.448C486.512 50.448 483.76 50.0853 481.115 49.36C478.512 48.592 476.443 47.6747 474.907 46.608L477.979 40.528C479.515 41.5093 481.349 42.32 483.483 42.96C485.616 43.6 487.749 43.92 489.883 43.92C492.4 43.92 494.213 43.5787 495.323 42.896C496.475 42.2133 497.051 41.296 497.051 40.144C497.051 39.2053 496.667 38.5013 495.899 38.032C495.131 37.52 494.128 37.136 492.891 36.88C491.653 36.624 490.267 36.3893 488.731 36.176C487.237 35.9627 485.723 35.6853 484.187 35.344C482.693 34.96 481.328 34.4267 480.091 33.744C478.853 33.0187 477.851 32.0587 477.083 30.864C476.315 29.6693 475.931 28.0907 475.931 26.128C475.931 23.952 476.549 22.0747 477.786 20.496C479.024 18.8747 480.752 17.6373 482.97 16.784C485.232 15.888 487.899 15.44 490.971 15.44C493.275 15.44 495.6 15.696 497.947 16.208C500.293 16.72 502.235 17.4453 503.771 18.384L500.699 24.464C499.077 23.4827 497.435 22.8213 495.771 22.48C494.149 22.096 492.528 21.904 490.907 21.904C488.475 21.904 486.661 22.2667 485.467 22.992C484.315 23.7173 483.739 24.6347 483.739 25.744C483.739 26.768 484.123 27.536 484.891 28.048C485.659 28.56 486.661 28.9653 487.899 29.264C489.136 29.5627 490.501 29.8187 491.995 30.032C493.531 30.2027 495.045 30.48 496.539 30.864C498.032 31.248 499.397 31.7813 500.635 32.464C501.915 33.104 502.939 34.0213 503.707 35.216C504.475 36.4107 504.859 37.968 504.859 39.888C504.859 42.0213 504.219 43.8773 502.939 45.456C501.701 47.0347 499.931 48.272 497.627 49.168C495.323 50.0213 492.571 50.448 489.371 50.448ZM511.748 50V15.824H519.748V50H511.748ZM515.78 10.192C514.287 10.192 513.049 9.72266 512.068 8.784C511.129 7.84533 510.66 6.71467 510.66 5.392C510.66 4.02666 511.129 2.896 512.068 2C513.049 1.06133 514.287 0.591999 515.78 0.591999C517.273 0.591999 518.489 1.04 519.428 1.936C520.409 2.78933 520.9 3.87733 520.9 5.2C520.9 6.608 520.431 7.80266 519.492 8.784C518.553 9.72266 517.316 10.192 515.78 10.192ZM545.736 62.864C542.579 62.864 539.485 62.4373 536.456 61.584C533.469 60.7733 531.016 59.5787 529.096 58L532.68 51.984C534.173 53.2213 536.051 54.2027 538.312 54.928C540.616 55.696 542.941 56.08 545.288 56.08C549.043 56.08 551.795 55.2053 553.544 53.456C555.293 51.7493 556.168 49.168 556.168 45.712V39.632L556.808 31.888L556.552 24.144V15.824H564.168V44.816C564.168 51.0027 562.589 55.5467 559.432 58.448C556.275 61.392 551.709 62.864 545.736 62.864ZM544.712 48.464C541.469 48.464 538.525 47.7813 535.88 46.416C533.277 45.008 531.208 43.0667 529.672 40.592C528.179 38.1173 527.432 35.216 527.432 31.888C527.432 28.6027 528.179 25.7227 529.672 23.248C531.208 20.7733 533.277 18.8533 535.88 17.488C538.525 16.1227 541.469 15.44 544.712 15.44C547.613 15.44 550.216 16.016 552.52 17.168C554.824 18.32 556.659 20.112 558.024 22.544C559.432 24.976 560.136 28.0907 560.136 31.888C560.136 35.6853 559.432 38.8213 558.024 41.296C556.659 43.728 554.824 45.5413 552.52 46.736C550.216 47.888 547.613 48.464 544.712 48.464ZM545.928 41.68C547.933 41.68 549.725 41.2747 551.304 40.464C552.883 39.6107 554.099 38.4587 554.952 37.008C555.848 35.5147 556.296 33.808 556.296 31.888C556.296 29.968 555.848 28.2827 554.952 26.832C554.099 25.3387 552.883 24.208 551.304 23.44C549.725 22.6293 547.933 22.224 545.928 22.224C543.923 22.224 542.109 22.6293 540.488 23.44C538.909 24.208 537.672 25.3387 536.776 26.832C535.923 28.2827 535.496 29.968 535.496 31.888C535.496 33.808 535.923 35.5147 536.776 37.008C537.672 38.4587 538.909 39.6107 540.488 40.464C542.109 41.2747 543.923 41.68 545.928 41.68ZM594.078 15.44C596.808 15.44 599.24 15.9733 601.374 17.04C603.55 18.1067 605.256 19.7493 606.494 21.968C607.731 24.144 608.35 26.96 608.35 30.416V50H600.35V31.44C600.35 28.4107 599.624 26.1493 598.174 24.656C596.766 23.1627 594.782 22.416 592.222 22.416C590.344 22.416 588.68 22.8 587.23 23.568C585.779 24.336 584.648 25.488 583.838 27.024C583.07 28.5173 582.686 30.416 582.686 32.72V50H574.686V15.824H582.302V25.04L580.958 22.224C582.152 20.048 583.88 18.384 586.142 17.232C588.446 16.0373 591.091 15.44 594.078 15.44ZM629.058 50.448C626.199 50.448 623.447 50.0853 620.802 49.36C618.199 48.592 616.13 47.6747 614.594 46.608L617.666 40.528C619.202 41.5093 621.037 42.32 623.17 42.96C625.303 43.6 627.437 43.92 629.57 43.92C632.087 43.92 633.901 43.5787 635.01 42.896C636.162 42.2133 636.738 41.296 636.738 40.144C636.738 39.2053 636.354 38.5013 635.586 38.032C634.818 37.52 633.815 37.136 632.578 36.88C631.341 36.624 629.954 36.3893 628.418 36.176C626.925 35.9627 625.41 35.6853 623.874 35.344C622.381 34.96 621.015 34.4267 619.778 33.744C618.541 33.0187 617.538 32.0587 616.77 30.864C616.002 29.6693 615.618 28.0907 615.618 26.128C615.618 23.952 616.237 22.0747 617.474 20.496C618.711 18.8747 620.439 17.6373 622.658 16.784C624.919 15.888 627.586 15.44 630.658 15.44C632.962 15.44 635.287 15.696 637.634 16.208C639.981 16.72 641.922 17.4453 643.458 18.384L640.386 24.464C638.765 23.4827 637.122 22.8213 635.458 22.48C633.837 22.096 632.215 21.904 630.594 21.904C628.162 21.904 626.349 22.2667 625.154 22.992C624.002 23.7173 623.426 24.6347 623.426 25.744C623.426 26.768 623.81 27.536 624.578 28.048C625.346 28.56 626.349 28.9653 627.586 29.264C628.823 29.5627 630.189 29.8187 631.682 30.032C633.218 30.2027 634.733 30.48 636.226 30.864C637.719 31.248 639.085 31.7813 640.322 32.464C641.602 33.104 642.626 34.0213 643.394 35.216C644.162 36.4107 644.546 37.968 644.546 39.888C644.546 42.0213 643.906 43.8773 642.626 45.456C641.389 47.0347 639.618 48.272 637.314 49.168C635.01 50.0213 632.258 50.448 629.058 50.448Z"/>
</mask>
<path d="M0.0160003 50H-0.984V51H0.0160003V50ZM0.0160003 5.2V4.2H-0.984V5.2H0.0160003ZM33.296 8.4L32.6921 9.19713L32.6999 9.20291L33.296 8.4ZM35.856 22.992L36.6881 23.5467L36.6944 23.537L35.856 22.992ZM31.376 26.896L31.8149 27.7946L31.8232 27.7904L31.376 26.896ZM25.36 28.24L24.4656 27.7928L23.742 29.24H25.36V28.24ZM26.512 25.936V24.936H25.894L25.6176 25.4888L26.512 25.936ZM33.296 27.344L32.8721 28.2497L32.88 28.2534L32.8881 28.257L33.296 27.344ZM38.032 31.312L37.1968 31.862L37.2015 31.869L37.2062 31.876L38.032 31.312ZM8.336 43.472H7.336V44.472H8.336V43.472ZM28.944 41.936L28.4199 41.0843L28.4199 41.0843L28.944 41.936ZM28.944 32.144L28.4043 32.9859L28.4121 32.9908L28.4199 32.9957L28.944 32.144ZM7.696 30.544H6.696V31.544H7.696V30.544ZM7.696 24.08V23.08H6.696V24.08H7.696ZM26.768 22.544L26.2238 21.705L26.2133 21.7119L26.768 22.544ZM26.768 13.264L26.2133 14.0961L26.2238 14.103L26.768 13.264ZM8.336 11.728V10.728H7.336V11.728H8.336ZM1.016 50V5.2H-0.984V50H1.016ZM0.0160003 6.2H21.008V4.2H0.0160003V6.2ZM21.008 6.2C26.2736 6.2 30.1197 7.24823 32.6921 9.19709L33.8999 7.60291C30.8404 5.2851 26.4944 4.2 21.008 4.2V6.2ZM32.6999 9.20291C35.2589 11.1028 36.52 13.6195 36.52 16.848H38.52C38.52 12.9938 36.9651 9.87856 33.8921 7.59709L32.6999 9.20291ZM36.52 16.848C36.52 19.0781 36.0042 20.9291 35.0176 22.447L36.6944 23.537C37.9265 21.6416 38.52 19.3965 38.52 16.848H36.52ZM35.024 22.4373C34.016 23.9492 32.6585 25.1367 30.9288 26.0016L31.8232 27.7904C33.8482 26.7779 35.4773 25.3628 36.6881 23.5467L35.024 22.4373ZM30.9372 25.9974C29.2481 26.8223 27.3941 27.24 25.36 27.24V29.24C27.6779 29.24 29.8346 28.7617 31.8148 27.7946L30.9372 25.9974ZM26.2544 28.6872L27.4064 26.3832L25.6176 25.4888L24.4656 27.7928L26.2544 28.6872ZM26.512 26.936C28.9029 26.936 31.0165 27.3811 32.8721 28.2497L33.7199 26.4383C31.5648 25.4295 29.1558 24.936 26.512 24.936V26.936ZM32.8881 28.257C34.7282 29.0792 36.1549 30.2799 37.1968 31.862L38.8672 30.762C37.6051 28.8455 35.8745 27.4008 33.7039 26.431L32.8881 28.257ZM37.2062 31.876C38.2637 33.4245 38.824 35.3921 38.824 37.84H40.824C40.824 35.0826 40.1896 32.6982 38.8578 30.748L37.2062 31.876ZM38.824 37.84C38.824 41.3806 37.489 44.0571 34.8212 45.9903L35.9948 47.6097C39.215 45.2762 40.824 41.9794 40.824 37.84H38.824ZM34.8212 45.9903C32.1225 47.9459 27.9959 49 22.288 49V51C28.1854 51 32.8055 49.9208 35.9948 47.6097L34.8212 45.9903ZM22.288 49H0.0160003V51H22.288V49ZM8.336 44.472H21.776V42.472H8.336V44.472ZM21.776 44.472C24.9758 44.472 27.5789 43.9503 29.4681 42.7877L28.4199 41.0843C26.9811 41.9697 24.8055 42.472 21.776 42.472V44.472ZM29.4681 42.7877C31.4789 41.5502 32.44 39.5521 32.44 37.008H30.44C30.44 38.9866 29.7371 40.2738 28.4199 41.0843L29.4681 42.7877ZM32.44 37.008C32.44 34.4979 31.4725 32.5258 29.4681 31.2923L28.4199 32.9957C29.7435 33.8102 30.44 35.0807 30.44 37.008H32.44ZM29.4837 31.3021C27.5907 30.0887 24.981 29.544 21.776 29.544V31.544C24.8003 31.544 26.9693 32.066 28.4043 32.9859L29.4837 31.3021ZM21.776 29.544H7.696V31.544H21.776V29.544ZM8.696 30.544V24.08H6.696V30.544H8.696ZM7.696 25.08H20.112V23.08H7.696V25.08ZM20.112 25.08C23.1068 25.08 25.5532 24.5557 27.3227 23.376L26.2133 21.7119C24.9108 22.5803 22.9198 23.08 20.112 23.08V25.08ZM27.3122 23.383C29.2038 22.156 30.136 20.2872 30.136 17.936H28.136C28.136 19.6808 27.4896 20.884 26.2238 21.705L27.3122 23.383ZM30.136 17.936C30.136 15.551 29.2105 13.6564 27.3122 12.425L26.2238 14.103C27.4828 14.9196 28.136 16.1397 28.136 17.936H30.136ZM27.3227 12.432C25.5532 11.2523 23.1068 10.728 20.112 10.728V12.728C22.9198 12.728 24.9108 13.2277 26.2133 14.096L27.3227 12.432ZM20.112 10.728H8.336V12.728H20.112V10.728ZM7.336 11.728V43.472H9.336V11.728H7.336ZM47.9355 50H46.9355V51H47.9355V50ZM47.9355 15.824V14.824H46.9355V15.824H47.9355ZM55.5515 15.824H56.5515V14.824H55.5515V15.824ZM55.5515 25.232L54.6006 25.5416L56.5515 25.232H55.5515ZM54.6555 22.48L53.7417 22.0739L53.5858 22.4246L53.7046 22.7896L54.6555 22.48ZM59.4555 17.232L58.9814 16.3515L58.9742 16.3554L59.4555 17.232ZM67.7115 15.44H68.7115V14.44H67.7115V15.44ZM67.7115 23.056L67.469 24.0261L68.7115 24.3368V23.056H67.7115ZM66.7515 22.928L66.6101 23.9179L66.6804 23.928H66.7515V22.928ZM58.6235 25.552L59.3221 26.2676L59.3306 26.2591L58.6235 25.552ZM55.9355 50V51H56.9355V50H55.9355ZM48.9355 50V15.824H46.9355V50H48.9355ZM47.9355 16.824H55.5515V14.824H47.9355V16.824ZM54.5515 15.824V25.232H56.5515V15.824H54.5515ZM56.5024 24.9224L55.6064 22.1704L53.7046 22.7896L54.6006 25.5416L56.5024 24.9224ZM55.5693 22.8861C56.506 20.7787 57.9557 19.1962 59.9368 18.1086L58.9742 16.3554C56.6033 17.6571 54.853 19.5733 53.7417 22.0739L55.5693 22.8861ZM59.9296 18.1125C61.965 17.0165 64.543 16.44 67.7115 16.44V14.44C64.3094 14.44 61.3834 15.0582 58.9814 16.3515L59.9296 18.1125ZM66.7115 15.44V23.056H68.7115V15.44H66.7115ZM67.954 22.0859C67.547 21.9841 67.1449 21.928 66.7515 21.928V23.928C66.9554 23.928 67.1933 23.9572 67.469 24.0261L67.954 22.0859ZM66.8929 21.9381C66.5479 21.8888 66.202 21.864 65.8555 21.864V23.864C66.1064 23.864 66.3578 23.8819 66.6101 23.9179L66.8929 21.9381ZM65.8555 21.864C62.6165 21.864 59.9318 22.8294 57.9164 24.8449L59.3306 26.2591C60.8992 24.6906 63.0359 23.864 65.8555 23.864V21.864ZM57.925 24.8364C55.8741 26.8385 54.9355 29.765 54.9355 33.424H56.9355C56.9355 30.0857 57.7889 27.7642 59.322 26.2676L57.925 24.8364ZM54.9355 33.424V50H56.9355V33.424H54.9355ZM55.9355 49H47.9355V51H55.9355V49ZM93.1165 50H92.1165V51H93.1165V50ZM93.1165 43.088H94.1165V42.9392L94.0732 42.7968L93.1165 43.088ZM92.6685 41.616H91.6685V41.7648L91.7118 41.9072L92.6685 41.616ZM90.5565 24.08L89.8718 24.8088L89.8778 24.8144L89.8838 24.8199L90.5565 24.08ZM78.4605 22.992L78.1573 22.0391L78.1509 22.0411L78.4605 22.992ZM73.7885 25.488L72.908 25.9621L73.4883 27.0398L74.4287 26.2562L73.7885 25.488ZM70.6525 19.664L70.0437 18.8707L69.3686 19.3888L69.772 20.1381L70.6525 19.664ZM77.1805 16.528L77.4422 17.4932L77.4531 17.4901L77.1805 16.528ZM96.5725 19.024L95.9081 19.7714L95.9144 19.777L95.9207 19.7824L96.5725 19.024ZM100.669 50V51H101.669V50H100.669ZM75.6445 49.168L75.2216 50.0742L75.23 50.0781L75.2384 50.0818L75.6445 49.168ZM71.1645 45.52L70.3255 46.0642L70.3341 46.0774L70.3431 46.0904L71.1645 45.52ZM70.9725 35.024L70.1192 34.5025L70.1139 34.5113L70.1087 34.5201L70.9725 35.024ZM75.5165 31.376L75.9104 32.2951L75.9104 32.2951L75.5165 31.376ZM93.7565 30.032H94.7565V29.032H93.7565V30.032ZM93.7565 35.344V36.344H94.7565V35.344H93.7565ZM78.9085 36.688L79.5812 37.4279L79.5902 37.4198L79.599 37.4114L78.9085 36.688ZM79.2285 43.344L78.6333 44.1476L78.6333 44.1476L79.2285 43.344ZM89.2765 43.28L88.7829 42.4103L88.7726 42.4162L89.2765 43.28ZM92.6685 39.312L93.6315 39.0424L92.8247 36.161L91.7369 38.9485L92.6685 39.312ZM94.0125 44.112L94.9464 44.4696L95.0646 44.1608L94.9755 43.8424L94.0125 44.112ZM89.8525 48.784L89.3684 47.9089L89.3604 47.9134L89.8525 48.784ZM94.1165 50V43.088H92.1165V50H94.1165ZM94.0732 42.7968L93.6252 41.3248L91.7118 41.9072L92.1598 43.3792L94.0732 42.7968ZM93.6685 41.616V29.52H91.6685V41.616H93.6685ZM93.6685 29.52C93.6685 26.9624 92.8928 24.8525 91.2292 23.3401L89.8838 24.8199C91.0362 25.8675 91.6685 27.3843 91.6685 29.52H93.6685ZM91.2412 23.3511C89.5756 21.7865 87.1494 21.096 84.1565 21.096V23.096C86.8809 23.096 88.7214 23.7281 89.8718 24.8088L91.2412 23.3511ZM84.1565 21.096C82.1309 21.096 80.1301 21.4114 78.1573 22.0391L78.7637 23.9449C80.5456 23.378 82.3421 23.096 84.1565 23.096V21.096ZM78.1509 22.0411C76.2143 22.6717 74.5401 23.56 73.1483 24.7198L74.4287 26.2562C75.5969 25.2827 77.0374 24.507 78.7701 23.9429L78.1509 22.0411ZM74.669 25.0139L71.533 19.1899L69.772 20.1381L72.908 25.9621L74.669 25.0139ZM71.2613 20.4573C72.9802 19.1382 75.0347 18.146 77.4422 17.4931L76.9188 15.5629C74.2917 16.2753 71.9941 17.3738 70.0437 18.8707L71.2613 20.4573ZM77.4531 17.4901C79.9221 16.7906 82.4756 16.44 85.1165 16.44V14.44C82.2961 14.44 79.5589 14.8148 76.9079 15.5659L77.4531 17.4901ZM85.1165 16.44C89.9134 16.44 93.4622 17.5972 95.9081 19.7714L97.2369 18.2766C94.3068 15.6721 90.2183 14.44 85.1165 14.44V16.44ZM95.9207 19.7824C98.3563 21.8755 99.6685 25.1958 99.6685 29.968H101.669C101.669 24.8415 100.25 20.8659 97.2243 18.2656L95.9207 19.7824ZM99.6685 29.968V50H101.669V29.968H99.6685ZM100.669 49H93.1165V51H100.669V49ZM82.3645 49.448C79.9145 49.448 77.818 49.0397 76.0506 48.2542L75.2384 50.0818C77.311 51.003 79.6945 51.448 82.3645 51.448V49.448ZM76.0674 48.2618C74.2858 47.4304 72.9389 46.3219 71.9859 44.9496L70.3431 46.0904C71.5235 47.7901 73.1632 49.1136 75.2216 50.0742L76.0674 48.2618ZM72.0035 44.9758C71.0892 43.5664 70.6285 41.9863 70.6285 40.208H68.6285C68.6285 42.3551 69.1918 44.3163 70.3255 46.0642L72.0035 44.9758ZM70.6285 40.208C70.6285 38.4505 71.0366 36.8988 71.8363 35.5279L70.1087 34.5201C69.1164 36.2212 68.6285 38.1255 68.6285 40.208H70.6285ZM71.8258 35.5454C72.6308 34.2282 73.9599 33.1311 75.9104 32.2951L75.1226 30.4569C72.8918 31.4129 71.1916 32.7478 70.1192 34.5025L71.8258 35.5454ZM75.9104 32.2951C77.8292 31.4728 80.4525 31.032 83.8365 31.032V29.032C80.3085 29.032 77.3852 29.4872 75.1226 30.4569L75.9104 32.2951ZM83.8365 31.032H93.7565V29.032H83.8365V31.032ZM92.7565 30.032V35.344H94.7565V30.032H92.7565ZM93.7565 34.344H84.4125V36.344H93.7565V34.344ZM84.4125 34.344C82.9994 34.344 81.7723 34.4592 80.7513 34.7085C79.7363 34.9564 78.859 35.3528 78.218 35.9646L79.599 37.4114C79.8967 37.1272 80.406 36.8516 81.2257 36.6515C82.0394 36.4528 83.095 36.344 84.4125 36.344V34.344ZM78.2358 35.9481C77.0866 36.9929 76.5005 38.3292 76.5005 39.888H78.5005C78.5005 38.8868 78.8531 38.0898 79.5812 37.4279L78.2358 35.9481ZM76.5005 39.888C76.5005 41.6511 77.2231 43.103 78.6333 44.1476L79.8237 42.5404C78.9299 41.8783 78.5005 41.0263 78.5005 39.888H76.5005ZM78.6333 44.1476C80.0173 45.1728 81.855 45.624 84.0285 45.624V43.624C82.106 43.624 80.7437 43.2219 79.8237 42.5404L78.6333 44.1476ZM84.0285 45.624C86.1494 45.624 88.0759 45.138 89.7804 44.1438L88.7726 42.4162C87.4051 43.214 85.833 43.624 84.0285 43.624V45.624ZM89.7701 44.1497C91.5559 43.1361 92.837 41.6309 93.6001 39.6755L91.7369 38.9485C91.1347 40.4918 90.1544 41.6319 88.7829 42.4103L89.7701 44.1497ZM91.7055 39.5816L93.0495 44.3816L94.9755 43.8424L93.6315 39.0424L91.7055 39.5816ZM93.0786 43.7544C92.4009 45.5241 91.1825 46.9054 89.3684 47.909L90.3366 49.659C92.5331 48.4439 94.0881 46.7105 94.9464 44.4696L93.0786 43.7544ZM89.3604 47.9134C87.5908 48.9137 85.2784 49.448 82.3645 49.448V51.448C85.5092 51.448 88.1889 50.873 90.3446 49.6546L89.3604 47.9134ZM137.624 17.04L137.176 17.9345L137.183 17.9379L137.624 17.04ZM142.744 21.968L141.87 22.4551L141.874 22.4623L142.744 21.968ZM144.6 50V51H145.6V50H144.6ZM136.6 50H135.6V51H136.6V50ZM134.424 24.656L133.696 25.342L133.701 25.3474L133.706 25.3528L134.424 24.656ZM123.48 23.568L123.947 24.4518L123.947 24.4518L123.48 23.568ZM120.088 27.024L119.203 26.5572L119.198 26.5667L120.088 27.024ZM118.936 50V51H119.936V50H118.936ZM110.936 50H109.936V51H110.936V50ZM110.936 15.824V14.824H109.936V15.824H110.936ZM118.552 15.824H119.552V14.824H118.552V15.824ZM118.552 25.04L117.649 25.4707L119.552 25.04H118.552ZM117.208 22.224L116.331 21.7427L116.084 22.1921L116.305 22.6547L117.208 22.224ZM122.392 17.232L122.845 18.1231L122.852 18.1198L122.392 17.232ZM130.328 16.44C132.926 16.44 135.201 16.9466 137.176 17.9344L138.071 16.1456C135.78 15 133.191 14.44 130.328 14.44V16.44ZM137.183 17.9379C139.167 18.9105 140.727 20.4052 141.87 22.4551L143.617 21.4809C142.285 19.0935 140.432 17.3029 138.064 16.1421L137.183 17.9379ZM141.874 22.4623C142.999 24.441 143.6 27.0704 143.6 30.416H145.6C145.6 26.8496 144.962 23.847 143.613 21.4737L141.874 22.4623ZM143.6 30.416V50H145.6V30.416H143.6ZM144.6 49H136.6V51H144.6V49ZM137.6 50V31.44H135.6V50H137.6ZM137.6 31.44C137.6 28.2684 136.841 25.7094 135.141 23.9592L133.706 25.3528C134.907 26.5892 135.6 28.553 135.6 31.44H137.6ZM135.151 23.97C133.509 22.2289 131.234 21.416 128.472 21.416V23.416C130.829 23.416 132.522 24.0964 133.696 25.342L135.151 23.97ZM128.472 21.416C126.455 21.416 124.626 21.8296 123.012 22.6842L123.947 24.4518C125.234 23.7704 126.734 23.416 128.472 23.416V21.416ZM123.012 22.6842C121.373 23.5518 120.102 24.8544 119.203 26.5572L120.972 27.4908C121.695 26.1216 122.685 25.1202 123.947 24.4518L123.012 22.6842ZM119.198 26.5667C118.336 28.2441 117.936 30.313 117.936 32.72H119.936C119.936 30.519 120.303 28.7905 120.977 27.4813L119.198 26.5667ZM117.936 32.72V50H119.936V32.72H117.936ZM118.936 49H110.936V51H118.936V49ZM111.936 50V15.824H109.936V50H111.936ZM110.936 16.824H118.552V14.824H110.936V16.824ZM117.552 15.824V25.04H119.552V15.824H117.552ZM119.454 24.6093L118.11 21.7933L116.305 22.6547L117.649 25.4707L119.454 24.6093ZM118.084 22.7053C119.18 20.7093 120.759 19.1861 122.845 18.123L121.938 16.341C119.502 17.5819 117.624 19.3867 116.331 21.7427L118.084 22.7053ZM122.852 18.1198C124.993 17.0093 127.477 16.44 130.328 16.44V14.44C127.205 14.44 124.398 15.0654 121.931 16.3442L122.852 18.1198ZM160.379 48.272L159.881 49.1394L159.889 49.1442L159.898 49.1488L160.379 48.272ZM154.235 42.128L155.102 41.6303L154.235 42.128ZM154.235 23.696L155.102 24.1937L155.102 24.1937L154.235 23.696ZM160.379 17.616L159.898 16.7392L159.892 16.7425L160.379 17.616ZM176.955 17.36L176.462 18.2303L176.468 18.2338L176.474 18.2373L176.955 17.36ZM182.331 23.056L181.442 23.515L181.442 23.515L182.331 23.056ZM182.395 42.768L183.289 43.2152L183.292 43.2093L182.395 42.768ZM177.083 48.528L176.59 47.6577L177.083 48.528ZM175.355 42.32L174.869 41.4458L174.858 41.4518L175.355 42.32ZM179.003 38.608L178.137 38.107L178.132 38.1156L178.127 38.1243L179.003 38.608ZM179.003 27.216L178.127 27.6997L178.135 27.7135L178.143 27.7271L179.003 27.216ZM175.355 23.504L174.858 24.3723L174.869 24.3782L175.355 23.504ZM165.051 23.504L164.565 22.6298L164.554 22.6358L165.051 23.504ZM161.403 27.216L160.537 26.7149L160.533 26.7224L161.403 27.216ZM161.403 38.608L160.527 39.0917L160.532 39.1004L160.537 39.109L161.403 38.608ZM165.051 42.32L164.554 43.1883L164.565 43.1942L165.051 42.32ZM180.603 50H179.603V51H180.603V50ZM180.603 41.936L179.603 41.9008L179.603 41.9184V41.936H180.603ZM180.923 32.848L181.922 32.8832L181.924 32.8304L181.92 32.7778L180.923 32.848ZM180.283 23.76H179.283V23.7952L179.285 23.8302L180.283 23.76ZM180.283 2.512V1.512H179.283V2.512H180.283ZM188.219 2.512H189.219V1.512H188.219V2.512ZM188.219 50V51H189.219V50H188.219ZM169.275 49.448C166.142 49.448 163.344 48.758 160.859 47.3952L159.898 49.1488C162.703 50.6874 165.836 51.448 169.275 51.448V49.448ZM160.876 47.4046C158.427 45.9996 156.507 44.0792 155.102 41.6303L153.367 42.6257C154.949 45.3822 157.124 47.5578 159.881 49.1394L160.876 47.4046ZM155.102 41.6303C153.71 39.2044 152.995 36.3103 152.995 32.912H150.995C150.995 36.5963 151.772 39.8463 153.367 42.6257L155.102 41.6303ZM152.995 32.912C152.995 29.5136 153.71 26.6196 155.102 24.1937L153.367 23.1983C151.772 25.9777 150.995 29.2277 150.995 32.912H152.995ZM155.102 24.1937C156.506 21.7473 158.422 19.8511 160.865 18.4895L159.892 16.7425C157.129 18.2822 154.95 20.4393 153.367 23.1983L155.102 24.1937ZM160.859 18.4928C163.344 17.13 166.142 16.44 169.275 16.44V14.44C165.836 14.44 162.703 15.2006 159.898 16.7392L160.859 18.4928ZM169.275 16.44C171.978 16.44 174.366 17.0436 176.462 18.2303L177.447 16.4897C175.021 15.1164 172.288 14.44 169.275 14.44V16.44ZM176.474 18.2373C178.541 19.3679 180.2 21.1104 181.442 23.515L183.219 22.597C181.816 19.8816 179.891 17.8268 177.435 16.4827L176.474 18.2373ZM181.442 23.515C182.668 25.8886 183.315 29.002 183.315 32.912H185.315C185.315 28.8007 184.638 25.3434 183.219 22.597L181.442 23.515ZM183.315 32.912C183.315 36.7803 182.689 39.9023 181.497 42.3267L183.292 43.2093C184.66 40.4284 185.315 36.9797 185.315 32.912H183.315ZM181.5 42.3208C180.3 44.7218 178.661 46.4855 176.59 47.6577L177.575 49.3983C180.027 48.0105 181.929 45.9342 183.289 43.2152L181.5 42.3208ZM176.59 47.6577C174.498 48.8419 172.069 49.448 169.275 49.448V51.448C172.368 51.448 175.144 50.7741 177.575 49.3983L176.59 47.6577ZM170.235 44.6C172.308 44.6 174.189 44.1376 175.851 43.1882L174.858 41.4518C173.533 42.209 172.001 42.6 170.235 42.6V44.6ZM175.84 43.1942C177.549 42.2447 178.896 40.8678 179.878 39.0917L178.127 38.1243C177.317 39.5909 176.232 40.6886 174.869 41.4458L175.84 43.1942ZM179.868 39.109C180.908 37.3124 181.411 35.2352 181.411 32.912H179.411C179.411 34.9408 178.974 36.661 178.137 38.107L179.868 39.109ZM181.411 32.912C181.411 30.5509 180.91 28.4675 179.862 26.7049L178.143 27.7271C178.972 29.1218 179.411 30.8358 179.411 32.912H181.411ZM179.878 26.7323C178.896 24.9562 177.549 23.5793 175.84 22.6298L174.869 24.3782C176.232 25.1354 177.317 26.2331 178.127 27.6997L179.878 26.7323ZM175.851 22.6358C174.189 21.6864 172.308 21.224 170.235 21.224V23.224C172.001 23.224 173.533 23.615 174.858 24.3722L175.851 22.6358ZM170.235 21.224C168.161 21.224 166.263 21.6865 164.565 22.6298L165.536 24.3782C166.91 23.6149 168.468 23.224 170.235 23.224V21.224ZM164.554 22.6358C162.894 23.5845 161.556 24.9548 160.537 26.715L162.268 27.717C163.126 26.2345 164.22 25.1302 165.547 24.3722L164.554 22.6358ZM160.533 26.7224C159.534 28.4816 159.059 30.5585 159.059 32.912H161.059C161.059 30.8282 161.479 29.1077 162.272 27.7096L160.533 26.7224ZM159.059 32.912C159.059 35.2275 159.536 37.2983 160.527 39.0917L162.278 38.1243C161.477 36.675 161.059 34.9485 161.059 32.912H159.059ZM160.537 39.109C161.556 40.8692 162.894 42.2395 164.554 43.1882L165.547 41.4518C164.22 40.6938 163.126 39.5895 162.268 38.107L160.537 39.109ZM164.565 43.1942C166.263 44.1375 168.161 44.6 170.235 44.6V42.6C168.468 42.6 166.91 42.2091 165.536 41.4458L164.565 43.1942ZM181.603 50V41.936H179.603V50H181.603ZM181.602 41.9712L181.922 32.8832L179.923 32.8128L179.603 41.9008L181.602 41.9712ZM181.92 32.7778L181.28 23.6897L179.285 23.8302L179.925 32.9182L181.92 32.7778ZM181.283 23.76V2.512H179.283V23.76H181.283ZM180.283 3.512H188.219V1.512H180.283V3.512ZM187.219 2.512V50H189.219V2.512H187.219ZM188.219 49H180.603V51H188.219V49ZM198.748 50H197.748V51H198.748V50ZM198.748 15.824V14.824H197.748V15.824H198.748ZM206.748 15.824H207.748V14.824H206.748V15.824ZM206.748 50V51H207.748V50H206.748ZM199.068 8.784L198.361 9.4911L198.369 9.49896L198.377 9.50664L199.068 8.784ZM199.068 2L199.758 2.72335L199.759 2.72264L199.068 2ZM206.428 1.936L205.738 2.65935L205.754 2.67538L205.772 2.6906L206.428 1.936ZM206.492 8.784L207.199 9.4911L207.207 9.48325L207.215 9.47522L206.492 8.784ZM199.748 50V15.824H197.748V50H199.748ZM198.748 16.824H206.748V14.824H198.748V16.824ZM205.748 15.824V50H207.748V15.824H205.748ZM206.748 49H198.748V51H206.748V49ZM202.78 9.192C201.516 9.192 200.535 8.80355 199.759 8.06135L198.377 9.50664C199.564 10.6418 201.057 11.192 202.78 11.192V9.192ZM199.775 8.07689C199.023 7.32499 198.66 6.44837 198.66 5.392H196.66C196.66 6.98097 197.235 8.36567 198.361 9.4911L199.775 8.07689ZM198.66 5.392C198.66 4.28398 199.029 3.41991 199.758 2.72335L198.378 1.27664C197.23 2.37209 196.66 3.76935 196.66 5.392H198.66ZM199.759 2.72264C200.535 1.98044 201.516 1.592 202.78 1.592V-0.408001C201.057 -0.408001 199.564 0.142218 198.377 1.27735L199.759 2.72264ZM202.78 1.592C204.058 1.592 205.013 1.9678 205.738 2.65935L207.118 1.21264C205.966 0.112202 204.489 -0.408001 202.78 -0.408001V1.592ZM205.772 2.6906C206.53 3.35032 206.9 4.1611 206.9 5.2H208.9C208.9 3.59357 208.288 2.22834 207.084 1.18139L205.772 2.6906ZM206.9 5.2C206.9 6.36099 206.523 7.305 205.769 8.09277L207.215 9.47522C208.338 8.30032 208.9 6.855 208.9 5.2H206.9ZM205.785 8.07689C205.063 8.79837 204.096 9.192 202.78 9.192V11.192C204.536 11.192 206.043 10.647 207.199 9.4911L205.785 8.07689ZM243.936 17.04L243.489 17.9345L243.496 17.9379L243.936 17.04ZM249.056 21.968L248.183 22.4551L248.187 22.4623L249.056 21.968ZM250.912 50V51H251.912V50H250.912ZM242.912 50H241.912V51H242.912V50ZM240.736 24.656L240.008 25.342L240.014 25.3474L240.019 25.3528L240.736 24.656ZM229.792 23.568L230.26 24.4518L230.26 24.4518L229.792 23.568ZM226.4 27.024L225.516 26.5572L225.511 26.5667L226.4 27.024ZM225.248 50V51H226.248V50H225.248ZM217.248 50H216.248V51H217.248V50ZM217.248 15.824V14.824H216.248V15.824H217.248ZM224.864 15.824H225.864V14.824H224.864V15.824ZM224.864 25.04L223.962 25.4707L225.864 25.04H224.864ZM223.52 22.224L222.643 21.7427L222.397 22.1921L222.618 22.6547L223.52 22.224ZM228.704 17.232L229.158 18.1231L229.164 18.1198L228.704 17.232ZM236.64 16.44C239.238 16.44 241.513 16.9466 243.489 17.9344L244.383 16.1456C242.092 15 239.503 14.44 236.64 14.44V16.44ZM243.496 17.9379C245.48 18.9105 247.039 20.4052 248.183 22.4551L249.929 21.4809C248.598 19.0935 246.744 17.3029 244.376 16.1421L243.496 17.9379ZM248.187 22.4623C249.312 24.441 249.912 27.0704 249.912 30.416H251.912C251.912 26.8496 251.275 23.847 249.925 21.4737L248.187 22.4623ZM249.912 30.416V50H251.912V30.416H249.912ZM250.912 49H242.912V51H250.912V49ZM243.912 50V31.44H241.912V50H243.912ZM243.912 31.44C243.912 28.2684 243.153 25.7094 241.453 23.9592L240.019 25.3528C241.22 26.5892 241.912 28.553 241.912 31.44H243.912ZM241.464 23.97C239.822 22.2289 237.547 21.416 234.784 21.416V23.416C237.141 23.416 238.834 24.0964 240.008 25.342L241.464 23.97ZM234.784 21.416C232.767 21.416 230.938 21.8296 229.324 22.6842L230.26 24.4518C231.547 23.7704 233.046 23.416 234.784 23.416V21.416ZM229.324 22.6842C227.685 23.5518 226.414 24.8544 225.516 26.5572L227.284 27.4908C228.007 26.1216 228.997 25.1202 230.26 24.4518L229.324 22.6842ZM225.511 26.5667C224.648 28.2441 224.248 30.313 224.248 32.72H226.248C226.248 30.519 226.616 28.7905 227.289 27.4813L225.511 26.5667ZM224.248 32.72V50H226.248V32.72H224.248ZM225.248 49H217.248V51H225.248V49ZM218.248 50V15.824H216.248V50H218.248ZM217.248 16.824H224.864V14.824H217.248V16.824ZM223.864 15.824V25.04H225.864V15.824H223.864ZM225.766 24.6093L224.422 21.7933L222.618 22.6547L223.962 25.4707L225.766 24.6093ZM224.397 22.7053C225.492 20.7093 227.071 19.1861 229.158 18.123L228.25 16.341C225.814 17.5819 223.937 19.3867 222.643 21.7427L224.397 22.7053ZM229.164 18.1198C231.306 17.0093 233.789 16.44 236.64 16.44V14.44C233.517 14.44 230.71 15.0654 228.244 16.3442L229.164 18.1198ZM267.331 61.584L267.602 60.6214L267.593 60.6189L267.331 61.584ZM259.971 58L259.112 57.4882L258.672 58.2266L259.336 58.7724L259.971 58ZM263.555 51.984L264.193 51.214L263.294 50.4688L262.696 51.4722L263.555 51.984ZM269.187 54.928L269.503 53.9793L269.492 53.9758L269.187 54.928ZM284.419 53.456L283.721 52.7402L283.712 52.7489L284.419 53.456ZM287.043 39.632L286.046 39.5496L286.043 39.5907V39.632H287.043ZM287.683 31.888L288.68 31.9704L288.684 31.9127L288.682 31.855L287.683 31.888ZM287.427 24.144H286.427V24.1605L286.428 24.177L287.427 24.144ZM287.427 15.824V14.824H286.427V15.824H287.427ZM295.043 15.824H296.043V14.824H295.043V15.824ZM290.307 58.448L289.63 57.7117L289.625 57.7166L290.307 58.448ZM266.755 46.416L266.279 47.2955L266.288 47.3002L266.296 47.3046L266.755 46.416ZM260.547 40.592L259.691 41.1087L259.697 41.1194L260.547 40.592ZM260.547 23.248L259.697 22.7206L259.691 22.7313L260.547 23.248ZM266.755 17.488L266.296 16.5994L266.29 16.6025L266.755 17.488ZM283.395 17.168L282.948 18.0624L282.948 18.0624L283.395 17.168ZM288.899 22.544L288.027 23.0336L288.034 23.045L288.899 22.544ZM288.899 41.296L288.03 40.8015L288.027 40.8065L288.899 41.296ZM283.395 46.736L283.842 47.6304L283.849 47.6271L283.855 47.6238L283.395 46.736ZM282.179 40.464L282.636 41.3536L282.645 41.3487L282.655 41.3437L282.179 40.464ZM285.827 37.008L284.969 36.4935L284.965 36.501L285.827 37.008ZM285.827 26.832L284.959 27.3281L284.967 27.343L284.976 27.3575L285.827 26.832ZM282.179 23.44L281.722 24.3296L281.732 24.3345L281.742 24.3392L282.179 23.44ZM271.363 23.44L271.8 24.3393L271.81 24.3344L271.363 23.44ZM267.651 26.832L266.793 26.3175L266.789 26.325L267.651 26.832ZM267.651 37.008L266.783 37.5041L266.791 37.519L266.8 37.5335L267.651 37.008ZM271.363 40.464L270.887 41.3437L270.902 41.3513L270.916 41.3584L271.363 40.464ZM276.611 61.864C273.545 61.864 270.543 61.4499 267.602 60.6215L267.06 62.5465C270.178 63.4248 273.362 63.864 276.611 63.864V61.864ZM267.593 60.6189C264.71 59.8365 262.393 58.6971 260.606 57.2276L259.336 58.7724C261.389 60.4602 263.978 61.7102 267.069 62.5491L267.593 60.6189ZM260.83 58.5118L264.414 52.4958L262.696 51.4722L259.112 57.4882L260.83 58.5118ZM262.917 52.754C264.528 54.0888 266.525 55.1244 268.882 55.8802L269.492 53.9758C267.326 53.2809 265.569 52.3539 264.193 51.214L262.917 52.754ZM268.871 55.8767C271.273 56.6775 273.705 57.08 276.163 57.08V55.08C273.928 55.08 271.709 54.7145 269.503 53.9793L268.871 55.8767ZM276.163 57.08C280.048 57.08 283.112 56.1777 285.126 54.1631L283.712 52.7489C282.228 54.233 279.787 55.08 276.163 55.08V57.08ZM285.117 54.1718C287.128 52.2103 288.043 49.3242 288.043 45.712H286.043C286.043 49.0118 285.209 51.2884 283.721 52.7402L285.117 54.1718ZM288.043 45.712V39.632H286.043V45.712H288.043ZM288.04 39.7144L288.68 31.9704L286.686 31.8056L286.046 39.5496L288.04 39.7144ZM288.682 31.855L288.426 24.111L286.428 24.177L286.684 31.921L288.682 31.855ZM288.427 24.144V15.824H286.427V24.144H288.427ZM287.427 16.824H295.043V14.824H287.427V16.824ZM294.043 15.824V44.816H296.043V15.824H294.043ZM294.043 44.816C294.043 50.8488 292.504 55.0708 289.63 57.7117L290.984 59.1843C294.424 56.0225 296.043 51.1565 296.043 44.816H294.043ZM289.625 57.7166C286.714 60.4311 282.429 61.864 276.611 61.864V63.864C282.739 63.864 287.586 62.3529 290.989 59.1794L289.625 57.7166ZM275.587 47.464C272.489 47.464 269.705 46.8131 267.214 45.5274L266.296 47.3046C269.096 48.7495 272.199 49.464 275.587 49.464V47.464ZM267.231 45.5365C264.779 44.2099 262.839 42.3889 261.397 40.0646L259.697 41.1194C261.327 43.7444 263.526 45.8061 266.279 47.2955L267.231 45.5365ZM261.403 40.0753C260.017 37.779 259.307 35.062 259.307 31.888H257.307C257.307 35.37 258.09 38.4557 259.691 41.1087L261.403 40.0753ZM259.307 31.888C259.307 28.7593 260.016 26.063 261.403 23.7647L259.691 22.7313C258.091 25.3823 257.307 28.446 257.307 31.888H259.307ZM261.397 23.7754C262.838 21.4538 264.773 19.6568 267.22 18.3735L266.29 16.6025C263.531 18.0499 261.328 20.0929 259.697 22.7206L261.397 23.7754ZM267.214 18.3766C269.705 17.0909 272.489 16.44 275.587 16.44V14.44C272.199 14.44 269.096 15.1545 266.296 16.5994L267.214 18.3766ZM275.587 16.44C278.353 16.44 280.799 16.9882 282.948 18.0624L283.842 16.2736C281.383 15.0438 278.624 14.44 275.587 14.44V16.44ZM282.948 18.0624C285.058 19.1175 286.751 20.7608 288.027 23.0335L289.771 22.0545C288.316 19.4632 286.34 17.5225 283.842 16.2736L282.948 18.0624ZM288.034 23.045C289.328 25.2804 290.011 28.2071 290.011 31.888H292.011C292.011 27.9742 291.286 24.6716 289.764 22.043L288.034 23.045ZM290.011 31.888C290.011 35.5678 289.328 38.5196 288.03 40.8015L289.768 41.7905C291.286 39.1231 292.011 35.8029 292.011 31.888H290.011ZM288.027 40.8065C286.75 43.0817 285.053 44.7501 282.935 45.8482L283.855 47.6238C286.345 46.3326 288.318 44.3743 289.771 41.7855L288.027 40.8065ZM282.948 45.8416C280.799 46.9158 278.353 47.464 275.587 47.464V49.464C278.624 49.464 281.383 48.8602 283.842 47.6304L282.948 45.8416ZM276.803 42.68C278.946 42.68 280.898 42.2458 282.636 41.3536L281.722 39.5744C280.302 40.3036 278.67 40.68 276.803 40.68V42.68ZM282.655 41.3437C284.382 40.4097 285.737 39.1333 286.689 37.515L284.965 36.501C284.21 37.784 283.133 38.8117 281.703 39.5843L282.655 41.3437ZM286.684 37.5225C287.683 35.8581 288.171 33.9701 288.171 31.888H286.171C286.171 33.6459 285.763 35.1712 284.97 36.4935L286.684 37.5225ZM288.171 31.888C288.171 29.8064 287.683 27.9344 286.678 26.3065L284.976 27.3575C285.763 28.631 286.171 30.1296 286.171 31.888H288.171ZM286.695 26.3359C285.74 24.6641 284.372 23.3948 282.616 22.5408L281.742 24.3392C283.143 25.0212 284.207 26.0132 284.959 27.3281L286.695 26.3359ZM282.636 22.5504C280.898 21.6582 278.946 21.224 276.803 21.224V23.224C278.67 23.224 280.302 23.6004 281.722 24.3296L282.636 22.5504ZM276.803 21.224C274.659 21.224 272.69 21.6584 270.916 22.5456L271.81 24.3344C273.278 23.6003 274.936 23.224 276.803 23.224V21.224ZM270.926 22.5408C269.174 23.3929 267.79 24.6565 266.794 26.3175L268.508 27.3465C269.304 26.0208 270.395 25.0231 271.8 24.3392L270.926 22.5408ZM266.789 26.325C265.833 27.9499 265.371 29.8153 265.371 31.888H267.371C267.371 30.1207 267.762 28.6154 268.513 27.339L266.789 26.325ZM265.371 31.888C265.371 33.9613 265.833 35.8427 266.783 37.5041L268.519 36.5119C267.762 35.1866 267.371 33.6547 267.371 31.888H265.371ZM266.8 37.5335C267.793 39.1409 269.163 40.4117 270.887 41.3437L271.839 39.5843C270.405 38.8096 269.301 37.7764 268.502 36.4825L266.8 37.5335ZM270.916 41.3584C272.69 42.2456 274.659 42.68 276.803 42.68V40.68C274.936 40.68 273.278 40.3037 271.81 39.5696L270.916 41.3584ZM328.56 49.104L328.178 50.028L328.56 49.104ZM322.736 44.88L321.95 45.4978L321.95 45.4978L322.736 44.88ZM322.032 32.912L321.156 32.4301L321.156 32.4301L322.032 32.912ZM326.512 28.048L327.112 28.8481L327.123 28.84L326.512 28.048ZM334.384 23.312L333.943 22.4145L333.942 22.4152L334.384 23.312ZM340.272 20.048L339.729 19.2083L339.717 19.2159L340.272 20.048ZM343.28 17.36L342.461 16.7865L342.451 16.8006L342.442 16.815L343.28 17.36ZM342.832 11.6L342.161 12.3415L342.171 12.3505L342.181 12.3593L342.832 11.6ZM334.768 11.728L335.424 12.4826L335.427 12.4806L334.768 11.728ZM333.68 17.232L332.744 17.5831L332.753 17.6082L332.764 17.6328L333.68 17.232ZM335.216 19.536L335.978 18.8884L335.978 18.8884L335.216 19.536ZM338.352 22.8L337.656 23.5182L337.66 23.5216L338.352 22.8ZM362.032 45.52L362.793 46.1685L363.404 45.451L362.724 44.7984L362.032 45.52ZM357.616 50.704L356.923 51.4254L357.689 52.1603L358.377 51.3525L357.616 50.704ZM332.016 26.128L331.32 26.8456L331.323 26.8494L332.016 26.128ZM326.576 18.768L325.627 19.0842L325.631 19.0951L326.576 18.768ZM327.6 9.744L328.429 10.3039L328.435 10.2936L327.6 9.744ZM332.144 6.032L332.543 6.94907L332.551 6.94545L332.559 6.94169L332.144 6.032ZM345.264 5.904L344.844 6.81131L344.857 6.81742L344.87 6.82314L345.264 5.904ZM349.424 9.296L348.588 9.84518L348.597 9.85908L348.607 9.87268L349.424 9.296ZM349.616 19.536L350.474 20.0505L350.48 20.0399L349.616 19.536ZM345.392 23.824L344.812 23.009L344.804 23.0153L345.392 23.824ZM337.84 28.112L337.412 27.208L337.406 27.2111L337.399 27.2143L337.84 28.112ZM332.272 31.376L332.872 32.176L332.872 32.176L332.272 31.376ZM329.328 34.448L328.464 33.9441L328.464 33.9441L329.328 34.448ZM329.52 41.104L328.729 41.7154L328.737 41.7265L328.746 41.7372L329.52 41.104ZM332.72 43.344L332.344 44.2705L332.356 44.2756L332.369 44.2803L332.72 43.344ZM344.944 42.32L345.418 43.2005L345.424 43.1973L344.944 42.32ZM350.64 36.816L351.485 37.35L351.485 37.35L350.64 36.816ZM353.968 27.792L354.279 26.8415L353.198 26.4885L352.986 27.6049L353.968 27.792ZM360.432 29.904L361.411 30.1076L361.593 29.2314L360.743 28.9535L360.432 29.904ZM355.76 41.04L354.946 40.4598L354.944 40.462L355.76 41.04ZM347.696 48.144L347.235 47.2568L347.235 47.2568L347.696 48.144ZM336.944 49.64C333.939 49.64 331.278 49.1463 328.942 48.18L328.178 50.028C330.792 51.1097 333.719 51.64 336.944 51.64V49.64ZM328.942 48.18C326.598 47.2101 324.807 45.8972 323.522 44.2622L321.95 45.4978C323.481 47.4468 325.572 48.9499 328.178 50.028L328.942 48.18ZM323.522 44.2622C322.257 42.6519 321.624 40.8018 321.624 38.672H319.624C319.624 41.2355 320.399 43.5241 321.95 45.4978L323.522 44.2622ZM321.624 38.672C321.624 36.6907 322.058 34.9392 322.908 33.3939L321.156 32.4301C320.128 34.2982 319.624 36.3866 319.624 38.672H321.624ZM322.908 33.3939C323.761 31.8443 325.144 30.3244 327.112 28.848L325.912 27.248C323.784 28.8436 322.181 30.5664 321.156 32.4301L322.908 33.3939ZM327.123 28.84C329.103 27.3137 331.665 25.7684 334.826 24.2088L333.942 22.4152C330.703 24.013 328.017 25.625 325.901 27.256L327.123 28.84ZM334.825 24.2094C337.36 22.9636 339.366 21.8535 340.827 20.88L339.717 19.2159C338.362 20.1198 336.443 21.1857 333.943 22.4145L334.825 24.2094ZM340.815 20.8876C342.313 19.9186 343.452 18.931 344.118 17.905L342.442 16.815C341.999 17.4957 341.133 18.3001 339.729 19.2084L340.815 20.8876ZM344.099 17.9335C344.801 16.9313 345.176 15.8381 345.176 14.672H343.176C343.176 15.3832 342.954 16.082 342.461 16.7865L344.099 17.9335ZM345.176 14.672C345.176 13.128 344.621 11.8162 343.483 10.8407L342.181 12.3593C342.835 12.9198 343.176 13.656 343.176 14.672H345.176ZM343.503 10.8585C342.364 9.8276 340.81 9.384 338.992 9.384V11.384C340.502 11.384 341.508 11.7511 342.161 12.3415L343.503 10.8585ZM338.992 9.384C337.036 9.384 335.367 9.87505 334.109 10.9754L335.427 12.4806C336.217 11.7889 337.364 11.384 338.992 11.384V9.384ZM334.112 10.9734C332.892 12.0337 332.296 13.4496 332.296 15.12H334.296C334.296 13.9744 334.681 13.129 335.424 12.4826L334.112 10.9734ZM332.296 15.12C332.296 15.9659 332.446 16.7888 332.744 17.5831L334.616 16.8809C334.402 16.3099 334.296 15.7248 334.296 15.12H332.296ZM332.764 17.6328C333.116 18.4377 333.694 19.2894 334.454 20.1836L335.978 18.8884C335.287 18.0759 334.841 17.3917 334.596 16.8312L332.764 17.6328ZM334.454 20.1836C335.21 21.0727 336.281 22.1863 337.656 23.5182L339.048 22.0818C337.692 20.7684 336.673 19.706 335.978 18.8884L334.454 20.1836ZM337.66 23.5216L361.34 46.2416L362.724 44.7984L339.044 22.0784L337.66 23.5216ZM361.271 44.8715L356.855 50.0555L358.377 51.3525L362.793 46.1685L361.271 44.8715ZM358.309 49.9826L332.709 25.4066L331.323 26.8494L356.923 51.4254L358.309 49.9826ZM332.712 25.4104C331.287 24.027 330.152 22.7651 329.296 21.624L327.696 22.824C328.632 24.0722 329.844 25.413 331.32 26.8456L332.712 25.4104ZM329.296 21.624C328.446 20.4908 327.863 19.4298 327.521 18.4409L325.631 19.0951C326.057 20.3248 326.754 21.5679 327.696 22.824L329.296 21.624ZM327.525 18.4518C327.174 17.4 327 16.3334 327 15.248H325C325 16.5519 325.21 17.832 325.627 19.0842L327.525 18.4518ZM327 15.248C327 13.3366 327.484 11.7012 328.429 10.3039L326.771 9.18414C325.582 10.9442 325 12.9781 325 15.248H327ZM328.435 10.2936C329.384 8.85108 330.739 7.7332 332.543 6.94907L331.745 5.11493C329.623 6.03746 327.949 7.39425 326.765 9.19438L328.435 10.2936ZM332.559 6.94169C334.368 6.11618 336.504 5.688 338.992 5.688V3.688C336.275 3.688 333.846 4.15582 331.729 5.12231L332.559 6.94169ZM338.992 5.688C341.316 5.688 343.256 6.07548 344.844 6.81131L345.684 4.99669C343.774 4.11118 341.532 3.688 338.992 3.688V5.688ZM344.87 6.82314C346.499 7.52118 347.725 8.53076 348.588 9.84518L350.26 8.74682C349.161 7.07457 347.613 5.82281 345.658 4.98485L344.87 6.82314ZM348.607 9.87268C349.494 11.1297 349.96 12.6698 349.96 14.544H351.96C351.96 12.3222 351.402 10.3636 350.241 8.71931L348.607 9.87268ZM349.96 14.544C349.96 16.1604 349.558 17.6503 348.752 19.0321L350.48 20.0399C351.466 18.3497 351.96 16.5116 351.96 14.544H349.96ZM348.759 19.0215C347.954 20.3627 346.657 21.697 344.812 23.009L345.972 24.639C347.967 23.2203 349.486 21.6959 350.473 20.0505L348.759 19.0215ZM344.804 23.0153C342.995 24.3305 340.539 25.7294 337.412 27.208L338.268 29.016C341.456 27.5079 344.034 26.0481 345.98 24.6327L344.804 23.0153ZM337.399 27.2143C335.023 28.381 333.106 29.5004 331.672 30.576L332.872 32.176C334.168 31.2036 335.964 30.147 338.281 29.0097L337.399 27.2143ZM331.672 30.576C330.243 31.6477 329.152 32.7658 328.464 33.9441L330.192 34.9519C330.699 34.0822 331.57 33.1523 332.872 32.176L331.672 30.576ZM328.464 33.9441C327.774 35.1279 327.432 36.4337 327.432 37.84H329.432C329.432 36.7716 329.688 35.8161 330.192 34.9519L328.464 33.9441ZM327.432 37.84C327.432 39.2884 327.862 40.5937 328.729 41.7154L330.311 40.4926C329.727 39.7369 329.432 38.8663 329.432 37.84H327.432ZM328.746 41.7372C329.64 42.8304 330.856 43.6663 332.344 44.2705L333.096 42.4175C331.853 41.9124 330.936 41.2549 330.294 40.4708L328.746 41.7372ZM332.369 44.2803C333.871 44.8437 335.595 45.112 337.52 45.112V43.112C335.776 43.112 334.299 42.8683 333.071 42.4077L332.369 44.2803ZM337.52 45.112C340.402 45.112 343.042 44.4801 345.418 43.2005L344.47 41.4395C342.409 42.5493 340.099 43.112 337.52 43.112V45.112ZM345.424 43.1973C347.851 41.8693 349.87 39.9086 351.485 37.35L349.795 36.282C348.338 38.5874 346.56 40.2961 344.464 41.4427L345.424 43.1973ZM351.485 37.35C353.104 34.7877 354.25 31.6546 354.95 27.9791L352.986 27.6049C352.32 31.0974 351.248 33.9803 349.795 36.282L351.485 37.35ZM353.657 28.7425L360.121 30.8545L360.743 28.9535L354.279 26.8415L353.657 28.7425ZM359.453 29.7004C358.581 33.8945 357.073 37.4737 354.946 40.4598L356.574 41.6202C358.885 38.3769 360.491 34.5321 361.411 30.1076L359.453 29.7004ZM354.944 40.462C352.856 43.41 350.287 45.6694 347.235 47.2568L348.157 49.0312C351.505 47.2906 354.312 44.814 356.576 41.618L354.944 40.462ZM347.235 47.2568C344.191 48.8395 340.768 49.64 336.944 49.64V51.64C341.056 51.64 344.801 50.7765 348.157 49.0312L347.235 47.2568ZM386.891 50H385.891V51H386.891V50ZM386.891 5.2V4.2H385.891V5.2H386.891ZM419.275 8.016L418.82 8.90625L418.82 8.90625L419.275 8.016ZM427.851 15.824L426.999 16.3481L426.999 16.3481L427.851 15.824ZM427.851 39.376L428.703 39.9001L428.706 39.8953L427.851 39.376ZM395.211 42.96H394.211V43.96H395.211V42.96ZM414.795 41.04L414.336 40.1518L414.329 40.1551L414.795 41.04ZM420.491 35.664L419.631 35.1541L419.624 35.1661L420.491 35.664ZM420.491 19.536L419.624 20.0339L419.629 20.0434L419.635 20.0529L420.491 19.536ZM414.795 14.16L414.329 15.0449L414.336 15.0482L414.795 14.16ZM395.211 12.24V11.24H394.211V12.24H395.211ZM387.891 50V5.2H385.891V50H387.891ZM386.891 6.2H406.475V4.2H386.891V6.2ZM406.475 6.2C411.209 6.2 415.314 7.11297 418.82 8.90625L419.73 7.12575C415.897 5.16436 411.469 4.2 406.475 4.2V6.2ZM418.82 8.90625C422.335 10.7049 425.053 13.1848 426.999 16.3481L428.703 15.2999C426.553 11.8072 423.554 9.08176 419.73 7.12575L418.82 8.90625ZM426.999 16.3481C428.936 19.495 429.923 23.2327 429.923 27.6H431.923C431.923 22.9219 430.862 18.809 428.703 15.2999L426.999 16.3481ZM429.923 27.6C429.923 31.9223 428.937 35.663 426.996 38.8567L428.706 39.8953C430.861 36.3477 431.923 32.2377 431.923 27.6H429.923ZM426.999 38.8519C425.053 42.0152 422.335 44.4951 418.82 46.2938L419.73 48.0742C423.554 46.1182 426.553 43.3928 428.703 39.9001L426.999 38.8519ZM418.82 46.2938C415.314 48.087 411.209 49 406.475 49V51C411.469 51 415.897 50.0356 419.73 48.0742L418.82 46.2938ZM406.475 49H386.891V51H406.475V49ZM395.211 43.96H406.091V41.96H395.211V43.96ZM406.091 43.96C409.588 43.96 412.656 43.2958 415.261 41.9249L414.329 40.1551C412.07 41.3442 409.336 41.96 406.091 41.96V43.96ZM415.254 41.9282C417.891 40.5645 419.935 38.6408 421.358 36.1619L419.624 35.1661C418.401 37.2952 416.648 38.9555 414.336 40.1518L415.254 41.9282ZM421.351 36.1738C422.821 33.6939 423.539 30.8246 423.539 27.6H421.539C421.539 30.5194 420.892 33.0261 419.631 35.1542L421.351 36.1738ZM423.539 27.6C423.539 24.3361 422.822 21.4624 421.347 19.0191L419.635 20.0529C420.89 22.1322 421.539 24.6345 421.539 27.6H423.539ZM421.358 19.0381C419.935 16.5592 417.891 14.6355 415.254 13.2718L414.336 15.0482C416.648 16.2445 418.401 17.9048 419.624 20.0339L421.358 19.0381ZM415.261 13.2751C412.656 11.9042 409.588 11.24 406.091 11.24V13.24C409.336 13.24 412.07 13.8558 414.329 15.0449L415.261 13.2751ZM406.091 11.24H395.211V13.24H406.091V11.24ZM394.211 12.24V42.96H396.211V12.24H394.211ZM445.078 48.208L444.599 49.0859L444.607 49.0902L444.615 49.0943L445.078 48.208ZM438.486 41.936L437.621 42.4382L437.627 42.4485L438.486 41.936ZM438.422 23.888L437.557 23.3859L437.555 23.3903L438.422 23.888ZM444.694 17.68L444.208 16.8058L444.202 16.8092L444.694 17.68ZM462.742 17.616L463.229 16.7425L463.229 16.7425L462.742 17.616ZM471.062 34.256L470.067 34.1565L470.062 34.2061V34.256H471.062ZM470.998 35.472V36.472H471.893L471.992 35.5824L470.998 35.472ZM442.518 35.472H441.518V36.472H442.518V35.472ZM442.518 30.16V29.16H441.518V30.16H442.518ZM466.774 30.16L467.243 31.0433L466.774 29.16V30.16ZM463.638 31.824L462.638 31.8023L462.601 33.5062L464.107 32.7073L463.638 31.824ZM462.422 26.64L461.554 27.1361L461.554 27.1361L462.422 26.64ZM458.902 23.12L458.395 23.982L458.406 23.9882L458.902 23.12ZM448.662 23.12L448.166 22.2517L448.155 22.2581L448.662 23.12ZM445.206 26.704L444.332 26.2183L444.327 26.2269L445.206 26.704ZM449.366 42.384L448.919 43.2784L448.919 43.2784L449.366 42.384ZM460.438 42.768L460.8 43.7L460.8 43.7L460.438 42.768ZM464.534 39.952L465.288 39.2956L464.56 38.4585L463.803 39.2697L464.534 39.952ZM468.822 44.88L469.581 45.5308L470.143 44.8751L469.576 44.2236L468.822 44.88ZM462.998 49.04L463.375 49.9661L463.384 49.9626L462.998 49.04ZM455.062 49.448C451.397 49.448 448.233 48.7281 445.541 47.3217L444.615 49.0943C447.64 50.6745 451.132 51.448 455.062 51.448V49.448ZM445.557 47.3301C442.891 45.8761 440.828 43.9088 439.345 41.4235L437.627 42.4485C439.301 45.2539 441.633 47.4679 444.599 49.0859L445.557 47.3301ZM439.351 41.4339C437.912 38.9563 437.182 36.1248 437.182 32.912H435.182C435.182 36.4406 435.988 39.6251 437.621 42.4381L439.351 41.4339ZM437.182 32.912C437.182 29.6489 437.894 26.817 439.289 24.3857L437.555 23.3903C435.963 26.1643 435.182 29.3485 435.182 32.912H437.182ZM439.287 24.3901C440.734 21.8976 442.696 19.956 445.186 18.5508L444.202 16.8092C441.401 18.3906 439.182 20.5877 437.557 23.3859L439.287 24.3901ZM445.18 18.5542C447.703 17.1522 450.584 16.44 453.846 16.44V14.44C450.282 14.44 447.061 15.2212 444.208 16.8058L445.18 18.5542ZM453.846 16.44C457.024 16.44 459.818 17.1311 462.255 18.4895L463.229 16.7425C460.461 15.1995 457.324 14.44 453.846 14.44V16.44ZM462.255 18.4895C464.694 19.8488 466.61 21.7632 468.015 24.2516L469.757 23.2684C468.175 20.4662 465.995 18.2846 463.229 16.7425L462.255 18.4895ZM468.015 24.2516C469.41 26.722 470.126 29.6611 470.126 33.104H472.126C472.126 29.3789 471.349 26.0887 469.757 23.2684L468.015 24.2516ZM470.126 33.104C470.126 33.405 470.107 33.7549 470.067 34.1565L472.057 34.3555C472.102 33.9037 472.126 33.4857 472.126 33.104H470.126ZM470.062 34.256C470.062 34.6495 470.042 35.0178 470.004 35.3616L471.992 35.5824C472.039 35.1582 472.062 34.7158 472.062 34.256H470.062ZM470.998 34.472H442.518V36.472H470.998V34.472ZM443.518 35.472V30.16H441.518V35.472H443.518ZM442.518 31.16H466.774V29.16H442.518V31.16ZM466.305 29.2767L463.169 30.9407L464.107 32.7073L467.243 31.0433L466.305 29.2767ZM464.638 31.8457C464.684 29.7279 464.246 27.816 463.29 26.1439L461.554 27.1361C462.305 28.4507 462.678 29.9948 462.638 31.8023L464.638 31.8457ZM463.29 26.1439C462.348 24.4955 461.047 23.1937 459.398 22.2518L458.406 23.9882C459.744 24.753 460.789 25.7978 461.554 27.1361L463.29 26.1439ZM459.409 22.2581C457.784 21.3022 455.919 20.84 453.846 20.84V22.84C455.613 22.84 457.119 23.2311 458.395 23.9819L459.409 22.2581ZM453.846 20.84C451.734 20.84 449.831 21.3005 448.166 22.2518L449.158 23.9882C450.48 23.2328 452.032 22.84 453.846 22.84V20.84ZM448.155 22.2581C446.544 23.2059 445.268 24.5336 444.332 26.2184L446.08 27.1896C446.851 25.8024 447.879 24.7408 449.169 23.9819L448.155 22.2581ZM444.327 26.2269C443.422 27.8939 442.99 29.8354 442.99 32.016H444.99C444.99 30.1006 445.368 28.5007 446.085 27.1811L444.327 26.2269ZM442.99 32.016V33.296H444.99V32.016H442.99ZM442.99 33.296C442.99 35.5027 443.498 37.4965 444.538 39.2471L446.258 38.2249C445.421 36.8182 444.99 35.1853 444.99 33.296H442.99ZM444.538 39.2471C445.579 40.997 447.048 42.3429 448.919 43.2784L449.813 41.4896C448.271 40.7184 447.094 39.6323 446.258 38.2249L444.538 39.2471ZM448.919 43.2784C450.785 44.2117 452.905 44.664 455.254 44.664V42.664C453.165 42.664 451.36 42.263 449.813 41.4896L448.919 43.2784ZM455.254 44.664C457.278 44.664 459.132 44.349 460.8 43.7L460.076 41.836C458.672 42.3816 457.07 42.664 455.254 42.664V44.664ZM460.8 43.7C462.485 43.0448 463.974 42.0172 465.265 40.6343L463.803 39.2697C462.704 40.4468 461.463 41.2965 460.076 41.836L460.8 43.7ZM463.78 40.6084L468.068 45.5364L469.576 44.2236L465.288 39.2956L463.78 40.6084ZM468.063 44.2292C466.636 45.8936 464.826 47.1915 462.612 48.1174L463.384 49.9626C465.863 48.9258 467.936 47.4504 469.581 45.5308L468.063 44.2292ZM462.621 48.1139C460.458 48.995 457.945 49.448 455.062 49.448V51.448C458.153 51.448 460.93 50.9623 463.375 49.9661L462.621 48.1139ZM481.115 49.36L480.831 50.3191L480.841 50.3218L480.85 50.3244L481.115 49.36ZM474.907 46.608L474.014 46.157L473.622 46.9333L474.336 47.4294L474.907 46.608ZM477.979 40.528L478.517 39.6853L477.585 39.0898L477.086 40.077L477.979 40.528ZM483.483 42.96L483.77 42.0022L483.77 42.0022L483.483 42.96ZM495.323 42.896L494.813 42.0357L494.806 42.04L494.798 42.0443L495.323 42.896ZM495.899 38.032L495.344 38.864L495.36 38.875L495.377 38.8853L495.899 38.032ZM488.731 36.176L488.589 37.166L488.593 37.1665L488.731 36.176ZM484.187 35.344L483.937 36.3125L483.953 36.3166L483.97 36.3202L484.187 35.344ZM480.091 33.744L479.585 34.6067L479.596 34.6133L479.607 34.6196L480.091 33.744ZM477.786 20.496L478.574 21.1129L478.581 21.1027L477.786 20.496ZM482.97 16.784L483.329 17.7174L483.339 17.7137L482.97 16.784ZM497.947 16.208L497.733 17.185L497.733 17.185L497.947 16.208ZM503.771 18.384L504.663 18.835L505.079 18.0117L504.292 17.5307L503.771 18.384ZM500.699 24.464L500.181 25.3195L501.104 25.8785L501.591 24.915L500.699 24.464ZM495.771 22.48L495.54 23.4531L495.555 23.4566L495.57 23.4596L495.771 22.48ZM485.467 22.992L484.948 22.1372L484.941 22.1414L484.934 22.1458L485.467 22.992ZM484.891 28.048L484.336 28.88L484.336 28.88L484.891 28.048ZM487.899 29.264L487.664 30.2361L487.664 30.2361L487.899 29.264ZM491.995 30.032L491.853 31.0219L491.869 31.0242L491.884 31.0259L491.995 30.032ZM496.539 30.864L496.788 29.8955L496.788 29.8955L496.539 30.864ZM500.635 32.464L500.151 33.3396L500.169 33.3494L500.187 33.3584L500.635 32.464ZM502.939 45.456L502.162 44.8262L502.157 44.8326L502.151 44.8391L502.939 45.456ZM497.627 49.168L497.974 50.1057L497.981 50.1029L497.989 50.1L497.627 49.168ZM489.371 49.448C486.597 49.448 483.935 49.0963 481.379 48.3956L480.85 50.3244C483.585 51.0743 486.426 51.448 489.371 51.448V49.448ZM481.398 48.4009C478.855 47.6507 476.895 46.7715 475.477 45.7866L474.336 47.4294C475.99 48.5778 478.168 49.5333 480.831 50.3191L481.398 48.4009ZM475.799 47.059L478.871 40.979L477.086 40.077L474.014 46.157L475.799 47.059ZM477.44 41.3707C479.069 42.4114 480.992 43.2569 483.195 43.9178L483.77 42.0022C481.706 41.3831 479.96 40.6072 478.517 39.6853L477.44 41.3707ZM483.195 43.9178C485.418 44.5846 487.648 44.92 489.883 44.92V42.92C487.851 42.92 485.814 42.6154 483.77 42.0022L483.195 43.9178ZM489.883 44.92C492.441 44.92 494.491 44.5821 495.847 43.7477L494.798 42.0443C493.936 42.5752 492.359 42.92 489.883 42.92V44.92ZM495.832 43.7563C497.23 42.9283 498.051 41.7124 498.051 40.144H496.051C496.051 40.8796 495.719 41.4984 494.813 42.0357L495.832 43.7563ZM498.051 40.144C498.051 38.8752 497.5 37.839 496.42 37.1787L495.377 38.8853C495.833 39.1637 496.051 39.5355 496.051 40.144H498.051ZM496.453 37.1999C495.547 36.5957 494.413 36.1738 493.093 35.9007L492.688 37.8593C493.843 38.0982 494.714 38.4443 495.344 38.864L496.453 37.1999ZM493.093 35.9007C491.83 35.6394 490.421 35.4012 488.868 35.1855L488.593 37.1665C490.112 37.3774 491.476 37.6086 492.688 37.8593L493.093 35.9007ZM488.872 35.1861C487.405 34.9765 485.916 34.7038 484.403 34.3678L483.97 36.3202C485.529 36.6668 487.069 36.9488 488.589 37.1659L488.872 35.1861ZM484.436 34.3755C483.016 34.0106 481.731 33.5069 480.574 32.8684L479.607 34.6196C480.925 35.3465 482.37 35.9094 483.937 36.3125L484.436 34.3755ZM480.596 32.8813C479.493 32.2346 478.606 31.3844 477.924 30.3232L476.241 31.4048C477.095 32.733 478.213 33.8027 479.585 34.6067L480.596 32.8813ZM477.924 30.3232C477.292 29.3405 476.931 27.9695 476.931 26.128H474.931C474.931 28.2118 475.337 29.9982 476.241 31.4048L477.924 30.3232ZM476.931 26.128C476.931 24.1554 477.486 22.5002 478.574 21.1129L476.999 19.8791C475.612 21.6491 474.931 23.7486 474.931 26.128H476.931ZM478.581 21.1027C479.689 19.6514 481.255 18.5154 483.329 17.7173L482.612 15.8507C480.249 16.7593 478.359 18.0979 476.992 19.8893L478.581 21.1027ZM483.339 17.7137C485.457 16.8746 487.993 16.44 490.971 16.44V14.44C487.804 14.44 485.007 14.9014 482.602 15.8543L483.339 17.7137ZM490.971 16.44C493.2 16.44 495.454 16.6876 497.733 17.185L498.16 15.231C495.746 14.7044 493.349 14.44 490.971 14.44V16.44ZM497.733 17.185C500.005 17.6807 501.834 18.3725 503.249 19.2373L504.292 17.5307C502.635 16.5181 500.581 15.7593 498.16 15.231L497.733 17.185ZM502.878 17.933L499.806 24.013L501.591 24.915L504.663 18.835L502.878 17.933ZM501.216 23.6085C499.508 22.5748 497.76 21.8672 495.971 21.5004L495.57 23.4596C497.109 23.7755 498.646 24.3905 500.181 25.3195L501.216 23.6085ZM496.001 21.5069C494.306 21.1055 492.608 20.904 490.907 20.904V22.904C492.448 22.904 493.992 23.0865 495.54 23.4531L496.001 21.5069ZM490.907 20.904C488.41 20.904 486.376 21.27 484.948 22.1372L485.985 23.8468C486.947 23.2633 488.539 22.904 490.907 22.904V20.904ZM484.934 22.1458C483.567 23.0062 482.739 24.2098 482.739 25.744H484.739C484.739 25.0595 485.062 24.4284 485.999 23.8382L484.934 22.1458ZM482.739 25.744C482.739 27.0593 483.256 28.1599 484.336 28.88L485.445 27.2159C484.989 26.9121 484.739 26.4767 484.739 25.744H482.739ZM484.336 28.88C485.231 29.4767 486.353 29.9196 487.664 30.2361L488.133 28.2919C486.97 28.0111 486.086 27.6433 485.445 27.2159L484.336 28.88ZM487.664 30.2361C488.937 30.5434 490.334 30.8049 491.853 31.0219L492.136 29.0421C490.668 28.8324 489.335 28.5819 488.133 28.2919L487.664 30.2361ZM491.884 31.0259C493.373 31.1914 494.842 31.4602 496.289 31.8325L496.788 29.8955C495.249 29.4998 493.688 29.214 492.105 29.0381L491.884 31.0259ZM496.289 31.8325C497.709 32.1974 498.994 32.7011 500.151 33.3396L501.118 31.5884C499.8 30.8615 498.355 30.2986 496.788 29.8955L496.289 31.8325ZM500.187 33.3584C501.308 33.9187 502.195 34.7144 502.865 35.7568L504.548 34.6752C503.682 33.3282 502.521 32.2893 501.082 31.5696L500.187 33.3584ZM502.865 35.7568C503.499 36.7426 503.859 38.0942 503.859 39.888H505.859C505.859 37.8418 505.45 36.0787 504.548 34.6752L502.865 35.7568ZM503.859 39.888C503.859 41.8043 503.29 43.435 502.162 44.8262L503.715 46.0858C505.147 44.3197 505.859 42.2384 505.859 39.888H503.859ZM502.151 44.8391C501.048 46.2471 499.439 47.39 497.264 48.236L497.989 50.1C500.422 49.154 502.354 47.8222 503.726 46.0729L502.151 44.8391ZM497.279 48.2303C495.114 49.0321 492.486 49.448 489.371 49.448V51.448C492.655 51.448 495.531 51.0106 497.974 50.1057L497.279 48.2303ZM511.748 50H510.748V51H511.748V50ZM511.748 15.824V14.824H510.748V15.824H511.748ZM519.748 15.824H520.748V14.824H519.748V15.824ZM519.748 50V51H520.748V50H519.748ZM512.068 8.784L511.361 9.4911L511.369 9.49896L511.377 9.50664L512.068 8.784ZM512.068 2L512.758 2.72335L512.759 2.72264L512.068 2ZM519.428 1.936L518.738 2.65935L518.754 2.67538L518.772 2.6906L519.428 1.936ZM519.492 8.784L520.199 9.4911L520.207 9.48325L520.215 9.47522L519.492 8.784ZM512.748 50V15.824H510.748V50H512.748ZM511.748 16.824H519.748V14.824H511.748V16.824ZM518.748 15.824V50H520.748V15.824H518.748ZM519.748 49H511.748V51H519.748V49ZM515.78 9.192C514.516 9.192 513.535 8.80355 512.759 8.06135L511.377 9.50664C512.564 10.6418 514.057 11.192 515.78 11.192V9.192ZM512.775 8.07689C512.023 7.32499 511.66 6.44837 511.66 5.392H509.66C509.66 6.98097 510.235 8.36567 511.361 9.4911L512.775 8.07689ZM511.66 5.392C511.66 4.28398 512.029 3.41991 512.758 2.72335L511.378 1.27664C510.23 2.37209 509.66 3.76935 509.66 5.392H511.66ZM512.759 2.72264C513.535 1.98044 514.516 1.592 515.78 1.592V-0.408001C514.057 -0.408001 512.564 0.142218 511.377 1.27735L512.759 2.72264ZM515.78 1.592C517.058 1.592 518.013 1.9678 518.738 2.65935L520.118 1.21264C518.966 0.112202 517.489 -0.408001 515.78 -0.408001V1.592ZM518.772 2.6906C519.53 3.35032 519.9 4.1611 519.9 5.2H521.9C521.9 3.59357 521.288 2.22834 520.084 1.18139L518.772 2.6906ZM519.9 5.2C519.9 6.36099 519.523 7.305 518.769 8.09277L520.215 9.47522C521.338 8.30032 521.9 6.855 521.9 5.2H519.9ZM518.785 8.07689C518.063 8.79837 517.096 9.192 515.78 9.192V11.192C517.536 11.192 519.043 10.647 520.199 9.4911L518.785 8.07689ZM536.456 61.584L536.727 60.6214L536.718 60.6189L536.456 61.584ZM529.096 58L528.237 57.4882L527.797 58.2266L528.461 58.7724L529.096 58ZM532.68 51.984L533.318 51.214L532.419 50.4688L531.821 51.4722L532.68 51.984ZM538.312 54.928L538.628 53.9793L538.617 53.9758L538.312 54.928ZM553.544 53.456L552.846 52.7402L552.837 52.7489L553.544 53.456ZM556.168 39.632L555.171 39.5496L555.168 39.5907V39.632H556.168ZM556.808 31.888L557.805 31.9704L557.809 31.9127L557.807 31.855L556.808 31.888ZM556.552 24.144H555.552V24.1605L555.553 24.177L556.552 24.144ZM556.552 15.824V14.824H555.552V15.824H556.552ZM564.168 15.824H565.168V14.824H564.168V15.824ZM559.432 58.448L558.755 57.7117L558.75 57.7166L559.432 58.448ZM535.88 46.416L535.404 47.2955L535.413 47.3002L535.421 47.3046L535.88 46.416ZM529.672 40.592L528.816 41.1087L528.822 41.1194L529.672 40.592ZM529.672 23.248L528.822 22.7206L528.816 22.7313L529.672 23.248ZM535.88 17.488L535.421 16.5994L535.415 16.6025L535.88 17.488ZM552.52 17.168L552.073 18.0624L552.073 18.0624L552.52 17.168ZM558.024 22.544L557.152 23.0336L557.159 23.045L558.024 22.544ZM558.024 41.296L557.155 40.8015L557.152 40.8065L558.024 41.296ZM552.52 46.736L552.967 47.6304L552.974 47.6271L552.98 47.6238L552.52 46.736ZM551.304 40.464L551.761 41.3536L551.77 41.3487L551.78 41.3437L551.304 40.464ZM554.952 37.008L554.094 36.4935L554.09 36.501L554.952 37.008ZM554.952 26.832L554.084 27.3281L554.092 27.343L554.101 27.3575L554.952 26.832ZM551.304 23.44L550.847 24.3296L550.857 24.3345L550.867 24.3392L551.304 23.44ZM540.488 23.44L540.925 24.3393L540.935 24.3344L540.488 23.44ZM536.776 26.832L535.918 26.3175L535.914 26.325L536.776 26.832ZM536.776 37.008L535.908 37.5041L535.916 37.519L535.925 37.5335L536.776 37.008ZM540.488 40.464L540.012 41.3437L540.027 41.3513L540.041 41.3584L540.488 40.464ZM545.736 61.864C542.67 61.864 539.668 61.4499 536.727 60.6215L536.185 62.5465C539.303 63.4248 542.487 63.864 545.736 63.864V61.864ZM536.718 60.6189C533.835 59.8365 531.518 58.6971 529.731 57.2276L528.461 58.7724C530.514 60.4602 533.103 61.7102 536.194 62.5491L536.718 60.6189ZM529.955 58.5118L533.539 52.4958L531.821 51.4722L528.237 57.4882L529.955 58.5118ZM532.042 52.754C533.653 54.0888 535.65 55.1244 538.007 55.8802L538.617 53.9758C536.451 53.2809 534.694 52.3539 533.318 51.214L532.042 52.754ZM537.996 55.8767C540.398 56.6775 542.83 57.08 545.288 57.08V55.08C543.053 55.08 540.834 54.7145 538.628 53.9793L537.996 55.8767ZM545.288 57.08C549.173 57.08 552.237 56.1777 554.251 54.1631L552.837 52.7489C551.353 54.233 548.912 55.08 545.288 55.08V57.08ZM554.242 54.1718C556.253 52.2103 557.168 49.3242 557.168 45.712H555.168C555.168 49.0118 554.334 51.2884 552.846 52.7402L554.242 54.1718ZM557.168 45.712V39.632H555.168V45.712H557.168ZM557.165 39.7144L557.805 31.9704L555.811 31.8056L555.171 39.5496L557.165 39.7144ZM557.807 31.855L557.551 24.111L555.553 24.177L555.809 31.921L557.807 31.855ZM557.552 24.144V15.824H555.552V24.144H557.552ZM556.552 16.824H564.168V14.824H556.552V16.824ZM563.168 15.824V44.816H565.168V15.824H563.168ZM563.168 44.816C563.168 50.8488 561.629 55.0708 558.755 57.7117L560.109 59.1843C563.549 56.0225 565.168 51.1565 565.168 44.816H563.168ZM558.75 57.7166C555.839 60.4311 551.554 61.864 545.736 61.864V63.864C551.864 63.864 556.711 62.3529 560.114 59.1794L558.75 57.7166ZM544.712 47.464C541.614 47.464 538.83 46.8131 536.339 45.5274L535.421 47.3046C538.221 48.7495 541.324 49.464 544.712 49.464V47.464ZM536.356 45.5365C533.904 44.2099 531.964 42.3889 530.522 40.0646L528.822 41.1194C530.452 43.7444 532.651 45.8061 535.404 47.2955L536.356 45.5365ZM530.528 40.0753C529.142 37.779 528.432 35.062 528.432 31.888H526.432C526.432 35.37 527.215 38.4557 528.816 41.1087L530.528 40.0753ZM528.432 31.888C528.432 28.7593 529.141 26.063 530.528 23.7647L528.816 22.7313C527.216 25.3823 526.432 28.446 526.432 31.888H528.432ZM530.522 23.7754C531.963 21.4538 533.898 19.6568 536.345 18.3735L535.415 16.6025C532.656 18.0499 530.453 20.0929 528.822 22.7206L530.522 23.7754ZM536.339 18.3766C538.83 17.0909 541.614 16.44 544.712 16.44V14.44C541.324 14.44 538.221 15.1545 535.421 16.5994L536.339 18.3766ZM544.712 16.44C547.478 16.44 549.924 16.9882 552.073 18.0624L552.967 16.2736C550.508 15.0438 547.749 14.44 544.712 14.44V16.44ZM552.073 18.0624C554.183 19.1175 555.876 20.7608 557.152 23.0335L558.896 22.0545C557.441 19.4632 555.465 17.5225 552.967 16.2736L552.073 18.0624ZM557.159 23.045C558.453 25.2804 559.136 28.2071 559.136 31.888H561.136C561.136 27.9742 560.411 24.6716 558.889 22.043L557.159 23.045ZM559.136 31.888C559.136 35.5678 558.453 38.5196 557.155 40.8015L558.893 41.7905C560.411 39.1231 561.136 35.8029 561.136 31.888H559.136ZM557.152 40.8065C555.875 43.0817 554.178 44.7501 552.06 45.8482L552.98 47.6238C555.47 46.3326 557.443 44.3743 558.896 41.7855L557.152 40.8065ZM552.073 45.8416C549.924 46.9158 547.478 47.464 544.712 47.464V49.464C547.749 49.464 550.508 48.8602 552.967 47.6304L552.073 45.8416ZM545.928 42.68C548.071 42.68 550.023 42.2458 551.761 41.3536L550.847 39.5744C549.427 40.3036 547.795 40.68 545.928 40.68V42.68ZM551.78 41.3437C553.507 40.4097 554.862 39.1333 555.814 37.515L554.09 36.501C553.335 37.784 552.258 38.8117 550.828 39.5843L551.78 41.3437ZM555.809 37.5225C556.808 35.8581 557.296 33.9701 557.296 31.888H555.296C555.296 33.6459 554.888 35.1712 554.095 36.4935L555.809 37.5225ZM557.296 31.888C557.296 29.8064 556.808 27.9344 555.803 26.3065L554.101 27.3575C554.888 28.631 555.296 30.1296 555.296 31.888H557.296ZM555.82 26.3359C554.865 24.6641 553.497 23.3948 551.741 22.5408L550.867 24.3392C552.268 25.0212 553.332 26.0132 554.084 27.3281L555.82 26.3359ZM551.761 22.5504C550.023 21.6582 548.071 21.224 545.928 21.224V23.224C547.795 23.224 549.427 23.6004 550.847 24.3296L551.761 22.5504ZM545.928 21.224C543.784 21.224 541.815 21.6584 540.041 22.5456L540.935 24.3344C542.403 23.6003 544.061 23.224 545.928 23.224V21.224ZM540.051 22.5408C538.299 23.3929 536.915 24.6565 535.919 26.3175L537.633 27.3465C538.429 26.0208 539.52 25.0231 540.925 24.3392L540.051 22.5408ZM535.914 26.325C534.958 27.9499 534.496 29.8153 534.496 31.888H536.496C536.496 30.1207 536.887 28.6154 537.638 27.339L535.914 26.325ZM534.496 31.888C534.496 33.9613 534.958 35.8427 535.908 37.5041L537.644 36.5119C536.887 35.1866 536.496 33.6547 536.496 31.888H534.496ZM535.925 37.5335C536.918 39.1409 538.288 40.4117 540.012 41.3437L540.964 39.5843C539.53 38.8096 538.426 37.7764 537.627 36.4825L535.925 37.5335ZM540.041 41.3584C541.815 42.2456 543.784 42.68 545.928 42.68V40.68C544.061 40.68 542.403 40.3037 540.935 39.5696L540.041 41.3584ZM601.374 17.04L600.926 17.9345L600.933 17.9379L601.374 17.04ZM606.494 21.968L605.62 22.4551L605.624 22.4623L606.494 21.968ZM608.35 50V51H609.35V50H608.35ZM600.35 50H599.35V51H600.35V50ZM598.174 24.656L597.446 25.342L597.451 25.3474L597.456 25.3528L598.174 24.656ZM587.23 23.568L587.697 24.4518L587.697 24.4518L587.23 23.568ZM583.838 27.024L582.953 26.5572L582.948 26.5667L583.838 27.024ZM582.686 50V51H583.686V50H582.686ZM574.686 50H573.686V51H574.686V50ZM574.686 15.824V14.824H573.686V15.824H574.686ZM582.302 15.824H583.302V14.824H582.302V15.824ZM582.302 25.04L581.399 25.4707L583.302 25.04H582.302ZM580.958 22.224L580.081 21.7427L579.834 22.1921L580.055 22.6547L580.958 22.224ZM586.142 17.232L586.595 18.1231L586.602 18.1198L586.142 17.232ZM594.078 16.44C596.676 16.44 598.951 16.9466 600.926 17.9344L601.821 16.1456C599.53 15 596.941 14.44 594.078 14.44V16.44ZM600.933 17.9379C602.917 18.9105 604.477 20.4052 605.62 22.4551L607.367 21.4809C606.035 19.0935 604.182 17.3029 601.814 16.1421L600.933 17.9379ZM605.624 22.4623C606.749 24.441 607.35 27.0704 607.35 30.416H609.35C609.35 26.8496 608.712 23.847 607.363 21.4737L605.624 22.4623ZM607.35 30.416V50H609.35V30.416H607.35ZM608.35 49H600.35V51H608.35V49ZM601.35 50V31.44H599.35V50H601.35ZM601.35 31.44C601.35 28.2684 600.591 25.7094 598.891 23.9592L597.456 25.3528C598.657 26.5892 599.35 28.553 599.35 31.44H601.35ZM598.901 23.97C597.259 22.2289 594.984 21.416 592.222 21.416V23.416C594.579 23.416 596.272 24.0964 597.446 25.342L598.901 23.97ZM592.222 21.416C590.205 21.416 588.376 21.8296 586.762 22.6842L587.697 24.4518C588.984 23.7704 590.484 23.416 592.222 23.416V21.416ZM586.762 22.6842C585.123 23.5518 583.852 24.8544 582.953 26.5572L584.722 27.4908C585.445 26.1216 586.435 25.1202 587.697 24.4518L586.762 22.6842ZM582.948 26.5667C582.086 28.2441 581.686 30.313 581.686 32.72H583.686C583.686 30.519 584.053 28.7905 584.727 27.4813L582.948 26.5667ZM581.686 32.72V50H583.686V32.72H581.686ZM582.686 49H574.686V51H582.686V49ZM575.686 50V15.824H573.686V50H575.686ZM574.686 16.824H582.302V14.824H574.686V16.824ZM581.302 15.824V25.04H583.302V15.824H581.302ZM583.204 24.6093L581.86 21.7933L580.055 22.6547L581.399 25.4707L583.204 24.6093ZM581.834 22.7053C582.93 20.7093 584.509 19.1861 586.595 18.123L585.688 16.341C583.252 17.5819 581.374 19.3867 580.081 21.7427L581.834 22.7053ZM586.602 18.1198C588.743 17.0093 591.227 16.44 594.078 16.44V14.44C590.955 14.44 588.148 15.0654 585.681 16.3442L586.602 18.1198ZM620.802 49.36L620.519 50.3191L620.528 50.3218L620.538 50.3244L620.802 49.36ZM614.594 46.608L613.701 46.157L613.309 46.9333L614.024 47.4294L614.594 46.608ZM617.666 40.528L618.204 39.6853L617.272 39.0898L616.773 40.077L617.666 40.528ZM623.17 42.96L623.457 42.0022L623.457 42.0022L623.17 42.96ZM635.01 42.896L634.5 42.0357L634.493 42.04L634.486 42.0443L635.01 42.896ZM635.586 38.032L635.031 38.864L635.048 38.875L635.065 38.8853L635.586 38.032ZM628.418 36.176L628.277 37.166L628.28 37.1665L628.418 36.176ZM623.874 35.344L623.625 36.3125L623.641 36.3166L623.657 36.3202L623.874 35.344ZM619.778 33.744L619.272 34.6067L619.284 34.6133L619.295 34.6196L619.778 33.744ZM617.474 20.496L618.261 21.1129L618.269 21.1027L617.474 20.496ZM622.658 16.784L623.017 17.7174L623.026 17.7137L622.658 16.784ZM637.634 16.208L637.421 17.185L637.421 17.185L637.634 16.208ZM643.458 18.384L644.351 18.835L644.767 18.0117L643.979 17.5307L643.458 18.384ZM640.386 24.464L639.868 25.3195L640.792 25.8785L641.279 24.915L640.386 24.464ZM635.458 22.48L635.228 23.4531L635.242 23.4566L635.257 23.4596L635.458 22.48ZM625.154 22.992L624.635 22.1372L624.628 22.1414L624.621 22.1458L625.154 22.992ZM624.578 28.048L624.023 28.88L624.023 28.88L624.578 28.048ZM627.586 29.264L627.351 30.2361L627.351 30.2361L627.586 29.264ZM631.682 30.032L631.541 31.0219L631.556 31.0242L631.572 31.0259L631.682 30.032ZM636.226 30.864L636.475 29.8955L636.475 29.8955L636.226 30.864ZM640.322 32.464L639.839 33.3396L639.857 33.3494L639.875 33.3584L640.322 32.464ZM642.626 45.456L641.849 44.8262L641.844 44.8326L641.839 44.8391L642.626 45.456ZM637.314 49.168L637.661 50.1057L637.669 50.1029L637.676 50.1L637.314 49.168ZM629.058 49.448C626.285 49.448 623.622 49.0963 621.066 48.3956L620.538 50.3244C623.273 51.0743 626.114 51.448 629.058 51.448V49.448ZM621.085 48.4009C618.543 47.6507 616.583 46.7715 615.164 45.7866L614.024 47.4294C615.677 48.5778 617.856 49.5333 620.519 50.3191L621.085 48.4009ZM615.487 47.059L618.559 40.979L616.773 40.077L613.701 46.157L615.487 47.059ZM617.128 41.3707C618.757 42.4114 620.68 43.2569 622.883 43.9178L623.457 42.0022C621.394 41.3831 619.647 40.6072 618.204 39.6853L617.128 41.3707ZM622.883 43.9178C625.105 44.5846 627.335 44.92 629.57 44.92V42.92C627.538 42.92 625.502 42.6154 623.457 42.0022L622.883 43.9178ZM629.57 44.92C632.128 44.92 634.178 44.5821 635.534 43.7477L634.486 42.0443C633.623 42.5752 632.046 42.92 629.57 42.92V44.92ZM635.52 43.7563C636.917 42.9283 637.738 41.7124 637.738 40.144H635.738C635.738 40.8796 635.407 41.4984 634.5 42.0357L635.52 43.7563ZM637.738 40.144C637.738 38.8752 637.188 37.839 636.107 37.1787L635.065 38.8853C635.52 39.1637 635.738 39.5355 635.738 40.144H637.738ZM636.141 37.1999C635.234 36.5957 634.1 36.1738 632.781 35.9007L632.375 37.8593C633.53 38.0982 634.402 38.4443 635.031 38.864L636.141 37.1999ZM632.781 35.9007C631.518 35.6394 630.109 35.4012 628.556 35.1855L628.28 37.1665C629.799 37.3774 631.164 37.6086 632.375 37.8593L632.781 35.9007ZM628.559 35.1861C627.092 34.9765 625.603 34.7038 624.091 34.3678L623.657 36.3202C625.217 36.6668 626.757 36.9488 628.277 37.1659L628.559 35.1861ZM624.123 34.3755C622.704 34.0106 621.418 33.5069 620.261 32.8684L619.295 34.6196C620.612 35.3465 622.057 35.9094 623.625 36.3125L624.123 34.3755ZM620.284 32.8813C619.181 32.2346 618.293 31.3844 617.611 30.3232L615.929 31.4048C616.783 32.733 617.901 33.8027 619.272 34.6067L620.284 32.8813ZM617.611 30.3232C616.979 29.3405 616.618 27.9695 616.618 26.128H614.618C614.618 28.2118 615.025 29.9982 615.929 31.4048L617.611 30.3232ZM616.618 26.128C616.618 24.1554 617.174 22.5002 618.261 21.1129L616.687 19.8791C615.3 21.6491 614.618 23.7486 614.618 26.128H616.618ZM618.269 21.1027C619.377 19.6514 620.942 18.5154 623.017 17.7173L622.299 15.8507C619.937 16.7593 618.046 18.0979 616.679 19.8893L618.269 21.1027ZM623.026 17.7137C625.144 16.8746 627.68 16.44 630.658 16.44V14.44C627.492 14.44 624.695 14.9014 622.29 15.8543L623.026 17.7137ZM630.658 16.44C632.887 16.44 635.141 16.6876 637.421 17.185L637.847 15.231C635.433 14.7044 633.037 14.44 630.658 14.44V16.44ZM637.421 17.185C639.693 17.6807 641.522 18.3725 642.937 19.2373L643.979 17.5307C642.322 16.5181 640.269 15.7593 637.847 15.231L637.421 17.185ZM642.565 17.933L639.493 24.013L641.279 24.915L644.351 18.835L642.565 17.933ZM640.904 23.6085C639.196 22.5748 637.447 21.8672 635.659 21.5004L635.257 23.4596C636.797 23.7755 638.333 24.3905 639.868 25.3195L640.904 23.6085ZM635.688 21.5069C633.994 21.1055 632.295 20.904 630.594 20.904V22.904C632.136 22.904 633.68 23.0865 635.228 23.4531L635.688 21.5069ZM630.594 20.904C628.097 20.904 626.063 21.27 624.635 22.1372L625.673 23.8468C626.634 23.2633 628.227 22.904 630.594 22.904V20.904ZM624.621 22.1458C623.255 23.0062 622.426 24.2098 622.426 25.744H624.426C624.426 25.0595 624.749 24.4284 625.687 23.8382L624.621 22.1458ZM622.426 25.744C622.426 27.0593 622.943 28.1599 624.023 28.88L625.133 27.2159C624.677 26.9121 624.426 26.4767 624.426 25.744H622.426ZM624.023 28.88C624.918 29.4767 626.04 29.9196 627.351 30.2361L627.821 28.2919C626.657 28.0111 625.774 27.6433 625.133 27.2159L624.023 28.88ZM627.351 30.2361C628.624 30.5434 630.021 30.8049 631.541 31.0219L631.823 29.0421C630.356 28.8324 629.022 28.5819 627.821 28.2919L627.351 30.2361ZM631.572 31.0259C633.061 31.1914 634.529 31.4602 635.977 31.8325L636.475 29.8955C634.936 29.4998 633.375 29.214 631.792 29.0381L631.572 31.0259ZM635.977 31.8325C637.396 32.1974 638.682 32.7011 639.839 33.3396L640.805 31.5884C639.488 30.8615 638.043 30.2986 636.475 29.8955L635.977 31.8325ZM639.875 33.3584C640.995 33.9187 641.883 34.7144 642.553 35.7568L644.235 34.6752C643.369 33.3282 642.209 32.2893 640.769 31.5696L639.875 33.3584ZM642.553 35.7568C643.187 36.7426 643.546 38.0942 643.546 39.888H645.546C645.546 37.8418 645.137 36.0787 644.235 34.6752L642.553 35.7568ZM643.546 39.888C643.546 41.8043 642.977 43.435 641.849 44.8262L643.403 46.0858C644.835 44.3197 645.546 42.2384 645.546 39.888H643.546ZM641.839 44.8391C640.735 46.2471 639.127 47.39 636.952 48.236L637.676 50.1C640.109 49.154 642.042 47.8222 643.413 46.0729L641.839 44.8391ZM636.967 48.2303C634.802 49.0321 632.173 49.448 629.058 49.448V51.448C632.343 51.448 635.218 51.0106 637.661 50.1057L636.967 48.2303Z" fill="#979797" mask="url(#path-1-outside-1_205_522)"/>
</svg>
