<svg width="1055" height="89" viewBox="0 0 1055 89" fill="none" xmlns="http://www.w3.org/2000/svg">
<mask id="path-1-outside-1_3_153" maskUnits="userSpaceOnUse" x="-1" y="-1" width="1082" height="91" fill="black">
<rect fill="white" x="-1" y="-1" width="1082" height="91"/>
<path d="M0.46 70V7H29.98C37.54 7 43.3 8.5 47.26 11.5C51.22 14.44 53.2 18.4 53.2 23.38C53.2 26.74 52.42 29.62 50.86 32.02C49.3 34.36 47.2 36.19 44.56 37.51C41.98 38.77 39.16 39.4 36.1 39.4L37.72 36.16C41.26 36.16 44.44 36.82 47.26 38.14C50.08 39.4 52.3 41.26 53.92 43.72C55.6 46.18 56.44 49.24 56.44 52.9C56.44 58.3 54.37 62.5 50.23 65.5C46.09 68.5 39.94 70 31.78 70H0.46ZM12.16 60.82H31.06C35.44 60.82 38.8 60.1 41.14 58.66C43.48 57.22 44.65 54.91 44.65 51.73C44.65 48.61 43.48 46.33 41.14 44.89C38.8 43.39 35.44 42.64 31.06 42.64H11.26V33.55H28.72C32.8 33.55 35.92 32.83 38.08 31.39C40.3 29.95 41.41 27.79 41.41 24.91C41.41 21.97 40.3 19.78 38.08 18.34C35.92 16.9 32.8 16.18 28.72 16.18H12.16V60.82ZM67.8468 70V21.94H78.5568V35.17L77.2968 31.3C78.7368 28.06 80.9868 25.6 84.0468 23.92C87.1668 22.24 91.0368 21.4 95.6568 21.4V32.11C95.1768 31.99 94.7268 31.93 94.3068 31.93C93.8868 31.87 93.4668 31.84 93.0468 31.84C88.7868 31.84 85.3968 33.1 82.8768 35.62C80.3568 38.08 79.0968 41.77 79.0968 46.69V70H67.8468ZM131.383 70V60.28L130.753 58.21V41.2C130.753 37.9 129.763 35.35 127.783 33.55C125.803 31.69 122.803 30.76 118.783 30.76C116.083 30.76 113.413 31.18 110.773 32.02C108.193 32.86 106.003 34.03 104.203 35.53L99.7926 27.34C102.373 25.36 105.433 23.89 108.973 22.93C112.573 21.91 116.293 21.4 120.133 21.4C127.093 21.4 132.463 23.08 136.243 26.44C140.083 29.74 142.003 34.87 142.003 41.83V70H131.383ZM116.263 70.63C112.663 70.63 109.513 70.03 106.813 68.83C104.113 67.57 102.013 65.86 100.513 63.7C99.0726 61.48 98.3526 58.99 98.3526 56.23C98.3526 53.53 98.9826 51.1 100.243 48.94C101.563 46.78 103.693 45.07 106.633 43.81C109.573 42.55 113.473 41.92 118.333 41.92H132.283V49.39H119.143C115.303 49.39 112.723 50.02 111.403 51.28C110.083 52.48 109.423 53.98 109.423 55.78C109.423 57.82 110.233 59.44 111.853 60.64C113.473 61.84 115.723 62.44 118.603 62.44C121.363 62.44 123.823 61.81 125.983 60.55C128.203 59.29 129.793 57.43 130.753 54.97L132.643 61.72C131.563 64.54 129.613 66.73 126.793 68.29C124.033 69.85 120.523 70.63 116.263 70.63ZM183.711 21.4C187.551 21.4 190.971 22.15 193.971 23.65C197.031 25.15 199.431 27.46 201.171 30.58C202.911 33.64 203.781 37.6 203.781 42.46V70H192.531V43.9C192.531 39.64 191.511 36.46 189.471 34.36C187.491 32.26 184.701 31.21 181.101 31.21C178.461 31.21 176.121 31.75 174.081 32.83C172.041 33.91 170.451 35.53 169.311 37.69C168.231 39.79 167.691 42.46 167.691 45.7V70H156.441V21.94H167.151V34.9L165.261 30.94C166.941 27.88 169.371 25.54 172.551 23.92C175.791 22.24 179.511 21.4 183.711 21.4ZM238.48 70.63C233.86 70.63 229.69 69.61 225.97 67.57C222.31 65.47 219.43 62.59 217.33 58.93C215.23 55.27 214.18 50.95 214.18 45.97C214.18 40.99 215.23 36.67 217.33 33.01C219.43 29.35 222.31 26.5 225.97 24.46C229.69 22.42 233.86 21.4 238.48 21.4C242.5 21.4 246.1 22.3 249.28 24.1C252.46 25.84 254.98 28.51 256.84 32.11C258.7 35.71 259.63 40.33 259.63 45.97C259.63 51.55 258.73 56.17 256.93 59.83C255.13 63.43 252.64 66.13 249.46 67.93C246.28 69.73 242.62 70.63 238.48 70.63ZM239.83 61C242.53 61 244.93 60.4 247.03 59.2C249.19 58 250.9 56.26 252.16 53.98C253.48 51.7 254.14 49.03 254.14 45.97C254.14 42.85 253.48 40.18 252.16 37.96C250.9 35.68 249.19 33.94 247.03 32.74C244.93 31.54 242.53 30.94 239.83 30.94C237.13 30.94 234.7 31.54 232.54 32.74C230.44 33.94 228.73 35.68 227.41 37.96C226.15 40.18 225.52 42.85 225.52 45.97C225.52 49.03 226.15 51.7 227.41 53.98C228.73 56.26 230.44 58 232.54 59.2C234.7 60.4 237.13 61 239.83 61ZM254.41 70V58.66L254.86 45.88L253.96 33.1V3.22H265.12V70H254.41ZM324.06 70.9C319.68 70.9 315.75 70.18 312.27 68.74C308.79 67.3 306.06 65.32 304.08 62.8C302.1 60.28 301.11 57.37 301.11 54.07C301.11 51.07 301.77 48.37 303.09 45.97C304.41 43.57 306.51 41.29 309.39 39.13C312.27 36.91 315.96 34.69 320.46 32.47C324 30.73 326.76 29.2 328.74 27.88C330.78 26.56 332.19 25.3 332.97 24.1C333.81 22.9 334.23 21.64 334.23 20.32C334.23 18.52 333.6 17.08 332.34 16C331.08 14.86 329.28 14.29 326.94 14.29C324.42 14.29 322.44 14.92 321 16.18C319.62 17.38 318.93 18.97 318.93 20.95C318.93 21.97 319.11 22.96 319.47 23.92C319.89 24.88 320.61 25.96 321.63 27.16C322.65 28.36 324.12 29.89 326.04 31.75L359.34 63.7L353.13 70.99L317.13 36.43C315.09 34.45 313.44 32.62 312.18 30.94C310.92 29.26 310.02 27.64 309.48 26.08C308.94 24.46 308.67 22.81 308.67 21.13C308.67 18.19 309.42 15.61 310.92 13.39C312.42 11.11 314.55 9.37 317.31 8.17C320.07 6.91 323.28 6.28 326.94 6.28C330.36 6.28 333.3 6.85 335.76 7.99C338.28 9.07 340.23 10.66 341.61 12.76C343.05 14.8 343.77 17.26 343.77 20.14C343.77 22.66 343.14 25 341.88 27.16C340.62 29.26 338.64 31.27 335.94 33.19C333.3 35.11 329.76 37.12 325.32 39.22C322.02 40.84 319.41 42.37 317.49 43.81C315.57 45.25 314.19 46.69 313.35 48.13C312.51 49.57 312.09 51.16 312.09 52.9C312.09 54.64 312.6 56.17 313.62 57.49C314.7 58.81 316.2 59.86 318.12 60.64C320.04 61.36 322.29 61.72 324.87 61.72C328.71 61.72 332.19 60.88 335.31 59.2C338.49 57.46 341.16 54.88 343.32 51.46C345.48 48.04 347.04 43.81 348 38.77L357.09 41.74C355.83 47.8 353.64 53.02 350.52 57.4C347.46 61.72 343.68 65.05 339.18 67.39C334.68 69.73 329.64 70.9 324.06 70.9ZM717.648 70V7H745.188C752.028 7 758.028 8.32 763.188 10.96C768.348 13.6 772.368 17.26 775.248 21.94C778.128 26.62 779.568 32.14 779.568 38.5C779.568 44.8 778.128 50.32 775.248 55.06C772.368 59.74 768.348 63.4 763.188 66.04C758.028 68.68 752.028 70 745.188 70H717.648ZM729.348 60.1H744.648C749.388 60.1 753.468 59.2 756.888 57.4C760.368 55.6 763.038 53.08 764.898 49.84C766.818 46.6 767.778 42.82 767.778 38.5C767.778 34.12 766.818 30.34 764.898 27.16C763.038 23.92 760.368 21.4 756.888 19.6C753.468 17.8 749.388 16.9 744.648 16.9H729.348V60.1ZM813.513 70.63C808.173 70.63 803.493 69.58 799.473 67.48C795.513 65.32 792.423 62.38 790.203 58.66C788.043 54.94 786.963 50.71 786.963 45.97C786.963 41.17 788.013 36.94 790.113 33.28C792.273 29.56 795.213 26.65 798.933 24.55C802.713 22.45 807.003 21.4 811.803 21.4C816.483 21.4 820.653 22.42 824.313 24.46C827.973 26.5 830.853 29.38 832.953 33.1C835.053 36.82 836.103 41.2 836.103 46.24C836.103 46.72 836.073 47.26 836.013 47.86C836.013 48.46 835.983 49.03 835.923 49.57H795.873V42.1H829.983L825.573 44.44C825.633 41.68 825.063 39.25 823.863 37.15C822.663 35.05 821.013 33.4 818.913 32.2C816.873 31 814.503 30.4 811.803 30.4C809.043 30.4 806.613 31 804.513 32.2C802.473 33.4 800.853 35.08 799.653 37.24C798.513 39.34 797.943 41.83 797.943 44.71V46.51C797.943 49.39 798.603 51.94 799.923 54.16C801.243 56.38 803.103 58.09 805.503 59.29C807.903 60.49 810.663 61.09 813.783 61.09C816.483 61.09 818.913 60.67 821.073 59.83C823.233 58.99 825.153 57.67 826.833 55.87L832.863 62.8C830.703 65.32 827.973 67.27 824.673 68.65C821.433 69.97 817.713 70.63 813.513 70.63ZM861.759 70.63C857.739 70.63 853.869 70.12 850.149 69.1C846.489 68.02 843.579 66.73 841.419 65.23L845.739 56.68C847.899 58.06 850.479 59.2 853.479 60.1C856.479 61 859.479 61.45 862.479 61.45C866.019 61.45 868.569 60.97 870.129 60.01C871.749 59.05 872.559 57.76 872.559 56.14C872.559 54.82 872.019 53.83 870.939 53.17C869.859 52.45 868.449 51.91 866.709 51.55C864.969 51.19 863.019 50.86 860.859 50.56C858.759 50.26 856.629 49.87 854.469 49.39C852.369 48.85 850.449 48.1 848.709 47.14C846.969 46.12 845.559 44.77 844.479 43.09C843.399 41.41 842.859 39.19 842.859 36.43C842.859 33.37 843.729 30.73 845.469 28.51C847.209 26.23 849.639 24.49 852.759 23.29C855.939 22.03 859.689 21.4 864.009 21.4C867.249 21.4 870.519 21.76 873.819 22.48C877.119 23.2 879.849 24.22 882.009 25.54L877.689 34.09C875.409 32.71 873.099 31.78 870.759 31.3C868.479 30.76 866.199 30.49 863.919 30.49C860.499 30.49 857.949 31 856.269 32.02C854.649 33.04 853.839 34.33 853.839 35.89C853.839 37.33 854.379 38.41 855.459 39.13C856.539 39.85 857.949 40.42 859.689 40.84C861.429 41.26 863.349 41.62 865.449 41.92C867.609 42.16 869.739 42.55 871.839 43.09C873.939 43.63 875.859 44.38 877.599 45.34C879.399 46.24 880.839 47.53 881.919 49.21C882.999 50.89 883.539 53.08 883.539 55.78C883.539 58.78 882.639 61.39 880.839 63.61C879.099 65.83 876.609 67.57 873.369 68.83C870.129 70.03 866.259 70.63 861.759 70.63ZM893.228 70V21.94H904.478V70H893.228ZM898.898 14.02C896.798 14.02 895.058 13.36 893.678 12.04C892.358 10.72 891.698 9.13 891.698 7.27C891.698 5.35 892.358 3.76 893.678 2.49999C895.058 1.18 896.798 0.519999 898.898 0.519999C900.998 0.519999 902.708 1.15 904.028 2.41C905.408 3.61 906.098 5.14 906.098 7C906.098 8.98 905.438 10.66 904.118 12.04C902.798 13.36 901.058 14.02 898.898 14.02ZM941.023 88.09C936.583 88.09 932.233 87.49 927.973 86.29C923.773 85.15 920.323 83.47 917.623 81.25L922.663 72.79C924.763 74.53 927.403 75.91 930.583 76.93C933.823 78.01 937.093 78.55 940.393 78.55C945.673 78.55 949.543 77.32 952.003 74.86C954.463 72.46 955.693 68.83 955.693 63.97V55.42L956.593 44.53L956.233 33.64V21.94H966.943V62.71C966.943 71.41 964.723 77.8 960.283 81.88C955.843 86.02 949.423 88.09 941.023 88.09ZM939.583 67.84C935.023 67.84 930.883 66.88 927.163 64.96C923.503 62.98 920.593 60.25 918.433 56.77C916.333 53.29 915.283 49.21 915.283 44.53C915.283 39.91 916.333 35.86 918.433 32.38C920.593 28.9 923.503 26.2 927.163 24.28C930.883 22.36 935.023 21.4 939.583 21.4C943.663 21.4 947.323 22.21 950.563 23.83C953.803 25.45 956.383 27.97 958.303 31.39C960.283 34.81 961.273 39.19 961.273 44.53C961.273 49.87 960.283 54.28 958.303 57.76C956.383 61.18 953.803 63.73 950.563 65.41C947.323 67.03 943.663 67.84 939.583 67.84ZM941.293 58.3C944.113 58.3 946.633 57.73 948.853 56.59C951.073 55.39 952.783 53.77 953.983 51.73C955.243 49.63 955.873 47.23 955.873 44.53C955.873 41.83 955.243 39.46 953.983 37.42C952.783 35.32 951.073 33.73 948.853 32.65C946.633 31.51 944.113 30.94 941.293 30.94C938.473 30.94 935.923 31.51 933.643 32.65C931.423 33.73 929.683 35.32 928.423 37.42C927.223 39.46 926.623 41.83 926.623 44.53C926.623 47.23 927.223 49.63 928.423 51.73C929.683 53.77 931.423 55.39 933.643 56.59C935.923 57.73 938.473 58.3 941.293 58.3ZM1009 21.4C1012.84 21.4 1016.26 22.15 1019.26 23.65C1022.32 25.15 1024.72 27.46 1026.46 30.58C1028.2 33.64 1029.07 37.6 1029.07 42.46V70H1017.82V43.9C1017.82 39.64 1016.8 36.46 1014.76 34.36C1012.78 32.26 1009.99 31.21 1006.39 31.21C1003.75 31.21 1001.41 31.75 999.374 32.83C997.334 33.91 995.744 35.53 994.604 37.69C993.524 39.79 992.984 42.46 992.984 45.7V70H981.734V21.94H992.444V34.9L990.554 30.94C992.234 27.88 994.664 25.54 997.844 23.92C1001.08 22.24 1004.8 21.4 1009 21.4ZM1058.19 70.63C1054.17 70.63 1050.3 70.12 1046.58 69.1C1042.92 68.02 1040.01 66.73 1037.85 65.23L1042.17 56.68C1044.33 58.06 1046.91 59.2 1049.91 60.1C1052.91 61 1055.91 61.45 1058.91 61.45C1062.45 61.45 1065 60.97 1066.56 60.01C1068.18 59.05 1068.99 57.76 1068.99 56.14C1068.99 54.82 1068.45 53.83 1067.37 53.17C1066.29 52.45 1064.88 51.91 1063.14 51.55C1061.4 51.19 1059.45 50.86 1057.29 50.56C1055.19 50.26 1053.06 49.87 1050.9 49.39C1048.8 48.85 1046.88 48.1 1045.14 47.14C1043.4 46.12 1041.99 44.77 1040.91 43.09C1039.83 41.41 1039.29 39.19 1039.29 36.43C1039.29 33.37 1040.16 30.73 1041.9 28.51C1043.64 26.23 1046.07 24.49 1049.19 23.29C1052.37 22.03 1056.12 21.4 1060.44 21.4C1063.68 21.4 1066.95 21.76 1070.25 22.48C1073.55 23.2 1076.28 24.22 1078.44 25.54L1074.12 34.09C1071.84 32.71 1069.53 31.78 1067.19 31.3C1064.91 30.76 1062.63 30.49 1060.35 30.49C1056.93 30.49 1054.38 31 1052.7 32.02C1051.08 33.04 1050.27 34.33 1050.27 35.89C1050.27 37.33 1050.81 38.41 1051.89 39.13C1052.97 39.85 1054.38 40.42 1056.12 40.84C1057.86 41.26 1059.78 41.62 1061.88 41.92C1064.04 42.16 1066.17 42.55 1068.27 43.09C1070.37 43.63 1072.29 44.38 1074.03 45.34C1075.83 46.24 1077.27 47.53 1078.35 49.21C1079.43 50.89 1079.97 53.08 1079.97 55.78C1079.97 58.78 1079.07 61.39 1077.27 63.61C1075.53 65.83 1073.04 67.57 1069.8 68.83C1066.56 70.03 1062.69 70.63 1058.19 70.63Z"/>
</mask>
<path d="M0.46 70H-0.539999V71H0.46V70ZM0.46 7V6H-0.539999V7H0.46ZM47.26 11.5L46.6561 12.2971L46.6639 12.3029L47.26 11.5ZM50.86 32.02L51.6921 32.5747L51.6984 32.565L50.86 32.02ZM44.56 37.51L44.9989 38.4086L45.0072 38.4044L44.56 37.51ZM36.1 39.4L35.2056 38.9528L34.482 40.4H36.1V39.4ZM37.72 36.16V35.16H37.102L36.8256 35.7128L37.72 36.16ZM47.26 38.14L46.8361 39.0457L46.844 39.0494L46.8521 39.053L47.26 38.14ZM53.92 43.72L53.0848 44.27L53.0895 44.277L53.0942 44.284L53.92 43.72ZM12.16 60.82H11.16V61.82H12.16V60.82ZM41.14 58.66L40.6159 57.8083L41.14 58.66ZM41.14 44.89L40.6003 45.7319L40.6081 45.7368L40.6159 45.7417L41.14 44.89ZM11.26 42.64H10.26V43.64H11.26V42.64ZM11.26 33.55V32.55H10.26V33.55H11.26ZM38.08 31.39L37.5358 30.551L37.5253 30.5579L38.08 31.39ZM38.08 18.34L37.5253 19.1721L37.5358 19.179L38.08 18.34ZM12.16 16.18V15.18H11.16V16.18H12.16ZM1.46 70V7H-0.539999V70H1.46ZM0.46 8H29.98V6H0.46V8ZM29.98 8C37.4296 8 42.9397 9.48156 46.6561 12.2971L47.8639 10.7029C43.6604 7.51843 37.6504 6 29.98 6V8ZM46.6639 12.3029C50.3669 15.0521 52.2 18.7128 52.2 23.38H54.2C54.2 18.0872 52.0731 13.8279 47.8561 10.6971L46.6639 12.3029ZM52.2 23.38C52.2 26.5808 51.4589 29.2637 50.0216 31.475L51.6984 32.565C53.3811 29.9762 54.2 26.8992 54.2 23.38H52.2ZM50.028 31.4653C48.5693 33.6532 46.6051 35.3694 44.1128 36.6156L45.0072 38.4044C47.7949 37.0106 50.0307 35.0668 51.6921 32.5747L50.028 31.4653ZM44.1212 36.6114C41.6867 37.8003 39.0181 38.4 36.1 38.4V40.4C39.3019 40.4 42.2733 39.7397 44.9988 38.4086L44.1212 36.6114ZM36.9944 39.8472L38.6144 36.6072L36.8256 35.7128L35.2056 38.9528L36.9944 39.8472ZM37.72 37.16C41.1336 37.16 44.1658 37.7958 46.8361 39.0457L47.6839 37.2343C44.7142 35.8442 41.3864 35.16 37.72 35.16V37.16ZM46.8521 39.053C49.5068 40.2392 51.5749 41.9772 53.0848 44.27L54.7552 43.17C53.0251 40.5428 50.6532 38.5608 47.6679 37.227L46.8521 39.053ZM53.0942 44.284C54.6371 46.5432 55.44 49.3948 55.44 52.9H57.44C57.44 49.0852 56.5629 45.8168 54.7458 43.156L53.0942 44.284ZM55.44 52.9C55.44 58.0006 53.507 61.8904 49.6432 64.6902L50.8168 66.3098C55.233 63.1096 57.44 58.5994 57.44 52.9H55.44ZM49.6432 64.6902C45.7485 67.5125 39.8452 69 31.78 69V71C40.0348 71 46.4315 69.4875 50.8168 66.3098L49.6432 64.6902ZM31.78 69H0.46V71H31.78V69ZM12.16 61.82H31.06V59.82H12.16V61.82ZM31.06 61.82C35.5252 61.82 39.0989 61.0903 41.6641 59.5117L40.6159 57.8083C38.5011 59.1097 35.3548 59.82 31.06 59.82V61.82ZM41.6641 59.5117C44.3509 57.8582 45.65 55.1928 45.65 51.73H43.65C43.65 54.6272 42.6091 56.5818 40.6159 57.8083L41.6641 59.5117ZM45.65 51.73C45.65 48.3186 44.3445 45.6878 41.6641 44.0383L40.6159 45.7417C42.6155 46.9722 43.65 48.9014 43.65 51.73H45.65ZM41.6797 44.0481C39.1107 42.4013 35.5304 41.64 31.06 41.64V43.64C35.3496 43.64 38.4893 44.3787 40.6003 45.7319L41.6797 44.0481ZM31.06 41.64H11.26V43.64H31.06V41.64ZM12.26 42.64V33.55H10.26V42.64H12.26ZM11.26 34.55H28.72V32.55H11.26V34.55ZM28.72 34.55C32.8935 34.55 36.2412 33.8177 38.6347 32.222L37.5253 30.5579C35.5988 31.8423 32.7065 32.55 28.72 32.55V34.55ZM38.6242 32.229C41.1571 30.586 42.41 28.0932 42.41 24.91H40.41C40.41 27.4868 39.4429 29.314 37.5358 30.551L38.6242 32.229ZM42.41 24.91C42.41 21.6757 41.1639 19.1484 38.6242 17.501L37.5358 19.179C39.4361 20.4116 40.41 22.2643 40.41 24.91H42.41ZM38.6347 17.5079C36.2412 15.9123 32.8935 15.18 28.72 15.18V17.18C32.7065 17.18 35.5988 17.8877 37.5253 19.1721L38.6347 17.5079ZM28.72 15.18H12.16V17.18H28.72V15.18ZM11.16 16.18V60.82H13.16V16.18H11.16ZM67.8468 70H66.8468V71H67.8468V70ZM67.8468 21.94V20.94H66.8468V21.94H67.8468ZM78.5568 21.94H79.5568V20.94H78.5568V21.94ZM78.5568 35.17L77.6059 35.4796L79.5568 35.17H78.5568ZM77.2968 31.3L76.383 30.8939L76.2271 31.2446L76.3459 31.6096L77.2968 31.3ZM84.0468 23.92L83.5727 23.0395L83.5655 23.0434L84.0468 23.92ZM95.6568 21.4H96.6568V20.4H95.6568V21.4ZM95.6568 32.11L95.4143 33.0801L96.6568 33.3908V32.11H95.6568ZM94.3068 31.93L94.1654 32.9199L94.2357 32.93H94.3068V31.93ZM82.8768 35.62L83.5754 36.3356L83.5839 36.3271L82.8768 35.62ZM79.0968 70V71H80.0968V70H79.0968ZM68.8468 70V21.94H66.8468V70H68.8468ZM67.8468 22.94H78.5568V20.94H67.8468V22.94ZM77.5568 21.94V35.17H79.5568V21.94H77.5568ZM79.5077 34.8604L78.2477 30.9904L76.3459 31.6096L77.6059 35.4796L79.5077 34.8604ZM78.2106 31.7061C79.5633 28.6627 81.663 26.3695 84.5281 24.7966L83.5655 23.0434C80.3106 24.8305 77.9103 27.4573 76.383 30.8939L78.2106 31.7061ZM84.5209 24.8005C87.4576 23.2192 91.1536 22.4 95.6568 22.4V20.4C90.92 20.4 86.876 21.2608 83.5727 23.0395L84.5209 24.8005ZM94.6568 21.4V32.11H96.6568V21.4H94.6568ZM95.8993 31.1399C95.3537 31.0034 94.8215 30.93 94.3068 30.93V32.93C94.6321 32.93 94.9999 32.9766 95.4143 33.0801L95.8993 31.1399ZM94.4482 30.9401C93.9819 30.8734 93.5146 30.84 93.0468 30.84V32.84C93.419 32.84 93.7917 32.8666 94.1654 32.9199L94.4482 30.9401ZM93.0468 30.84C88.5771 30.84 84.9131 32.1694 82.1697 34.9129L83.5839 36.3271C85.8805 34.0306 88.9965 32.84 93.0468 32.84V30.84ZM82.1783 34.9044C79.3994 37.6171 78.0968 41.6097 78.0968 46.69H80.0968C80.0968 41.9303 81.3142 38.5429 83.5753 36.3356L82.1783 34.9044ZM78.0968 46.69V70H80.0968V46.69H78.0968ZM79.0968 69H67.8468V71H79.0968V69ZM131.383 70H130.383V71H131.383V70ZM131.383 60.28H132.383V60.1312L132.339 59.9888L131.383 60.28ZM130.753 58.21H129.753V58.3588L129.796 58.5012L130.753 58.21ZM127.783 33.55L127.098 34.2788L127.104 34.2844L127.11 34.2899L127.783 33.55ZM110.773 32.02L110.469 31.0671L110.463 31.0691L110.773 32.02ZM104.203 35.53L103.322 36.0041L103.902 37.0818L104.843 36.2982L104.203 35.53ZM99.7926 27.34L99.1838 26.5467L98.5086 27.0648L98.9121 27.8141L99.7926 27.34ZM108.973 22.93L109.234 23.8952L109.245 23.8921L108.973 22.93ZM136.243 26.44L135.578 27.1874L135.584 27.193L135.591 27.1984L136.243 26.44ZM142.003 70V71H143.003V70H142.003ZM106.813 68.83L106.39 69.7362L106.398 69.7401L106.406 69.7438L106.813 68.83ZM100.513 63.7L99.6736 64.2442L99.6822 64.2574L99.6912 64.2704L100.513 63.7ZM100.243 48.94L99.3893 48.4185L99.384 48.4273L99.3788 48.4361L100.243 48.94ZM106.633 43.81L107.026 44.7291L106.633 43.81ZM132.283 41.92H133.283V40.92H132.283V41.92ZM132.283 49.39V50.39H133.283V49.39H132.283ZM111.403 51.28L112.075 52.0199L112.084 52.0118L112.093 52.0034L111.403 51.28ZM111.853 60.64L111.257 61.4436L111.853 60.64ZM125.983 60.55L125.489 59.6803L125.479 59.6862L125.983 60.55ZM130.753 54.97L131.716 54.7004L130.909 51.819L129.821 54.6065L130.753 54.97ZM132.643 61.72L133.576 62.0776L133.695 61.7688L133.606 61.4504L132.643 61.72ZM126.793 68.29L126.309 67.4149L126.301 67.4194L126.793 68.29ZM132.383 70V60.28H130.383V70H132.383ZM132.339 59.9888L131.709 57.9188L129.796 58.5012L130.426 60.5712L132.339 59.9888ZM131.753 58.21V41.2H129.753V58.21H131.753ZM131.753 41.2C131.753 37.6891 130.691 34.8425 128.455 32.8101L127.11 34.2899C128.834 35.8575 129.753 38.1109 129.753 41.2H131.753ZM128.467 32.8211C126.23 30.7192 122.937 29.76 118.783 29.76V31.76C122.668 31.76 125.375 32.6608 127.098 34.2788L128.467 32.8211ZM118.783 29.76C115.977 29.76 113.205 30.1967 110.469 31.0671L111.076 32.9729C113.62 32.1633 116.188 31.76 118.783 31.76V29.76ZM110.463 31.0691C107.781 31.9423 105.474 33.1687 103.562 34.7618L104.843 36.2982C106.531 34.8913 108.604 33.7777 111.082 32.9709L110.463 31.0691ZM105.083 35.0559L100.673 26.8659L98.9121 27.8141L103.322 36.0041L105.083 35.0559ZM100.401 28.1333C102.866 26.2422 105.804 24.8254 109.234 23.8951L108.711 21.9649C105.061 22.9546 101.88 24.4778 99.1838 26.5467L100.401 28.1333ZM109.245 23.8921C112.754 22.8979 116.382 22.4 120.133 22.4V20.4C116.203 20.4 112.391 20.9221 108.7 21.9679L109.245 23.8921ZM120.133 22.4C126.94 22.4 132.04 24.0426 135.578 27.1874L136.907 25.6926C132.885 22.1174 127.245 20.4 120.133 20.4V22.4ZM135.591 27.1984C139.136 30.2448 141.003 35.0471 141.003 41.83H143.003C143.003 34.6929 141.029 29.2352 136.894 25.6816L135.591 27.1984ZM141.003 41.83V70H143.003V41.83H141.003ZM142.003 69H131.383V71H142.003V69ZM116.263 69.63C112.773 69.63 109.766 69.0484 107.219 67.9162L106.406 69.7438C109.259 71.0116 112.553 71.63 116.263 71.63V69.63ZM107.235 67.9238C104.674 66.7284 102.72 65.1259 101.334 63.1296L99.6912 64.2704C101.305 66.5941 103.551 68.4116 106.39 69.7362L107.235 67.9238ZM101.352 63.1558C100.021 61.105 99.3526 58.8056 99.3526 56.23H97.3526C97.3526 59.1744 98.1238 61.855 99.6736 64.2442L101.352 63.1558ZM99.3526 56.23C99.3526 53.6925 99.9426 51.4388 101.106 49.4439L99.3788 48.4361C98.0225 50.7612 97.3526 53.3675 97.3526 56.23H99.3526ZM101.096 49.4614C102.282 47.5202 104.227 45.9291 107.026 44.7291L106.239 42.8909C103.159 44.2109 100.843 46.0398 99.3893 48.4185L101.096 49.4614ZM107.026 44.7291C109.795 43.5428 113.545 42.92 118.333 42.92V40.92C113.401 40.92 109.351 41.5572 106.239 42.8909L107.026 44.7291ZM118.333 42.92H132.283V40.92H118.333V42.92ZM131.283 41.92V49.39H133.283V41.92H131.283ZM132.283 48.39H119.143V50.39H132.283V48.39ZM119.143 48.39C117.175 48.39 115.484 48.5507 114.09 48.891C112.703 49.2299 111.544 49.7628 110.712 50.5566L112.093 52.0034C112.581 51.5372 113.372 51.1251 114.565 50.834C115.751 50.5443 117.27 50.39 119.143 50.39V48.39ZM110.73 50.5401C109.199 51.9315 108.423 53.7012 108.423 55.78H110.423C110.423 54.2588 110.966 53.0285 112.075 52.0199L110.73 50.5401ZM108.423 55.78C108.423 58.1324 109.379 60.0523 111.257 61.4436L112.448 59.8364C111.086 58.8277 110.423 57.5076 110.423 55.78H108.423ZM111.257 61.4436C113.109 62.8154 115.597 63.44 118.603 63.44V61.44C115.848 61.44 113.836 60.8646 112.448 59.8364L111.257 61.4436ZM118.603 63.44C121.521 63.44 124.158 62.772 126.486 61.4138L125.479 59.6862C123.487 60.848 121.204 61.44 118.603 61.44V63.44ZM126.476 61.4197C128.903 60.0421 130.644 57.9995 131.684 55.3335L129.821 54.6065C128.941 56.8604 127.502 58.5379 125.489 59.6803L126.476 61.4197ZM129.79 55.2396L131.68 61.9896L133.606 61.4504L131.716 54.7004L129.79 55.2396ZM131.709 61.3624C130.719 63.9468 128.937 65.9608 126.309 67.415L127.277 69.165C130.288 67.4992 132.406 65.1332 133.576 62.0776L131.709 61.3624ZM126.301 67.4194C123.734 68.8704 120.407 69.63 116.263 69.63V71.63C120.638 71.63 124.332 70.8296 127.285 69.1606L126.301 67.4194ZM193.971 23.65L193.523 24.5445L193.53 24.5479L193.971 23.65ZM201.171 30.58L200.297 31.0671L200.301 31.0743L201.171 30.58ZM203.781 70V71H204.781V70H203.781ZM192.531 70H191.531V71H192.531V70ZM189.471 34.36L188.743 35.046L188.748 35.0514L188.753 35.0568L189.471 34.36ZM174.081 32.83L174.548 33.7138L174.081 32.83ZM169.311 37.69L168.426 37.2232L168.421 37.2327L169.311 37.69ZM167.691 70V71H168.691V70H167.691ZM156.441 70H155.441V71H156.441V70ZM156.441 21.94V20.94H155.441V21.94H156.441ZM167.151 21.94H168.151V20.94H167.151V21.94ZM167.151 34.9L166.248 35.3307L168.151 34.9H167.151ZM165.261 30.94L164.384 30.4587L164.137 30.9081L164.358 31.3707L165.261 30.94ZM172.551 23.92L173.004 24.8111L173.011 24.8078L172.551 23.92ZM183.711 22.4C187.418 22.4 190.681 23.1233 193.523 24.5444L194.418 22.7556C191.26 21.1767 187.683 20.4 183.711 20.4V22.4ZM193.53 24.5479C196.398 25.9538 198.651 28.1158 200.297 31.0671L202.044 30.0929C200.21 26.8042 197.663 24.3462 194.411 22.7521L193.53 24.5479ZM200.301 31.0743C201.929 33.937 202.781 37.7104 202.781 42.46H204.781C204.781 37.4896 203.892 33.3429 202.04 30.0857L200.301 31.0743ZM202.781 42.46V70H204.781V42.46H202.781ZM203.781 69H192.531V71H203.781V69ZM193.531 70V43.9H191.531V70H193.531ZM193.531 43.9C193.531 39.4977 192.477 36.0201 190.188 33.6632L188.753 35.0568C190.544 36.8999 191.531 39.7823 191.531 43.9H193.531ZM190.198 33.674C187.985 31.3262 184.903 30.21 181.101 30.21V32.21C184.498 32.21 186.997 33.1938 188.743 35.046L190.198 33.674ZM181.101 30.21C178.321 30.21 175.816 30.7796 173.613 31.9462L174.548 33.7138C176.425 32.7204 178.6 32.21 181.101 32.21V30.21ZM173.613 31.9462C171.385 33.1258 169.654 34.8964 168.426 37.2232L170.195 38.1568C171.247 36.1636 172.697 34.6942 174.548 33.7138L173.613 31.9462ZM168.421 37.2327C167.247 39.5168 166.691 42.357 166.691 45.7H168.691C168.691 42.563 169.215 40.0632 170.2 38.1473L168.421 37.2327ZM166.691 45.7V70H168.691V45.7H166.691ZM167.691 69H156.441V71H167.691V69ZM157.441 70V21.94H155.441V70H157.441ZM156.441 22.94H167.151V20.94H156.441V22.94ZM166.151 21.94V34.9H168.151V21.94H166.151ZM168.053 34.4693L166.163 30.5093L164.358 31.3707L166.248 35.3307L168.053 34.4693ZM166.137 31.4213C167.718 28.5413 169.999 26.3421 173.004 24.811L172.097 23.029C168.742 24.7379 166.163 27.2187 164.384 30.4587L166.137 31.4213ZM173.011 24.8078C176.089 23.2119 179.646 22.4 183.711 22.4V20.4C179.375 20.4 175.493 21.2681 172.09 23.0322L173.011 24.8078ZM225.97 67.57L225.472 68.4374L225.48 68.4422L225.489 68.4468L225.97 67.57ZM217.33 58.93L218.197 58.4323L217.33 58.93ZM217.33 33.01L218.197 33.5077L217.33 33.01ZM225.97 24.46L225.489 23.5832L225.483 23.5865L225.97 24.46ZM249.28 24.1L248.787 24.9703L248.793 24.9738L248.8 24.9773L249.28 24.1ZM256.84 32.11L255.951 32.569L256.84 32.11ZM256.93 59.83L257.824 60.2772L257.827 60.2713L256.93 59.83ZM249.46 67.93L248.967 67.0597L249.46 67.93ZM247.03 59.2L246.544 58.3258L246.534 58.3318L247.03 59.2ZM252.16 53.98L251.294 53.479L251.289 53.4876L251.285 53.4963L252.16 53.98ZM252.16 37.96L251.285 38.4437L251.292 38.4575L251.3 38.4711L252.16 37.96ZM247.03 32.74L246.534 33.6083L246.544 33.6142L247.03 32.74ZM232.54 32.74L232.054 31.8658L232.044 31.8718L232.54 32.74ZM227.41 37.96L226.544 37.4589L226.54 37.4664L227.41 37.96ZM227.41 53.98L226.535 54.4637L226.539 54.4724L226.544 54.481L227.41 53.98ZM232.54 59.2L232.044 60.0683L232.054 60.0742L232.54 59.2ZM254.41 70H253.41V71H254.41V70ZM254.41 58.66L253.41 58.6248L253.41 58.6424V58.66H254.41ZM254.86 45.88L255.859 45.9152L255.861 45.8624L255.857 45.8097L254.86 45.88ZM253.96 33.1H252.96V33.1352L252.962 33.1702L253.96 33.1ZM253.96 3.22V2.22H252.96V3.22H253.96ZM265.12 3.22H266.12V2.22H265.12V3.22ZM265.12 70V71H266.12V70H265.12ZM238.48 69.63C234.013 69.63 230.01 68.6453 226.451 66.6932L225.489 68.4468C229.369 70.5747 233.707 71.63 238.48 71.63V69.63ZM226.467 66.7026C222.961 64.6909 220.209 61.9385 218.197 58.4323L216.462 59.4277C218.651 63.2415 221.658 66.2491 225.472 68.4374L226.467 66.7026ZM218.197 58.4323C216.199 54.9491 215.18 50.807 215.18 45.97H213.18C213.18 51.093 214.261 55.5909 216.462 59.4277L218.197 58.4323ZM215.18 45.97C215.18 41.133 216.199 36.9909 218.197 33.5077L216.462 32.5123C214.261 36.3491 213.18 40.847 213.18 45.97H215.18ZM218.197 33.5077C220.207 30.004 222.956 27.2844 226.457 25.3335L225.483 23.5865C221.663 25.7156 218.652 28.696 216.462 32.5123L218.197 33.5077ZM226.451 25.3368C230.01 23.3847 234.013 22.4 238.48 22.4V20.4C233.707 20.4 229.369 21.4553 225.489 23.5832L226.451 25.3368ZM238.48 22.4C242.345 22.4 245.772 23.2636 248.787 24.9703L249.772 23.2297C246.427 21.3364 242.655 20.4 238.48 20.4V22.4ZM248.8 24.9773C251.785 26.6106 254.172 29.1243 255.951 32.569L257.728 31.651C255.788 27.8956 253.135 25.0694 249.76 23.2227L248.8 24.9773ZM255.951 32.569C257.715 35.9826 258.63 40.4306 258.63 45.97H260.63C260.63 40.2293 259.685 35.4374 257.728 31.651L255.951 32.569ZM258.63 45.97C258.63 51.4503 257.745 55.9069 256.032 59.3887L257.827 60.2713C259.715 56.4331 260.63 51.6497 260.63 45.97H258.63ZM256.035 59.3828C254.315 62.8238 251.957 65.3675 248.967 67.0597L249.952 68.8003C253.323 66.8925 255.945 64.0362 257.824 60.2772L256.035 59.3828ZM248.967 67.0597C245.956 68.7639 242.47 69.63 238.48 69.63V71.63C242.769 71.63 246.603 70.6961 249.952 68.8003L248.967 67.0597ZM239.83 62C242.683 62 245.258 61.3643 247.526 60.0682L246.534 58.3318C244.602 59.4357 242.376 60 239.83 60V62ZM247.515 60.0742C249.848 58.7781 251.689 56.8985 253.035 54.4637L251.285 53.4963C250.11 55.6215 248.531 57.2219 246.544 58.3258L247.515 60.0742ZM253.025 54.481C254.447 52.0257 255.14 49.1772 255.14 45.97H253.14C253.14 48.8828 252.513 51.3743 251.294 53.479L253.025 54.481ZM255.14 45.97C255.14 42.7076 254.449 39.8529 253.019 37.4489L251.3 38.4711C252.511 40.5071 253.14 42.9924 253.14 45.97H255.14ZM253.035 37.4763C251.689 35.0415 249.848 33.1619 247.515 31.8658L246.544 33.6142C248.531 34.7181 250.11 36.3185 251.285 38.4437L253.035 37.4763ZM247.526 31.8718C245.258 30.5757 242.683 29.94 239.83 29.94V31.94C242.376 31.94 244.602 32.5043 246.534 33.6082L247.526 31.8718ZM239.83 29.94C236.976 29.94 234.376 30.5758 232.054 31.8658L233.025 33.6142C235.023 32.5042 237.284 31.94 239.83 31.94V29.94ZM232.044 31.8718C229.777 33.1671 227.945 35.0402 226.544 37.459L228.275 38.461C229.515 36.3198 231.103 34.7129 233.036 33.6082L232.044 31.8718ZM226.54 37.4664C225.178 39.867 224.52 42.7152 224.52 45.97H226.52C226.52 42.9848 227.122 40.493 228.279 38.4536L226.54 37.4664ZM224.52 45.97C224.52 49.1695 225.179 52.0117 226.535 54.4637L228.285 53.4963C227.12 51.3884 226.52 48.8905 226.52 45.97H224.52ZM226.544 54.481C227.945 56.8998 229.777 58.7729 232.044 60.0682L233.036 58.3318C231.103 57.2271 229.515 55.6202 228.275 53.479L226.544 54.481ZM232.054 60.0742C234.376 61.3642 236.976 62 239.83 62V60C237.284 60 235.023 59.4358 233.025 58.3258L232.054 60.0742ZM255.41 70V58.66H253.41V70H255.41ZM255.409 58.6952L255.859 45.9152L253.86 45.8448L253.41 58.6248L255.409 58.6952ZM255.857 45.8097L254.957 33.0298L252.962 33.1702L253.862 45.9502L255.857 45.8097ZM254.96 33.1V3.22H252.96V33.1H254.96ZM253.96 4.22H265.12V2.22H253.96V4.22ZM264.12 3.22V70H266.12V3.22H264.12ZM265.12 69H254.41V71H265.12V69ZM312.27 68.74L311.888 69.664L312.27 68.74ZM304.08 62.8L303.294 63.4178L304.08 62.8ZM303.09 45.97L302.214 45.4881L303.09 45.97ZM309.39 39.13L309.99 39.9301L310 39.922L309.39 39.13ZM320.46 32.47L320.019 31.5725L320.017 31.5732L320.46 32.47ZM328.74 27.88L328.197 27.0403L328.185 27.0479L328.74 27.88ZM332.97 24.1L332.151 23.5265L332.141 23.5406L332.131 23.555L332.97 24.1ZM332.34 16L331.669 16.7415L331.679 16.7505L331.689 16.7593L332.34 16ZM321 16.18L321.656 16.9346L321.658 16.9326L321 16.18ZM319.47 23.92L318.534 24.2711L318.543 24.2962L318.554 24.3208L319.47 23.92ZM321.63 27.16L322.392 26.5124L321.63 27.16ZM326.04 31.75L325.344 32.4682L325.348 32.4716L326.04 31.75ZM359.34 63.7L360.101 64.3485L360.712 63.631L360.032 62.9784L359.34 63.7ZM353.13 70.99L352.437 71.7114L353.203 72.4463L353.891 71.6385L353.13 70.99ZM317.13 36.43L316.433 37.1476L316.437 37.1514L317.13 36.43ZM309.48 26.08L308.531 26.3962L308.535 26.4071L309.48 26.08ZM310.92 13.39L311.749 13.9499L311.755 13.9396L310.92 13.39ZM317.31 8.17L317.709 9.08707L317.717 9.08345L317.725 9.07969L317.31 8.17ZM335.76 7.99L335.339 8.89731L335.353 8.90342L335.366 8.90914L335.76 7.99ZM341.61 12.76L340.774 13.3092L340.783 13.3231L340.793 13.3367L341.61 12.76ZM341.88 27.16L342.737 27.6745L342.744 27.6639L341.88 27.16ZM335.94 33.19L335.36 32.375L335.352 32.3813L335.94 33.19ZM325.32 39.22L324.892 38.316L324.886 38.3191L324.879 38.3223L325.32 39.22ZM317.49 43.81L318.09 44.61L317.49 43.81ZM313.35 48.13L312.486 47.6261L313.35 48.13ZM313.62 57.49L312.829 58.1014L312.837 58.1125L312.846 58.1232L313.62 57.49ZM318.12 60.64L317.744 61.5665L317.756 61.5716L317.769 61.5763L318.12 60.64ZM335.31 59.2L335.784 60.0805L335.79 60.0773L335.31 59.2ZM343.32 51.46L344.165 51.994L343.32 51.46ZM348 38.77L348.31 37.8195L347.23 37.4665L347.018 38.5829L348 38.77ZM357.09 41.74L358.069 41.9436L358.251 41.0674L357.401 40.7895L357.09 41.74ZM350.52 57.4L349.705 56.8198L349.704 56.822L350.52 57.4ZM339.18 67.39L338.719 66.5028L339.18 67.39ZM324.06 69.9C319.79 69.9 315.993 69.1983 312.652 67.816L311.888 69.664C315.507 71.1617 319.57 71.9 324.06 71.9V69.9ZM312.652 67.816C309.303 66.4301 306.723 64.5452 304.866 62.1822L303.294 63.4178C305.397 66.0948 308.277 68.1699 311.888 69.664L312.652 67.816ZM304.866 62.1822C303.029 59.8439 302.11 57.1531 302.11 54.07H300.11C300.11 57.5869 301.171 60.7161 303.294 63.4178L304.866 62.1822ZM302.11 54.07C302.11 51.2221 302.735 48.6905 303.966 46.4519L302.214 45.4881C300.805 48.0495 300.11 50.9179 300.11 54.07H302.11ZM303.966 46.4519C305.2 44.2089 307.189 42.0304 309.99 39.93L308.79 38.33C305.83 40.5496 303.62 42.9311 302.214 45.4881L303.966 46.4519ZM310 39.922C312.812 37.7544 316.441 35.5677 320.902 33.3668L320.017 31.5732C315.479 33.8123 311.727 36.0656 308.779 38.338L310 39.922ZM320.901 33.3674C324.458 31.6189 327.262 30.0669 329.295 28.712L328.185 27.0479C326.257 28.3331 323.541 29.8411 320.019 31.5725L320.901 33.3674ZM329.283 28.7196C331.37 27.3693 332.916 26.0176 333.808 24.645L332.131 23.555C331.464 24.5824 330.19 25.7507 328.197 27.0404L329.283 28.7196ZM333.789 24.6735C334.733 23.3246 335.23 21.8675 335.23 20.32H333.23C333.23 21.4125 332.887 22.4754 332.151 23.5265L333.789 24.6735ZM335.23 20.32C335.23 18.256 334.493 16.5282 332.991 15.2407L331.689 16.7593C332.707 17.6318 333.23 18.784 333.23 20.32H335.23ZM333.011 15.2585C331.507 13.8983 329.434 13.29 326.94 13.29V15.29C329.126 15.29 330.652 15.8217 331.669 16.7415L333.011 15.2585ZM326.94 13.29C324.256 13.29 322.015 13.9631 320.341 15.4274L321.658 16.9326C322.865 15.8769 324.584 15.29 326.94 15.29V13.29ZM320.344 15.4254C318.726 16.8324 317.93 18.7076 317.93 20.95H319.93C319.93 19.2324 320.514 17.9276 321.656 16.9346L320.344 15.4254ZM317.93 20.95C317.93 22.0905 318.132 23.1994 318.534 24.2711L320.406 23.5689C320.088 22.7206 319.93 21.8495 319.93 20.95H317.93ZM318.554 24.3208C319.027 25.403 319.813 26.5667 320.868 27.8076L322.392 26.5124C321.407 25.3533 320.753 24.357 320.386 23.5192L318.554 24.3208ZM320.868 27.8076C321.918 29.0433 323.415 30.5989 325.344 32.4682L326.736 31.0318C324.825 29.1811 323.382 27.6767 322.392 26.5124L320.868 27.8076ZM325.348 32.4716L358.648 64.4216L360.032 62.9784L326.732 31.0284L325.348 32.4716ZM358.579 63.0515L352.369 70.3415L353.891 71.6385L360.101 64.3485L358.579 63.0515ZM353.822 70.2686L317.822 35.7086L316.437 37.1514L352.437 71.7114L353.822 70.2686ZM317.826 35.7124C315.812 33.757 314.2 31.9665 312.98 30.34L311.38 31.54C312.68 33.2735 314.368 35.143 316.433 37.1476L317.826 35.7124ZM312.98 30.34C311.766 28.7215 310.923 27.1925 310.425 25.7529L308.535 26.4071C309.117 28.0875 310.074 29.7985 311.38 31.54L312.98 30.34ZM310.429 25.7638C309.922 24.244 309.67 22.7007 309.67 21.13H307.67C307.67 22.9193 307.958 24.676 308.531 26.3962L310.429 25.7638ZM309.67 21.13C309.67 18.3693 310.371 15.9885 311.749 13.9499L310.091 12.8301C308.469 15.2315 307.67 18.0107 307.67 21.13H309.67ZM311.755 13.9396C313.138 11.8384 315.108 10.2179 317.709 9.08707L316.911 7.25293C313.992 8.52212 311.702 10.3816 310.085 12.8404L311.755 13.9396ZM317.725 9.07969C320.331 7.89018 323.394 7.28 326.94 7.28V5.28C323.166 5.28 319.809 5.92982 316.895 7.26031L317.725 9.07969ZM326.94 7.28C330.251 7.28 333.041 7.83215 335.339 8.89731L336.18 7.08269C333.559 5.86785 330.468 5.28 326.94 5.28V7.28ZM335.366 8.90914C337.723 9.91918 339.512 11.3881 340.774 13.3092L342.446 12.2108C340.948 9.93191 338.837 8.22081 336.154 7.07085L335.366 8.90914ZM340.793 13.3367C342.096 15.1831 342.77 17.4338 342.77 20.14H344.77C344.77 17.0862 344.004 14.4169 342.427 12.1833L340.793 13.3367ZM342.77 20.14C342.77 22.4844 342.186 24.6503 341.016 26.6561L342.744 27.6639C344.094 25.3497 344.77 22.8356 344.77 20.14H342.77ZM341.022 26.6455C339.854 28.5934 337.985 30.5084 335.36 32.375L336.519 34.005C339.294 32.0316 341.386 29.9266 342.737 27.6745L341.022 26.6455ZM335.352 32.3813C332.781 34.2512 329.301 36.2308 324.892 38.316L325.747 40.124C330.219 38.0092 333.819 35.9688 336.528 33.9987L335.352 32.3813ZM324.879 38.3223C321.549 39.957 318.879 41.5184 316.89 43.01L318.09 44.61C319.941 43.2216 322.49 41.723 325.761 40.1177L324.879 38.3223ZM316.89 43.01C314.906 44.4977 313.416 46.0318 312.486 47.6261L314.214 48.6339C314.964 47.3482 316.234 46.0023 318.09 44.61L316.89 43.01ZM312.486 47.6261C311.553 49.2259 311.09 50.991 311.09 52.9H313.09C313.09 51.329 313.467 49.9141 314.214 48.6339L312.486 47.6261ZM311.09 52.9C311.09 54.8511 311.667 56.5984 312.829 58.1014L314.411 56.8785C313.533 55.7416 313.09 54.4289 313.09 52.9H311.09ZM312.846 58.1232C314.052 59.5978 315.702 60.7369 317.744 61.5665L318.496 59.7135C316.698 58.983 315.347 58.0222 314.394 56.8568L312.846 58.1232ZM317.769 61.5763C319.826 62.3477 322.2 62.72 324.87 62.72V60.72C322.38 60.72 320.254 60.3723 318.471 59.7037L317.769 61.5763ZM324.87 62.72C328.861 62.72 332.506 61.8454 335.784 60.0805L334.836 58.3195C331.874 59.9146 328.559 60.72 324.87 60.72V62.72ZM335.79 60.0773C339.136 58.2466 341.925 55.5406 344.165 51.994L342.474 50.926C340.394 54.2194 337.844 56.6734 334.83 58.3227L335.79 60.0773ZM344.165 51.994C346.408 48.4437 348.005 44.0886 348.982 38.9571L347.018 38.5829C346.075 43.5314 344.552 47.6363 342.474 50.926L344.165 51.994ZM347.689 39.7205L356.779 42.6905L357.401 40.7895L348.31 37.8195L347.689 39.7205ZM356.111 41.5364C354.875 47.4812 352.734 52.5684 349.705 56.8198L351.334 57.9802C354.546 53.4716 356.785 48.1188 358.069 41.9436L356.111 41.5364ZM349.704 56.822C346.732 61.018 343.071 64.2394 338.719 66.5028L339.641 68.2772C344.289 65.8606 348.188 62.422 351.336 57.978L349.704 56.822ZM338.719 66.5028C334.375 68.7615 329.496 69.9 324.06 69.9V71.9C329.784 71.9 334.985 70.6985 339.641 68.2772L338.719 66.5028ZM717.648 70H716.648V71H717.648V70ZM717.648 7V6H716.648V7H717.648ZM763.188 10.96L762.732 11.8502L763.188 10.96ZM775.247 21.94L774.396 22.4641L775.247 21.94ZM775.247 55.06L776.099 55.5841L776.102 55.5793L775.247 55.06ZM729.347 60.1H728.347V61.1H729.347V60.1ZM756.888 57.4L756.428 56.5118L756.422 56.5151L756.888 57.4ZM764.898 49.84L764.037 49.3301L764.03 49.3421L764.898 49.84ZM764.898 27.16L764.03 27.6579L764.036 27.6674L764.041 27.6769L764.898 27.16ZM756.888 19.6L756.422 20.4849L756.428 20.4882L756.888 19.6ZM729.347 16.9V15.9H728.347V16.9H729.347ZM718.648 70V7H716.648V70H718.648ZM717.648 8H745.188V6H717.648V8ZM745.188 8C751.898 8 757.736 9.2943 762.732 11.8502L763.643 10.0697C758.319 7.34569 752.157 6 745.188 6V8ZM762.732 11.8502C767.738 14.4116 771.617 17.9488 774.396 22.4641L776.099 21.4159C773.118 16.5712 768.957 12.7884 763.643 10.0697L762.732 11.8502ZM774.396 22.4641C777.164 26.963 778.568 32.2954 778.568 38.5H780.568C780.568 31.9846 779.091 26.277 776.099 21.4159L774.396 22.4641ZM778.568 38.5C778.568 44.6423 777.165 49.9777 774.393 54.5407L776.102 55.5793C779.09 50.6623 780.568 44.9577 780.568 38.5H778.568ZM774.396 54.5359C771.617 59.0512 767.738 62.5884 762.732 65.1497L763.643 66.9302C768.957 64.2116 773.118 60.4288 776.099 55.5841L774.396 54.5359ZM762.732 65.1497C757.736 67.7057 751.898 69 745.188 69V71C752.157 71 758.319 69.6543 763.643 66.9302L762.732 65.1497ZM745.188 69H717.648V71H745.188V69ZM729.347 61.1H744.648V59.1H729.347V61.1ZM744.648 61.1C749.514 61.1 753.761 60.1758 757.353 58.2849L756.422 56.5151C753.174 58.2242 749.261 59.1 744.648 59.1V61.1ZM757.347 58.2882C760.989 56.4045 763.804 53.7528 765.765 50.3379L764.03 49.3421C762.271 52.4072 759.746 54.7955 756.428 56.5118L757.347 58.2882ZM765.758 50.3498C767.782 46.9339 768.778 42.9726 768.778 38.5H766.778C766.778 42.6674 765.853 46.2661 764.037 49.3302L765.758 50.3498ZM768.778 38.5C768.778 33.9708 767.783 30.0051 765.754 26.6431L764.041 27.6769C765.852 30.6749 766.778 34.2692 766.778 38.5H768.778ZM765.765 26.6621C763.804 23.2472 760.989 20.5955 757.347 18.7118L756.428 20.4882C759.746 22.2045 762.271 24.5928 764.03 27.6579L765.765 26.6621ZM757.353 18.7151C753.761 16.8242 749.514 15.9 744.648 15.9V17.9C749.261 17.9 753.174 18.7758 756.422 20.4849L757.353 18.7151ZM744.648 15.9H729.347V17.9H744.648V15.9ZM728.347 16.9V60.1H730.347V16.9H728.347ZM799.473 67.48L798.994 68.3579L799.002 68.3622L799.01 68.3663L799.473 67.48ZM790.203 58.66L789.338 59.1622L789.344 59.1725L790.203 58.66ZM790.113 33.28L789.248 32.7779L789.246 32.7823L790.113 33.28ZM798.933 24.55L798.447 23.6758L798.441 23.6792L798.933 24.55ZM824.313 24.46L824.8 23.5865L824.313 24.46ZM836.013 47.86L835.018 47.7605L835.013 47.8101V47.86H836.013ZM835.923 49.57V50.57H836.818L836.917 49.6804L835.923 49.57ZM795.873 49.57H794.873V50.57H795.873V49.57ZM795.873 42.1V41.1H794.873V42.1H795.873ZM829.983 42.1L830.452 42.9833L829.983 41.1V42.1ZM825.573 44.44L824.573 44.4183L824.536 46.1222L826.042 45.3233L825.573 44.44ZM823.863 37.15L822.995 37.6461L823.863 37.15ZM818.913 32.2L818.406 33.062L818.417 33.0682L818.913 32.2ZM804.513 32.2L804.017 31.3317L804.006 31.3381L804.513 32.2ZM799.653 37.24L798.779 36.7543L798.774 36.7629L799.653 37.24ZM805.503 59.29L805.056 60.1844L805.503 59.29ZM821.073 59.83L821.435 60.762L821.073 59.83ZM826.833 55.87L827.587 55.2136L826.859 54.3765L826.102 55.1877L826.833 55.87ZM832.863 62.8L833.622 63.4508L834.184 62.7951L833.617 62.1436L832.863 62.8ZM824.673 68.65L825.05 69.5761L825.059 69.5726L824.673 68.65ZM813.513 69.63C808.306 69.63 803.79 68.6068 799.936 66.5937L799.01 68.3663C803.196 70.5532 808.04 71.63 813.513 71.63V69.63ZM799.952 66.6021C796.142 64.5241 793.186 61.7075 791.062 58.1475L789.344 59.1725C791.66 63.0525 794.884 66.1159 798.994 68.3579L799.952 66.6021ZM791.068 58.1579C789.005 54.6056 787.963 50.5521 787.963 45.97H785.963C785.963 50.8679 787.081 55.2744 789.338 59.1621L791.068 58.1579ZM787.963 45.97C787.963 41.3202 788.979 37.2663 790.98 33.7777L789.246 32.7823C787.047 36.6137 785.963 41.0198 785.963 45.97H787.963ZM790.978 33.7821C793.049 30.2149 795.861 27.4327 799.425 25.4208L798.441 23.6792C794.565 25.8673 791.497 28.9051 789.248 32.7779L790.978 33.7821ZM799.419 25.4242C803.034 23.4155 807.154 22.4 811.803 22.4V20.4C806.852 20.4 802.392 21.4845 798.447 23.6758L799.419 25.4242ZM811.803 22.4C816.333 22.4 820.332 23.3858 823.826 25.3335L824.8 23.5865C820.974 21.4542 816.633 20.4 811.803 20.4V22.4ZM823.826 25.3335C827.322 27.2821 830.071 30.0285 832.082 33.5916L833.824 32.6084C831.635 28.7315 828.624 25.7179 824.8 23.5865L823.826 25.3335ZM832.082 33.5916C834.083 37.1366 835.103 41.3411 835.103 46.24H837.103C837.103 41.0589 836.023 36.5034 833.824 32.6084L832.082 33.5916ZM835.103 46.24C835.103 46.6796 835.075 47.1856 835.018 47.7605L837.008 47.9595C837.07 47.3344 837.103 46.7604 837.103 46.24H835.103ZM835.013 47.86C835.013 48.4269 834.985 48.9598 834.929 49.4596L836.917 49.6804C836.981 49.1002 837.013 48.4931 837.013 47.86H835.013ZM835.923 48.57H795.873V50.57H835.923V48.57ZM796.873 49.57V42.1H794.873V49.57H796.873ZM795.873 43.1H829.983V41.1H795.873V43.1ZM829.514 41.2167L825.104 43.5566L826.042 45.3233L830.452 42.9833L829.514 41.2167ZM826.573 44.4617C826.636 41.5465 826.033 38.9326 824.731 36.6539L822.995 37.6461C824.093 39.5674 824.63 41.8135 824.573 44.4183L826.573 44.4617ZM824.731 36.6539C823.443 34.3988 821.664 32.6203 819.409 31.3318L818.417 33.0682C820.362 34.1797 821.883 35.7012 822.995 37.6461L824.731 36.6539ZM819.42 31.3381C817.206 30.0355 814.656 29.4 811.803 29.4V31.4C814.35 31.4 816.54 31.9645 818.406 33.0619L819.42 31.3381ZM811.803 29.4C808.894 29.4 806.288 30.0338 804.017 31.3318L805.009 33.0682C806.938 31.9662 809.192 31.4 811.803 31.4V29.4ZM804.006 31.3381C801.805 32.6326 800.061 34.4456 798.779 36.7544L800.527 37.7256C801.644 35.7144 803.141 34.1674 805.02 33.0619L804.006 31.3381ZM798.774 36.7629C797.54 39.0366 796.943 41.6974 796.943 44.71H798.943C798.943 41.9626 799.486 39.6434 800.532 37.7171L798.774 36.7629ZM796.943 44.71V46.51H798.943V44.71H796.943ZM796.943 46.51C796.943 49.5487 797.641 52.2792 799.063 54.6711L800.783 53.6489C799.565 51.6008 798.943 49.2313 798.943 46.51H796.943ZM799.063 54.6711C800.485 57.0623 802.491 58.9023 805.056 60.1844L805.95 58.3956C803.714 57.2777 802.001 55.6977 800.783 53.6489L799.063 54.6711ZM805.056 60.1844C807.616 61.4643 810.533 62.09 813.783 62.09V60.09C810.793 60.09 808.19 59.5157 805.95 58.3956L805.056 60.1844ZM813.783 62.09C816.587 62.09 819.142 61.6537 821.435 60.762L820.711 58.898C818.683 59.6863 816.379 60.09 813.783 60.09V62.09ZM821.435 60.762C823.744 59.8642 825.788 58.4552 827.564 56.5523L826.102 55.1877C824.518 56.8848 822.722 58.1158 820.711 58.898L821.435 60.762ZM826.079 56.5264L832.109 63.4564L833.617 62.1436L827.587 55.2136L826.079 56.5264ZM832.104 62.1492C830.053 64.5416 827.455 66.4029 824.287 67.7274L825.059 69.5726C828.491 68.1371 831.353 66.0984 833.622 63.4508L832.104 62.1492ZM824.296 67.7239C821.197 68.9864 817.609 69.63 813.513 69.63V71.63C817.817 71.63 821.669 70.9536 825.05 69.5761L824.296 67.7239ZM850.149 69.1L849.866 70.0591L849.876 70.0619L849.885 70.0644L850.149 69.1ZM841.419 65.23L840.527 64.779L840.135 65.5553L840.849 66.0514L841.419 65.23ZM845.739 56.68L846.278 55.8373L845.346 55.2418L844.847 56.229L845.739 56.68ZM853.479 60.1L853.767 59.1422L853.479 60.1ZM870.129 60.01L869.62 59.1497L869.612 59.154L869.605 59.1583L870.129 60.01ZM870.939 53.17L870.385 54.0021L870.401 54.013L870.418 54.0233L870.939 53.17ZM860.859 50.56L860.718 51.55L860.722 51.5505L860.859 50.56ZM854.469 49.39L854.22 50.3585L854.236 50.3626L854.252 50.3662L854.469 49.39ZM848.709 47.14L848.204 48.0027L848.215 48.0093L848.226 48.0156L848.709 47.14ZM845.469 28.51L846.256 29.1269L846.264 29.1167L845.469 28.51ZM852.759 23.29L853.118 24.2234L853.128 24.2197L852.759 23.29ZM873.819 22.48L873.606 23.457L873.819 22.48ZM882.009 25.54L882.902 25.991L883.318 25.1677L882.531 24.6867L882.009 25.54ZM877.689 34.09L877.172 34.9455L878.095 35.5045L878.582 34.541L877.689 34.09ZM870.759 31.3L870.529 32.2731L870.544 32.2766L870.558 32.2796L870.759 31.3ZM856.269 32.02L855.75 31.1652L855.743 31.1694L855.737 31.1738L856.269 32.02ZM855.459 39.13L854.905 39.962L855.459 39.13ZM859.689 40.84L859.455 41.8121L859.689 40.84ZM865.449 41.92L865.308 42.91L865.323 42.9122L865.339 42.9139L865.449 41.92ZM871.839 43.09L872.088 42.1215L871.839 43.09ZM877.599 45.34L877.116 46.2156L877.134 46.2254L877.152 46.2344L877.599 45.34ZM880.839 63.61L880.063 62.9802L880.057 62.9866L880.052 62.9931L880.839 63.61ZM873.369 68.83L873.717 69.7677L873.724 69.7649L873.732 69.762L873.369 68.83ZM861.759 69.63C857.825 69.63 854.044 69.131 850.414 68.1356L849.885 70.0644C853.695 71.109 857.654 71.63 861.759 71.63V69.63ZM850.432 68.1409C846.833 67.0788 844.032 65.8269 841.99 64.4086L840.849 66.0514C843.127 67.6331 846.146 68.9613 849.866 70.0591L850.432 68.1409ZM842.312 65.681L846.632 57.131L844.847 56.229L840.527 64.779L842.312 65.681ZM845.201 57.5227C847.454 58.9621 850.122 60.1369 853.192 61.0578L853.767 59.1422C850.836 58.2631 848.345 57.1579 846.278 55.8373L845.201 57.5227ZM853.192 61.0578C856.281 61.9846 859.378 62.45 862.479 62.45V60.45C859.581 60.45 856.678 60.0154 853.767 59.1422L853.192 61.0578ZM862.479 62.45C866.06 62.45 868.847 61.9734 870.653 60.8617L869.605 59.1583C868.292 59.9666 865.978 60.45 862.479 60.45V62.45ZM870.639 60.8703C872.504 59.7649 873.559 58.1764 873.559 56.14H871.559C871.559 57.3436 870.994 58.3351 869.62 59.1497L870.639 60.8703ZM873.559 56.14C873.559 54.4898 872.853 53.1677 871.461 52.3167L870.418 54.0233C871.185 54.4923 871.559 55.1502 871.559 56.14H873.559ZM871.494 52.338C870.276 51.5257 868.734 50.9478 866.912 50.5707L866.507 52.5293C868.164 52.8722 869.443 53.3743 870.385 54.0021L871.494 52.338ZM866.912 50.5707C865.146 50.2054 863.174 49.8719 860.997 49.5695L860.722 51.5505C862.865 51.8481 864.792 52.1746 866.507 52.5293L866.912 50.5707ZM861.001 49.5701C858.927 49.2738 856.822 48.8885 854.686 48.4138L854.252 50.3662C856.436 50.8515 858.591 51.2462 860.718 51.5499L861.001 49.5701ZM854.718 48.4215C852.693 47.9006 850.852 47.1802 849.192 46.2644L848.226 48.0156C850.046 49.0198 852.046 49.7994 854.22 50.3585L854.718 48.4215ZM849.215 46.2773C847.609 45.3359 846.315 44.0957 845.32 42.5492L843.638 43.6308C844.804 45.4443 846.329 46.904 848.204 48.0027L849.215 46.2773ZM845.32 42.5492C844.377 41.0811 843.859 39.0689 843.859 36.43H841.859C841.859 39.3111 842.422 41.7389 843.638 43.6308L845.32 42.5492ZM843.859 36.43C843.859 33.5734 844.666 31.1556 846.256 29.1269L844.682 27.8931C842.792 30.3044 841.859 33.1666 841.859 36.43H843.859ZM846.264 29.1167C847.874 27.0067 850.142 25.3681 853.118 24.2233L852.4 22.3567C849.137 23.6119 846.544 25.4533 844.674 27.9033L846.264 29.1167ZM853.128 24.2197C856.164 23.0166 859.784 22.4 864.009 22.4V20.4C859.595 20.4 855.715 21.0434 852.391 22.3603L853.128 24.2197ZM864.009 22.4C867.175 22.4 870.373 22.7516 873.606 23.457L874.032 21.503C870.665 20.7684 867.324 20.4 864.009 20.4V22.4ZM873.606 23.457C876.831 24.1607 879.449 25.1472 881.488 26.3933L882.531 24.6867C880.25 23.2928 877.407 22.2393 874.032 21.503L873.606 23.457ZM881.117 25.089L876.797 33.639L878.582 34.541L882.902 25.991L881.117 25.089ZM878.207 33.2345C875.841 31.8021 873.424 30.8259 870.96 30.3204L870.558 32.2796C872.774 32.7341 874.978 33.6179 877.172 34.9455L878.207 33.2345ZM870.99 30.3269C868.636 29.7695 866.279 29.49 863.919 29.49V31.49C866.12 31.49 868.322 31.7505 870.529 32.2731L870.99 30.3269ZM863.919 29.49C860.435 29.49 857.664 30.0034 855.75 31.1652L856.788 32.8748C858.235 31.9966 860.564 31.49 863.919 31.49V29.49ZM855.737 31.1738C853.902 32.3289 852.839 33.9051 852.839 35.89H854.839C854.839 34.7549 855.397 33.7511 856.802 32.8662L855.737 31.1738ZM852.839 35.89C852.839 37.6213 853.512 39.0339 854.905 39.962L856.014 38.2979C855.246 37.7861 854.839 37.0387 854.839 35.89H852.839ZM854.905 39.962C856.112 40.7667 857.641 41.3742 859.455 41.8121L859.924 39.8679C858.258 39.4658 856.967 38.9333 856.014 38.2979L854.905 39.962ZM859.455 41.8121C861.23 42.2407 863.182 42.6063 865.308 42.91L865.591 40.93C863.517 40.6337 861.628 40.2793 859.924 39.8679L859.455 41.8121ZM865.339 42.9139C867.452 43.1487 869.536 43.5302 871.59 44.0585L872.088 42.1215C869.943 41.5698 867.766 41.1713 865.56 40.9261L865.339 42.9139ZM871.59 44.0585C873.616 44.5794 875.456 45.2998 877.116 46.2156L878.082 44.4644C876.262 43.4602 874.263 42.6806 872.088 42.1215L871.59 44.0585ZM877.152 46.2344C878.793 47.0547 880.096 48.2231 881.078 49.7508L882.76 48.6692C881.583 46.8369 880.006 45.4253 878.047 44.4456L877.152 46.2344ZM881.078 49.7508C882.024 51.222 882.539 53.2062 882.539 55.78H884.539C884.539 52.9538 883.975 50.558 882.76 48.6692L881.078 49.7508ZM882.539 55.78C882.539 58.563 881.711 60.9476 880.063 62.9802L881.616 64.2398C883.568 61.8324 884.539 58.997 884.539 55.78H882.539ZM880.052 62.9931C878.446 65.0424 876.118 66.688 873.007 67.898L873.732 69.762C877.1 68.452 879.753 66.6176 881.626 64.2269L880.052 62.9931ZM873.022 67.8923C869.921 69.0407 866.175 69.63 861.759 69.63V71.63C866.344 71.63 870.338 71.0193 873.717 69.7677L873.022 67.8923ZM893.228 70H892.228V71H893.228V70ZM893.228 21.94V20.94H892.228V21.94H893.228ZM904.478 21.94H905.478V20.94H904.478V21.94ZM904.478 70V71H905.478V70H904.478ZM893.678 12.04L892.971 12.7471L892.978 12.755L892.986 12.7626L893.678 12.04ZM893.678 2.49999L894.368 3.22335L894.369 3.22264L893.678 2.49999ZM904.028 2.41L903.337 3.13335L903.354 3.14937L903.371 3.1646L904.028 2.41ZM904.118 12.04L904.825 12.7471L904.833 12.7392L904.84 12.7312L904.118 12.04ZM894.228 70V21.94H892.228V70H894.228ZM893.228 22.94H904.478V20.94H893.228V22.94ZM903.478 21.94V70H905.478V21.94H903.478ZM904.478 69H893.228V71H904.478V69ZM898.898 13.02C897.027 13.02 895.543 12.4409 894.369 11.3174L892.986 12.7626C894.572 14.2791 896.568 15.02 898.898 15.02V13.02ZM894.385 11.3329C893.252 10.1997 892.698 8.8637 892.698 7.27H890.698C890.698 9.3963 891.464 11.2403 892.971 12.7471L894.385 11.3329ZM892.698 7.27C892.698 5.60731 893.257 4.28391 894.368 3.22335L892.987 1.77664C891.458 3.23609 890.698 5.09269 890.698 7.27H892.698ZM894.369 3.22264C895.543 2.09911 897.027 1.52 898.898 1.52V-0.480001C896.568 -0.480001 894.572 0.260883 892.986 1.77735L894.369 3.22264ZM898.898 1.52C900.782 1.52 902.231 2.0778 903.337 3.13335L904.718 1.68664C903.184 0.2222 901.213 -0.480001 898.898 -0.480001V1.52ZM903.371 3.1646C904.529 4.17099 905.098 5.42376 905.098 7H907.098C907.098 4.85623 906.286 3.04901 904.684 1.65539L903.371 3.1646ZM905.098 7C905.098 8.73299 904.53 10.1623 903.395 11.3488L904.84 12.7312C906.345 11.1577 907.098 9.227 907.098 7H905.098ZM903.411 11.3329C902.308 12.4357 900.838 13.02 898.898 13.02V15.02C901.278 15.02 903.288 14.2843 904.825 12.7471L903.411 11.3329ZM927.973 86.29L928.244 85.3274L928.235 85.3249L927.973 86.29ZM917.623 81.25L916.764 80.7382L916.324 81.4766L916.988 82.0224L917.623 81.25ZM922.663 72.79L923.301 72.02L922.402 71.2748L921.804 72.2782L922.663 72.79ZM930.583 76.93L930.9 75.9813L930.889 75.9778L930.583 76.93ZM952.003 74.86L951.305 74.1442L951.296 74.1529L952.003 74.86ZM955.693 55.42L954.697 55.3376L954.693 55.3787V55.42H955.693ZM956.593 44.53L957.59 44.6124L957.595 44.5547L957.593 44.497L956.593 44.53ZM956.233 33.64H955.233V33.6565L955.234 33.673L956.233 33.64ZM956.233 21.94V20.94H955.233V21.94H956.233ZM966.943 21.94H967.943V20.94H966.943V21.94ZM960.283 81.88L959.607 81.1437L959.601 81.1486L960.283 81.88ZM927.163 64.96L926.687 65.8395L926.696 65.8442L926.705 65.8486L927.163 64.96ZM918.433 56.77L917.577 57.2867L917.584 57.2974L918.433 56.77ZM918.433 32.38L917.584 31.8526L917.577 31.8633L918.433 32.38ZM927.163 24.28L926.705 23.3914L926.699 23.3945L927.163 24.28ZM950.563 23.83L950.116 24.7244L950.563 23.83ZM958.303 31.39L957.431 31.8796L957.438 31.891L958.303 31.39ZM958.303 57.76L957.434 57.2655L957.431 57.2705L958.303 57.76ZM950.563 65.41L951.01 66.3044L951.017 66.3011L951.024 66.2978L950.563 65.41ZM948.853 56.59L949.31 57.4796L949.32 57.4747L949.329 57.4697L948.853 56.59ZM953.983 51.73L953.126 51.2155L953.121 51.223L953.983 51.73ZM953.983 37.42L953.115 37.9161L953.124 37.931L953.133 37.9455L953.983 37.42ZM948.853 32.65L948.396 33.5396L948.406 33.5445L948.416 33.5492L948.853 32.65ZM933.643 32.65L934.081 33.5493L934.091 33.5444L933.643 32.65ZM928.423 37.42L927.566 36.9055L927.561 36.913L928.423 37.42ZM928.423 51.73L927.555 52.2261L927.564 52.241L927.573 52.2555L928.423 51.73ZM933.643 56.59L933.168 57.4697L933.182 57.4773L933.196 57.4844L933.643 56.59ZM941.023 87.09C936.675 87.09 932.416 86.5025 928.244 85.3275L927.702 87.2525C932.051 88.4775 936.492 89.09 941.023 89.09V87.09ZM928.235 85.3249C924.139 84.2132 920.826 82.5885 918.258 80.4776L916.988 82.0224C919.821 84.3515 923.407 86.0868 927.711 87.2551L928.235 85.3249ZM918.482 81.7618L923.522 73.3018L921.804 72.2782L916.764 80.7382L918.482 81.7618ZM922.025 73.56C924.243 75.3974 927.003 76.8317 930.278 77.8822L930.889 75.9778C927.804 74.9883 925.284 73.6626 923.301 72.02L922.025 73.56ZM930.267 77.8787C933.605 78.9915 936.982 79.55 940.393 79.55V77.55C937.204 77.55 934.041 77.0285 930.9 75.9813L930.267 77.8787ZM940.393 79.55C945.803 79.55 949.985 78.2924 952.71 75.5671L951.296 74.1529C949.101 76.3476 945.543 77.55 940.393 77.55V79.55ZM952.702 75.5758C955.423 72.921 956.693 68.9862 956.693 63.97H954.693C954.693 68.6738 953.504 71.999 951.305 74.1442L952.702 75.5758ZM956.693 63.97V55.42H954.693V63.97H956.693ZM956.69 55.5024L957.59 44.6124L955.597 44.4476L954.697 55.3376L956.69 55.5024ZM957.593 44.497L957.233 33.607L955.234 33.673L955.594 44.563L957.593 44.497ZM957.233 33.64V21.94H955.233V33.64H957.233ZM956.233 22.94H966.943V20.94H956.233V22.94ZM965.943 21.94V62.71H967.943V21.94H965.943ZM965.943 62.71C965.943 71.2561 963.763 77.3242 959.607 81.1437L960.96 82.6163C965.683 78.2758 967.943 71.5639 967.943 62.71H965.943ZM959.601 81.1486C955.407 85.0591 949.268 87.09 941.023 87.09V89.09C949.578 89.09 956.279 86.9809 960.965 82.6114L959.601 81.1486ZM939.583 66.84C935.168 66.84 931.188 65.9118 927.622 64.0714L926.705 65.8486C930.579 67.8482 934.878 68.84 939.583 68.84V66.84ZM927.639 64.0805C924.13 62.1819 921.35 59.5722 919.283 56.2426L917.584 57.2974C919.837 60.9278 922.877 63.7781 926.687 65.8395L927.639 64.0805ZM919.289 56.2533C917.297 52.9516 916.283 49.056 916.283 44.53H914.283C914.283 49.364 915.37 53.6284 917.577 57.2867L919.289 56.2533ZM916.283 44.53C916.283 40.0667 917.296 36.2003 919.289 32.8967L917.577 31.8633C915.371 35.5197 914.283 39.7533 914.283 44.53H916.283ZM919.283 32.9074C921.348 29.5804 924.124 27.0034 927.628 25.1655L926.699 23.3945C922.882 25.3966 919.839 28.2196 917.584 31.8526L919.283 32.9074ZM927.622 25.1686C931.188 23.3282 935.168 22.4 939.583 22.4V20.4C934.878 20.4 930.579 21.3918 926.705 23.3914L927.622 25.1686ZM939.583 22.4C943.528 22.4 947.032 23.1822 950.116 24.7244L951.01 22.9356C947.615 21.2378 943.799 20.4 939.583 20.4V22.4ZM950.116 24.7244C953.162 26.2475 955.601 28.6188 957.431 31.8795L959.175 30.9005C957.166 27.3212 954.444 24.6525 951.01 22.9356L950.116 24.7244ZM957.438 31.891C959.304 35.1144 960.273 39.3065 960.273 44.53H962.273C962.273 39.0735 961.263 34.5056 959.169 30.889L957.438 31.891ZM960.273 44.53C960.273 49.7525 959.304 53.9783 957.434 57.2655L959.172 58.2545C961.262 54.5817 962.273 49.9875 962.273 44.53H960.273ZM957.431 57.2705C955.599 60.5337 953.157 62.9388 950.103 64.5222L951.024 66.2978C954.45 64.5212 957.167 61.8263 959.175 58.2495L957.431 57.2705ZM950.116 64.5156C947.032 66.0578 943.528 66.84 939.583 66.84V68.84C943.799 68.84 947.615 68.0022 951.01 66.3044L950.116 64.5156ZM941.293 59.3C944.251 59.3 946.931 58.7011 949.31 57.4796L948.396 55.7004C946.335 56.7589 943.975 57.3 941.293 57.3V59.3ZM949.329 57.4697C951.698 56.189 953.547 54.4446 954.845 52.237L953.121 51.223C952.02 53.0954 950.448 54.591 948.378 55.7103L949.329 57.4697ZM954.841 52.2445C956.203 49.9734 956.873 47.3921 956.873 44.53H954.873C954.873 47.0679 954.283 49.2865 953.126 51.2155L954.841 52.2445ZM956.873 44.53C956.873 41.6684 956.203 39.1117 954.834 36.8945L953.133 37.9455C954.283 39.8083 954.873 41.9916 954.873 44.53H956.873ZM954.852 36.9239C953.55 34.6454 951.688 32.9168 949.291 31.7508L948.416 33.5492C950.459 34.5432 952.017 35.9946 953.115 37.9161L954.852 36.9239ZM949.31 31.7604C946.931 30.5389 944.251 29.94 941.293 29.94V31.94C943.975 31.94 946.335 32.4811 948.396 33.5396L949.31 31.7604ZM941.293 29.94C938.335 29.94 935.629 30.539 933.196 31.7556L934.091 33.5444C936.217 32.481 938.612 31.94 941.293 31.94V29.94ZM933.206 31.7508C930.813 32.9149 928.926 34.6378 927.566 36.9055L929.281 37.9345C930.44 36.0022 932.034 34.5451 934.081 33.5492L933.206 31.7508ZM927.561 36.913C926.259 39.1273 925.623 41.6773 925.623 44.53H927.623C927.623 41.9827 928.188 39.7927 929.285 37.927L927.561 36.913ZM925.623 44.53C925.623 47.3833 926.259 49.958 927.555 52.2261L929.292 51.2339C928.188 49.302 927.623 47.0767 927.623 44.53H925.623ZM927.573 52.2555C928.929 54.4523 930.802 56.191 933.168 57.4697L934.119 55.7103C932.044 54.589 930.437 53.0877 929.274 51.2045L927.573 52.2555ZM933.196 57.4844C935.629 58.701 938.335 59.3 941.293 59.3V57.3C938.612 57.3 936.217 56.759 934.091 55.6956L933.196 57.4844ZM1019.26 23.65L1018.82 24.5445L1018.82 24.5479L1019.26 23.65ZM1026.46 30.58L1025.59 31.0671L1025.59 31.0743L1026.46 30.58ZM1029.07 70V71H1030.07V70H1029.07ZM1017.82 70H1016.82V71H1017.82V70ZM1014.76 34.36L1014.04 35.046L1014.04 35.0514L1014.05 35.0568L1014.76 34.36ZM999.374 32.83L999.841 33.7138L999.374 32.83ZM994.604 37.69L993.719 37.2232L993.714 37.2327L994.604 37.69ZM992.984 70V71H993.984V70H992.984ZM981.734 70H980.734V71H981.734V70ZM981.734 21.94V20.94H980.734V21.94H981.734ZM992.444 21.94H993.444V20.94H992.444V21.94ZM992.444 34.9L991.541 35.3307L993.444 34.9H992.444ZM990.554 30.94L989.677 30.4587L989.43 30.9081L989.651 31.3707L990.554 30.94ZM997.844 23.92L998.297 24.8111L998.304 24.8078L997.844 23.92ZM1009 22.4C1012.71 22.4 1015.97 23.1233 1018.82 24.5444L1019.71 22.7556C1016.55 21.1767 1012.98 20.4 1009 20.4V22.4ZM1018.82 24.5479C1021.69 25.9538 1023.94 28.1158 1025.59 31.0671L1027.34 30.0929C1025.5 26.8042 1022.96 24.3462 1019.7 22.7521L1018.82 24.5479ZM1025.59 31.0743C1027.22 33.937 1028.07 37.7104 1028.07 42.46H1030.07C1030.07 37.4896 1029.18 33.3429 1027.33 30.0857L1025.59 31.0743ZM1028.07 42.46V70H1030.07V42.46H1028.07ZM1029.07 69H1017.82V71H1029.07V69ZM1018.82 70V43.9H1016.82V70H1018.82ZM1018.82 43.9C1018.82 39.4977 1017.77 36.0201 1015.48 33.6632L1014.05 35.0568C1015.84 36.8999 1016.82 39.7823 1016.82 43.9H1018.82ZM1015.49 33.674C1013.28 31.3262 1010.2 30.21 1006.39 30.21V32.21C1009.79 32.21 1012.29 33.1938 1014.04 35.046L1015.49 33.674ZM1006.39 30.21C1003.61 30.21 1001.11 30.7796 998.906 31.9462L999.841 33.7138C1001.72 32.7204 1003.89 32.21 1006.39 32.21V30.21ZM998.906 31.9462C996.677 33.1258 994.947 34.8964 993.719 37.2232L995.488 38.1568C996.54 36.1636 997.99 34.6942 999.841 33.7138L998.906 31.9462ZM993.714 37.2327C992.54 39.5168 991.984 42.357 991.984 45.7H993.984C993.984 42.563 994.508 40.0632 995.493 38.1473L993.714 37.2327ZM991.984 45.7V70H993.984V45.7H991.984ZM992.984 69H981.734V71H992.984V69ZM982.734 70V21.94H980.734V70H982.734ZM981.734 22.94H992.444V20.94H981.734V22.94ZM991.444 21.94V34.9H993.444V21.94H991.444ZM993.346 34.4693L991.456 30.5093L989.651 31.3707L991.541 35.3307L993.346 34.4693ZM991.43 31.4213C993.011 28.5413 995.292 26.3421 998.297 24.811L997.39 23.029C994.035 24.7379 991.456 27.2187 989.677 30.4587L991.43 31.4213ZM998.304 24.8078C1001.38 23.2119 1004.94 22.4 1009 22.4V20.4C1004.67 20.4 1000.79 21.2681 997.383 23.0322L998.304 24.8078ZM1046.58 69.1L1046.3 70.0591L1046.31 70.0619L1046.32 70.0644L1046.58 69.1ZM1037.85 65.23L1036.96 64.779L1036.57 65.5553L1037.28 66.0514L1037.85 65.23ZM1042.17 56.68L1042.71 55.8373L1041.78 55.2418L1041.28 56.229L1042.17 56.68ZM1049.91 60.1L1050.2 59.1422L1049.91 60.1ZM1066.56 60.01L1066.06 59.1497L1066.05 59.154L1066.04 59.1583L1066.56 60.01ZM1067.37 53.17L1066.82 54.0021L1066.84 54.013L1066.85 54.0233L1067.37 53.17ZM1057.29 50.56L1057.15 51.55L1057.16 51.5505L1057.29 50.56ZM1050.9 49.39L1050.66 50.3585L1050.67 50.3626L1050.69 50.3662L1050.9 49.39ZM1045.14 47.14L1044.64 48.0027L1044.65 48.0093L1044.66 48.0156L1045.14 47.14ZM1041.9 28.51L1042.69 29.1269L1042.7 29.1167L1041.9 28.51ZM1049.19 23.29L1049.55 24.2234L1049.56 24.2197L1049.19 23.29ZM1070.25 22.48L1070.04 23.457L1070.25 22.48ZM1078.44 25.54L1079.34 25.991L1079.75 25.1677L1078.97 24.6867L1078.44 25.54ZM1074.12 34.09L1073.61 34.9455L1074.53 35.5045L1075.02 34.541L1074.12 34.09ZM1067.19 31.3L1066.96 32.2731L1066.98 32.2766L1066.99 32.2796L1067.19 31.3ZM1052.7 32.02L1052.19 31.1652L1052.18 31.1694L1052.17 31.1738L1052.7 32.02ZM1051.89 39.13L1051.34 39.962L1051.89 39.13ZM1056.12 40.84L1055.89 41.8121L1056.12 40.84ZM1061.88 41.92L1061.74 42.91L1061.76 42.9122L1061.77 42.9139L1061.88 41.92ZM1068.27 43.09L1068.52 42.1215L1068.27 43.09ZM1074.03 45.34L1073.55 46.2156L1073.57 46.2254L1073.59 46.2344L1074.03 45.34ZM1077.27 63.61L1076.5 62.9802L1076.49 62.9866L1076.49 62.9931L1077.27 63.61ZM1069.8 68.83L1070.15 69.7677L1070.16 69.7649L1070.17 69.762L1069.8 68.83ZM1058.19 69.63C1054.26 69.63 1050.48 69.131 1046.85 68.1356L1046.32 70.0644C1050.13 71.109 1054.09 71.63 1058.19 71.63V69.63ZM1046.87 68.1409C1043.27 67.0788 1040.47 65.8269 1038.43 64.4086L1037.28 66.0514C1039.56 67.6331 1042.58 68.9613 1046.3 70.0591L1046.87 68.1409ZM1038.75 65.681L1043.07 57.131L1041.28 56.229L1036.96 64.779L1038.75 65.681ZM1041.64 57.5227C1043.89 58.9621 1046.56 60.1369 1049.63 61.0578L1050.2 59.1422C1047.27 58.2631 1044.78 57.1579 1042.71 55.8373L1041.64 57.5227ZM1049.63 61.0578C1052.72 61.9846 1055.81 62.45 1058.91 62.45V60.45C1056.02 60.45 1053.11 60.0154 1050.2 59.1422L1049.63 61.0578ZM1058.91 62.45C1062.5 62.45 1065.28 61.9734 1067.09 60.8617L1066.04 59.1583C1064.73 59.9666 1062.41 60.45 1058.91 60.45V62.45ZM1067.07 60.8703C1068.94 59.7649 1069.99 58.1764 1069.99 56.14H1067.99C1067.99 57.3436 1067.43 58.3351 1066.06 59.1497L1067.07 60.8703ZM1069.99 56.14C1069.99 54.4898 1069.29 53.1677 1067.9 52.3167L1066.85 54.0233C1067.62 54.4923 1067.99 55.1502 1067.99 56.14H1069.99ZM1067.93 52.338C1066.71 51.5257 1065.17 50.9478 1063.35 50.5707L1062.94 52.5293C1064.6 52.8722 1065.88 53.3743 1066.82 54.0021L1067.93 52.338ZM1063.35 50.5707C1061.58 50.2054 1059.61 49.8719 1057.43 49.5695L1057.16 51.5505C1059.3 51.8481 1061.23 52.1746 1062.94 52.5293L1063.35 50.5707ZM1057.44 49.5701C1055.36 49.2738 1053.26 48.8885 1051.12 48.4138L1050.69 50.3662C1052.87 50.8515 1055.03 51.2462 1057.15 51.5499L1057.44 49.5701ZM1051.15 48.4215C1049.13 47.9006 1047.29 47.1802 1045.63 46.2644L1044.66 48.0156C1046.48 49.0198 1048.48 49.7994 1050.66 50.3585L1051.15 48.4215ZM1045.65 46.2773C1044.04 45.3359 1042.75 44.0957 1041.76 42.5492L1040.07 43.6308C1041.24 45.4443 1042.77 46.904 1044.64 48.0027L1045.65 46.2773ZM1041.76 42.5492C1040.81 41.0811 1040.29 39.0689 1040.29 36.43H1038.29C1038.29 39.3111 1038.86 41.7389 1040.07 43.6308L1041.76 42.5492ZM1040.29 36.43C1040.29 33.5734 1041.1 31.1556 1042.69 29.1269L1041.12 27.8931C1039.23 30.3044 1038.29 33.1666 1038.29 36.43H1040.29ZM1042.7 29.1167C1044.31 27.0067 1046.58 25.3681 1049.55 24.2233L1048.84 22.3567C1045.57 23.6119 1042.98 25.4533 1041.11 27.9033L1042.7 29.1167ZM1049.56 24.2197C1052.6 23.0166 1056.22 22.4 1060.44 22.4V20.4C1056.03 20.4 1052.15 21.0434 1048.83 22.3603L1049.56 24.2197ZM1060.44 22.4C1063.61 22.4 1066.81 22.7516 1070.04 23.457L1070.47 21.503C1067.1 20.7684 1063.76 20.4 1060.44 20.4V22.4ZM1070.04 23.457C1073.27 24.1607 1075.88 25.1472 1077.92 26.3933L1078.97 24.6867C1076.69 23.2928 1073.84 22.2393 1070.47 21.503L1070.04 23.457ZM1077.55 25.089L1073.23 33.639L1075.02 34.541L1079.34 25.991L1077.55 25.089ZM1074.64 33.2345C1072.28 31.8021 1069.86 30.8259 1067.4 30.3204L1066.99 32.2796C1069.21 32.7341 1071.41 33.6179 1073.61 34.9455L1074.64 33.2345ZM1067.43 30.3269C1065.07 29.7695 1062.71 29.49 1060.35 29.49V31.49C1062.56 31.49 1064.76 31.7505 1066.96 32.2731L1067.43 30.3269ZM1060.35 29.49C1056.87 29.49 1054.1 30.0034 1052.19 31.1652L1053.22 32.8748C1054.67 31.9966 1057 31.49 1060.35 31.49V29.49ZM1052.17 31.1738C1050.34 32.3289 1049.27 33.9051 1049.27 35.89H1051.27C1051.27 34.7549 1051.83 33.7511 1053.24 32.8662L1052.17 31.1738ZM1049.27 35.89C1049.27 37.6213 1049.95 39.0339 1051.34 39.962L1052.45 38.2979C1051.68 37.7861 1051.27 37.0387 1051.27 35.89H1049.27ZM1051.34 39.962C1052.55 40.7667 1054.08 41.3742 1055.89 41.8121L1056.36 39.8679C1054.69 39.4658 1053.4 38.9333 1052.45 38.2979L1051.34 39.962ZM1055.89 41.8121C1057.67 42.2407 1059.62 42.6063 1061.74 42.91L1062.03 40.93C1059.95 40.6337 1058.06 40.2793 1056.36 39.8679L1055.89 41.8121ZM1061.77 42.9139C1063.89 43.1487 1065.97 43.5302 1068.03 44.0585L1068.52 42.1215C1066.38 41.5698 1064.2 41.1713 1062 40.9261L1061.77 42.9139ZM1068.03 44.0585C1070.05 44.5794 1071.89 45.2998 1073.55 46.2156L1074.52 44.4644C1072.7 43.4602 1070.7 42.6806 1068.52 42.1215L1068.03 44.0585ZM1073.59 46.2344C1075.23 47.0547 1076.53 48.2231 1077.51 49.7508L1079.2 48.6692C1078.02 46.8369 1076.44 45.4253 1074.48 44.4456L1073.59 46.2344ZM1077.51 49.7508C1078.46 51.222 1078.97 53.2062 1078.97 55.78H1080.97C1080.97 52.9538 1080.41 50.558 1079.2 48.6692L1077.51 49.7508ZM1078.97 55.78C1078.97 58.563 1078.15 60.9476 1076.5 62.9802L1078.05 64.2398C1080 61.8324 1080.97 58.997 1080.97 55.78H1078.97ZM1076.49 62.9931C1074.88 65.0424 1072.55 66.688 1069.44 67.898L1070.17 69.762C1073.54 68.452 1076.19 66.6176 1078.06 64.2269L1076.49 62.9931ZM1069.46 67.8923C1066.36 69.0407 1062.61 69.63 1058.19 69.63V71.63C1062.78 71.63 1066.77 71.0193 1070.15 69.7677L1069.46 67.8923Z" fill="#0298DA" fill-opacity="0.4" mask="url(#path-1-outside-1_3_153)"/>
</svg>
