<svg width="238" height="153" viewBox="0 0 238 153" fill="none" xmlns="http://www.w3.org/2000/svg">
<path d="M5.592 14.2121H13.656L13.656 17.3321L5.592 17.3321V14.2121ZM5.88 23.4521H1.992L1.992 6.65215L14.688 6.65215V9.77215H5.88L5.88 23.4521ZM23.1594 23.6441C21.6874 23.6441 20.3914 23.3561 19.2714 22.7801C18.1674 22.2041 17.3114 21.4201 16.7034 20.4281C16.0954 19.4201 15.7914 18.2761 15.7914 16.9961C15.7914 15.7001 16.0874 14.5561 16.6794 13.5641C17.2874 12.5561 18.1114 11.7721 19.1514 11.2121C20.1914 10.6361 21.3674 10.3481 22.6794 10.3481C23.9434 10.3481 25.0794 10.6201 26.0874 11.1641C27.1114 11.6921 27.9194 12.4601 28.5114 13.4681C29.1034 14.4601 29.3994 15.6521 29.3994 17.0441C29.3994 17.1881 29.3914 17.3561 29.3754 17.5481C29.3594 17.7241 29.3434 17.8921 29.3274 18.0521H18.8394V15.8681L27.3594 15.8681L25.9194 16.5161C25.9194 15.8441 25.7834 15.2601 25.5114 14.7641C25.2394 14.2681 24.8634 13.8841 24.3834 13.6121C23.9034 13.3241 23.3434 13.1801 22.7034 13.1801C22.0634 13.1801 21.4954 13.3241 20.9994 13.6121C20.5194 13.8841 20.1434 14.2761 19.8714 14.7881C19.5994 15.2841 19.4634 15.8761 19.4634 16.5641V17.1401C19.4634 17.8441 19.6154 18.4681 19.9194 19.0121C20.2394 19.5401 20.6794 19.9481 21.2394 20.2361C21.8154 20.5081 22.4874 20.6441 23.2554 20.6441C23.9434 20.6441 24.5434 20.5401 25.0554 20.3321C25.5834 20.1241 26.0634 19.8121 26.4954 19.3961L28.4874 21.5561C27.8954 22.2281 27.1514 22.7481 26.2554 23.1161C25.3594 23.4681 24.3274 23.6441 23.1594 23.6441ZM38.3001 23.6441C36.8281 23.6441 35.5321 23.3561 34.4121 22.7801C33.3081 22.2041 32.4521 21.4201 31.8441 20.4281C31.2361 19.4201 30.9321 18.2761 30.9321 16.9961C30.9321 15.7001 31.2281 14.5561 31.8201 13.5641C32.4281 12.5561 33.2521 11.7721 34.2921 11.2121C35.3321 10.6361 36.5081 10.3481 37.8201 10.3481C39.0841 10.3481 40.2201 10.6201 41.2281 11.1641C42.2521 11.6921 43.0601 12.4601 43.6521 13.4681C44.2441 14.4601 44.5401 15.6521 44.5401 17.0441C44.5401 17.1881 44.5321 17.3561 44.5161 17.5481C44.5001 17.7241 44.4841 17.8921 44.4681 18.0521H33.9801V15.8681L42.5001 15.8681L41.0601 16.5161C41.0601 15.8441 40.9241 15.2601 40.6521 14.7641C40.3801 14.2681 40.0041 13.8841 39.5241 13.6121C39.0441 13.3241 38.4841 13.1801 37.8441 13.1801C37.2041 13.1801 36.6361 13.3241 36.1401 13.6121C35.6601 13.8841 35.2841 14.2761 35.0121 14.7881C34.7401 15.2841 34.6041 15.8761 34.6041 16.5641V17.1401C34.6041 17.8441 34.7561 18.4681 35.0601 19.0121C35.3801 19.5401 35.8201 19.9481 36.3801 20.2361C36.9561 20.5081 37.6281 20.6441 38.3961 20.6441C39.0841 20.6441 39.6841 20.5401 40.1961 20.3321C40.7241 20.1241 41.2041 19.8121 41.6361 19.3961L43.6281 21.5561C43.0361 22.2281 42.2921 22.7481 41.3961 23.1161C40.5001 23.4681 39.4681 23.6441 38.3001 23.6441ZM47.0327 23.4521L47.0327 5.64415L50.7767 5.64415L50.7767 23.4521L47.0327 23.4521ZM61.5043 23.4521L61.5043 10.2521C61.5043 8.79615 61.9363 7.63615 62.8003 6.77215C63.6643 5.89215 64.8963 5.45215 66.4963 5.45215C67.0403 5.45215 67.5603 5.50815 68.0563 5.62015C68.5683 5.73215 69.0003 5.90815 69.3523 6.14815L68.3683 8.86015C68.1603 8.71615 67.9283 8.60415 67.6723 8.52415C67.4163 8.44415 67.1443 8.40415 66.8563 8.40415C66.3123 8.40415 65.8883 8.56415 65.5843 8.88415C65.2963 9.18815 65.1523 9.65215 65.1523 10.2761V11.4761L65.2483 13.0841V23.4521H61.5043ZM59.5123 13.7081V10.8281L68.4643 10.8281V13.7081L59.5123 13.7081ZM70.4233 23.4521V10.5401H73.9993V14.1881L73.4953 13.1321C73.8793 12.2201 74.4953 11.5321 75.3433 11.0681C76.1913 10.5881 77.2233 10.3481 78.4393 10.3481V13.8041C78.2793 13.7881 78.1353 13.7801 78.0073 13.7801C77.8793 13.7641 77.7433 13.7561 77.5993 13.7561C76.5753 13.7561 75.7433 14.0521 75.1033 14.6441C74.4793 15.2201 74.1673 16.1241 74.1673 17.3561V23.4521H70.4233ZM86.9798 23.6441C85.5078 23.6441 84.2118 23.3561 83.0918 22.7801C81.9878 22.2041 81.1318 21.4201 80.5238 20.4281C79.9158 19.4201 79.6118 18.2761 79.6118 16.9961C79.6118 15.7001 79.9078 14.5561 80.4998 13.5641C81.1078 12.5561 81.9318 11.7721 82.9718 11.2121C84.0118 10.6361 85.1878 10.3481 86.4998 10.3481C87.7638 10.3481 88.8998 10.6201 89.9078 11.1641C90.9318 11.6921 91.7398 12.4601 92.3318 13.4681C92.9238 14.4601 93.2198 15.6521 93.2198 17.0441C93.2198 17.1881 93.2118 17.3561 93.1958 17.5481C93.1798 17.7241 93.1638 17.8921 93.1478 18.0521L82.6598 18.0521V15.8681L91.1797 15.8681L89.7398 16.5161C89.7398 15.8441 89.6038 15.2601 89.3318 14.7641C89.0598 14.2681 88.6838 13.8841 88.2038 13.6121C87.7238 13.3241 87.1638 13.1801 86.5238 13.1801C85.8838 13.1801 85.3158 13.3241 84.8198 13.6121C84.3398 13.8841 83.9638 14.2761 83.6918 14.7881C83.4198 15.2841 83.2838 15.8761 83.2838 16.5641V17.1401C83.2838 17.8441 83.4358 18.4681 83.7398 19.0121C84.0598 19.5401 84.4998 19.9481 85.0598 20.2361C85.6358 20.5081 86.3078 20.6441 87.0758 20.6441C87.7638 20.6441 88.3638 20.5401 88.8758 20.3321C89.4038 20.1241 89.8838 19.8121 90.3158 19.3961L92.3078 21.5561C91.7158 22.2281 90.9718 22.7481 90.0758 23.1161C89.1798 23.4681 88.1478 23.6441 86.9798 23.6441ZM102.12 23.6441C100.648 23.6441 99.3524 23.3561 98.2324 22.7801C97.1284 22.2041 96.2724 21.4201 95.6644 20.4281C95.0564 19.4201 94.7524 18.2761 94.7524 16.9961C94.7524 15.7001 95.0484 14.5561 95.6404 13.5641C96.2484 12.5561 97.0724 11.7721 98.1124 11.2121C99.1524 10.6361 100.328 10.3481 101.64 10.3481C102.904 10.3481 104.04 10.6201 105.048 11.1641C106.072 11.6921 106.88 12.4601 107.472 13.4681C108.064 14.4601 108.36 15.6521 108.36 17.0441C108.36 17.1881 108.352 17.3561 108.336 17.5481C108.32 17.7241 108.304 17.8921 108.288 18.0521H97.8004V15.8681L106.32 15.8681L104.88 16.5161C104.88 15.8441 104.744 15.2601 104.472 14.7641C104.2 14.2681 103.824 13.8841 103.344 13.6121C102.864 13.3241 102.304 13.1801 101.664 13.1801C101.024 13.1801 100.456 13.3241 99.9604 13.6121C99.4804 13.8841 99.1044 14.2761 98.8324 14.7881C98.5604 15.2841 98.4244 15.8761 98.4244 16.5641V17.1401C98.4244 17.8441 98.5764 18.4681 98.8804 19.0121C99.2004 19.5401 99.6404 19.9481 100.2 20.2361C100.776 20.5081 101.448 20.6441 102.216 20.6441C102.904 20.6441 103.504 20.5401 104.016 20.3321C104.544 20.1241 105.024 19.8121 105.456 19.3961L107.448 21.5561C106.856 22.2281 106.112 22.7481 105.216 23.1161C104.32 23.4681 103.288 23.6441 102.12 23.6441ZM122.93 23.6441C121.41 23.6441 120.226 23.2601 119.378 22.4921C118.53 21.7081 118.106 20.5481 118.106 19.0121V7.68415H121.85V18.9641C121.85 19.5081 121.994 19.9321 122.282 20.2361C122.57 20.5241 122.962 20.6681 123.458 20.6681C124.05 20.6681 124.554 20.5081 124.97 20.1881L125.978 22.8281C125.594 23.1001 125.13 23.3081 124.586 23.4521C124.058 23.5801 123.506 23.6441 122.93 23.6441ZM116.114 13.7081V10.8281L125.066 10.8281V13.7081L116.114 13.7081ZM133.825 23.6441C132.449 23.6441 131.225 23.3561 130.153 22.7801C129.097 22.2041 128.257 21.4201 127.633 20.4281C127.025 19.4201 126.721 18.2761 126.721 16.9961C126.721 15.7001 127.025 14.5561 127.633 13.5641C128.257 12.5561 129.097 11.7721 130.153 11.2121C131.225 10.6361 132.449 10.3481 133.825 10.3481C135.185 10.3481 136.401 10.6361 137.473 11.2121C138.545 11.7721 139.385 12.5481 139.993 13.5401C140.601 14.5321 140.905 15.6841 140.905 16.9961C140.905 18.2761 140.601 19.4201 139.993 20.4281C139.385 21.4201 138.545 22.2041 137.473 22.7801C136.401 23.3561 135.185 23.6441 133.825 23.6441ZM133.825 20.5721C134.449 20.5721 135.009 20.4281 135.505 20.1401C136.001 19.8521 136.393 19.4441 136.681 18.9161C136.969 18.3721 137.113 17.7321 137.113 16.9961C137.113 16.2441 136.969 15.6041 136.681 15.0761C136.393 14.5481 136.001 14.1401 135.505 13.8521C135.009 13.5641 134.449 13.4201 133.825 13.4201C133.201 13.4201 132.641 13.5641 132.145 13.8521C131.649 14.1401 131.249 14.5481 130.945 15.0761C130.657 15.6041 130.513 16.2441 130.513 16.9961C130.513 17.7321 130.657 18.3721 130.945 18.9161C131.249 19.4441 131.649 19.8521 132.145 20.1401C132.641 20.4281 133.201 20.5721 133.825 20.5721Z" fill="#0298DA"/>
<path d="M142 13.4468C240.687 -53.4357 189.613 227.899 232 130.88" stroke="#ED3237" stroke-width="2"/>
<path d="M233.963 128.324C233.752 127.847 233.15 127.649 232.619 127.884L223.955 131.701C223.424 131.936 223.163 132.513 223.374 132.991C223.584 133.468 224.186 133.666 224.718 133.431L232.419 130.038L235.468 136.957C235.678 137.435 236.28 137.632 236.812 137.398C237.343 137.164 237.604 136.587 237.393 136.109L233.963 128.324ZM228.95 140.146L233.95 129.06L232.05 128.437L227.05 139.523L228.95 140.146Z" fill="#ED3237"/>
</svg>
