<svg width="25" height="24" viewBox="0 0 25 24" fill="none" xmlns="http://www.w3.org/2000/svg">
<path d="M15.929 3.34402L14.501 4.12502L15.929 4.90602L16.71 6.33402L17.491 4.90602L18.919 4.12502L17.491 3.34402L16.71 1.91602L15.929 3.34402ZM10.497 4.15802C9.18727 4.42376 7.96502 5.01336 6.94181 5.87297C5.9186 6.73259 5.12704 7.83484 4.63939 9.07907C4.15175 10.3233 3.98358 11.6699 4.15022 12.9958C4.31686 14.3218 4.81301 15.5848 5.59336 16.6697C6.37371 17.7546 7.41341 18.6267 8.61751 19.2064C9.8216 19.7861 11.1517 20.0549 12.4865 19.9883C13.8212 19.9217 15.1179 19.5218 16.2584 18.8251C17.3988 18.1284 18.3465 17.1572 19.015 16C16.6402 15.9815 14.3689 15.0252 12.6962 13.3394C11.0235 11.6535 10.0849 9.37489 10.085 7.00002C10.085 6.02002 10.216 5.06302 10.497 4.15802ZM2.08496 12C2.08496 6.47702 6.56196 2.00002 12.085 2.00002H13.819L12.951 3.50002C12.372 4.50002 12.085 5.69002 12.085 7.00002C12.0848 8.03363 12.3136 9.05446 12.7548 9.98917C13.196 10.9239 13.8388 11.7493 14.6369 12.4061C15.435 13.0629 16.3686 13.5348 17.3708 13.7879C18.3729 14.041 19.4187 14.0691 20.433 13.87L22.115 13.543L21.572 15.169C20.247 19.137 16.502 22 12.085 22C6.56196 22 2.08496 17.523 2.08496 12ZM20.585 6.41602L21.499 8.08602L23.169 9.00002L21.499 9.91402L20.585 11.584L19.671 9.91402L18.001 9.00002L19.671 8.08602L20.585 6.41602Z" fill="#ED3237"/>
</svg>
