<svg width="36" height="37" viewBox="0 0 36 37" fill="none" xmlns="http://www.w3.org/2000/svg">
<path d="M30 12.4521L18 19.9521L6 12.4521V9.45215L18 16.9521L30 9.45215M30 6.45215H6C4.335 6.45215 3 7.78715 3 9.45215V27.4521C3 28.2478 3.31607 29.0109 3.87868 29.5735C4.44129 30.1361 5.20435 30.4521 6 30.4521H30C30.7956 30.4521 31.5587 30.1361 32.1213 29.5735C32.6839 29.0109 33 28.2478 33 27.4521V9.45215C33 8.6565 32.6839 7.89344 32.1213 7.33083C31.5587 6.76822 30.7956 6.45215 30 6.45215Z" fill="#0298DA"/>
</svg>
