<svg width="558" height="448" viewBox="0 0 558 448" fill="none" xmlns="http://www.w3.org/2000/svg">
<path fill-rule="evenodd" clip-rule="evenodd" d="M189.965 7.12781L205.069 16.6597L215.059 27.3178L242.017 15.8627L254.661 15.0702L255.972 19.511L249.756 27.3178L229.293 39.9125C240.957 49.3998 245.683 60.7971 243.473 74.1044C241.431 86.3939 229.65 94.3118 208.13 97.858L210.397 119.987H192.022C189.626 97.7694 187.664 85.6888 186.134 83.7456C169.117 83.7456 171.441 72.9811 172.373 68.3288C172.485 67.7682 172.644 67.2919 172.844 66.8811L152.092 75.1679L141.009 78.9012L139.543 75.1679L159.178 56.4695L164.205 50.9898L159.178 43.989L153.594 27.3178C155.477 23.1145 156.419 21.0129 156.419 21.0129C156.419 21.0129 158.533 20.5123 162.76 19.511H167.895L181.223 7.12781H189.965Z" fill="url(#paint0_linear_24_900)"/>
<path fill-rule="evenodd" clip-rule="evenodd" d="M194.676 8.08067C201.46 11.5448 207.076 16.6098 212.589 21.7741C213.789 22.8978 214.949 24.0645 216.213 25.2945C220.225 23.4861 224.045 21.7403 227.884 20.0388C233.848 17.3951 239.896 14.9633 246.388 13.957C248.52 13.6263 250.721 13.4398 252.868 13.5707C256.362 13.7832 257.83 16.0554 256.794 19.4133C255.826 22.5523 253.969 25.2453 251.427 27.2099C246.889 30.7177 242.15 33.9694 237.426 37.2288C235.755 38.3821 233.884 39.2455 232.429 40.0596L232.408 40.2101C234.797 43.2549 241.738 53.4857 243.43 56.7589C247.569 64.766 246.943 72.5232 242.615 80.1587C239.463 85.7184 235.021 90.0854 229.655 93.4975C224.211 96.9603 218.277 99.2493 211.968 100.577C211.24 100.73 210.52 100.921 209.483 101.17C210.152 104.936 210.796 108.551 211.434 112.167C211.702 113.675 211.968 115.185 212.218 116.697C212.422 117.942 212.937 119.616 211.294 119.945C209.768 120.314 209.449 118.207 209.117 116.363C208.441 112.604 208.733 112.915 207.982 109.911C206.82 105.262 206.932 105.254 204.934 103.999C204.47 103.795 203.088 102.758 202.112 102.108C201.659 101.806 201.245 101.452 200.902 101.03C200.614 100.675 200.527 100.447 200.563 99.8158C200.666 98.0137 202.571 98.2325 203.905 98.0517C205.55 97.8293 207.219 97.7976 208.864 97.5781C220.786 95.9899 230.82 90.9108 238.019 81.0953C243.535 73.5759 244.665 65.547 239.94 57.0376C238.752 54.8984 234.019 47.9277 231.607 44.4843L231.624 44.466C230.785 45.5307 229.072 46.4088 227.708 46.4567C224.561 46.5665 222.638 48.1068 220.746 50.4127C217.515 54.3505 212.942 56.0315 208.062 56.9456C207.183 57.1103 206.3 57.3108 205.412 57.3509C200.747 57.5627 196.968 58.9891 195.609 64.0632C195.421 64.7648 194.842 65.3861 194.366 65.9821C192.039 68.8883 189.677 69.1233 186.844 66.664C185.888 65.8336 185.518 64.7806 184.383 63.5576L184.051 63.7026C183.995 63.7754 183.933 63.8378 183.866 63.8867C182.964 64.5455 181.806 64.8546 180.795 65.3821C178.999 66.3181 177.035 67.0731 175.492 68.321C170.419 72.4255 171.445 78.7956 177.534 81.1683C179.159 81.8016 180.992 81.9848 182.751 82.2053C183.876 82.3464 185.044 82.2088 186.19 82.1438C189.967 81.9274 190.244 82.1908 190.416 86.0209C190.568 89.4037 190.691 92.7892 190.968 96.163C191.552 103.286 192.21 110.403 192.882 117.519C192.945 118.191 193.115 118.874 192.958 119.55C192.669 120.795 190.85 120.831 190.419 119.627C190.107 118.756 189.842 117.95 189.77 117.128C188.979 108.027 188.295 98.9176 187.58 89.8105C187.444 89.8188 187.301 89.8144 187.153 89.7964C184.147 89.4326 180.968 89.1145 178.268 87.8845C171.862 84.9671 167.115 80.2828 165.247 73.1912C165.155 72.8401 165.155 72.8401 165.008 71.9499C160.481 73.7591 155.669 75.7279 151.157 77.447C148.776 78.3533 146.325 79.0823 143.881 79.8078C142.912 80.0949 141.88 80.2744 140.872 80.3025C137.199 80.4031 135.869 78.328 137.67 75.2016C138.492 73.776 139.489 72.3707 140.685 71.254C146.374 65.9385 152.151 60.7173 157.918 55.4862C158.855 54.6361 159.902 53.9072 161.187 52.8932C160.511 51.2529 159.795 49.6528 159.186 48.0125C157.189 42.6287 155.091 37.2752 153.333 31.814C152.688 29.8093 152.614 27.5167 152.75 25.386C153.044 20.7713 155.965 17.6337 160.44 18.229C166.152 18.9875 169.409 16.7485 172.784 12.3921C178.636 4.83676 186.047 3.67429 194.676 8.08067ZM251.171 16.6597C249.853 16.6732 248.571 16.7119 247.334 16.9722C243.719 17.7343 240.012 18.4647 236.642 19.9072C224.678 25.0314 212.716 30.1942 200.988 35.8306C189.477 41.3628 178.251 47.4897 166.9 53.3555C166.449 53.5891 165.969 53.7798 165.544 54.0549C157.013 59.578 149.361 66.1278 142.642 73.7556C142.136 74.3298 141.69 74.956 141.164 75.7012C140.752 76.2845 141.215 77.0881 141.925 77.0135C142.322 76.972 142.653 76.9207 142.966 76.8179C146.482 75.6632 150.044 74.6105 153.468 73.2201C179.891 62.4933 205.619 50.2558 230.943 37.1732C235.919 34.602 240.615 31.4425 245.254 28.2795C247.547 26.7152 249.535 24.6373 251.434 22.5819C252.203 21.7487 252.92 20.8291 253.357 19.6736C253.914 18.2037 252.743 16.6436 251.171 16.6597ZM176.196 13.1337C174.714 14.7113 173.324 16.4009 172.09 18.1762C170.401 20.6067 168.312 21.843 165.278 21.3962C163.77 21.1739 162.219 21.1344 160.691 21.1703C157.863 21.2365 156.37 22.4693 155.894 25.1285C155.716 26.1214 155.67 27.1818 155.804 28.1796C156.647 34.4289 159.362 40.0153 161.681 45.898C177.224 37.7812 192.326 29.8951 207.979 21.7199C202.393 16.9399 197.47 12.4969 191.234 9.94821C185.572 7.63314 180.444 8.60772 176.196 13.1337Z" fill="#0298DA"/>
<path fill-rule="evenodd" clip-rule="evenodd" d="M157.751 257.537L238.657 246.436C311.246 227.963 350.833 218.727 357.419 218.727C367.298 218.727 423.791 210.539 429.647 237.856C433.151 250.141 426.384 270.495 409.346 298.919L469.145 352.864L472.341 350.292L482.561 355.245L487.275 360.275L484.899 365.576L504.753 374.321C516.82 355.806 527.513 346.941 536.832 347.727C541.903 348.513 546.563 355.827 550.811 369.67L502.573 416.45L467.249 386.984L463.41 388.681L380.737 342.525L361.884 369.129L363.374 373.179L355.423 392.596L347.931 394.129L344.7 399.35L341.621 409.01C371.694 410.56 389.546 413.04 395.176 416.45C400.807 419.86 401.892 424.702 398.432 430.977L385.947 445.79L298.625 438.019C305.147 411.479 310.38 396.338 314.324 392.596C318.268 388.855 319.198 387.549 317.115 388.681L303.813 385.306L302.159 381.857L311.584 361.708H317.115L341.621 322.569H336.349L297.021 299.816C240.07 324.513 200.648 327.405 178.755 308.492C169.648 302.708 162.647 285.723 157.751 257.537Z" fill="url(#paint1_linear_24_900)"/>
<path fill-rule="evenodd" clip-rule="evenodd" d="M391.986 216.088C400.098 216.444 407.97 218.095 415.338 221.593C417.971 222.843 420.574 224.349 422.818 226.193C431.465 233.3 433.524 242.583 431.209 253.165C429.449 261.206 426.539 268.854 422.909 276.201C419.685 282.73 416.101 289.082 412.674 295.511C412.08 296.624 411.477 297.732 410.721 299.137C429.68 316.775 449.394 333.401 468.953 350.463C472.535 347.303 475.71 348.683 478.739 351.042C480.956 352.769 483.155 354.533 485.24 356.415C488.358 359.23 488.429 359.931 486.586 363.684C486.423 364.016 486.525 363.813 486.299 364.417C487.285 365.015 488.153 365.287 489.181 365.828C494.121 368.428 500.217 371.049 500.217 371.049C502.003 371.788 503.215 372.282 504.179 372.29C504.179 372.29 505.141 371.685 506.676 370.19C509.434 367.505 511.223 364.422 513.733 361.503C516.613 358.153 519.522 354.779 522.835 351.896C525.166 349.866 528.169 348.33 531.129 347.363C536.48 345.612 541.687 347.562 544.965 352.17C548.541 357.196 549.775 363.102 550.751 369.05C551.046 370.844 550.222 372.146 548.765 373.291C537.865 381.852 528.425 391.955 518.776 401.841C514.223 406.505 509.585 411.092 504.874 415.597C502.504 417.862 501.821 417.924 499.277 415.877C493.601 411.308 488.07 406.56 482.469 401.897C477.947 398.133 473.395 394.406 468.893 390.619C468.346 390.16 466.467 388.431 466.467 388.431C466.467 388.431 465.966 389.3 465.127 389.409C463.45 389.626 461.582 389.208 459.94 388.649C458.023 387.997 456.211 386.978 454.438 385.969C431.001 372.628 407.58 359.258 384.152 345.902C383.164 345.339 382.137 344.844 380.739 344.114C374.905 352.425 369.133 360.649 363.15 369.173C366.819 371.805 365.661 375.188 363.993 378.503C361.868 382.725 359.54 386.845 357.406 391.062C356.661 392.536 355.614 393.925 354.122 394.702C353.079 395.244 351.874 395.363 350.716 395.346C350.363 395.341 347.534 394.904 347.425 395.249C346.197 399.19 344.692 404.002 343.184 408.843C344.628 409.058 345.771 408.884 346.835 408.926C355.386 409.261 363.861 409.808 372.397 410.35C379.68 410.812 386.826 412.23 393.719 414.772C402.62 418.055 404.411 422.773 399.827 431.01C396.673 436.676 392.045 441.137 387.604 445.714C386.73 446.614 384.752 446.822 383.319 446.739C374.901 446.253 366.482 445.706 358.085 444.95C346.63 443.919 335.192 442.713 323.753 441.522C316.127 440.727 308.507 439.873 300.895 438.959C297.242 438.52 296.577 437.473 297.328 433.824C299.554 423.01 303.12 412.648 307.84 402.676C309.859 398.409 311.908 394.158 314.162 389.442C311.885 388.823 309.854 388.254 307.812 387.72C300.565 385.826 299.631 384.345 302.385 377.241C304.226 372.492 306.771 368.022 308.905 363.382C310.09 360.807 311.879 359.701 314.699 360.352C315.169 360.461 315.697 360.318 316.078 360.297C323.614 348.568 331.066 336.973 338.668 325.142C336.425 323.901 334.202 322.709 332.015 321.455C321.258 315.289 310.471 309.176 299.795 302.874C298.724 302.243 296.634 301.268 296.634 301.268C296.634 301.268 294.647 301.88 293.429 302.394C286.017 305.527 278.548 308.533 271.03 311.406C254.556 317.699 237.451 321.33 219.883 322.342C204.753 323.213 190.711 319.679 178.492 310.188C173.109 306.008 169.198 300.728 166.269 294.66C161.21 284.181 158.632 273.005 157.078 261.549C156.871 260.03 156.574 258.507 156.574 256.985C156.574 256.859 156.61 256.734 156.669 256.608C157.081 255.744 158.357 255.646 158.9 256.434C158.98 256.55 159.036 256.67 159.059 256.797C159.683 260.319 160.08 263.881 160.688 267.406C162.037 275.238 164.14 282.856 167.18 290.22C174.345 307.578 188.172 315.932 205.928 318.925C217.607 320.895 229.082 318.981 240.586 317.036C257.115 314.241 272.557 308.19 287.884 301.761C309.211 292.817 330.475 283.726 351.821 274.828C359.483 271.633 367.301 268.812 375.049 265.825C375.356 265.707 375.662 265.578 375.972 265.46C377.899 264.728 379.699 266.776 378.748 268.604C378.528 269.026 378.299 269.444 378.054 269.852C365.193 291.228 351.476 312.043 337.269 332.547C331.665 340.634 326.594 349.09 321.305 357.393C320.635 358.446 320.117 359.594 319.273 361.176C333.18 363.667 346.684 366.086 360.426 368.548C376.703 344.622 394.134 321.277 409.087 296.259C415.719 285.162 421.891 273.816 426.018 261.504C427.272 257.764 428.298 253.904 428.966 250.02C430.784 239.448 426.57 230.857 417.204 225.553C411.806 222.495 405.959 220.71 399.867 219.682C389.313 217.901 378.72 218.404 368.137 219.268C341.006 221.482 314.761 228 288.644 235.344C272.549 239.869 256.206 243.509 239.971 247.532C238.817 247.819 237.202 248.85 236.733 247.024C236.266 245.203 238.196 245.31 239.329 245.012C255.135 240.856 270.933 236.669 286.764 232.613C299.131 229.445 311.478 226.165 323.945 223.439C346.341 218.544 368.938 215.077 391.986 216.088ZM300.504 434.125C300.459 434.613 300.307 435.544 300.264 436.033C306.766 436.844 313.102 437.712 319.615 438.424C326.095 439.132 332.598 439.623 339.083 440.279C345.696 440.949 352.288 441.846 358.91 442.381C365.364 442.903 377.942 444.527 384.449 444.206L385.947 443.107C359.407 439.973 336.734 437.134 300.504 434.125ZM301.458 429.161C301.297 430.159 301.079 431.516 301.079 431.516C328.951 433.502 359.424 438.305 387.14 441.627L388.458 440.475C376.983 438.847 363.697 436.961 352.212 435.411C340.965 433.89 329.703 432.486 318.441 431.079C313.505 430.462 308.558 429.942 303.611 429.423C302.509 429.308 301.458 429.161 301.458 429.161ZM392.745 417.519C392.745 417.519 391.389 418.241 390.768 418.588C390.74 418.604 390.713 418.619 390.685 418.635C386.942 420.741 383.742 423.69 381.214 427.162C379.289 429.806 377.435 432.49 376.993 436.078C381.241 436.744 384.862 437.419 388.514 437.821C389.083 437.884 390.476 438.019 390.476 438.019C391.378 437.563 391.63 437.365 391.985 436.998C395.195 433.691 397.856 429.959 399.311 425.495C400.081 423.132 399.438 421.268 397.46 419.786C395.926 418.639 394.498 417.302 392.745 417.519ZM315.782 395.35C315.424 395.356 314.324 395.505 314.324 395.505C314.108 395.745 313.65 396.887 313.4 397.384C309.259 405.612 305.479 413.999 302.909 422.875C302.602 423.938 302.434 425.041 302.159 426.322C326.312 429.425 350.167 432.489 373.866 435.534C373.804 434.125 375.38 429.843 376.622 427.515C377.92 425.083 379.695 422.807 381.654 420.858C383.457 419.061 385.782 417.789 388.458 415.868C386.057 415.304 384.479 414.813 382.875 414.524C381.159 414.213 378.104 413.739 378.104 413.739C377.831 414.114 377.035 415.198 376.014 416.267C373.812 418.568 371.307 420.594 368.819 422.597C367.541 423.626 366.101 424.581 364.578 425.153C361.952 426.14 360.323 424.791 360.496 421.985C360.557 420.997 360.803 420.018 361.058 418.466C359.18 419.991 357.76 421.233 356.245 422.348C354.55 423.596 351.162 424.153 350.742 421.339C350.548 420.032 350.809 418.063 351.733 417.053C350.584 418.307 349.054 419.233 347.598 420.086C346.166 420.926 344.475 422.142 342.749 422.101C342.141 422.086 341.511 421.863 341.139 421.384C340.579 420.665 340.703 419.636 340.958 418.826C341.789 416.201 343.811 413.472 345.309 411.16C344.886 410.977 339.585 411.45 339.546 410.233C339.496 408.674 342.765 400.931 344.158 395.258C334.391 395.258 325.084 395.206 315.782 395.35ZM367.55 412.848C364.229 415.823 363.145 418.389 363.412 421.423C363.467 422.04 364.157 422.379 364.698 422.078C368.705 419.849 371.888 416.297 375.205 413.425C374.486 413.602 367.55 412.848 367.55 412.848ZM331.243 411.952C331.233 417.321 326.381 421.873 321.015 421.548C316.114 421.252 312.955 415.963 314.91 411.053C316.569 406.887 319.893 404.639 324.274 404.216C328.369 403.821 331.252 407.167 331.243 411.952ZM358.935 412.195C357.444 412.561 354.624 414.672 353.692 418.309C353.511 419.014 354.732 419.926 355.734 419.255C358.702 417.269 360.78 414.782 363.354 412.462C359.903 412.104 358.935 412.195 358.935 412.195ZM317.12 413.698C317.005 416.565 318.606 418.568 321.166 418.757C324.671 419.017 328.315 416.013 328.722 412.528C329.046 409.763 327.166 407.176 324.688 406.971C321.297 406.691 317.258 410.283 317.12 413.698ZM349.345 411.717C347.828 412.451 345.867 414.558 344.739 417.173C344.484 417.763 345.535 417.743 346.15 417.554C349.198 416.618 350.665 413.893 353.207 411.971C351.633 411.684 349.345 411.717 349.345 411.717ZM547.62 368.063C536.381 378.862 511.555 402.07 500.353 412.906L501.451 413.991C505.248 412.449 538.742 378.306 548.344 369.791C548.344 369.791 547.914 368.413 547.62 368.063ZM546.432 364.351C540.383 369.67 498.793 409.245 498.793 409.245C498.558 409.506 497.829 410.195 497.696 410.449L498.81 411.449L498.831 411.428C499.033 411.224 500.62 409.62 501.441 408.82L547.026 366.393L546.432 364.351ZM526.722 352.864C525.322 353.198 524.349 354.179 524.349 354.179C524.249 354.57 524.262 355.379 524.38 355.955C524.995 358.95 525.556 361.992 525.722 365.037C525.997 370.114 523.9 371.97 519.137 368.063C519.016 369.756 519.151 372.866 518.855 374.462C518.343 377.222 516.917 377.95 514.23 377.07C513.786 376.924 513.318 376.851 512.694 376.706C512.451 378.944 512.43 381 511.932 382.934C511.688 383.879 510.754 384.181 509.841 384.604C509.254 384.877 508.538 384.606 507.923 384.22C507.125 383.72 506.497 382.984 506.067 382.146C505.335 380.722 504.769 379.598 504.054 377.961C503.663 377.067 503.372 375.664 503.372 375.664C498.759 373.579 495.624 372.417 491.031 370.516C484.713 376.815 476.419 381.885 470.168 388.118C478.724 395.253 486.841 402.024 495.216 409.01C509.9 394.502 521.406 383.618 534.977 371.408C529.431 366.319 527.392 359.881 526.722 352.864ZM492.887 381.888C497.039 381.931 499.326 384.193 499.333 388.261C499.339 392.339 496.771 395.509 493.489 395.474C490.109 395.439 487.13 391.858 487.28 388.008C487.443 383.849 489.274 381.85 492.887 381.888ZM490.011 388.355C490.039 390.577 491.702 392.64 493.48 392.657C495.18 392.675 496.855 390.484 496.841 388.262C496.827 386.172 495.355 384.652 493.293 384.606C491.277 384.559 489.982 386.038 490.011 388.355ZM311.608 364.168C308.473 369.605 305.544 375.125 303.959 381.259C303.507 383.007 304.097 383.92 305.811 384.326C308.667 385.004 311.476 385.921 314.359 386.443C324.538 388.284 334.739 390.01 344.935 391.756C346.668 392.053 348.414 392.27 350.559 392.565C351.218 392.656 351.89 392.549 352.488 392.259C353.121 391.952 353.838 391.566 354.17 390.965C357.069 385.716 359.789 380.366 362.476 375.003C363.253 373.45 362.618 372.282 360.911 371.787C360.175 371.574 359.446 371.31 358.695 371.173C343.996 368.492 329.293 365.829 314.592 363.151C313.391 362.933 312.33 362.913 311.608 364.168ZM470.086 353.601C463.127 360.721 456.197 367.87 449.268 375.02C448.48 375.834 447.777 376.732 446.609 378.082C451.611 381.297 456.221 384.227 461.28 386.332C463.978 387.454 464.556 387.239 466.507 384.799C472.245 377.622 477.902 370.38 483.587 363.161C483.824 362.861 484.002 362.515 484.239 362.217C485.212 360.998 485.109 359.872 483.924 358.878C481.581 356.911 479.313 354.838 476.842 353.044C473.419 350.557 472.973 350.647 470.086 353.601ZM508.942 372.376C507.448 373.407 506.151 375.39 506.151 375.39C505.974 376.767 506.763 378.632 508.132 380.763C508.527 381.379 509.487 381.236 509.639 380.522C510.241 377.689 509.349 374.891 508.942 372.376ZM409.218 301.844C400.328 315.145 391.549 328.279 382.571 341.71C402.56 354.137 423.43 364.854 443.736 376.85C451.688 368.688 459.322 360.852 467.249 352.715C447.579 335.472 428.477 318.726 409.218 301.844ZM514.858 364.351C513.299 365.525 511.769 368.063 511.769 368.063C511.468 370.002 514.635 375.763 515.722 373.984C516.674 370.908 516.247 368.196 514.858 364.351ZM531.856 349.829C531.139 350.024 530.07 350.341 529.712 350.778C529.712 350.778 529.705 351.775 529.712 352.529C529.777 359.209 531.837 364.99 537.282 369.67C540.145 367.424 543.053 364.828 545.444 362.738C545.787 362.438 546.11 362.163 546.11 362.163C546.25 361.728 546.123 361.199 546.035 360.865C545.218 357.778 544.065 354.781 541.683 352.487C538.906 349.812 535.67 348.792 531.856 349.829ZM521.63 356.449C519.803 357.787 518.887 358.902 518.626 359.687C518.626 359.687 519.074 361.936 519.263 362.524C519.858 364.377 519.889 365.459 521.544 366.452C522.14 366.808 522.919 366.417 522.966 365.723C523.185 362.53 522.441 359.323 521.63 356.449ZM372.684 270.205C347.925 278.533 324.595 289.682 300.013 299.866C312.229 307.501 323.924 314.227 336.374 320.62C345.72 301.616 359.719 286.325 372.684 270.205Z" fill="#0298DA"/>
<path fill-rule="evenodd" clip-rule="evenodd" d="M57.1986 97.6958L5.37207 232.771L12.7191 239.167L19.6028 242.1L17.4671 249.353L228.647 370.016L290.424 236.783L274.551 226.323C274.551 166.127 257.997 131.512 224.888 122.477C216.697 120.241 196.223 119.756 189.899 119.756C178.365 119.756 161.525 127.432 139.378 142.785L57.1986 97.6958Z" fill="url(#paint2_linear_24_900)"/>
<path fill-rule="evenodd" clip-rule="evenodd" d="M55.0791 96.9149C55.6474 95.5906 56.6967 95.3172 57.9371 95.8212C58.8869 96.2071 59.7756 96.7448 60.6749 97.2439C86.0029 111.292 111.33 125.343 136.654 139.4C137.319 139.769 138.032 140.107 138.644 140.542C139.765 139.713 140.9 138.9 142.051 138.103C154.436 129.523 167.736 122.929 182.642 119.881C185.665 119.263 188.774 119.062 191.842 118.66C193.625 118.426 194.584 119.124 195.348 120.83C199.714 130.58 206.992 139.828 213.813 148.655C213.535 147.001 213.504 141.678 213.462 138.723C213.399 134.258 213.435 128.164 213.462 123.7C213.487 119.851 213.942 119.542 217.654 119.339C229.412 118.696 239.166 124.099 247.466 132.346C258.267 143.078 265.584 155.84 269.661 170.413C274.418 187.413 276.37 204.727 275.352 222.353C275.301 223.243 275.347 224.177 275.071 225C275.052 225.056 275.025 225.113 274.989 225.17L277.367 226.464C281.326 228.617 285.29 230.759 289.236 232.934C293.166 235.1 293.213 235.17 291.417 239.119C285.224 252.744 279.009 266.36 272.779 279.97C259.414 309.165 246.036 338.353 232.664 367.545C232.557 367.778 232.472 368.02 232.363 368.252C230.6 372.017 230.297 372.159 226.631 370.092C204.653 357.7 182.69 345.281 160.723 332.871C113.65 306.277 66.5777 279.684 19.5072 253.086C18.713 252.638 17.928 252.173 17.1139 251.688C16.1243 251.098 15.6689 249.915 16.0142 248.824C16.6521 246.809 17.268 244.861 17.9258 242.783C13.846 240.74 10.0631 238.862 6.29374 236.956C2.78649 235.183 2.69059 234.978 4.05811 231.368C20.7767 187.261 37.5038 143.157 54.2309 99.0525C54.503 98.3362 54.7758 97.6192 55.0791 96.9149ZM72.2481 118.355C54.2607 162.178 36.4666 205.53 18.5965 249.069C88.8949 288.777 158.893 328.316 229.11 367.978C249.261 323.941 269.212 280.34 289.298 236.447C277.832 230.209 266.372 223.973 254.912 217.738L255.871 218.259C255.539 221.028 254.782 223.747 253.983 226.446C253.479 228.144 252.298 229.526 251.064 230.055C251.338 230.372 251.6 230.695 251.85 231.024C256.244 236.809 260.335 242.82 264.546 248.741C265.336 249.853 266.399 251.576 267.253 252.784C267.397 252.645 267.505 252.52 267.595 252.403C267.961 251.923 268.33 251.444 268.748 251.006C269.495 250.224 270.274 249.483 271.354 250.519C271.89 251.033 271.629 252.854 271.163 253.806C269.663 256.874 267.99 259.871 266.169 262.763C266.016 263.006 265.758 263.184 265.448 263.331C264.39 263.832 263.072 263.116 263.09 261.955C263.093 261.802 263.119 261.661 263.178 261.536C263.431 261.004 263.919 259.819 263.938 259.383C263.938 259.383 262.073 257.263 260.661 256.071C260.961 258.082 261.31 260.086 261.549 262.103C261.974 265.695 260.981 268.852 258.467 271.526C254.916 275.301 250.185 275.472 246.42 271.854C241.933 267.54 240.922 262.115 242.08 256.346C243.232 250.61 245.651 245.436 251.295 241.836C248.316 238.182 245.571 234.464 241.591 231.899C239.038 230.253 237.687 230.6 236.225 233.259C233.448 238.306 233.957 243.525 235.648 248.755C235.857 249.4 236.183 250.013 236.496 250.619C237.076 251.743 237.765 253.08 236.165 253.667C235.574 253.883 234.168 252.941 233.654 252.182C228.936 245.217 230.754 231.938 237.081 226.415C237.572 225.987 238.073 225.619 238.583 225.315C238.515 225.276 238.449 225.232 238.385 225.185C238.278 225.107 237.685 224.415 237.647 224.419C234.065 224.755 232.096 223.742 232.481 219.54C232.63 217.913 233.034 216.31 233.452 213.962C231.556 215.598 230.213 216.878 228.742 217.992C227.215 219.149 225.607 220.461 223.497 219.29C222.028 218.476 221.66 216.327 222.655 213.684C224.306 209.301 225.981 207.738 229.134 204.356C229.238 204.245 229.388 204.107 229.573 203.952C207.589 191.991 185.602 180.028 163.593 168.054L168.425 170.683C167.591 171.656 166.851 172.565 165.999 173.354C155.436 183.122 144.721 192.734 134.312 202.66C129.807 206.956 125.775 211.735 121.558 216.331C128.319 222.436 135.343 228.19 142.567 233.68C142.671 233.464 142.779 233.251 142.864 233.048C143.152 232.361 143.445 231.675 143.814 231.027C150.729 218.896 157.65 206.767 164.591 194.651C165.224 193.544 165.943 192.475 166.721 191.464L166.742 191.438C167.734 190.171 169.744 191.398 169.094 192.866C168.853 193.41 168.594 193.965 168.292 194.495C160.843 207.606 153.371 220.704 145.907 233.807C145.781 234.028 145.698 234.275 145.567 234.493C145.373 234.817 145.186 235.178 144.969 235.489C154.131 242.339 163.599 248.783 173.242 254.993C173.473 254.497 173.801 254.015 174.086 253.545C180.651 242.729 187.226 231.921 193.804 221.114C194.267 220.353 194.658 219.502 195.288 218.906C195.648 218.567 196.572 218.404 196.972 218.631C197.37 218.855 197.687 219.719 197.583 220.206C197.401 221.052 196.931 221.862 196.471 222.621C189.983 233.333 183.491 244.042 176.954 254.725C176.578 255.34 176.098 255.892 175.545 256.507L175.565 256.483C177.352 257.624 179.145 258.758 180.943 259.885C183.669 261.594 186.512 263.118 189.213 264.864C190.285 265.557 192.304 266.245 192.304 266.245C193.067 265.742 194.056 265.256 195.103 264.464C198.664 261.769 202.384 259.256 206.186 256.894C205.719 254.508 205.248 252.122 204.769 249.738C204.064 246.217 204.196 242.957 207.22 240.348C208.694 239.076 210.141 238.735 211.655 240.004C213.126 241.236 214.606 242.514 215.815 243.987C221.703 251.16 227.572 258.35 233.436 265.543L231.394 263.039C232.399 263.179 233.401 263.373 234.4 263.634C236.388 264.155 238.631 265.33 238.684 267.817C238.709 269.03 238.22 269.88 237.479 270.506C240.59 274.326 243.702 278.146 246.812 281.966C248.107 283.556 249.718 285.68 251.184 287.566C251.943 286.693 252.435 285.652 252.975 284.76C253.426 284.019 254.489 283.798 255.115 284.402C255.654 284.921 255.625 285.685 255.246 286.523C253.044 291.385 250.791 296.225 248.438 301.015C248.385 301.124 248.302 301.218 248.197 301.302C247.368 301.965 246.121 301.488 245.784 300.488C245.695 300.223 245.641 299.96 245.654 299.699C245.702 298.807 246.291 297.944 246.689 296.96C244.727 294.56 242.778 292.177 240.808 289.768C240.573 290.885 239.893 291.921 238.628 292.687C241.713 295.361 240.903 297.647 237.035 299.069C236.554 299.246 236.062 299.404 235.563 299.546C235.458 300.724 234.367 301.044 233.369 301.462C229.497 303.081 225.515 304.062 221.418 304.43L221.199 304.764C221.004 305.065 220.504 305.833 220.504 305.833C220.504 305.833 220.886 306.995 221.026 307.441C222.869 313.297 225.27 319.923 227.193 325.756C227.249 325.925 227.739 325.181 227.753 325.153C227.782 325.099 227.809 325.044 227.837 324.989C227.996 324.67 228.14 324.343 228.3 324.024C228.917 322.786 229.545 321.499 230.411 320.408C230.559 320.212 230.794 320.078 231.069 319.975C232.08 319.598 233.264 320.266 233.289 321.334C233.292 321.464 233.272 321.583 233.219 321.684C230.881 326.178 228.454 330.63 225.89 335C225.547 335.584 224.073 336.119 223.513 335.859C222.173 335.234 222.762 334.027 223.388 333.102C224.341 331.697 225.239 329.669 225.239 329.669C225.239 329.669 224.387 327.069 223.756 325.594C220.827 318.75 218.497 311.714 216.519 304.58C216.351 304.575 216.182 304.569 216.014 304.563C206.111 304.183 196.703 301.575 187.441 298.341C184.574 297.341 181.744 296.264 178.947 295.119C174.257 301.331 169.557 307.536 164.825 313.717C163.084 315.992 162.643 316.035 160.001 314.44C154.611 311.184 149.269 307.851 143.908 304.547C133.734 298.278 123.553 292.017 113.388 285.732C110.021 283.65 109.917 283.276 112.078 280.1C115.271 275.408 118.487 270.732 121.689 266.046L121.239 266.705C117.244 264.643 113.272 262.54 109.323 260.402C105.919 258.558 102.731 256.496 99.7624 254.219C99.3432 254.097 98.9444 253.84 98.5758 253.459C98.4208 253.298 98.2911 253.136 98.1854 252.973C90.3177 246.566 84.0817 238.577 79.5587 229.107C77.929 225.694 76.8023 221.918 76.1758 218.189C76.1522 218.049 76.1296 217.909 76.108 217.769C73.9948 219.416 72.3889 221.554 71.1767 223.976C70.754 224.82 71.0289 226.186 71.3635 227.188C72.7623 231.369 73.3924 235.635 72.9896 240.011C72.8518 241.511 72.4653 243.033 71.9198 244.441C71.3429 245.93 70.2432 247.028 68.4161 246.965C66.5988 246.901 65.5744 245.754 65.0793 244.226C64.6126 242.787 64.2851 241.265 64.1792 239.76C63.8901 235.632 64.4705 231.571 66.0469 227.75C66.9228 225.626 66.7246 223.956 65.4842 222.052C59.7825 213.298 51.3366 213.122 45.8345 221.973C40.8823 229.939 39.382 238.543 42.3862 247.647C42.6789 248.535 43.0427 250.892 41.1722 250.346C40.0817 250.027 39.0772 247.851 38.8499 246.841C36.4793 236.299 38.2027 226.463 45.0147 217.924C51.0347 210.378 59.8692 210.526 66.1833 217.9C67.0137 218.87 67.7533 219.916 68.7343 221.185C70.899 218.131 73.3019 215.825 75.7677 214.323C75.4855 207.526 77.6096 201.302 82.1694 195.582C85.4984 191.405 88.9313 187.331 92.4805 183.364C92.3185 182.346 92.1599 181.309 91.9835 180.247C88.7562 180.607 85.8393 180.999 82.9103 181.231C81.39 181.351 79.7902 181.43 78.3282 181.095C76.0954 180.583 75.5314 179.033 77.144 177.458C79.5153 175.142 82.2141 173.149 84.8199 171.076C85.6063 170.45 86.5483 170.017 87.7112 169.32C86.7934 164.3 85.8791 159.307 84.969 154.312C84.6714 152.682 84.2579 151.056 84.1535 149.414C84.1144 148.804 84.6657 147.852 85.2077 147.599C85.7299 147.355 86.809 147.583 87.2508 148.005C88.2582 148.97 89.0993 150.131 89.8744 151.298C92.3458 155.022 94.757 158.786 97.4543 162.938C98.7245 162.014 99.8456 161.259 100.898 160.419C102.603 159.058 104.173 157.506 105.986 156.309C106.809 155.767 108.222 155.502 109.09 155.829C109.682 156.052 110.128 157.548 110.053 158.426C109.889 160.316 109.432 162.196 108.944 164.041C108.645 165.173 108.334 166.302 108.013 167.437L108.477 167.001C115.026 160.887 121.486 154.674 128.282 148.842C109.632 138.695 90.9579 128.535 72.2481 118.355ZM151.905 283.286C155.172 292.557 158.701 301.64 162.717 310.708C165.271 308.262 171.482 300.243 176.024 293.889C168.931 290.837 162.055 287.34 155.351 283.492C153.916 283.423 152.729 283.356 151.905 283.286ZM148.374 283.156C140.106 281.979 120.668 282.621 116.862 284.267C130.978 292.967 144.916 301.558 158.858 310.151C155.383 301.205 151.911 292.263 148.374 283.156ZM217.553 255.382C215.346 255.558 213.464 256.251 211.734 257.248C207.836 259.497 203.942 261.785 200.247 264.341C193.72 268.855 193.786 268.945 192.293 276.82C192.126 277.698 191.887 278.564 191.747 279.445C191.119 283.425 190.513 287.408 189.826 291.874C196.508 293.201 202.657 294.554 208.856 295.619C215.976 296.842 223.126 297.967 230.41 297.433C232.06 297.312 235.105 297.109 237.035 296.173C237.56 295.918 237.219 295.009 236.649 294.883C235.13 294.548 232.806 294.441 231.654 294.32C224.985 293.614 218.306 292.985 211.632 292.326C210.733 292.237 209.777 292.283 208.958 291.978C208.686 291.877 208.451 291.681 208.229 291.452C207.756 290.963 207.765 290.191 208.249 289.713C208.466 289.498 208.695 289.303 208.954 289.162C209.345 288.951 209.965 289.119 210.476 289.167C217.283 289.812 224.093 290.425 230.893 291.139C232.624 291.321 234.886 291.308 236.505 290.586C237.631 290.082 237.918 288.514 236.842 287.911C236.239 287.574 234.766 287.167 234.159 287.042C230.513 286.298 226.825 285.674 223.124 285.284C219.149 284.865 215.139 284.774 211.146 284.524C210.111 284.458 208.757 284.382 209.058 283.008C209.208 282.326 210.866 281.704 211.469 281.576C212.141 281.434 212.934 281.656 213.616 281.705C214.536 281.772 215.456 281.866 216.376 281.948C218.173 282.106 219.97 282.265 221.767 282.423C225.361 282.74 228.957 283.05 232.554 283.339C235.073 283.541 238.076 283.914 240.649 282.974C241.826 282.543 242.104 280.954 241.09 280.223C239.714 279.234 237.737 279.105 236.177 278.981C228.725 278.391 221.26 277.965 213.797 277.51C213.018 277.462 212.237 277.465 211.45 277.476C210.119 277.495 209.186 276.051 209.88 274.927C210.403 274.078 211.441 273.779 212.566 273.55C218.502 272.336 224.445 271.157 230.367 269.879C231.625 269.607 232.875 269.53 234.514 268.947C235.185 268.708 235.343 268.233 235.277 267.803C234.663 267.05 234.05 266.296 233.436 265.543L234.492 266.84L234.42 266.81C231.267 265.524 228.32 265.705 225.57 265.955C220.574 266.411 215.605 267.188 210.638 267.917C210.063 268.002 209.495 268.163 208.959 268.124C207.724 268.033 207.219 266.495 208.139 265.676C209.708 264.279 211.354 262.827 212.968 261.339C214.652 259.787 216.831 258.708 218.294 256.627C218.684 256.072 218.234 255.327 217.553 255.382ZM180.572 262.82L180.526 262.964C180.293 263.638 179.917 264.304 179.556 264.908C176.014 270.835 172.407 276.724 168.824 282.628C168.475 283.204 168.137 283.787 167.741 284.467C171.622 285.901 175.544 287.244 179.512 288.48C180.973 288.935 182.438 289.379 184.251 289.938C186.394 282.907 188.462 276.12 190.516 269.38C190.064 268.972 189.816 268.673 189.503 268.473C186.533 266.578 183.554 264.698 180.572 262.82ZM163.205 251.795L163.178 251.854C163.009 252.213 162.806 252.6 162.55 252.949C157.156 260.281 151.744 267.599 146.298 274.894C146.163 275.075 146.029 275.242 145.895 275.394C147.648 276.194 149.407 276.982 151.172 277.755C151.341 277.763 151.499 277.793 151.646 277.854C153.242 278.517 154.812 279.242 156.376 279.984C158.43 280.844 160.493 281.682 162.567 282.496L162.407 282.741C164.639 279.292 166.911 275.92 169.035 272.459C171.174 268.971 173.151 265.386 175.234 261.863C175.572 261.289 175.92 260.647 176.373 260.175C171.97 257.402 167.572 254.621 163.205 251.795ZM123.993 268.118L122.674 270.045C120.371 273.412 118.058 276.793 115.722 280.208C126.344 279.948 136.339 279.702 146.347 279.456C146.329 279.298 146.295 279.107 146.248 278.888C145.084 278.358 143.923 277.824 142.764 277.284C136.454 274.344 130.197 271.282 123.993 268.118ZM227.989 273.46L227.927 273.472C226.155 273.851 224.434 274.23 223.185 274.589C224.274 274.779 228.014 274.864 229.146 275.018C228.767 274.505 228.381 273.985 227.989 273.46ZM147.335 241.078L147.201 241.264C146.894 241.674 146.558 242.067 146.221 242.452C139.714 249.889 133.214 257.333 126.662 264.731C126.37 265.06 126.038 265.354 125.705 265.616C130.896 268.245 136.111 270.82 141.37 273.295C141.47 272.936 141.629 272.552 141.848 272.145C142.27 271.359 142.798 270.623 143.332 269.904C148.072 263.522 152.814 257.142 157.584 250.782C158.026 250.192 158.493 249.571 159.036 249.072C157.813 248.27 156.594 247.461 155.379 246.646C152.668 244.829 149.986 242.973 147.335 241.078ZM252.287 245.064C251.033 246.267 249.878 247.039 249.179 248.104C246.326 252.451 245.447 257.197 246.976 262.208C247.362 263.47 248.129 264.735 249.047 265.695C250.57 267.286 252.455 268.911 254.813 268.173C257.346 267.381 257.535 264.787 257.485 262.662C257.342 256.568 255.551 250.892 252.287 245.064ZM218.193 260.918L218.044 261.039C216.717 262.113 215.252 263.285 213.999 264.42C215.968 263.737 218.577 263.359 219.736 263.225L220.032 263.191C219.411 262.418 218.797 261.658 218.193 260.918ZM132.263 229.597L132.179 229.702C131.711 230.29 131.126 231.063 130.388 231.649C126.867 234.45 123.245 237.128 119.697 239.896C114.525 243.93 109.387 248.006 104.227 252.053C103.904 252.306 103.577 252.556 103.247 252.801L103.176 252.853C105.289 254.405 107.511 255.857 109.839 257.211C113.613 259.407 117.497 261.425 121.39 263.417L121.414 263.356C121.856 262.323 122.594 261.377 123.344 260.516C129.756 253.166 136.201 245.844 142.639 238.517C142.791 238.343 142.944 238.168 143.101 237.998C139.426 235.278 135.812 232.478 132.263 229.597ZM208.157 249.87C208.46 251.648 208.769 253.422 209.082 255.193C210.086 254.685 211.14 254.258 212.208 253.857C210.297 251.72 208.84 250.257 208.157 249.87ZM119.364 218.493L119.265 218.558C118.855 218.82 118.407 219.037 117.969 219.214C107.463 223.452 96.9426 227.653 86.4237 231.859C85.8851 232.074 85.3429 232.287 84.7932 232.474C88.6011 239.009 93.3544 244.692 99.0111 249.547C99.4015 249.153 99.8332 248.793 100.269 248.453C108.986 241.646 117.706 234.845 126.447 228.069C127.142 227.53 127.904 227.012 128.711 226.666C125.54 224.011 122.423 221.287 119.364 218.493ZM68.9055 230.007C67.0407 234.537 66.6535 238.445 67.7433 241.5C68.068 242.413 69.4319 242.319 69.6379 241.373C70.4379 237.691 69.9939 234.098 68.9055 230.007ZM57.5442 99.2078C40.5742 143.979 23.6908 188.52 6.66599 233.434C7.85236 234.099 8.9137 234.732 10.0106 235.296C11.0243 235.818 12.0757 236.266 13.3743 236.868C13.8957 235.714 14.4278 234.737 14.7901 233.702C22.1421 212.686 31.297 192.392 40.0399 171.932C45.2685 159.697 50.416 147.425 55.8094 135.261C58.0891 130.119 60.5336 125.039 63.4178 120.203C64.4145 118.532 65.5554 117.659 68.7444 118.355C69.4036 118.499 70.4316 115.651 71.5746 114.704C72.913 115.369 74.4077 116.053 75.8484 116.836C94.9277 127.214 114.006 137.595 133.085 147.974L130.787 146.723C132.472 145.321 134.18 143.945 135.917 142.602C135.607 142.422 135.299 142.236 134.989 142.064C110.559 128.517 86.1336 114.964 61.7043 101.416C60.4753 100.735 59.2222 100.097 57.5442 99.2078ZM172.93 203.053C173.627 201.768 174.186 199.205 176.288 200.454C177.978 201.458 176.274 203.198 175.603 204.465C170.465 214.162 165.285 223.836 160.113 233.514C159.632 234.413 159.184 235.344 158.58 236.159C158.505 236.259 158.418 236.35 158.319 236.437C157.54 237.12 156.251 236.874 155.896 235.906C155.847 235.775 155.821 235.647 155.824 235.519C155.842 234.816 156.324 234.103 156.681 233.433C162.078 223.297 167.457 213.15 172.93 203.053ZM184.874 208.108C185.241 207.779 186.172 207.652 186.57 207.891C186.951 208.118 187.214 208.993 187.098 209.483C186.898 210.326 186.41 211.12 185.96 211.887C181.626 219.271 177.296 226.658 172.909 234.012C172.503 234.693 171.996 235.316 171.412 236.014C170.705 236.858 169.319 236.755 168.83 235.771C168.77 235.649 168.731 235.53 168.717 235.408C168.66 234.881 169.185 234.271 169.505 233.727C174.108 225.908 178.716 218.091 183.336 210.281C183.789 209.516 184.227 208.686 184.874 208.108ZM252.269 211.379C251.917 212.593 250.269 220.382 248.459 223.138C247.997 223.841 248.987 228.619 250.597 227.908C250.721 227.853 250.814 227.74 250.873 227.62C253.655 221.949 253.807 218.493 253.682 214.417C253.653 213.465 253.211 211.583 252.269 211.379ZM91.2467 189.366L90.7066 190.004C88.1135 193.088 85.6191 196.257 83.1967 199.494C79.8002 204.033 78.5989 209.082 78.8675 214.637C79.0806 219.047 80.1192 223.213 82.0074 227.19C82.1148 227.416 82.2232 227.642 82.3326 227.866L82.3254 227.87C82.9953 227.494 83.7313 227.231 84.4481 226.943C94.361 222.954 104.231 218.853 114.225 215.075C114.57 214.944 114.865 214.79 115.121 214.619C114.251 213.827 113.504 212.955 113.48 211.677C113.722 211.286 113.815 211.029 113.994 210.861L115.506 209.44L113.427 207.736C106.442 202.009 99.5035 196.322 92.5765 190.621C92.1088 190.237 91.6572 189.817 91.2467 189.366ZM246.227 224.182C245.823 224.417 245.369 224.7 244.89 224.979C245.202 225.131 245.515 225.309 245.829 225.514C246.055 225.662 246.281 225.814 246.504 225.97C246.421 225.432 246.348 224.691 246.227 224.182ZM247.309 206.608L247.331 207.423C246.706 212.212 244.049 216.01 241.351 219.772C240.788 220.558 239.726 222.282 239.826 223.068C239.909 223.726 240.472 224.171 241.157 224.361C241.686 224.281 242.221 224.272 242.76 224.336C243.002 224.258 243.224 224.139 243.409 223.981C247.002 220.898 250.184 211.2 249.676 209.065C249.449 207.928 248.395 207.411 247.309 206.608ZM255.881 212.841L255.887 212.887C255.973 213.549 256.022 214.206 256.04 214.861C263.148 218.729 270.258 222.596 277.367 226.464L272.269 223.691C272.248 223.086 272.284 222.471 272.32 221.868C272.496 218.884 272.583 215.91 272.583 212.948C272.349 212.991 272.099 213.016 271.834 213.02C266.518 213.095 261.199 212.946 255.881 212.841ZM238.811 209.723C237.406 212.468 235.073 216.986 235.07 220.118C235.068 222.169 236.42 222.209 236.99 221.518C240.606 217.134 245.933 207.53 244.268 206.37C241.695 204.311 239.714 207.956 238.811 209.723ZM236.083 203.417C232.107 204.229 227.5 210.189 225.011 214.867C224.506 215.817 225.481 216.783 226.528 216.217C230.922 213.839 234.867 209.613 236.636 205.114C237.232 203.602 236.996 203.616 236.083 203.417ZM270.925 190.846L270.887 190.868C270.281 191.183 269.501 191.32 268.81 191.426C263.857 192.185 258.894 192.881 253.934 193.598C253.912 193.419 253.89 193.239 253.868 193.06C251.806 193.06 249.738 193.152 247.683 193.029C247.545 193.021 247.41 193.008 247.278 192.989C247.161 195.189 247.043 197.39 246.939 199.591C246.879 200.858 246.931 202.131 246.931 202.865C249.487 204.756 251.913 206.222 253.894 208.101C253.989 208.095 254.087 208.092 254.184 208.093C256.234 208.121 258.28 208.401 260.329 208.56C261.355 208.639 262.382 208.686 264.009 208.785C266.11 208.682 268.808 208.568 271.502 208.411C271.85 208.391 272.19 208.385 272.512 208.407C272.332 202.509 271.801 196.655 270.925 190.846ZM107.372 172.807L106.397 173.73C105.716 174.368 105.032 175.005 104.345 175.637C100.932 178.783 97.7039 182.081 94.6221 185.502C95.2297 185.939 95.7976 186.443 96.3764 186.919C103.964 193.158 111.547 199.403 119.35 205.828L128.848 196.906L128.168 196.142C121.803 188.994 115.085 181.449 108.369 173.905C108.04 173.536 107.699 173.177 107.372 172.807ZM191.839 121.518C187.386 122.258 182.987 122.989 178.708 123.7C178.299 128.906 177.963 133.601 177.555 138.289C176.741 147.648 173.331 156.132 168.494 164.108C168.015 164.897 167.277 165.55 166.576 166.193C188.91 178.342 211.243 190.491 233.576 202.641L232.353 201.975C233.045 201.542 233.678 201.193 234.059 201.064C237.768 199.807 239.826 201.064 239.826 203.865C240.569 203.179 241.691 202.964 243.586 203.514C243.749 201.508 244.022 199.513 244.053 197.513C244.191 188.712 244.432 179.906 244.252 171.109C244.193 168.258 243.311 165.293 242.214 162.617C237.267 150.552 232.074 138.587 227.065 126.547C226.776 125.853 226.529 125.275 226.046 124.552C225.351 123.285 224.213 122.75 223.055 122.75C222.038 122.772 221.569 122.746 220.087 122.746C219.621 126.764 219.17 132.18 218.687 136.183C218.106 141.001 217.519 145.819 216.891 150.631C216.726 151.889 216.56 153.543 215.002 153.565C213.938 153.581 212.509 152.814 211.84 151.946C205.731 144.027 199.648 136.079 195.019 127.171C194.084 125.37 193.03 123.629 191.839 121.518ZM123.455 157.355L122.556 158.2C118.727 161.824 114.968 165.522 111.172 169.181C112.06 170.067 112.89 171.017 113.727 171.954C119.797 178.749 125.855 185.555 131.921 192.352C132.181 192.643 132.447 192.929 132.746 193.244L144.333 182.359C140.519 177.972 136.823 173.765 133.217 169.482C130.08 165.754 127.084 161.909 124.054 158.093C123.868 157.857 123.655 157.61 123.455 157.355ZM264.674 165.055L264.647 165.07C264.376 165.202 264.08 165.305 263.775 165.382C258.306 166.758 252.805 168.007 247.316 169.304C247.238 169.287 247.161 169.271 247.084 169.254C247.786 173.674 247.94 178.178 247.77 182.757C247.699 184.654 247.611 186.551 247.516 188.448C247.643 188.438 247.772 188.431 247.902 188.426C252.533 188.259 257.168 188.143 261.789 187.824C263.96 187.673 266.104 187.111 268.258 186.721C268.889 186.607 269.632 186.161 270.112 186.363L270.184 186.393C268.957 179.649 267.262 172.966 265.107 166.345C264.966 165.913 264.822 165.483 264.674 165.055ZM88.2895 154.918C89.0325 159.591 90.074 165.433 90.8639 170.311C90.9591 170.9 90.6522 171.477 90.1116 171.743C86.696 173.425 83.5916 175.154 80.7741 178.461C84.4163 177.99 87.2992 177.663 90.167 177.232C93.4838 176.732 94.4965 177.256 95.1676 180.406C97.888 177.455 100.677 174.567 103.538 171.742C104.564 167.954 105.628 163.941 106.663 160.199C104.671 161.264 103.371 162.396 102.098 163.429C97.3755 167.261 96.4143 167.112 93.1806 162.106C91.85 160.047 90.4754 158.013 89.1206 155.968C89.1206 155.968 88.4528 154.823 88.2895 154.918ZM142.222 141.678L142.2 141.694C137.022 145.402 132.082 149.463 127.32 153.777C127.876 154.342 128.342 155.053 128.86 155.667C135.299 163.323 141.736 170.98 148.16 178.649L148.214 178.714C153.224 174.006 158.234 169.296 163.242 164.585C163.186 164.53 163.131 164.474 163.076 164.415C156.387 157.337 149.769 150.195 143.172 143.032C142.809 142.638 142.484 142.172 142.222 141.678ZM253.975 144.643L253.93 144.687C253.75 144.852 253.531 144.991 253.274 145.095C249.031 146.819 244.734 148.417 240.245 150.127C241.112 152.07 242.007 154 242.94 155.912C244.31 158.722 245.338 161.573 246.088 164.463C246.286 164.408 246.49 164.36 246.695 164.316C251.958 163.171 257.222 162.026 262.494 160.92C262.685 160.88 262.877 160.844 263.068 160.815C260.686 155.045 257.634 149.661 253.975 144.643ZM175.299 124.866C172.361 125.91 170.047 126.651 167.793 127.543C160.212 130.546 153.151 134.344 146.492 138.74L146.339 138.576C153.18 145.919 159.996 153.285 166.791 160.669L166.744 160.743C173.643 149.967 175.235 137.951 175.299 124.866ZM229.634 125.146C230.223 126.65 231.323 129.09 231.958 130.574C234.086 135.55 236.113 140.574 238.242 145.549L238.199 145.564C242.451 144.091 246.694 142.594 250.958 141.157C251.046 141.127 251.134 141.099 251.222 141.074C249.651 139.146 247.986 137.275 246.232 135.46C241.897 130.975 237.808 127.873 231.879 125.831C231.166 125.535 230.189 125.397 229.634 125.146Z" fill="#0298DA"/>
<path fill-rule="evenodd" clip-rule="evenodd" d="M216.781 76.9258C219.383 76.9878 221.982 76.9575 224.579 77.0265C226.517 77.0785 228.454 77.1855 230.389 77.4269C230.67 77.462 230.951 77.5 231.23 77.5437C233.678 77.9215 233.114 78.609 232.917 80.5575C232.529 84.4051 226.857 89.7706 222.977 89.9247C217.462 90.1443 213.906 84.4551 215.236 78.6386L215.294 78.3785C215.536 77.2641 215.573 76.8977 216.781 76.9258ZM217.859 84.0315C219.271 87.0657 223.789 88.1543 226.246 85.9518C226.132 82.8733 219.751 81.5461 217.859 84.0315ZM234.152 67.9913C234.11 70.8982 231.458 74.5263 228.697 75.1582C228.419 75.2215 228.112 75.1596 227.793 75.047C226.947 74.7487 226.57 73.772 227.005 72.9867C227.078 72.8537 227.163 72.7306 227.264 72.6229C228.288 71.5252 229.706 71.0882 230.537 69.88C230.829 69.455 231.111 68.5114 231.017 67.8211C230.944 67.2778 230.036 66.7747 229.493 66.8465C228.899 66.9239 228.319 67.0196 227.894 67.3292C226.779 68.1391 225.974 69.3642 224.91 70.2628C224.528 70.5851 223.723 70.8363 223.257 70.4936C222.756 70.1256 222.452 68.8681 222.695 68.6148C224.515 66.7177 226.141 65.0395 228.382 63.8207C231.016 62.3873 234.202 64.663 234.152 67.9913ZM213.659 63.7818C215.626 63.9318 217.026 65.9402 217.006 68.5803C216.986 71.0696 215.985 72.285 214.014 72.2143C211.654 72.1285 209.982 70.4444 209.97 68.1381C209.958 65.579 211.611 63.6263 213.659 63.7818ZM233.285 56.2676C235.186 56.2566 237.078 58.2548 237.046 60.3299C237.019 62.1269 236.103 63.2288 234.163 63.3021C232.174 63.3772 230.153 61.5264 230.016 59.5649C229.903 57.9333 231.544 56.2779 233.285 56.2676Z" fill="#0298DA"/>
<defs>
<linearGradient id="paint0_linear_24_900" x1="197.758" y1="7.12781" x2="197.758" y2="119.987" gradientUnits="userSpaceOnUse">
<stop stop-color="white"/>
<stop offset="1" stop-color="#FFF5F6"/>
</linearGradient>
<linearGradient id="paint1_linear_24_900" x1="354.281" y1="217.577" x2="354.281" y2="445.79" gradientUnits="userSpaceOnUse">
<stop stop-color="white"/>
<stop offset="1" stop-color="#FFF5F6"/>
</linearGradient>
<linearGradient id="paint2_linear_24_900" x1="147.898" y1="97.6958" x2="147.898" y2="370.016" gradientUnits="userSpaceOnUse">
<stop stop-color="white"/>
<stop offset="1" stop-color="#FFF5F6"/>
</linearGradient>
</defs>
</svg>
