<svg width="43" height="43" viewBox="0 0 43 43" fill="none" xmlns="http://www.w3.org/2000/svg">
<circle cx="21.5" cy="21.5" r="21.5" fill="white"/>
<path d="M14 14.995C14 14.445 14.446 14 14.995 14H23.005C23.2689 14 23.522 14.1048 23.7086 14.2914C23.8952 14.478 24 14.7311 24 14.995C24 15.2589 23.8952 15.512 23.7086 15.6986C23.522 15.8852 23.2689 15.99 23.005 15.99H14.995C14.7311 15.99 14.478 15.8852 14.2914 15.6986C14.1048 15.512 14 15.2589 14 14.995ZM14 21C14 20.45 14.446 20.005 14.995 20.005H33.005C33.2689 20.005 33.522 20.1098 33.7086 20.2964C33.8952 20.483 34 20.7361 34 21C34 21.2639 33.8952 21.517 33.7086 21.7036C33.522 21.8902 33.2689 21.995 33.005 21.995H14.995C14.7311 21.995 14.478 21.8902 14.2914 21.7036C14.1048 21.517 14 21.2639 14 21ZM14.995 26.01C14.7311 26.01 14.478 26.1148 14.2914 26.3014C14.1048 26.488 14 26.7411 14 27.005C14 27.2689 14.1048 27.522 14.2914 27.7086C14.478 27.8952 14.7311 28 14.995 28H27.005C27.2689 28 27.522 27.8952 27.7086 27.7086C27.8952 27.522 28 27.2689 28 27.005C28 26.7411 27.8952 26.488 27.7086 26.3014C27.522 26.1148 27.2689 26.01 27.005 26.01H14.995Z" fill="#005B82"/>
</svg>
