<svg width="31" height="30" viewBox="0 0 31 30" fill="none" xmlns="http://www.w3.org/2000/svg">
<path d="M16.7816 2.44385C17.6727 2.44044 18.5638 2.44939 19.4547 2.47072L19.6916 2.47927C19.9652 2.48904 20.235 2.50125 20.5611 2.5159C21.8604 2.57696 22.747 2.78212 23.5249 3.08375C24.3309 3.39393 25.0098 3.81401 25.6888 4.49299C26.3096 5.1031 26.7901 5.8411 27.0968 6.65569C27.3985 7.43358 27.6036 8.32138 27.6647 9.62071C27.6793 9.94554 27.6915 10.2166 27.7013 10.4902L27.7086 10.7271C27.7303 11.6176 27.7397 12.5083 27.7367 13.399L27.738 14.31V15.9098C27.741 16.8009 27.7316 17.692 27.7099 18.5829L27.7025 18.8198C27.6928 19.0934 27.6806 19.3633 27.6659 19.6893C27.6048 20.9886 27.3972 21.8752 27.0968 22.6531C26.7911 23.4686 26.3105 24.2072 25.6888 24.817C25.0782 25.4378 24.3398 25.9182 23.5249 26.225C22.747 26.5267 21.8604 26.7318 20.5611 26.7929C20.235 26.8075 19.9652 26.8198 19.6916 26.8295L19.4547 26.8369C18.5638 26.8586 17.6727 26.8679 16.7816 26.8649L15.8706 26.8662H14.272C13.3809 26.8692 12.4898 26.8598 11.5989 26.8381L11.362 26.8308C11.0721 26.8202 10.7823 26.808 10.4925 26.7941C9.19317 26.7331 8.30659 26.5255 7.52748 26.225C6.71257 25.919 5.97444 25.4384 5.36478 24.817C4.74326 24.2068 4.26233 23.4683 3.95554 22.6531C3.65391 21.8752 3.44875 20.9886 3.3877 19.6893C3.3741 19.3995 3.36188 19.1097 3.35106 18.8198L3.34495 18.5829C3.32244 17.6921 3.31226 16.8009 3.31443 15.9098V13.399C3.31102 12.5083 3.31997 11.6176 3.34129 10.7271L3.34984 10.4902C3.35961 10.2166 3.37182 9.94554 3.38647 9.62071C3.44753 8.32016 3.65269 7.4348 3.95432 6.65569C4.26129 5.8407 4.74316 5.1029 5.366 4.49421C5.97524 3.87233 6.71291 3.39097 7.52748 3.08375C8.30659 2.78212 9.19195 2.57696 10.4925 2.5159L11.362 2.47927L11.5989 2.47316C12.4893 2.45066 13.3801 2.44048 14.2708 2.44263L16.7816 2.44385ZM15.5262 8.54974C14.7172 8.53829 13.9139 8.68776 13.1632 8.98944C12.4124 9.29113 11.7291 9.73902 11.153 10.3071C10.5768 10.8751 10.1193 11.552 9.80704 12.2985C9.49477 13.0449 9.33396 13.8459 9.33396 14.655C9.33396 15.4641 9.49477 16.2651 9.80704 17.0116C10.1193 17.758 10.5768 18.4349 11.153 19.0029C11.7291 19.571 12.4124 20.0189 13.1632 20.3206C13.9139 20.6223 14.7172 20.7717 15.5262 20.7603C17.1456 20.7603 18.6986 20.117 19.8437 18.9719C20.9888 17.8268 21.6321 16.2738 21.6321 14.6544C21.6321 13.035 20.9888 11.482 19.8437 10.3369C18.6986 9.19181 17.1456 8.54974 15.5262 8.54974ZM15.5262 10.9921C16.0128 10.9831 16.4964 11.0712 16.9486 11.2512C17.4008 11.4312 17.8126 11.6996 18.16 12.0405C18.5073 12.3815 18.7833 12.7882 18.9717 13.237C19.1601 13.6858 19.2571 14.1677 19.2572 14.6544C19.2573 15.1411 19.1604 15.623 18.9721 16.0718C18.7839 16.5207 18.5081 16.9275 18.1609 17.2686C17.8136 17.6097 17.4019 17.8781 16.9497 18.0583C16.4976 18.2385 16.0141 18.3267 15.5274 18.3179C14.5558 18.3179 13.6239 17.932 12.9369 17.2449C12.2499 16.5579 11.8639 15.626 11.8639 14.6544C11.8639 13.6828 12.2499 12.7509 12.9369 12.0639C13.6239 11.3768 14.5558 10.9909 15.5274 10.9909L15.5262 10.9921ZM21.9374 6.71797C21.5434 6.73374 21.1708 6.90133 20.8977 7.18565C20.6245 7.46996 20.4719 7.84895 20.4719 8.24322C20.4719 8.6375 20.6245 9.01648 20.8977 9.3008C21.1708 9.58511 21.5434 9.7527 21.9374 9.76847C22.3422 9.76847 22.7305 9.60765 23.0167 9.32138C23.303 9.03511 23.4638 8.64685 23.4638 8.242C23.4638 7.83716 23.303 7.44889 23.0167 7.16262C22.7305 6.87635 22.3422 6.71553 21.9374 6.71553V6.71797Z" fill="white"/>
</svg>
