<svg width="31" height="30" viewBox="0 0 31 30" fill="none" xmlns="http://www.w3.org/2000/svg">
<path d="M16.7813 2.44389C17.6724 2.44047 18.5636 2.44942 19.4545 2.47075L19.6914 2.4793C19.9649 2.48907 20.2348 2.50128 20.5609 2.51593C21.8602 2.57699 22.7468 2.78215 23.5247 3.08378C24.3306 3.39396 25.0096 3.81405 25.6886 4.49302C26.3094 5.10313 26.7899 5.84113 27.0966 6.65572C27.3982 7.43361 27.6034 8.32141 27.6644 9.62074C27.6791 9.94557 27.6913 10.2167 27.7011 10.4902L27.7084 10.7271C27.7301 11.6176 27.7395 12.5083 27.7365 13.3991L27.7377 14.3101V15.9098C27.7407 16.8009 27.7314 17.6921 27.7096 18.583L27.7023 18.8199C27.6925 19.0934 27.6803 19.3633 27.6657 19.6893C27.6046 20.9887 27.397 21.8752 27.0966 22.6531C26.7909 23.4686 26.3103 24.2072 25.6886 24.8171C25.0779 25.4378 24.3396 25.9183 23.5247 26.2251C22.7468 26.5267 21.8602 26.7319 20.5609 26.7929C20.2348 26.8076 19.9649 26.8198 19.6914 26.8296L19.4545 26.8369C18.5636 26.8586 17.6725 26.868 16.7813 26.865L15.8703 26.8662H14.2718C13.3807 26.8692 12.4895 26.8598 11.5986 26.8381L11.3617 26.8308C11.0718 26.8203 10.782 26.8081 10.4923 26.7941C9.19292 26.7331 8.30635 26.5255 7.52724 26.2251C6.71233 25.919 5.97419 25.4384 5.36454 24.8171C4.74301 24.2068 4.26209 23.4683 3.9553 22.6531C3.65367 21.8752 3.44851 20.9887 3.38745 19.6893C3.37385 19.3996 3.36164 19.1097 3.35082 18.8199L3.34471 18.583C3.3222 17.6921 3.31202 16.8009 3.31418 15.9098V13.3991C3.31077 12.5083 3.31973 11.6176 3.34105 10.7271L3.3496 10.4902C3.35936 10.2167 3.37158 9.94557 3.38623 9.62074C3.44729 8.32019 3.65245 7.43483 3.95408 6.65572C4.26105 5.84073 4.74291 5.10293 5.36576 4.49424C5.975 3.87236 6.71267 3.391 7.52724 3.08378C8.30635 2.78215 9.1917 2.57699 10.4923 2.51593L11.3617 2.4793L11.5986 2.47319C12.4891 2.45069 13.3798 2.44051 14.2706 2.44266L16.7813 2.44389ZM15.5259 8.54977C14.7169 8.53833 13.9137 8.68779 13.1629 8.98947C12.4122 9.29116 11.7289 9.73905 11.1527 10.3071C10.5766 10.8752 10.1191 11.5521 9.80679 12.2985C9.49452 13.0449 9.33372 13.8459 9.33372 14.655C9.33372 15.4641 9.49452 16.2652 9.80679 17.0116C10.1191 17.758 10.5766 18.4349 11.1527 19.003C11.7289 19.571 12.4122 20.0189 13.1629 20.3206C13.9137 20.6223 14.7169 20.7718 15.5259 20.7603C17.1453 20.7603 18.6984 20.117 19.8435 18.9719C20.9885 17.8269 21.6318 16.2738 21.6318 14.6544C21.6318 13.035 20.9885 11.482 19.8435 10.3369C18.6984 9.19184 17.1453 8.54977 15.5259 8.54977ZM15.5259 10.9921C16.0126 10.9832 16.4961 11.0712 16.9484 11.2513C17.4006 11.4313 17.8124 11.6996 18.1598 12.0406C18.5071 12.3815 18.783 12.7883 18.9714 13.2371C19.1598 13.6859 19.2569 14.1677 19.257 14.6544C19.257 15.1411 19.1601 15.623 18.9719 16.0719C18.7837 16.5207 18.5079 16.9276 18.1606 17.2686C17.8134 17.6097 17.4017 17.8782 16.9495 18.0583C16.4973 18.2385 16.0138 18.3268 15.5272 18.318C14.5555 18.318 13.6237 17.932 12.9367 17.2449C12.2496 16.5579 11.8636 15.6261 11.8636 14.6544C11.8636 13.6828 12.2496 12.751 12.9367 12.0639C13.6237 11.3769 14.5555 10.9909 15.5272 10.9909L15.5259 10.9921ZM21.9371 6.718C21.5432 6.73377 21.1706 6.90136 20.8974 7.18568C20.6243 7.46999 20.4717 7.84898 20.4717 8.24325C20.4717 8.63753 20.6243 9.01651 20.8974 9.30083C21.1706 9.58514 21.5432 9.75273 21.9371 9.7685C22.342 9.7685 22.7302 9.60768 23.0165 9.32141C23.3028 9.03514 23.4636 8.64688 23.4636 8.24203C23.4636 7.83719 23.3028 7.44892 23.0165 7.16265C22.7302 6.87639 22.342 6.71556 21.9371 6.71556V6.718Z" fill="#0298DA"/>
</svg>
