<svg width="30" height="30" viewBox="0 0 30 30" fill="none" xmlns="http://www.w3.org/2000/svg">
<g clip-path="url(#clip0_29_1163)">
<path fill-rule="evenodd" clip-rule="evenodd" d="M22.3474 3.66354C23.3191 3.66354 24.2509 4.04952 24.9379 4.73657C25.625 5.42361 26.011 6.35544 26.011 7.32707V21.9812C26.011 22.9528 25.625 23.8847 24.9379 24.5717C24.2509 25.2587 23.3191 25.6447 22.3474 25.6447H7.69331C6.72169 25.6447 5.78985 25.2587 5.10281 24.5717C4.41576 23.8847 4.02979 22.9528 4.02979 21.9812V7.32707C4.02979 6.35544 4.41576 5.42361 5.10281 4.73657C5.78985 4.04952 6.72169 3.66354 7.69331 3.66354H22.3474ZM10.1357 12.2118C9.81179 12.2118 9.50118 12.3404 9.27217 12.5695C9.04315 12.7985 8.91449 13.1091 8.91449 13.433V19.5388C8.91449 19.8627 9.04315 20.1733 9.27217 20.4023C9.50118 20.6314 9.81179 20.76 10.1357 20.76C10.4595 20.76 10.7702 20.6314 10.9992 20.4023C11.2282 20.1733 11.3568 19.8627 11.3568 19.5388V13.433C11.3568 13.1091 11.2282 12.7985 10.9992 12.5695C10.7702 12.3404 10.4595 12.2118 10.1357 12.2118ZM13.7992 10.9906C13.4753 10.9906 13.1647 11.1193 12.9357 11.3483C12.7067 11.5773 12.578 11.8879 12.578 12.2118V19.5388C12.578 19.8627 12.7067 20.1733 12.9357 20.4023C13.1647 20.6314 13.4753 20.76 13.7992 20.76C14.1231 20.76 14.4337 20.6314 14.6627 20.4023C14.8917 20.1733 15.0204 19.8627 15.0204 19.5388V15.0693C15.3928 14.6492 16.0217 14.1559 16.7215 13.8567C17.1281 13.6833 17.7399 13.6125 18.1649 13.7468C18.3059 13.7826 18.4314 13.8631 18.5227 13.9764C18.5862 14.0619 18.6839 14.2524 18.6839 14.6541V19.5388C18.6839 19.8627 18.8126 20.1733 19.0416 20.4023C19.2706 20.6314 19.5812 20.76 19.9051 20.76C20.229 20.76 20.5396 20.6314 20.7686 20.4023C20.9976 20.1733 21.1263 19.8627 21.1263 19.5388V14.6541C21.1263 13.8359 20.9187 13.1081 20.4864 12.5244C20.0886 11.9951 19.5318 11.607 18.8976 11.4168C17.7961 11.0712 16.5762 11.2629 15.7616 11.6122C15.5006 11.7239 15.2466 11.8511 15.0008 11.9932C14.9496 11.7118 14.8013 11.4573 14.5817 11.2741C14.3621 11.0909 14.0852 10.9906 13.7992 10.9906ZM10.1357 8.54825C9.81179 8.54825 9.50118 8.67691 9.27217 8.90592C9.04315 9.13494 8.91449 9.44555 8.91449 9.76943C8.91449 10.0933 9.04315 10.4039 9.27217 10.6329C9.50118 10.8619 9.81179 10.9906 10.1357 10.9906C10.4595 10.9906 10.7702 10.8619 10.9992 10.6329C11.2282 10.4039 11.3568 10.0933 11.3568 9.76943C11.3568 9.44555 11.2282 9.13494 10.9992 8.90592C10.7702 8.67691 10.4595 8.54825 10.1357 8.54825Z" fill="white"/>
</g>
<defs>
<clipPath id="clip0_29_1163">
<rect width="29.3082" height="29.3082" fill="white" transform="translate(0.364746)"/>
</clipPath>
</defs>
</svg>
