<svg width="30" height="30" viewBox="0 0 30 30" fill="none" xmlns="http://www.w3.org/2000/svg">
<g clip-path="url(#clip0_124_157)">
<path fill-rule="evenodd" clip-rule="evenodd" d="M22.3469 3.66357C23.3186 3.66357 24.2504 4.04955 24.9375 4.7366C25.6245 5.42364 26.0105 6.35548 26.0105 7.3271V21.9812C26.0105 22.9529 25.6245 23.8847 24.9375 24.5717C24.2504 25.2588 23.3186 25.6448 22.3469 25.6448H7.69283C6.7212 25.6448 5.78937 25.2588 5.10232 24.5717C4.41527 23.8847 4.0293 22.9529 4.0293 21.9812V7.3271C4.0293 6.35548 4.41527 5.42364 5.10232 4.7366C5.78937 4.04955 6.7212 3.66357 7.69283 3.66357H22.3469ZM10.1352 12.2118C9.8113 12.2118 9.50069 12.3405 9.27168 12.5695C9.04266 12.7985 8.914 13.1091 8.914 13.433V19.5389C8.914 19.8627 9.04266 20.1734 9.27168 20.4024C9.50069 20.6314 9.8113 20.76 10.1352 20.76C10.4591 20.76 10.7697 20.6314 10.9987 20.4024C11.2277 20.1734 11.3564 19.8627 11.3564 19.5389V13.433C11.3564 13.1091 11.2277 12.7985 10.9987 12.5695C10.7697 12.3405 10.4591 12.2118 10.1352 12.2118ZM13.7987 10.9906C13.4748 10.9906 13.1642 11.1193 12.9352 11.3483C12.7062 11.5773 12.5775 11.8879 12.5775 12.2118V19.5389C12.5775 19.8627 12.7062 20.1734 12.9352 20.4024C13.1642 20.6314 13.4748 20.76 13.7987 20.76C14.1226 20.76 14.4332 20.6314 14.6622 20.4024C14.8912 20.1734 15.0199 19.8627 15.0199 19.5389V15.0694C15.3923 14.6493 16.0212 14.1559 16.721 13.8567C17.1276 13.6833 17.7394 13.6125 18.1644 13.7468C18.3054 13.7826 18.431 13.8632 18.5222 13.9764C18.5857 14.0619 18.6834 14.2524 18.6834 14.6542V19.5389C18.6834 19.8627 18.8121 20.1734 19.0411 20.4024C19.2701 20.6314 19.5807 20.76 19.9046 20.76C20.2285 20.76 20.5391 20.6314 20.7681 20.4024C20.9971 20.1734 21.1258 19.8627 21.1258 19.5389V14.6542C21.1258 13.836 20.9182 13.1082 20.4859 12.5244C20.0881 11.9951 19.5313 11.607 18.8971 11.4168C17.7956 11.0712 16.5757 11.263 15.7611 11.6122C15.5002 11.7239 15.2461 11.8511 15.0003 11.9932C14.9492 11.7118 14.8008 11.4574 14.5812 11.2741C14.3616 11.0909 14.0847 10.9906 13.7987 10.9906ZM10.1352 8.54828C9.8113 8.54828 9.50069 8.67694 9.27168 8.90595C9.04266 9.13497 8.914 9.44558 8.914 9.76946C8.914 10.0933 9.04266 10.4039 9.27168 10.633C9.50069 10.862 9.8113 10.9906 10.1352 10.9906C10.4591 10.9906 10.7697 10.862 10.9987 10.633C11.2277 10.4039 11.3564 10.0933 11.3564 9.76946C11.3564 9.44558 11.2277 9.13497 10.9987 8.90595C10.7697 8.67694 10.4591 8.54828 10.1352 8.54828Z" fill="#0298DA"/>
</g>
<defs>
<clipPath id="clip0_124_157">
<rect width="29.3082" height="29.3082" fill="white" transform="translate(0.364258)"/>
</clipPath>
</defs>
</svg>
