<svg width="205" height="36" viewBox="0 0 205 36" fill="none" xmlns="http://www.w3.org/2000/svg">
<path d="M20.3842 19.5515C17.8457 21.0951 15.1655 21.3499 12.4175 20.5554C8.67301 19.4727 6.4094 16.0682 6.69721 12.1552C7.05064 7.35024 10.2847 4.31665 15.1191 4.27399C18.5656 4.24357 21.3547 5.47032 23.0101 8.63766C24.972 12.3913 23.8248 17.0987 20.3842 19.5515ZM16.6293 7.85798C16.0715 7.8039 15.511 7.68423 14.9563 7.70678C12.1347 7.82153 10.0545 10.4458 10.4417 13.3612C10.8024 16.0768 13.5622 18.0169 16.2315 17.4312C18.4846 16.9368 20.0432 15.1978 20.1871 13.0177C20.3456 10.6179 19.1007 8.7667 16.6293 7.85798Z" fill="#ED3237"/>
<path d="M3.02846 35.4224C0.92921 34.3051 -0.193686 32.3147 0.0275099 30.1627C0.2519 27.9795 1.7741 26.1812 3.93409 25.6009C5.02564 25.3076 6.12705 25.3397 7.17312 25.7926C7.62793 25.9896 7.93777 25.9544 8.35232 25.6535C13.2103 22.1276 20.8189 22.6917 24.8511 26.8848C27.0929 29.2161 27.9576 32.0756 27.9455 35.3023C26.6988 35.3023 25.5125 35.3023 24.3971 35.3023C24.1784 34.2405 24.0915 33.1728 23.7347 32.2045C22.5336 28.9456 20.009 27.4107 16.6597 27.13C14.5836 26.9561 12.6151 27.3563 10.8457 28.537C10.4432 28.8056 10.2776 29.0294 10.3948 29.5928C10.8125 31.6001 10.2261 33.3541 8.65387 34.6732C6.98601 36.0726 5.0881 36.2816 3.02846 35.4224ZM5.02877 28.9008C4.22121 27.8834 3.59601 27.724 2.67603 28.3008C1.92641 28.7707 1.79979 29.5469 2.33694 30.6336C3.01619 32.0077 4.06061 33.0853 5.22652 34.201C5.79692 33.5986 6.40421 33.1097 6.81157 32.4894C7.35032 31.6691 7.82505 30.7786 8.15038 29.8559C8.37716 29.2127 8.11015 28.5375 7.44027 28.1708C6.75533 27.796 6.17175 28.0738 5.63456 28.5241C5.45938 28.671 5.2844 28.8181 5.02877 28.9008Z" fill="#ED3237"/>
<path d="M38.4385 1.9356C42.2594 3.93355 44.4618 8.7133 43.3374 12.7837C42.8473 13.3186 42.376 13.7607 42.0293 14.2853C41.6878 14.8021 41.5499 15.4026 42.0082 15.9688C40.0298 18.941 37.1794 20.5099 33.7237 21.0726C31.9636 21.3592 30.2118 21.2663 28.4733 20.841C28.2241 20.78 27.8913 20.8644 27.6529 20.9885C26.4164 21.6321 25.1997 22.3135 23.9717 22.9737C23.7623 23.0863 23.5319 23.16 23.2317 23.2846C23.2317 21.9194 23.2277 20.6278 23.2376 19.3364C23.2387 19.2012 23.3007 19.0542 23.3706 18.9337C23.9565 17.9237 24.5508 16.9186 25.1531 15.894C26.5808 16.5024 25.7402 17.9153 26.0728 19.0818C26.6343 18.7856 27.1974 18.5261 27.7197 18.201C28.1305 17.9453 28.493 17.9383 28.9535 18.079C32.579 19.187 36.7284 17.9554 38.8542 15.1716C41.7566 11.3707 40.3682 6.21656 35.8572 4.04606C31.7582 2.07373 26.944 3.25493 24.2369 6.89625C24.1808 6.97179 24.1139 7.03938 24.0643 7.09651C23.3303 6.29412 22.6092 5.5059 21.8351 4.65981C23.5451 2.5254 25.738 1.12619 28.5028 0.528809C29.0137 0.735972 29.4295 0.971194 29.8708 1.03793C32.0526 1.36786 34.2385 1.67522 36.4289 1.94098C37.0889 2.02104 37.7681 1.94184 38.4385 1.9356Z" fill="#ED3237"/>
<path d="M33.2937 8.32926C33.5673 8.04509 33.7957 7.78886 34.0434 7.55289C34.6094 7.0136 35.2562 6.99005 35.736 7.47835C36.1719 7.92201 36.1795 8.61208 35.6902 9.12802C34.176 10.7249 32.6416 12.3027 31.1151 13.888C30.9629 14.0461 30.8128 14.2063 30.6593 14.3631C30.1475 14.8859 29.4973 14.9328 28.9685 14.4232C28.2823 13.7619 27.6177 13.0758 26.9782 12.3692C26.4933 11.8336 26.5414 11.1844 27.0354 10.7359C27.4786 10.3334 28.1352 10.3545 28.6245 10.7989C28.8233 10.9794 29.0091 11.1755 29.1893 11.375C29.3693 11.5743 29.5348 11.7866 29.7433 12.0373C30.9642 10.7619 32.1107 9.56417 33.2937 8.32926Z" fill="#ED3237"/>
<path d="M38.4065 1.89371C37.7681 1.94092 37.0888 2.02012 36.4289 1.94006C34.2385 1.6743 32.0526 1.36694 29.8708 1.03701C29.4295 0.970274 29.0137 0.735052 28.5611 0.530399C29.1735 0.366719 29.8111 0.250147 30.5429 0.187012C30.7627 0.311129 30.8812 0.424178 31.0146 0.445774C32.0575 0.614672 33.0993 0.805777 34.1495 0.909043C34.8707 0.979961 35.6046 0.921346 36.3328 0.920631C37.0134 1.23133 37.694 1.54203 38.4065 1.89371Z" fill="#ED3237"/>
<path d="M36.294 0.885004C35.6046 0.921753 34.8706 0.980368 34.1494 0.90945C33.0993 0.806184 32.0575 0.61508 31.0146 0.446181C30.8812 0.424585 30.7627 0.311536 30.608 0.190551C32.5344 -0.131747 34.4142 0.202573 36.294 0.885004Z" fill="#ED3237"/>
<path d="M42.0431 15.9368C41.5498 15.4022 41.6878 14.8016 42.0293 14.2848C42.3759 13.7603 42.8473 13.3182 43.3168 12.8389C42.939 13.8603 42.5085 14.8827 42.0431 15.9368Z" fill="#ED3237"/>
<path d="M54.4429 24.5V19.3045L54.9868 20.805L49.2849 11.3706H51.892L56.4686 18.9669H55.0056L59.6196 11.3706H62.0205L56.3185 20.805L56.8812 19.3045V24.5H54.4429ZM66.7764 24.6313C65.751 24.6313 64.8382 24.4125 64.0379 23.9748C63.2377 23.5247 62.6062 22.912 62.1435 22.1367C61.6809 21.3614 61.4496 20.4799 61.4496 19.4921C61.4496 18.4917 61.6809 17.6102 62.1435 16.8474C62.6062 16.0722 63.2377 15.4657 64.0379 15.028C64.8382 14.5904 65.751 14.3716 66.7764 14.3716C67.8142 14.3716 68.7333 14.5904 69.5335 15.028C70.3463 15.4657 70.9778 16.0659 71.4279 16.8287C71.8906 17.5914 72.1219 18.4792 72.1219 19.4921C72.1219 20.4799 71.8906 21.3614 71.4279 22.1367C70.9778 22.912 70.3463 23.5247 69.5335 23.9748C68.7333 24.4125 67.8142 24.6313 66.7764 24.6313ZM66.7764 22.6244C67.3516 22.6244 67.8642 22.4993 68.3144 22.2492C68.7645 21.9992 69.1146 21.6365 69.3647 21.1614C69.6273 20.6862 69.7586 20.1298 69.7586 19.4921C69.7586 18.8418 69.6273 18.2854 69.3647 17.8227C69.1146 17.3476 68.7645 16.985 68.3144 16.7349C67.8642 16.4848 67.3578 16.3597 66.7951 16.3597C66.2199 16.3597 65.7072 16.4848 65.2571 16.7349C64.8194 16.985 64.4693 17.3476 64.2067 17.8227C63.9441 18.2854 63.8129 18.8418 63.8129 19.4921C63.8129 20.1298 63.9441 20.6862 64.2067 21.1614C64.4693 21.6365 64.8194 21.9992 65.2571 22.2492C65.7072 22.4993 66.2137 22.6244 66.7764 22.6244ZM78.6028 24.6313C77.7525 24.6313 77.0023 24.475 76.3521 24.1624C75.7018 23.8373 75.1954 23.3496 74.8328 22.6994C74.4702 22.0367 74.2889 21.2051 74.2889 20.2048V14.4841H76.6334V19.8859C76.6334 20.7862 76.8335 21.4615 77.2336 21.9116C77.6462 22.3493 78.2277 22.5681 78.9779 22.5681C79.5281 22.5681 80.0033 22.4556 80.4034 22.2305C80.8161 22.0054 81.1349 21.6678 81.36 21.2176C81.5976 20.7675 81.7164 20.2111 81.7164 19.5483V14.4841H84.0609V24.5H81.8289V21.7991L82.2228 22.6244C81.8852 23.2746 81.3913 23.7748 80.741 24.1249C80.0908 24.4625 79.3781 24.6313 78.6028 24.6313ZM87.1306 24.5V14.4841H89.3627V17.2413L89.1001 16.4348C89.4002 15.7595 89.8691 15.2469 90.5068 14.8968C91.157 14.5466 91.9635 14.3716 92.9264 14.3716V16.6036C92.8263 16.5786 92.7325 16.5661 92.645 16.5661C92.5575 16.5536 92.47 16.5473 92.3824 16.5473C91.4946 16.5473 90.7881 16.8099 90.263 17.3351C89.7378 17.8478 89.4752 18.6168 89.4752 19.6421V24.5H87.1306ZM98.1016 24.6313C97.2639 24.6313 96.4573 24.525 95.6821 24.3124C94.9193 24.0874 94.3129 23.8185 93.8627 23.5059L94.763 21.7241C95.2132 22.0117 95.7508 22.2492 96.3761 22.4368C97.0013 22.6244 97.6265 22.7181 98.2517 22.7181C98.9894 22.7181 99.5209 22.6181 99.846 22.418C100.184 22.218 100.352 21.9491 100.352 21.6115C100.352 21.3364 100.24 21.1301 100.015 20.9926C99.7897 20.8425 99.4959 20.73 99.1332 20.655C98.7706 20.5799 98.3642 20.5112 97.9141 20.4486C97.4764 20.3861 97.0325 20.3048 96.5824 20.2048C96.1447 20.0923 95.7446 19.936 95.382 19.7359C95.0194 19.5233 94.7255 19.242 94.5004 18.8919C94.2753 18.5417 94.1628 18.0791 94.1628 17.5039C94.1628 16.8662 94.3441 16.316 94.7067 15.8533C95.0694 15.3782 95.5758 15.0155 96.226 14.7655C96.8887 14.5029 97.6702 14.3716 98.5706 14.3716C99.2458 14.3716 99.9273 14.4466 100.615 14.5967C101.303 14.7467 101.872 14.9593 102.322 15.2344L101.422 17.0162C100.946 16.7286 100.465 16.5348 99.9773 16.4348C99.5021 16.3222 99.027 16.266 98.5518 16.266C97.8391 16.266 97.3076 16.3723 96.9575 16.5848C96.6199 16.7974 96.4511 17.0662 96.4511 17.3913C96.4511 17.6914 96.5636 17.9165 96.7887 18.0666C97.0138 18.2166 97.3076 18.3354 97.6702 18.4229C98.0329 18.5105 98.433 18.5855 98.8707 18.648C99.3208 18.698 99.7647 18.7793 100.202 18.8919C100.64 19.0044 101.04 19.1607 101.403 19.3608C101.778 19.5483 102.078 19.8172 102.303 20.1673C102.528 20.5174 102.641 20.9738 102.641 21.5365C102.641 22.1617 102.453 22.7056 102.078 23.1683C101.715 23.631 101.196 23.9936 100.521 24.2562C99.846 24.5063 99.0395 24.6313 98.1016 24.6313ZM110.831 24.5V22.4743L110.699 22.0429V18.498C110.699 17.8102 110.493 17.2788 110.08 16.9037C109.668 16.5161 109.042 16.3222 108.205 16.3222C107.642 16.3222 107.086 16.4098 106.535 16.5848C105.998 16.7599 105.541 17.0037 105.166 17.3163L104.247 15.6095C104.785 15.1969 105.423 14.8905 106.16 14.6904C106.911 14.4779 107.686 14.3716 108.486 14.3716C109.937 14.3716 111.056 14.7217 111.843 15.4219C112.644 16.1097 113.044 17.1788 113.044 18.6293V24.5H110.831ZM107.68 24.6313C106.929 24.6313 106.273 24.5063 105.71 24.2562C105.147 23.9936 104.71 23.6372 104.397 23.1871C104.097 22.7244 103.947 22.2055 103.947 21.6303C103.947 21.0676 104.078 20.5612 104.341 20.111C104.616 19.6609 105.06 19.3045 105.673 19.0419C106.285 18.7793 107.098 18.648 108.111 18.648H111.018V20.2048H108.28C107.479 20.2048 106.942 20.3361 106.667 20.5987C106.392 20.8488 106.254 21.1614 106.254 21.5365C106.254 21.9616 106.423 22.2993 106.76 22.5493C107.098 22.7994 107.567 22.9245 108.167 22.9245C108.742 22.9245 109.255 22.7932 109.705 22.5306C110.168 22.268 110.499 21.8804 110.699 21.3677L111.093 22.7744C110.868 23.3621 110.462 23.8185 109.874 24.1436C109.299 24.4687 108.567 24.6313 107.68 24.6313ZM119.148 24.6313C118.31 24.6313 117.503 24.525 116.728 24.3124C115.965 24.0874 115.359 23.8185 114.909 23.5059L115.809 21.7241C116.259 22.0117 116.797 22.2492 117.422 22.4368C118.047 22.6244 118.672 22.7181 119.298 22.7181C120.035 22.7181 120.567 22.6181 120.892 22.418C121.23 22.218 121.398 21.9491 121.398 21.6115C121.398 21.3364 121.286 21.1301 121.061 20.9926C120.836 20.8425 120.542 20.73 120.179 20.655C119.817 20.5799 119.41 20.5112 118.96 20.4486C118.522 20.3861 118.078 20.3048 117.628 20.2048C117.191 20.0923 116.791 19.936 116.428 19.7359C116.065 19.5233 115.771 19.242 115.546 18.8919C115.321 18.5417 115.209 18.0791 115.209 17.5039C115.209 16.8662 115.39 16.316 115.753 15.8533C116.115 15.3782 116.622 15.0155 117.272 14.7655C117.935 14.5029 118.716 14.3716 119.616 14.3716C120.292 14.3716 120.973 14.4466 121.661 14.5967C122.349 14.7467 122.918 14.9593 123.368 15.2344L122.467 17.0162C121.992 16.7286 121.511 16.5348 121.023 16.4348C120.548 16.3222 120.073 16.266 119.598 16.266C118.885 16.266 118.354 16.3723 118.003 16.5848C117.666 16.7974 117.497 17.0662 117.497 17.3913C117.497 17.6914 117.61 17.9165 117.835 18.0666C118.06 18.2166 118.354 18.3354 118.716 18.4229C119.079 18.5105 119.479 18.5855 119.917 18.648C120.367 18.698 120.811 18.7793 121.248 18.8919C121.686 19.0044 122.086 19.1607 122.449 19.3608C122.824 19.5483 123.124 19.8172 123.349 20.1673C123.574 20.5174 123.687 20.9738 123.687 21.5365C123.687 22.1617 123.499 22.7056 123.124 23.1683C122.761 23.631 122.242 23.9936 121.567 24.2562C120.892 24.5063 120.085 24.6313 119.148 24.6313ZM128.8 24.6313C127.963 24.6313 127.156 24.525 126.381 24.3124C125.618 24.0874 125.012 23.8185 124.562 23.5059L125.462 21.7241C125.912 22.0117 126.45 22.2492 127.075 22.4368C127.7 22.6244 128.325 22.7181 128.951 22.7181C129.688 22.7181 130.22 22.6181 130.545 22.418C130.882 22.218 131.051 21.9491 131.051 21.6115C131.051 21.3364 130.939 21.1301 130.714 20.9926C130.489 20.8425 130.195 20.73 129.832 20.655C129.469 20.5799 129.063 20.5112 128.613 20.4486C128.175 20.3861 127.731 20.3048 127.281 20.2048C126.844 20.0923 126.443 19.936 126.081 19.7359C125.718 19.5233 125.424 19.242 125.199 18.8919C124.974 18.5417 124.862 18.0791 124.862 17.5039C124.862 16.8662 125.043 16.316 125.406 15.8533C125.768 15.3782 126.275 15.0155 126.925 14.7655C127.588 14.5029 128.369 14.3716 129.269 14.3716C129.945 14.3716 130.626 14.4466 131.314 14.5967C132.002 14.7467 132.571 14.9593 133.021 15.2344L132.12 17.0162C131.645 16.7286 131.164 16.5348 130.676 16.4348C130.201 16.3222 129.726 16.266 129.251 16.266C128.538 16.266 128.006 16.3723 127.656 16.5848C127.319 16.7974 127.15 17.0662 127.15 17.3913C127.15 17.6914 127.262 17.9165 127.488 18.0666C127.713 18.2166 128.006 18.3354 128.369 18.4229C128.732 18.5105 129.132 18.5855 129.57 18.648C130.02 18.698 130.464 18.7793 130.901 18.8919C131.339 19.0044 131.739 19.1607 132.102 19.3608C132.477 19.5483 132.777 19.8172 133.002 20.1673C133.227 20.5174 133.34 20.9738 133.34 21.5365C133.34 22.1617 133.152 22.7056 132.777 23.1683C132.414 23.631 131.895 23.9936 131.22 24.2562C130.545 24.5063 129.738 24.6313 128.8 24.6313ZM135.359 24.5V14.4841H137.703V24.5H135.359ZM136.54 12.8336C136.103 12.8336 135.74 12.696 135.452 12.4209C135.177 12.1458 135.04 11.8145 135.04 11.4268C135.04 11.0267 135.177 10.6953 135.452 10.4327C135.74 10.1577 136.103 10.0201 136.54 10.0201C136.978 10.0201 137.334 10.1514 137.609 10.414C137.897 10.6641 138.041 10.9829 138.041 11.3706C138.041 11.7832 137.903 12.1333 137.628 12.4209C137.353 12.696 136.99 12.8336 136.54 12.8336ZM143.875 24.6313C143.037 24.6313 142.231 24.525 141.456 24.3124C140.693 24.0874 140.086 23.8185 139.636 23.5059L140.537 21.7241C140.987 22.0117 141.524 22.2492 142.15 22.4368C142.775 22.6244 143.4 22.7181 144.025 22.7181C144.763 22.7181 145.294 22.6181 145.62 22.418C145.957 22.218 146.126 21.9491 146.126 21.6115C146.126 21.3364 146.013 21.1301 145.788 20.9926C145.563 20.8425 145.269 20.73 144.907 20.655C144.544 20.5799 144.138 20.5112 143.688 20.4486C143.25 20.3861 142.806 20.3048 142.356 20.2048C141.918 20.0923 141.518 19.936 141.156 19.7359C140.793 19.5233 140.499 19.242 140.274 18.8919C140.049 18.5417 139.936 18.0791 139.936 17.5039C139.936 16.8662 140.118 16.316 140.48 15.8533C140.843 15.3782 141.349 15.0155 142 14.7655C142.662 14.5029 143.444 14.3716 144.344 14.3716C145.019 14.3716 145.701 14.4466 146.389 14.5967C147.076 14.7467 147.645 14.9593 148.095 15.2344L147.195 17.0162C146.72 16.7286 146.238 16.5348 145.751 16.4348C145.276 16.3222 144.8 16.266 144.325 16.266C143.613 16.266 143.081 16.3723 142.731 16.5848C142.393 16.7974 142.225 17.0662 142.225 17.3913C142.225 17.6914 142.337 17.9165 142.562 18.0666C142.787 18.2166 143.081 18.3354 143.444 18.4229C143.806 18.5105 144.207 18.5855 144.644 18.648C145.094 18.698 145.538 18.7793 145.976 18.8919C146.414 19.0044 146.814 19.1607 147.176 19.3608C147.551 19.5483 147.852 19.8172 148.077 20.1673C148.302 20.5174 148.414 20.9738 148.414 21.5365C148.414 22.1617 148.227 22.7056 147.852 23.1683C147.489 23.631 146.97 23.9936 146.295 24.2562C145.62 24.5063 144.813 24.6313 143.875 24.6313ZM154.203 24.6313C153.103 24.6313 152.253 24.3499 151.652 23.7873C151.052 23.2121 150.752 22.368 150.752 21.2552V12.2709H153.097V21.1989C153.097 21.674 153.215 22.0429 153.453 22.3055C153.703 22.5681 154.047 22.6994 154.485 22.6994C155.01 22.6994 155.447 22.5618 155.798 22.2868L156.454 23.9561C156.179 24.1811 155.841 24.3499 155.441 24.4625C155.041 24.575 154.628 24.6313 154.203 24.6313ZM149.102 16.4348V14.5591H155.779V16.4348H149.102ZM164.554 24.5V22.4743L164.422 22.0429V18.498C164.422 17.8102 164.216 17.2788 163.803 16.9037C163.391 16.5161 162.765 16.3222 161.928 16.3222C161.365 16.3222 160.809 16.4098 160.258 16.5848C159.721 16.7599 159.264 17.0037 158.889 17.3163L157.97 15.6095C158.508 15.1969 159.146 14.8905 159.883 14.6904C160.634 14.4779 161.409 14.3716 162.209 14.3716C163.66 14.3716 164.779 14.7217 165.566 15.4219C166.367 16.1097 166.767 17.1788 166.767 18.6293V24.5H164.554ZM161.403 24.6313C160.652 24.6313 159.996 24.5063 159.433 24.2562C158.87 23.9936 158.433 23.6372 158.12 23.1871C157.82 22.7244 157.67 22.2055 157.67 21.6303C157.67 21.0676 157.801 20.5612 158.064 20.111C158.339 19.6609 158.783 19.3045 159.396 19.0419C160.008 18.7793 160.821 18.648 161.834 18.648H164.741V20.2048H162.003C161.202 20.2048 160.665 20.3361 160.39 20.5987C160.115 20.8488 159.977 21.1614 159.977 21.5365C159.977 21.9616 160.146 22.2993 160.483 22.5493C160.821 22.7994 161.29 22.9245 161.89 22.9245C162.465 22.9245 162.978 22.7932 163.428 22.5306C163.891 22.268 164.222 21.8804 164.422 21.3677L164.816 22.7744C164.591 23.3621 164.185 23.8185 163.597 24.1436C163.022 24.4687 162.29 24.6313 161.403 24.6313ZM175.459 14.3716C176.259 14.3716 176.972 14.5279 177.597 14.8405C178.235 15.1531 178.735 15.6345 179.098 16.2847C179.46 16.9224 179.642 17.7477 179.642 18.7606V24.5H177.297V19.0607C177.297 18.1729 177.084 17.5101 176.659 17.0725C176.247 16.6348 175.665 16.416 174.915 16.416C174.365 16.416 173.877 16.5286 173.452 16.7536C173.027 16.9787 172.696 17.3163 172.458 17.7665C172.233 18.2041 172.12 18.7606 172.12 19.4358V24.5H169.776V14.4841H172.008V17.185L171.614 16.3597C171.964 15.722 172.47 15.2344 173.133 14.8968C173.808 14.5466 174.584 14.3716 175.459 14.3716ZM187.229 24.6313C186.179 24.6313 185.241 24.4125 184.416 23.9748C183.603 23.5247 182.965 22.912 182.503 22.1367C182.04 21.3614 181.809 20.4799 181.809 19.4921C181.809 18.4917 182.04 17.6102 182.503 16.8474C182.965 16.0722 183.603 15.4657 184.416 15.028C185.241 14.5904 186.179 14.3716 187.229 14.3716C188.205 14.3716 189.061 14.5716 189.799 14.9718C190.549 15.3594 191.118 15.9346 191.506 16.6974L189.705 17.7477C189.405 17.2726 189.036 16.9224 188.599 16.6974C188.173 16.4723 187.711 16.3597 187.211 16.3597C186.635 16.3597 186.117 16.4848 185.654 16.7349C185.191 16.985 184.829 17.3476 184.566 17.8227C184.303 18.2854 184.172 18.8418 184.172 19.4921C184.172 20.1423 184.303 20.705 184.566 21.1801C184.829 21.6428 185.191 21.9992 185.654 22.2492C186.117 22.4993 186.635 22.6244 187.211 22.6244C187.711 22.6244 188.173 22.5118 188.599 22.2868C189.036 22.0617 189.405 21.7116 189.705 21.2364L191.506 22.2868C191.118 23.037 190.549 23.6185 189.799 24.0311C189.061 24.4312 188.205 24.6313 187.229 24.6313ZM198.094 24.6313C196.981 24.6313 196.006 24.4125 195.168 23.9748C194.343 23.5247 193.699 22.912 193.236 22.1367C192.786 21.3614 192.561 20.4799 192.561 19.4921C192.561 18.4917 192.78 17.6102 193.217 16.8474C193.667 16.0722 194.28 15.4657 195.055 15.028C195.843 14.5904 196.737 14.3716 197.738 14.3716C198.713 14.3716 199.582 14.5841 200.345 15.0093C201.107 15.4344 201.708 16.0346 202.145 16.8099C202.583 17.5852 202.802 18.498 202.802 19.5483C202.802 19.6484 202.795 19.7609 202.783 19.8859C202.783 20.011 202.777 20.1298 202.764 20.2423H194.418V18.6855H201.526L200.607 19.1732C200.62 18.598 200.501 18.0916 200.251 17.6539C200.001 17.2163 199.657 16.8724 199.219 16.6223C198.794 16.3723 198.3 16.2472 197.738 16.2472C197.162 16.2472 196.656 16.3723 196.218 16.6223C195.793 16.8724 195.455 17.2225 195.205 17.6727C194.968 18.1103 194.849 18.6293 194.849 19.2295V19.6046C194.849 20.2048 194.987 20.7362 195.262 21.1989C195.537 21.6615 195.924 22.0179 196.425 22.268C196.925 22.5181 197.5 22.6431 198.15 22.6431C198.713 22.6431 199.219 22.5556 199.669 22.3805C200.12 22.2055 200.52 21.9304 200.87 21.5553L202.126 22.9995C201.676 23.5247 201.107 23.9311 200.42 24.2187C199.744 24.4937 198.969 24.6313 198.094 24.6313Z" fill="#ED3237"/>
</svg>
