<svg width="29" height="28" viewBox="0 0 29 28" fill="none" xmlns="http://www.w3.org/2000/svg">
<path d="M23.8333 9.33332L14.4999 15.1667L5.16659 9.33332V6.99999L14.4999 12.8333L23.8333 6.99999M23.8333 4.66666H5.16659C3.87159 4.66666 2.83325 5.70499 2.83325 6.99999V21C2.83325 21.6188 3.07908 22.2123 3.51667 22.6499C3.95425 23.0875 4.54775 23.3333 5.16659 23.3333H23.8333C24.4521 23.3333 25.0456 23.0875 25.4832 22.6499C25.9208 22.2123 26.1666 21.6188 26.1666 21V6.99999C26.1666 6.38115 25.9208 5.78766 25.4832 5.35007C25.0456 4.91249 24.4521 4.66666 23.8333 4.66666Z" fill="white"/>
</svg>
