<svg width="47" height="15" viewBox="0 0 47 15" fill="none" xmlns="http://www.w3.org/2000/svg">
<path d="M1.25 3.74687C1.25 3.40312 1.52875 3.125 1.87187 3.125H6.87813C7.04306 3.125 7.20123 3.19052 7.31786 3.30714C7.43448 3.42377 7.5 3.58194 7.5 3.74687C7.5 3.91181 7.43448 4.06998 7.31786 4.18661C7.20123 4.30323 7.04306 4.36875 6.87813 4.36875H1.87187C1.70694 4.36875 1.54877 4.30323 1.43214 4.18661C1.31552 4.06998 1.25 3.91181 1.25 3.74687ZM1.25 7.5C1.25 7.15625 1.52875 6.87813 1.87187 6.87813H13.1281C13.2931 6.87813 13.4512 6.94364 13.5679 7.06027C13.6845 7.17689 13.75 7.33507 13.75 7.5C13.75 7.66493 13.6845 7.82311 13.5679 7.93973C13.4512 8.05636 13.2931 8.12187 13.1281 8.12187H1.87187C1.70694 8.12187 1.54877 8.05636 1.43214 7.93973C1.31552 7.82311 1.25 7.66493 1.25 7.5ZM1.87187 10.6313C1.70694 10.6313 1.54877 10.6968 1.43214 10.8134C1.31552 10.93 1.25 11.0882 1.25 11.2531C1.25 11.4181 1.31552 11.5762 1.43214 11.6929C1.54877 11.8095 1.70694 11.875 1.87187 11.875H9.37813C9.54306 11.875 9.70123 11.8095 9.81786 11.6929C9.93448 11.5762 10 11.4181 10 11.2531C10 11.0882 9.93448 10.93 9.81786 10.8134C9.70123 10.6968 9.54306 10.6313 9.37813 10.6313H1.87187Z" fill="#ED3237"/>
<path d="M17.94 11.5V4.5H19.01L22.07 9.61H21.51L24.52 4.5H25.59L25.6 11.5H24.37L24.36 6.43H24.62L22.06 10.7H21.48L18.88 6.43H19.18V11.5H17.94ZM29.8808 11.57C29.2874 11.57 28.7674 11.4533 28.3208 11.22C27.8808 10.98 27.5374 10.6533 27.2908 10.24C27.0508 9.82667 26.9308 9.35667 26.9308 8.83C26.9308 8.29667 27.0474 7.82667 27.2808 7.42C27.5208 7.00667 27.8474 6.68333 28.2608 6.45C28.6808 6.21667 29.1574 6.1 29.6908 6.1C30.2108 6.1 30.6741 6.21333 31.0808 6.44C31.4874 6.66667 31.8074 6.98667 32.0408 7.4C32.2741 7.81333 32.3908 8.3 32.3908 8.86C32.3908 8.91333 32.3874 8.97333 32.3808 9.04C32.3808 9.10667 32.3774 9.17 32.3708 9.23H27.9208V8.4H31.7108L31.2208 8.66C31.2274 8.35333 31.1641 8.08333 31.0308 7.85C30.8974 7.61667 30.7141 7.43333 30.4808 7.3C30.2541 7.16667 29.9908 7.1 29.6908 7.1C29.3841 7.1 29.1141 7.16667 28.8808 7.3C28.6541 7.43333 28.4741 7.62 28.3408 7.86C28.2141 8.09333 28.1508 8.37 28.1508 8.69V8.89C28.1508 9.21 28.2241 9.49333 28.3708 9.74C28.5174 9.98667 28.7241 10.1767 28.9908 10.31C29.2574 10.4433 29.5641 10.51 29.9108 10.51C30.2108 10.51 30.4808 10.4633 30.7208 10.37C30.9608 10.2767 31.1741 10.13 31.3608 9.93L32.0308 10.7C31.7908 10.98 31.4874 11.1967 31.1208 11.35C30.7608 11.4967 30.3474 11.57 29.8808 11.57ZM36.6215 6.1C37.0482 6.1 37.4282 6.18333 37.7615 6.35C38.1015 6.51667 38.3682 6.77333 38.5615 7.12C38.7548 7.46 38.8515 7.9 38.8515 8.44V11.5H37.6015V8.6C37.6015 8.12667 37.4882 7.77333 37.2615 7.54C37.0415 7.30667 36.7315 7.19 36.3315 7.19C36.0382 7.19 35.7782 7.25 35.5515 7.37C35.3248 7.49 35.1482 7.67 35.0215 7.91C34.9015 8.14333 34.8415 8.44 34.8415 8.8V11.5H33.5915V6.16H34.7815V7.6L34.5715 7.16C34.7582 6.82 35.0282 6.56 35.3815 6.38C35.7415 6.19333 36.1548 6.1 36.6215 6.1ZM42.6972 11.57C42.2439 11.57 41.8439 11.4867 41.4972 11.32C41.1505 11.1467 40.8805 10.8867 40.6872 10.54C40.4939 10.1867 40.3972 9.74333 40.3972 9.21V6.16H41.6472V9.04C41.6472 9.52 41.7539 9.88 41.9672 10.12C42.1872 10.3533 42.4972 10.47 42.8972 10.47C43.1905 10.47 43.4439 10.41 43.6572 10.29C43.8772 10.17 44.0472 9.99 44.1672 9.75C44.2939 9.51 44.3572 9.21333 44.3572 8.86V6.16H45.6072V11.5H44.4172V10.06L44.6272 10.5C44.4472 10.8467 44.1839 11.1133 43.8372 11.3C43.4905 11.48 43.1105 11.57 42.6972 11.57Z" fill="#ED3237"/>
</svg>
