<svg width="48" height="16" viewBox="0 0 48 16" fill="none" xmlns="http://www.w3.org/2000/svg">
<path d="M1.29443 4.70879C1.29443 4.36504 1.57318 4.08691 1.91631 4.08691H6.92256C7.08749 4.08691 7.24567 4.15243 7.36229 4.26906C7.47891 4.38568 7.54443 4.54386 7.54443 4.70879C7.54443 4.87372 7.47891 5.0319 7.36229 5.14852C7.24567 5.26515 7.08749 5.33066 6.92256 5.33066H1.91631C1.75138 5.33066 1.5932 5.26515 1.47658 5.14852C1.35995 5.0319 1.29443 4.87372 1.29443 4.70879ZM1.29443 8.46191C1.29443 8.11816 1.57318 7.84004 1.91631 7.84004H13.1726C13.3375 7.84004 13.4957 7.90556 13.6123 8.02218C13.7289 8.13881 13.7944 8.29698 13.7944 8.46191C13.7944 8.62685 13.7289 8.78502 13.6123 8.90165C13.4957 9.01827 13.3375 9.08379 13.1726 9.08379H1.91631C1.75138 9.08379 1.5932 9.01827 1.47658 8.90165C1.35995 8.78502 1.29443 8.62685 1.29443 8.46191ZM1.91631 11.5932C1.75138 11.5932 1.5932 11.6587 1.47658 11.7753C1.35995 11.8919 1.29443 12.0501 1.29443 12.215C1.29443 12.38 1.35995 12.5381 1.47658 12.6548C1.5932 12.7714 1.75138 12.8369 1.91631 12.8369H9.42256C9.58749 12.8369 9.74567 12.7714 9.86229 12.6548C9.97892 12.5381 10.0444 12.38 10.0444 12.215C10.0444 12.0501 9.97892 11.8919 9.86229 11.7753C9.74567 11.6587 9.58749 11.5932 9.42256 11.5932H1.91631Z" fill="#0298DA"/>
<path d="M17.9844 12.4619V5.46191H19.0544L22.1144 10.5719H21.5544L24.5644 5.46191H25.6344L25.6444 12.4619H24.4144L24.4044 7.39191H24.6644L22.1044 11.6619H21.5244L18.9244 7.39191H19.2244V12.4619H17.9844ZM29.9252 12.5319C29.3319 12.5319 28.8119 12.4152 28.3652 12.1819C27.9252 11.9419 27.5819 11.6152 27.3352 11.2019C27.0952 10.7886 26.9752 10.3186 26.9752 9.79191C26.9752 9.25858 27.0919 8.78858 27.3252 8.38191C27.5652 7.96858 27.8919 7.64525 28.3052 7.41191C28.7252 7.17858 29.2019 7.06191 29.7352 7.06191C30.2552 7.06191 30.7185 7.17525 31.1252 7.40191C31.5319 7.62858 31.8519 7.94858 32.0852 8.36191C32.3185 8.77525 32.4352 9.26191 32.4352 9.82191C32.4352 9.87525 32.4319 9.93525 32.4252 10.0019C32.4252 10.0686 32.4219 10.1319 32.4152 10.1919H27.9652V9.36191H31.7552L31.2652 9.62191C31.2719 9.31525 31.2085 9.04525 31.0752 8.81191C30.9419 8.57858 30.7585 8.39525 30.5252 8.26191C30.2985 8.12858 30.0352 8.06191 29.7352 8.06191C29.4285 8.06191 29.1585 8.12858 28.9252 8.26191C28.6985 8.39525 28.5185 8.58191 28.3852 8.82191C28.2585 9.05525 28.1952 9.33191 28.1952 9.65191V9.85191C28.1952 10.1719 28.2685 10.4552 28.4152 10.7019C28.5619 10.9486 28.7685 11.1386 29.0352 11.2719C29.3019 11.4052 29.6085 11.4719 29.9552 11.4719C30.2552 11.4719 30.5252 11.4252 30.7652 11.3319C31.0052 11.2386 31.2185 11.0919 31.4052 10.8919L32.0752 11.6619C31.8352 11.9419 31.5319 12.1586 31.1652 12.3119C30.8052 12.4586 30.3919 12.5319 29.9252 12.5319ZM36.6659 7.06191C37.0926 7.06191 37.4726 7.14525 37.8059 7.31191C38.1459 7.47858 38.4126 7.73525 38.6059 8.08191C38.7993 8.42191 38.8959 8.86191 38.8959 9.40191V12.4619H37.6459V9.56191C37.6459 9.08858 37.5326 8.73525 37.3059 8.50191C37.0859 8.26858 36.7759 8.15191 36.3759 8.15191C36.0826 8.15191 35.8226 8.21191 35.5959 8.33191C35.3693 8.45191 35.1926 8.63191 35.0659 8.87191C34.9459 9.10525 34.8859 9.40191 34.8859 9.76191V12.4619H33.6359V7.12191H34.8259V8.56191L34.6159 8.12191C34.8026 7.78191 35.0726 7.52191 35.4259 7.34191C35.7859 7.15525 36.1993 7.06191 36.6659 7.06191ZM42.7416 12.5319C42.2883 12.5319 41.8883 12.4486 41.5416 12.2819C41.195 12.1086 40.925 11.8486 40.7316 11.5019C40.5383 11.1486 40.4416 10.7052 40.4416 10.1719V7.12191H41.6916V10.0019C41.6916 10.4819 41.7983 10.8419 42.0116 11.0819C42.2316 11.3152 42.5416 11.4319 42.9416 11.4319C43.235 11.4319 43.4883 11.3719 43.7016 11.2519C43.9216 11.1319 44.0916 10.9519 44.2116 10.7119C44.3383 10.4719 44.4016 10.1752 44.4016 9.82191V7.12191H45.6516V12.4619H44.4616V11.0219L44.6716 11.4619C44.4916 11.8086 44.2283 12.0752 43.8816 12.2619C43.535 12.4419 43.155 12.5319 42.7416 12.5319Z" fill="#0298DA"/>
</svg>
