<svg width="62" height="59" viewBox="0 0 62 59" fill="none" xmlns="http://www.w3.org/2000/svg">
<g filter="url(#filter0_d_326_651)">
<rect x="9" y="5" width="44" height="41" rx="5" fill="white"/>
<path d="M21 19.995C21 19.445 21.446 19 21.995 19H30.005C30.2689 19 30.522 19.1048 30.7086 19.2914C30.8952 19.478 31 19.7311 31 19.995C31 20.2589 30.8952 20.512 30.7086 20.6986C30.522 20.8852 30.2689 20.99 30.005 20.99H21.995C21.7311 20.99 21.478 20.8852 21.2914 20.6986C21.1048 20.512 21 20.2589 21 19.995ZM21 26C21 25.45 21.446 25.005 21.995 25.005H40.005C40.2689 25.005 40.522 25.1098 40.7086 25.2964C40.8952 25.483 41 25.7361 41 26C41 26.2639 40.8952 26.517 40.7086 26.7036C40.522 26.8902 40.2689 26.995 40.005 26.995H21.995C21.7311 26.995 21.478 26.8902 21.2914 26.7036C21.1048 26.517 21 26.2639 21 26ZM21.995 31.01C21.7311 31.01 21.478 31.1148 21.2914 31.3014C21.1048 31.488 21 31.7411 21 32.005C21 32.2689 21.1048 32.522 21.2914 32.7086C21.478 32.8952 21.7311 33 21.995 33H34.005C34.2689 33 34.522 32.8952 34.7086 32.7086C34.8952 32.522 35 32.2689 35 32.005C35 31.7411 34.8952 31.488 34.7086 31.3014C34.522 31.1148 34.2689 31.01 34.005 31.01H21.995Z" fill="#0298DA"/>
</g>
<defs>
<filter id="filter0_d_326_651" x="0" y="0" width="62" height="59" filterUnits="userSpaceOnUse" color-interpolation-filters="sRGB">
<feFlood flood-opacity="0" result="BackgroundImageFix"/>
<feColorMatrix in="SourceAlpha" type="matrix" values="0 0 0 0 0 0 0 0 0 0 0 0 0 0 0 0 0 0 127 0" result="hardAlpha"/>
<feOffset dy="4"/>
<feGaussianBlur stdDeviation="4.5"/>
<feComposite in2="hardAlpha" operator="out"/>
<feColorMatrix type="matrix" values="0 0 0 0 0 0 0 0 0 0 0 0 0 0 0 0 0 0 0.15 0"/>
<feBlend mode="normal" in2="BackgroundImageFix" result="effect1_dropShadow_326_651"/>
<feBlend mode="normal" in="SourceGraphic" in2="effect1_dropShadow_326_651" result="shape"/>
</filter>
</defs>
</svg>
