<svg width="44" height="43" viewBox="0 0 44 43" fill="none" xmlns="http://www.w3.org/2000/svg">
<circle cx="21.5291" cy="21.5" r="21.5" fill="#105B7C"/>
<path d="M14.0291 14.995C14.0291 14.445 14.4751 14 15.0241 14H23.0341C23.2979 14 23.551 14.1048 23.7376 14.2914C23.9242 14.478 24.0291 14.7311 24.0291 14.995C24.0291 15.2589 23.9242 15.512 23.7376 15.6986C23.551 15.8852 23.2979 15.99 23.0341 15.99H15.0241C14.7602 15.99 14.5071 15.8852 14.3205 15.6986C14.1339 15.512 14.0291 15.2589 14.0291 14.995ZM14.0291 21C14.0291 20.45 14.4751 20.005 15.0241 20.005H33.0341C33.2979 20.005 33.551 20.1098 33.7376 20.2964C33.9242 20.483 34.0291 20.7361 34.0291 21C34.0291 21.2639 33.9242 21.517 33.7376 21.7036C33.551 21.8902 33.2979 21.995 33.0341 21.995H15.0241C14.7602 21.995 14.5071 21.8902 14.3205 21.7036C14.1339 21.517 14.0291 21.2639 14.0291 21ZM15.0241 26.01C14.7602 26.01 14.5071 26.1148 14.3205 26.3014C14.1339 26.488 14.0291 26.7411 14.0291 27.005C14.0291 27.2689 14.1339 27.522 14.3205 27.7086C14.5071 27.8952 14.7602 28 15.0241 28H27.0341C27.2979 28 27.551 27.8952 27.7376 27.7086C27.9242 27.522 28.0291 27.2689 28.0291 27.005C28.0291 26.7411 27.9242 26.488 27.7376 26.3014C27.551 26.1148 27.2979 26.01 27.0341 26.01H15.0241Z" fill="white"/>
</svg>
