<svg width="30" height="30" viewBox="0 0 30 30" fill="none" xmlns="http://www.w3.org/2000/svg">
<path d="M15.1164 26.579C13.6632 26.579 12.6936 25.8927 11.8278 25.2882C11.2123 24.8522 10.6359 24.4382 9.95575 24.3234C9.63189 24.2677 9.30375 24.2407 8.97514 24.2428C8.39875 24.2428 7.9408 24.3295 7.61475 24.3955C7.40715 24.4321 7.23374 24.4663 7.09697 24.4663C6.95531 24.4663 6.7758 24.4272 6.7062 24.1879C6.64514 23.9925 6.60728 23.8069 6.56942 23.6274C6.47173 23.1755 6.38991 22.8983 6.22017 22.8702C4.40184 22.593 3.31377 22.1742 3.10128 21.6784C3.08419 21.6246 3.06343 21.5685 3.06343 21.5257C3.05121 21.3743 3.16112 21.2485 3.31377 21.2204C4.75598 20.9823 6.05164 20.2142 7.14582 18.9515C7.99576 17.9709 8.40974 17.0232 8.44759 16.9207C8.44759 16.9085 8.45858 16.9085 8.45858 16.9085C8.66618 16.4798 8.70892 16.1147 8.58314 15.8155C8.34868 15.2538 7.57567 15.0144 7.04812 14.8508C6.91257 14.8141 6.79778 14.7702 6.70009 14.7372C6.24825 14.5577 5.49601 14.1755 5.59492 13.6479C5.66575 13.2669 6.17132 12.9946 6.5853 12.9946C6.70009 12.9946 6.79778 13.0117 6.87838 13.0556C7.34243 13.2669 7.76129 13.3756 8.12032 13.3756C8.56727 13.3756 8.77975 13.2071 8.83348 13.1533C8.82212 12.9118 8.80787 12.6704 8.79074 12.4292C8.68084 10.7623 8.55628 8.6936 9.08383 7.50784C10.6689 3.95788 14.0333 3.67334 15.0297 3.67334L15.4645 3.66357H15.5255C16.5208 3.66357 19.8851 3.94078 21.4702 7.49685C22.0039 8.68261 21.8732 10.7574 21.7633 12.4182L21.7523 12.5C21.7425 12.7223 21.7254 12.9347 21.7157 13.1533C21.7694 13.1961 21.9648 13.3597 22.3678 13.3646C22.717 13.3548 23.098 13.24 23.5328 13.0434C23.6531 12.9914 23.7827 12.964 23.9138 12.9628C24.0664 12.9628 24.2191 12.9995 24.3498 13.0434H24.3607C24.7259 13.1802 24.9652 13.4354 24.9652 13.7029C24.9762 13.9532 24.7796 14.3342 23.8491 14.7103C23.7514 14.747 23.6366 14.7922 23.501 14.8239C22.9833 14.9827 22.2103 15.233 21.9648 15.7886C21.8292 16.0817 21.883 16.4578 22.0906 16.8828C22.0906 16.8926 22.1016 16.8926 22.1016 16.8926C22.1614 17.0452 23.7343 20.6172 27.2354 21.1997C27.307 21.2117 27.3717 21.2493 27.4178 21.3054C27.4638 21.3615 27.4879 21.4324 27.4857 21.505C27.4866 21.5598 27.4735 21.614 27.4479 21.6625C27.2354 22.1632 26.1571 22.5711 24.3278 22.8544C24.1592 22.8812 24.0774 23.1597 23.9797 23.6115C23.941 23.7998 23.8958 23.9868 23.8442 24.172C23.7892 24.3515 23.6744 24.4492 23.4778 24.4492H23.4522C23.2781 24.4458 23.1047 24.4258 22.9344 24.3894C22.4868 24.294 22.0304 24.2465 21.5728 24.2477C21.2447 24.2485 20.9171 24.2758 20.5934 24.3295C19.9181 24.4395 19.3356 24.8583 18.7201 25.2943C17.8433 25.8926 16.8688 26.579 15.4266 26.579H15.1164Z" fill="#0298DA"/>
</svg>
