<svg width="717" height="729" viewBox="0 0 717 729" fill="none" xmlns="http://www.w3.org/2000/svg">
<g opacity="0.5">
<path d="M282.552 44.914C263.659 -4.24147 170.192 -28.5154 185.616 69.3575C188.145 85.4053 188.399 113.038 185.616 146.673C183.066 177.485 133.151 194.344 117.829 234.156C93.7988 296.593 183.645 340.112 169.347 372.934C150.621 415.922 93.2812 434.574 61.5651 458.093C31.7079 480.234 12.6897 515.759 5.38743 552.283C-7.4235 616.361 15.8252 683.511 79.8677 686.852C111.927 688.524 154.209 674.206 207.308 635.508C231.048 618.206 251.983 603.947 270.588 592.417C318.474 562.741 305.6 632.936 362.541 635.508C394.986 636.974 428.873 576.374 454.525 608.698C472.766 631.682 493.698 659.57 523.59 688.241C576.086 738.593 641.721 746.006 651.005 674.145C655.387 640.222 647.212 588.634 619.17 515.558C601.225 468.793 645.862 470.442 651.005 410.515C656.148 350.588 614.092 322.952 644.536 298.149L645.146 297.652C668.351 278.75 693.1 258.589 706.616 219.866C718.259 186.511 717.146 153.474 706.616 128.089C695.346 100.921 673.29 82.5169 644.536 81.864C615.686 81.209 580.094 98.4254 541.893 142.592C516.706 171.712 499.649 103.955 454.525 110.881C409.402 117.808 403.13 183.185 376.098 164.223C329.142 131.284 304.679 102.484 282.552 44.914Z" fill="white" stroke="#E6E6E6" stroke-opacity="0.7" stroke-width="3"/>
<path d="M373.696 313.046C370.821 305.5 357.421 307.48 356.743 315.659C355.971 324.97 360.678 337.105 360.134 346.438C359.083 364.46 352.716 369.59 340.04 379.089C335.496 382.487 332.601 387.941 331.49 393.548C329.54 403.385 333.079 413.694 342.825 414.207C347.704 414.464 354.139 412.266 362.219 406.325C365.832 403.668 369.018 401.479 371.85 399.709C384.176 391.387 395.647 397.908 399.842 402.209C402.618 405.737 405.804 410.019 410.353 414.42C418.342 422.15 430.441 421.137 429.744 412.256C428.759 399.709 407.338 352.877 429.744 344.71C440.151 340.917 439.81 332.324 438.207 328.427C436.492 324.257 433.135 321.431 428.759 321.331C424.369 321.231 417.095 328.427 413.138 330.654C398.531 338.873 385.498 343.122 373.696 313.046Z" fill="white" stroke="#E6E6E6" stroke-opacity="0.7" stroke-width="3"/>
<path d="M201.244 90.77C187.555 1.67163 272.969 23.882 290.289 68.945C311.495 124.037 334.94 149.857 378.993 179.084C403.768 196.235 409.73 136.541 451.047 130.052C492.364 123.564 508.149 185.052 531.266 158.562C566.422 118.387 599.112 102.978 625.518 103.951C651.753 104.721 671.866 121.747 682.028 146.745C691.516 170.122 692.3 200.458 681.233 230.977C666.789 267.253 645.932 289.833 624.748 308.295C597.079 331.262 635.086 356.629 630.048 411.187C625.011 465.745 583.94 464.094 599.905 506.292C625.006 572.381 632.154 618.931 627.914 649.476C619.276 714.663 559.201 707.674 510.987 661.762C483.34 635.574 463.753 610.242 446.596 589.706C422.998 560.457 391.875 615.789 362.026 614.695C309.849 612.623 321.233 548.942 277.368 576.055C260.146 586.659 240.842 599.676 219.019 615.406C169.819 650.569 131.026 662.665 102.033 660.256C43.8129 656.963 22.7506 595.619 34.537 537.096C41.3113 503.641 58.7846 471.119 86.1576 450.822C116.168 428.567 168.919 411.134 186.053 370.397C199.087 340.114 117.244 300.035 139.016 242.745C152.865 206.039 198.193 190.216 200.548 161.763C203.111 130.793 203.2 105.422 201.244 90.77Z" fill="white" stroke="#E6E6E6" stroke-opacity="0.7" stroke-width="3"/>
<path d="M217.573 113.086C205.639 33.0543 282.874 53.1281 298.598 93.9502C318.852 146.378 341.243 169.134 382.329 194.554C404.812 209.839 410.455 156.024 447.906 149.996C485.356 143.967 499.846 198.983 520.858 175.211C552.919 139.16 582.658 125.608 606.581 126.894C630.259 127.778 648.399 143.37 657.438 166.116C665.872 187.407 666.325 214.944 655.85 242.525C640.618 275.895 623.999 300.798 605.043 318.612C580.19 339.666 614.091 362.681 609.166 411.692C604.241 460.703 566.797 459.054 580.757 496.549C602.88 555.435 608.992 596.794 604.901 623.862C596.921 682.161 542.492 675.62 498.632 634.297C473.27 610.68 455.057 587.986 439.009 569.965C417.499 543.886 389.186 593.769 361.976 593.05C314.639 591.484 324.516 534.525 284.738 558.987C268.924 568.63 251.277 580.362 231.404 594.468C186.175 625.979 150.927 635.817 125.044 632.68C72.7311 629.448 53.886 574.111 64.6308 521.334C70.8671 491.059 86.77 461.648 111.619 443.261C139.881 422.345 187.966 406.189 203.483 367.839C215.234 340.195 141.513 303.689 160.996 251.734C173.352 218.256 214.024 203.523 216.181 177.523C218.521 149.319 218.953 126.295 217.573 113.086Z" fill="white" stroke="#E6E6E6" stroke-opacity="0.7" stroke-width="3"/>
<path d="M233.196 134.501C222.999 63.2437 292.175 81.2539 306.326 117.983C325.661 167.932 347.034 187.707 385.216 209.415C405.441 222.89 410.775 174.758 444.416 169.169C478.057 163.579 491.275 212.324 510.215 191.182C539.229 159.123 566.064 147.38 587.542 148.982C608.7 149.983 624.895 164.197 632.824 184.774C640.216 204.055 640.339 228.892 630.44 253.636C614.394 284.22 601.989 311.529 585.232 328.756C563.157 347.974 593.005 368.719 588.185 412.362C583.365 456.004 549.489 454.353 561.466 487.282C580.645 539.18 585.729 575.501 581.78 599.191C574.447 650.816 525.58 644.699 486.005 607.816C462.89 586.682 446.023 566.544 431.057 550.971C411.603 527.967 386.056 572.582 361.443 572.235C318.874 571.169 327.259 520.724 291.505 542.623C277.075 551.34 261.058 561.83 243.104 574.364C201.776 602.339 170.019 609.955 147.205 606.083C100.719 602.898 84.0623 553.368 93.782 506.146C99.4902 478.939 113.847 452.533 136.21 435.989C162.767 416.337 206.261 401.401 220.185 365.302C230.671 340.197 164.959 307.132 182.182 260.324C193.064 229.952 229.145 216.256 231.107 192.614C233.226 167.075 234.002 146.314 233.196 134.501Z" fill="white" stroke="#E6E6E6" stroke-opacity="0.7" stroke-width="3"/>
<path d="M249.517 155.915C241.076 93.4356 302.07 109.382 314.622 142.018C333.004 189.492 353.321 206.285 388.532 224.278C406.464 235.942 411.478 193.495 441.251 188.343C471.023 183.192 482.945 225.664 499.781 207.154C525.696 179.088 549.58 169.153 568.573 171.074C587.173 172.192 601.394 185.028 608.201 203.435C614.536 220.707 614.329 242.844 605.023 264.75C588.193 292.548 580.024 322.271 565.495 338.914C546.237 356.296 571.979 374.772 567.272 413.044C562.566 451.316 532.318 449.661 542.291 478.022C558.492 522.93 562.538 554.21 558.738 574.521C552.064 619.468 508.848 613.776 473.627 581.333C452.8 562.684 437.308 545.103 423.452 531.979C406.088 512.051 383.353 551.397 361.38 551.422C323.654 550.857 330.531 506.929 298.866 526.264C285.845 534.055 271.487 543.302 255.484 554.265C218.129 578.702 189.92 584.095 170.216 579.483C129.64 576.347 115.201 532.625 123.878 490.958C129.048 466.821 141.834 443.42 161.671 428.72C186.477 410.331 225.302 396.614 237.608 362.764C246.811 340.198 189.225 310.573 204.157 268.913C213.545 241.648 244.97 228.988 246.734 207.705C248.63 184.83 249.748 166.333 249.517 155.915Z" fill="white" stroke="#E6E6E6" stroke-opacity="0.7" stroke-width="3"/>
<path d="M265.832 178.335C259.145 124.773 311.955 138.619 322.909 167.089C340.334 211.981 359.592 225.754 391.829 239.993C407.466 249.82 412.161 213.153 438.064 208.451C463.966 203.749 474.591 239.853 489.321 224.016C512.137 200.007 533.068 191.902 549.577 194.136C565.618 195.369 577.865 206.798 583.549 222.994C588.829 238.219 588.293 257.605 579.581 276.625C561.971 301.575 558.033 333.642 545.733 349.663C529.292 365.17 550.928 381.335 546.336 414.151C541.744 446.968 515.125 445.314 523.095 469.043C536.318 506.861 539.329 533.031 535.679 549.917C529.664 588.087 492.099 582.832 461.235 554.902C442.696 538.779 428.581 523.793 415.837 513.149C400.564 496.341 380.641 530.33 361.309 530.727C328.428 530.664 333.799 493.35 306.223 510.079C294.613 516.926 281.914 524.91 267.862 534.275C234.484 555.121 209.823 558.278 193.229 552.94C158.563 549.858 146.341 512.042 153.976 476.023C158.607 455.011 169.821 434.667 187.132 421.844C210.183 404.759 244.338 392.292 255.026 360.767C262.945 340.791 213.485 314.674 226.127 278.254C234.022 254.157 260.791 242.562 262.356 223.686C264.028 203.527 265.488 187.334 265.832 178.335Z" fill="white" stroke="#E6E6E6" stroke-opacity="0.7" stroke-width="3"/>
<path d="M281.44 199.749C276.494 154.968 321.23 166.75 330.608 191.125C347.112 233.546 365.352 244.335 394.681 254.856C408.057 262.87 412.442 231.891 434.529 227.627C456.616 223.363 465.965 253.191 478.62 239.987C498.385 219.973 516.406 213.678 530.465 216.231C543.981 217.581 554.279 227.632 558.852 241.658C563.088 254.873 562.221 271.558 554.085 287.74C535.658 309.904 535.945 344.395 525.847 359.834C512.189 373.504 529.764 387.399 525.276 414.842C520.789 442.286 497.745 440.628 503.728 459.787C514.001 490.61 515.982 511.735 512.474 525.24C507.106 556.728 475.114 551.897 448.543 528.41C432.254 514.773 419.486 502.345 407.826 494.152C394.613 480.422 377.46 509.14 360.73 509.91C332.625 510.348 336.501 479.554 312.957 493.719C302.732 499.639 291.667 506.38 279.537 514.173C250.065 531.478 228.902 532.41 215.383 526.33C186.555 523.297 176.526 491.29 183.134 460.83C187.236 442.889 196.902 425.55 211.722 414.571C233.066 398.749 262.622 387.5 271.714 358.223C278.366 340.786 236.93 318.11 247.308 286.84C253.725 265.85 275.894 255.291 277.264 238.774C278.715 221.28 280.52 207.351 281.44 199.749Z" fill="white" stroke="#E6E6E6" stroke-opacity="0.7" stroke-width="3"/>
<path d="M297.734 221.161C294.542 185.169 331.086 194.885 338.863 215.163C354.403 255.123 371.575 262.923 397.918 269.72C408.996 275.92 413.059 250.632 431.272 246.806C449.485 242.98 457.535 266.525 468.081 255.956C484.741 239.941 499.806 235.459 511.377 238.332C522.333 239.801 530.655 248.474 534.105 260.328C537.285 271.534 536.09 285.516 528.553 298.857C509.359 318.237 513.867 355.17 505.998 370.031C495.159 381.865 508.627 393.488 504.257 415.555C499.886 437.621 480.478 435.96 484.459 450.542C491.755 474.363 492.701 490.438 489.344 500.557C484.638 525.359 458.303 520.951 436.095 501.909C422.1 490.759 410.714 480.892 400.17 475.154C389.05 464.505 374.714 487.948 360.63 489.093C337.375 490.033 339.746 465.766 320.296 477.365C311.485 482.358 302.081 487.855 291.906 494.073C266.42 507.836 248.81 506.535 238.401 499.711C215.487 496.724 207.677 470.532 213.24 445.633C216.803 430.764 224.894 416.434 237.185 407.3C256.765 392.737 281.644 382.706 289.115 355.671C294.482 340.774 261.179 321.54 269.266 295.422C274.189 277.54 291.699 268.016 292.871 253.858C294.097 239.03 296.242 227.366 297.734 221.161Z" fill="white" stroke="#E6E6E6" stroke-opacity="0.7" stroke-width="3"/>
<path d="M313.572 242.572C312.119 215.38 340.667 223.028 346.887 239.206C361.552 276.717 377.756 281.522 401.264 284.586C410.106 288.968 413.87 269.378 428.308 265.989C442.745 262.6 449.541 279.853 458.035 271.923C471.683 259.912 483.873 257.247 493.02 260.443C501.473 262.032 507.865 269.326 510.208 279.008C512.35 288.203 510.818 299.481 503.835 309.979C483.758 326.574 492.526 365.978 486.845 380.267C478.767 390.265 488.198 399.616 483.919 416.298C479.639 432.98 463.759 431.314 465.756 441.311C470.112 458.118 470.025 469.134 466.801 475.862C462.73 493.966 441.909 489.98 423.943 475.389C412.163 466.73 402.094 459.426 392.606 456.149C383.519 448.586 371.921 466.749 360.406 468.269C341.874 469.715 342.75 451.984 327.289 461.014L326.859 461.248C319.542 465.243 311.89 469.421 303.772 473.972C282.129 484.188 267.976 480.647 260.624 473.072C243.502 470.13 237.87 449.758 242.42 430.427C245.462 418.634 252.024 407.313 261.852 400.026C279.781 386.72 300.119 377.905 306.01 353.105C310.122 340.749 284.773 324.96 290.611 303.998C294.066 289.225 307.01 280.733 307.989 268.935C308.998 256.775 311.496 247.377 313.572 242.572Z" fill="white" stroke="#E6E6E6" stroke-opacity="0.7" stroke-width="3"/>
<path d="M329.827 265.02C330.126 246.749 350.457 252.295 355.07 264.3C368.752 299.193 383.867 300.983 404.36 300.302C410.896 302.848 414.334 289.041 424.884 286.104C435.433 283.168 440.922 294.054 447.3 288.797C457.829 280.844 467.05 280.006 473.701 283.511C479.587 285.212 483.997 291.095 485.216 298.562C486.301 305.705 484.444 314.229 478.069 321.837C457.255 335.574 470.224 377.268 466.776 390.92C461.524 399.037 466.841 406.073 462.685 417.297C458.529 428.522 446.3 426.859 446.296 432.228C447.674 441.949 446.555 447.858 443.486 451.165C440.081 462.492 424.937 458.947 411.352 448.871C401.878 442.74 393.202 438.032 384.841 437.229C377.858 432.786 369.087 445.587 360.229 447.477C346.566 449.421 345.938 438.303 334.586 444.725C328.56 447.845 322.437 450.833 316.123 453.877C298.489 460.501 287.903 454.736 283.667 446.445C272.472 443.561 269.063 429.099 272.563 415.421C275.062 406.756 280.043 398.496 287.333 393.088C303.475 381.097 319.115 373.539 323.381 351.087C326.204 341.326 309.009 329.052 312.552 313.338C314.511 301.74 322.786 294.32 323.566 284.934C324.349 275.495 327.183 268.406 329.827 265.02Z" fill="white" stroke="#E6E6E6" stroke-opacity="0.7" stroke-width="3"/>
<path d="M346.323 286.461C348.366 277.045 360.544 280.506 363.564 288.377C376.284 320.73 390.333 319.518 407.853 315.101C412.103 315.821 415.22 307.753 421.914 305.261C428.608 302.77 432.803 307.33 437.082 304.728C444.521 300.803 450.799 301.785 454.974 305.606C458.312 307.422 460.756 311.911 460.857 317.184C460.892 322.296 458.709 328.092 452.93 332.834C431.358 343.749 448.523 387.811 447.294 400.855C444.846 407.114 446.077 411.857 442.038 417.663C437.999 423.47 429.389 421.806 427.393 422.572C425.81 425.248 423.661 426.077 420.744 425.98C417.998 430.575 408.484 427.461 399.241 421.867C392.051 418.243 384.751 416.114 377.502 417.776C372.603 416.434 366.635 423.917 360.411 426.178C351.574 428.623 349.45 424.076 342.172 427.91C337.553 430.094 333.085 431.828 328.716 433.286C315.05 436.341 308.001 428.348 306.859 419.326C301.549 416.495 300.348 407.896 302.809 399.826C304.77 394.261 308.184 389.036 312.957 385.491C327.341 374.788 338.325 368.467 340.978 348.309C342.523 341.117 333.422 332.321 334.685 321.807C335.157 313.351 338.796 306.984 339.378 299.985C339.939 293.24 343.11 288.437 346.323 286.461Z" fill="white" stroke="#E6E6E6" stroke-opacity="0.7" stroke-width="3"/>
</g>
</svg>
