<svg width="137" height="28" viewBox="0 0 137 28" fill="none" xmlns="http://www.w3.org/2000/svg">
<path d="M21.0258 16.269C20.7315 16.5541 20.5963 16.9665 20.6634 17.371L21.6734 22.9606C21.7586 23.4343 21.5586 23.9138 21.1621 24.1876C20.7736 24.4716 20.2566 24.5057 19.8329 24.2784L14.8011 21.6541C14.6262 21.5609 14.4319 21.5109 14.2331 21.5052H13.9252C13.8184 21.5211 13.7139 21.5552 13.6184 21.6075L8.58554 24.2444C8.33674 24.3693 8.05499 24.4136 7.77892 24.3693C7.10635 24.2421 6.65759 23.6013 6.76779 22.9253L7.77892 17.3358C7.84594 16.9279 7.71075 16.5132 7.4165 16.2235L3.31406 12.2472C2.97096 11.9143 2.85167 11.4144 3.00845 10.9634C3.16069 10.5135 3.54924 10.1852 4.01844 10.1113L9.66483 9.29221C10.0943 9.24791 10.4715 8.9866 10.6646 8.60033L13.1526 3.49927C13.2117 3.38566 13.2878 3.28114 13.3799 3.19252L13.4821 3.11299C13.5355 3.05392 13.5969 3.00507 13.665 2.9653L13.7889 2.91986L13.982 2.84033H14.4603C14.8875 2.88464 15.2635 3.14026 15.4601 3.52199L17.981 8.60033C18.1628 8.97183 18.5161 9.22973 18.924 9.29221L24.5704 10.1113C25.0476 10.1795 25.4463 10.509 25.6042 10.9634C25.7531 11.419 25.6247 11.9189 25.2748 12.2472L21.0258 16.269Z" fill="#393637"/>
<path d="M48.2919 16.269C47.9976 16.5541 47.8624 16.9665 47.9295 17.371L48.9395 22.9606C49.0247 23.4343 48.8247 23.9138 48.4282 24.1876C48.0397 24.4716 47.5228 24.5057 47.099 24.2784L42.0672 21.6541C41.8923 21.5609 41.698 21.5109 41.4992 21.5052H41.1913C41.0845 21.5211 40.98 21.5552 40.8846 21.6075L35.8517 24.2444C35.6029 24.3693 35.3211 24.4136 35.045 24.3693C34.3725 24.2421 33.9237 23.6013 34.0339 22.9253L35.045 17.3358C35.1121 16.9279 34.9769 16.5132 34.6826 16.2235L30.5802 12.2472C30.2371 11.9143 30.1178 11.4144 30.2746 10.9634C30.4268 10.5135 30.8153 10.1852 31.2846 10.1113L36.9309 9.29221C37.3604 9.24791 37.7376 8.9866 37.9307 8.60033L40.4188 3.49927C40.4778 3.38566 40.554 3.28114 40.646 3.19252L40.7482 3.11299C40.8016 3.05392 40.863 3.00507 40.9311 2.9653L41.055 2.91986L41.2481 2.84033H41.7264C42.1536 2.88464 42.5296 3.14026 42.7262 3.52199L45.2472 8.60033C45.4289 8.97183 45.7823 9.22973 46.1901 9.29221L51.8365 10.1113C52.3137 10.1795 52.7124 10.509 52.8704 10.9634C53.0192 11.419 52.8908 11.9189 52.5409 12.2472L48.2919 16.269Z" fill="#393637"/>
<path d="M75.5585 16.269C75.2642 16.5541 75.129 16.9665 75.1961 17.371L76.2061 22.9606C76.2913 23.4343 76.0913 23.9138 75.6948 24.1876C75.3063 24.4716 74.7894 24.5057 74.3656 24.2784L69.3338 21.6541C69.1589 21.5609 68.9646 21.5109 68.7658 21.5052H68.4579C68.3511 21.5211 68.2466 21.5552 68.1512 21.6075L63.1183 24.2444C62.8695 24.3693 62.5877 24.4136 62.3116 24.3693C61.6391 24.2421 61.1903 23.6013 61.3005 22.9253L62.3116 17.3358C62.3787 16.9279 62.2435 16.5132 61.9492 16.2235L57.8468 12.2472C57.5037 11.9143 57.3844 11.4144 57.5412 10.9634C57.6934 10.5135 58.082 10.1852 58.5512 10.1113L64.1975 9.29221C64.627 9.24791 65.0042 8.9866 65.1973 8.60033L67.6854 3.49927C67.7444 3.38566 67.8206 3.28114 67.9126 3.19252L68.0148 3.11299C68.0682 3.05392 68.1296 3.00507 68.1977 2.9653L68.3216 2.91986L68.5147 2.84033H68.993C69.4202 2.88464 69.7962 3.14026 69.9928 3.52199L72.5138 8.60033C72.6955 8.97183 73.0489 9.22973 73.4567 9.29221L79.1031 10.1113C79.5803 10.1795 79.979 10.509 80.137 10.9634C80.2858 11.419 80.1574 11.9189 79.8075 12.2472L75.5585 16.269Z" fill="#393637"/>
<path d="M102.825 16.269C102.53 16.5541 102.395 16.9665 102.462 17.371L103.472 22.9606C103.557 23.4343 103.357 23.9138 102.961 24.1876C102.572 24.4716 102.055 24.5057 101.632 24.2784L96.5999 21.6541C96.425 21.5609 96.2307 21.5109 96.0319 21.5052H95.724C95.6172 21.5211 95.5127 21.5552 95.4173 21.6075L90.3844 24.2444C90.1356 24.3693 89.8538 24.4136 89.5777 24.3693C88.9052 24.2421 88.4564 23.6013 88.5666 22.9253L89.5777 17.3358C89.6448 16.9279 89.5096 16.5132 89.2153 16.2235L85.1129 12.2472C84.7698 11.9143 84.6505 11.4144 84.8073 10.9634C84.9595 10.5135 85.3481 10.1852 85.8173 10.1113L91.4637 9.29221C91.8931 9.24791 92.2703 8.9866 92.4634 8.60033L94.9515 3.49927C95.0105 3.38566 95.0867 3.28114 95.1787 3.19252L95.2809 3.11299C95.3343 3.05392 95.3957 3.00507 95.4638 2.9653L95.5877 2.91986L95.7808 2.84033H96.2591C96.6863 2.88464 97.0623 3.14026 97.2589 3.52199L99.7799 8.60033C99.9616 8.97183 100.315 9.22973 100.723 9.29221L106.369 10.1113C106.846 10.1795 107.245 10.509 107.403 10.9634C107.552 11.419 107.424 11.9189 107.074 12.2472L102.825 16.269Z" fill="#393637"/>
<path d="M130.091 16.269C129.796 16.5541 129.661 16.9665 129.728 17.371L130.738 22.9606C130.824 23.4343 130.624 23.9138 130.227 24.1876C129.839 24.4716 129.322 24.5057 128.898 24.2784L123.866 21.6541C123.691 21.5609 123.497 21.5109 123.298 21.5052H122.99C122.883 21.5211 122.779 21.5552 122.683 21.6075L117.65 24.2444C117.402 24.3693 117.12 24.4136 116.844 24.3693C116.171 24.2421 115.723 23.6013 115.833 22.9253L116.844 17.3358C116.911 16.9279 116.776 16.5132 116.481 16.2235L112.379 12.2472C112.036 11.9143 111.917 11.4144 112.073 10.9634C112.226 10.5135 112.614 10.1852 113.083 10.1113L118.73 9.29221C119.159 9.24791 119.536 8.9866 119.73 8.60033L122.218 3.49927C122.277 3.38566 122.353 3.28114 122.445 3.19252L122.547 3.11299C122.6 3.05392 122.662 3.00507 122.73 2.9653L122.854 2.91986L123.047 2.84033H123.525C123.952 2.88464 124.328 3.14026 124.525 3.52199L127.046 8.60033C127.228 8.97183 127.581 9.22973 127.989 9.29221L133.635 10.1113C134.112 10.1795 134.511 10.509 134.669 10.9634C134.818 11.419 134.69 11.9189 134.34 12.2472L130.091 16.269Z" fill="#393637"/>
</svg>
