<svg width="137" height="28" viewBox="0 0 137 28" fill="none" xmlns="http://www.w3.org/2000/svg">
<path d="M21.0256 16.269C20.7313 16.5541 20.5962 16.9665 20.6632 17.371L21.6732 22.9606C21.7584 23.4343 21.5584 23.9138 21.1619 24.1875C20.7734 24.4716 20.2565 24.5057 19.8327 24.2784L14.8009 21.6541C14.626 21.5609 14.4317 21.5109 14.2329 21.5052H13.925C13.8182 21.5211 13.7137 21.5552 13.6183 21.6075L8.58536 24.2444C8.33656 24.3693 8.0548 24.4136 7.77873 24.3693C7.10616 24.2421 6.65741 23.6013 6.76761 22.9253L7.77873 17.3358C7.84576 16.9279 7.71057 16.5132 7.41632 16.2235L3.31388 12.2472C2.97078 11.9143 2.85149 11.4144 3.00827 10.9634C3.16051 10.5135 3.54905 10.1852 4.01826 10.1113L9.66465 9.29221C10.0941 9.24791 10.4713 8.9866 10.6644 8.60033L13.1525 3.49927C13.2115 3.38566 13.2877 3.28114 13.3797 3.19252L13.4819 3.11299C13.5353 3.05392 13.5967 3.00507 13.6648 2.9653L13.7887 2.91986L13.9818 2.84033H14.4601C14.8873 2.88464 15.2633 3.14026 15.4599 3.52199L17.9809 8.60033C18.1626 8.97183 18.516 9.22973 18.9238 9.29221L24.5702 10.1113C25.0474 10.1795 25.4461 10.509 25.6041 10.9634C25.7529 11.419 25.6245 11.9189 25.2746 12.2472L21.0256 16.269Z" fill="#ED3237"/>
<path d="M48.2919 16.269C47.9976 16.5541 47.8624 16.9665 47.9295 17.371L48.9395 22.9606C49.0247 23.4343 48.8247 23.9138 48.4282 24.1875C48.0397 24.4716 47.5228 24.5057 47.099 24.2784L42.0672 21.6541C41.8923 21.5609 41.698 21.5109 41.4992 21.5052H41.1913C41.0845 21.5211 40.98 21.5552 40.8846 21.6075L35.8517 24.2444C35.6029 24.3693 35.3211 24.4136 35.045 24.3693C34.3725 24.2421 33.9237 23.6013 34.0339 22.9253L35.045 17.3358C35.1121 16.9279 34.9769 16.5132 34.6826 16.2235L30.5802 12.2472C30.2371 11.9143 30.1178 11.4144 30.2746 10.9634C30.4268 10.5135 30.8153 10.1852 31.2846 10.1113L36.9309 9.29221C37.3604 9.24791 37.7376 8.9866 37.9307 8.60033L40.4188 3.49927C40.4778 3.38566 40.554 3.28114 40.646 3.19252L40.7482 3.11299C40.8016 3.05392 40.863 3.00507 40.9311 2.9653L41.055 2.91986L41.2481 2.84033H41.7264C42.1536 2.88464 42.5296 3.14026 42.7262 3.52199L45.2472 8.60033C45.4289 8.97183 45.7823 9.22973 46.1901 9.29221L51.8365 10.1113C52.3137 10.1795 52.7124 10.509 52.8704 10.9634C53.0192 11.419 52.8908 11.9189 52.5409 12.2472L48.2919 16.269Z" fill="#ED3237"/>
<path d="M75.5581 16.269C75.2639 16.5541 75.1287 16.9665 75.1957 17.371L76.2057 22.9606C76.2909 23.4343 76.091 23.9138 75.6945 24.1875C75.3059 24.4716 74.789 24.5057 74.3652 24.2784L69.3335 21.6541C69.1585 21.5609 68.9642 21.5109 68.7654 21.5052H68.4575C68.3507 21.5211 68.2462 21.5552 68.1508 21.6075L63.1179 24.2444C62.8691 24.3693 62.5873 24.4136 62.3113 24.3693C61.6387 24.2421 61.1899 23.6013 61.3001 22.9253L62.3113 17.3358C62.3783 16.9279 62.2431 16.5132 61.9488 16.2235L57.8464 12.2472C57.5033 11.9143 57.384 11.4144 57.5408 10.9634C57.693 10.5135 58.0816 10.1852 58.5508 10.1113L64.1972 9.29221C64.6266 9.24791 65.0038 8.9866 65.1969 8.60033L67.685 3.49927C67.7441 3.38566 67.8202 3.28114 67.9122 3.19252L68.0145 3.11299C68.0679 3.05392 68.1292 3.00507 68.1974 2.9653L68.3212 2.91986L68.5143 2.84033H68.9926C69.4198 2.88464 69.7959 3.14026 69.9924 3.52199L72.5134 8.60033C72.6952 8.97183 73.0485 9.22973 73.4564 9.29221L79.1027 10.1113C79.5799 10.1795 79.9787 10.509 80.1366 10.9634C80.2854 11.419 80.157 11.9189 79.8071 12.2472L75.5581 16.269Z" fill="#ED3237"/>
<path d="M102.824 16.269C102.53 16.5541 102.395 16.9665 102.462 17.371L103.472 22.9606C103.557 23.4343 103.357 23.9138 102.961 24.1875C102.572 24.4716 102.055 24.5057 101.631 24.2784L96.5997 21.6541C96.4247 21.5609 96.2305 21.5109 96.0317 21.5052H95.7238C95.617 21.5211 95.5125 21.5552 95.417 21.6075L90.3841 24.2444C90.1353 24.3693 89.8536 24.4136 89.5775 24.3693C88.9049 24.2421 88.4562 23.6013 88.5664 22.9253L89.5775 17.3358C89.6445 16.9279 89.5093 16.5132 89.2151 16.2235L85.1126 12.2472C84.7695 11.9143 84.6503 11.4144 84.807 10.9634C84.9593 10.5135 85.3478 10.1852 85.817 10.1113L91.4634 9.29221C91.8929 9.24791 92.27 8.9866 92.4632 8.60033L94.9512 3.49927C95.0103 3.38566 95.0864 3.28114 95.1784 3.19252L95.2807 3.11299C95.3341 3.05392 95.3954 3.00507 95.4636 2.9653L95.5874 2.91986L95.7806 2.84033H96.2589C96.686 2.88464 97.0621 3.14026 97.2586 3.52199L99.7796 8.60033C99.9614 8.97183 100.315 9.22973 100.723 9.29221L106.369 10.1113C106.846 10.1795 107.245 10.509 107.403 10.9634C107.552 11.419 107.423 11.9189 107.073 12.2472L102.824 16.269Z" fill="#ED3237"/>
<path d="M130.091 16.269C129.796 16.5541 129.661 16.9665 129.728 17.371L130.738 22.9606C130.824 23.4343 130.624 23.9138 130.227 24.1875C129.839 24.4716 129.322 24.5057 128.898 24.2784L123.866 21.6541C123.691 21.5609 123.497 21.5109 123.298 21.5052H122.99C122.883 21.5211 122.779 21.5552 122.683 21.6075L117.65 24.2444C117.402 24.3693 117.12 24.4136 116.844 24.3693C116.171 24.2421 115.723 23.6013 115.833 22.9253L116.844 17.3358C116.911 16.9279 116.776 16.5132 116.481 16.2235L112.379 12.2472C112.036 11.9143 111.917 11.4144 112.073 10.9634C112.226 10.5135 112.614 10.1852 113.083 10.1113L118.73 9.29221C119.159 9.24791 119.536 8.9866 119.73 8.60033L122.218 3.49927C122.277 3.38566 122.353 3.28114 122.445 3.19252L122.547 3.11299C122.6 3.05392 122.662 3.00507 122.73 2.9653L122.854 2.91986L123.047 2.84033H123.525C123.952 2.88464 124.328 3.14026 124.525 3.52199L127.046 8.60033C127.228 8.97183 127.581 9.22973 127.989 9.29221L133.635 10.1113C134.112 10.1795 134.511 10.509 134.669 10.9634C134.818 11.419 134.69 11.9189 134.34 12.2472L130.091 16.269Z" fill="#ED3237"/>
</svg>
