<svg width="30" height="30" viewBox="0 0 30 30" fill="none" xmlns="http://www.w3.org/2000/svg">
<path d="M20.763 7.10726C19.9282 6.15428 19.4682 4.93043 19.4685 3.66354H15.6951V18.8061C15.666 19.6256 15.32 20.4017 14.7301 20.9712C14.1401 21.5407 13.3522 21.859 12.5322 21.8591C10.7982 21.8591 9.35718 20.4425 9.35718 18.684C9.35718 16.5836 11.3843 15.0083 13.4725 15.6555V11.7966C9.25949 11.2348 5.57153 14.5076 5.57153 18.684C5.57153 22.7505 8.94198 25.6447 12.52 25.6447C16.3545 25.6447 19.4685 22.5307 19.4685 18.684V11.0028C20.9987 12.1017 22.8357 12.6913 24.7196 12.688V8.9146C24.7196 8.9146 22.4238 9.02451 20.763 7.10726Z" fill="white"/>
</svg>
