<svg width="30" height="30" viewBox="0 0 30 30" fill="none" xmlns="http://www.w3.org/2000/svg">
<path d="M20.7637 7.10729C19.9289 6.15431 19.4689 4.93046 19.4693 3.66357H15.6958V18.8062C15.6667 19.6256 15.3208 20.4018 14.7308 20.9712C14.1408 21.5407 13.3529 21.859 12.533 21.8591C10.7989 21.8591 9.35791 20.4425 9.35791 18.684C9.35791 16.5836 11.3851 15.0083 13.4733 15.6555V11.7966C9.26022 11.2349 5.57227 14.5076 5.57227 18.684C5.57227 22.7506 8.94271 25.6448 12.5208 25.6448C16.3553 25.6448 19.4693 22.5308 19.4693 18.684V11.0028C20.9994 12.1017 22.8365 12.6913 24.7203 12.6881V8.91463C24.7203 8.91463 22.4245 9.02454 20.7637 7.10729Z" fill="#0298DA"/>
</svg>
