<svg width="43" height="42" viewBox="0 0 43 42" fill="none" xmlns="http://www.w3.org/2000/svg">
<g clip-path="url(#clip0_544_769)">
<path d="M36.8546 31.5C38.1659 31.5 39.2088 30.6748 40.1453 29.521C42.0623 27.159 38.9148 25.2715 37.7144 24.3471C36.494 23.4073 35.1315 22.875 33.75 22.75M32 19.25C34.4162 19.25 36.375 17.2912 36.375 14.875C36.375 12.4588 34.4162 10.5 32 10.5" stroke="#ED3237" stroke-width="2.625" stroke-linecap="round"/>
<path d="M6.14543 31.5C4.83415 31.5 3.79117 30.6748 2.8547 29.521C0.937655 27.159 4.08517 25.2715 5.28563 24.3471C6.50596 23.4073 7.86852 22.875 9.25 22.75M10.125 19.25C7.70875 19.25 5.75 17.2912 5.75 14.875C5.75 12.4588 7.70875 10.5 10.125 10.5" stroke="#ED3237" stroke-width="2.625" stroke-linecap="round"/>
<path d="M14.6467 26.4446C12.8585 27.5502 8.17022 29.8079 11.0257 32.633C12.4206 34.013 13.9742 35 15.9273 35H27.0727C29.0258 35 30.5794 34.013 31.9743 32.633C34.8298 29.8079 30.1415 27.5502 28.3533 26.4446C24.1602 23.8518 18.8398 23.8518 14.6467 26.4446Z" stroke="#ED3237" stroke-width="2.625" stroke-linecap="round" stroke-linejoin="round"/>
<path d="M27.625 13.125C27.625 16.5077 24.8827 19.25 21.5 19.25C18.1173 19.25 15.375 16.5077 15.375 13.125C15.375 9.74226 18.1173 7 21.5 7C24.8827 7 27.625 9.74226 27.625 13.125Z" stroke="#ED3237" stroke-width="2.625"/>
</g>
<defs>
<clipPath id="clip0_544_769">
<rect width="42" height="42" fill="white" transform="translate(0.5)"/>
</clipPath>
</defs>
</svg>
