<svg width="43" height="42" viewBox="0 0 43 42" fill="none" xmlns="http://www.w3.org/2000/svg">
<path d="M7.13038 15.8149C5.89245 16.485 2.64669 17.8533 4.62358 19.5654C5.58927 20.4018 6.6648 21 8.01701 21H15.733C17.0852 21 18.1607 20.4018 19.1264 19.5654C21.1033 17.8533 17.8575 16.485 16.6196 15.8149C13.7167 14.2435 10.0333 14.2435 7.13038 15.8149Z" stroke="#ED3237" stroke-width="2.5625"/>
<path d="M15.8125 7.47727C15.8125 9.67386 14.0496 11.4545 11.875 11.4545C9.70038 11.4545 7.9375 9.67386 7.9375 7.47727C7.9375 5.28069 9.70038 3.5 11.875 3.5C14.0496 3.5 15.8125 5.28069 15.8125 7.47727Z" stroke="#ED3237" stroke-width="2.5625"/>
<path d="M7.5 26.25C7.5 32.055 12.195 36.75 18 36.75L16.5 33.75" stroke="#ED3237" stroke-width="2.5625" stroke-linecap="round" stroke-linejoin="round"/>
<path d="M35.5 15.75C35.5 9.945 30.805 5.25 25 5.25L26.5 8.25" stroke="#ED3237" stroke-width="2.5625" stroke-linecap="round" stroke-linejoin="round"/>
<path d="M26.3804 33.3149C25.1425 33.985 21.8967 35.3533 23.8736 37.0655C24.8393 37.9018 25.9148 38.5 27.267 38.5H34.983C36.3352 38.5 37.4107 37.9018 38.3764 37.0654C40.3533 35.3533 37.1075 33.985 35.8696 33.3149C32.9667 31.7435 29.2833 31.7435 26.3804 33.3149Z" stroke="#ED3237" stroke-width="2.5625"/>
<path d="M35.0625 24.9773C35.0625 27.1739 33.2996 28.9545 31.125 28.9545C28.9504 28.9545 27.1875 27.1739 27.1875 24.9773C27.1875 22.7807 28.9504 21 31.125 21C33.2996 21 35.0625 22.7807 35.0625 24.9773Z" stroke="#ED3237" stroke-width="2.5625"/>
</svg>
