<svg width="984" height="94" viewBox="0 0 984 94" fill="none" xmlns="http://www.w3.org/2000/svg">
<mask id="path-1-outside-1_2_64" maskUnits="userSpaceOnUse" x="-1" y="-1" width="986" height="96" fill="black">
<rect fill="white" x="-1" y="-1" width="986" height="96"/>
<path d="M33.92 93V59.76L37.4 69.36L0.92 8.99999H17.6L46.88 57.6H37.52L67.04 8.99999H82.4L45.92 69.36L49.52 59.76V93H33.92ZM112.828 93.84C106.268 93.84 100.428 92.44 95.3075 89.64C90.1875 86.76 86.1475 82.84 83.1875 77.88C80.2275 72.92 78.7475 67.28 78.7475 60.96C78.7475 54.56 80.2275 48.92 83.1875 44.04C86.1475 39.08 90.1875 35.2 95.3075 32.4C100.428 29.6 106.268 28.2 112.828 28.2C119.468 28.2 125.348 29.6 130.468 32.4C135.668 35.2 139.708 39.04 142.588 43.92C145.548 48.8 147.028 54.48 147.028 60.96C147.028 67.28 145.548 72.92 142.588 77.88C139.708 82.84 135.668 86.76 130.468 89.64C125.348 92.44 119.468 93.84 112.828 93.84ZM112.828 81C116.508 81 119.788 80.2 122.668 78.6C125.548 77 127.788 74.68 129.388 71.64C131.068 68.6 131.908 65.04 131.908 60.96C131.908 56.8 131.068 53.24 129.388 50.28C127.788 47.24 125.548 44.92 122.668 43.32C119.788 41.72 116.548 40.92 112.948 40.92C109.268 40.92 105.988 41.72 103.108 43.32C100.308 44.92 98.0675 47.24 96.3875 50.28C94.7075 53.24 93.8675 56.8 93.8675 60.96C93.8675 65.04 94.7075 68.6 96.3875 71.64C98.0675 74.68 100.308 77 103.108 78.6C105.988 80.2 109.228 81 112.828 81ZM188.491 93.84C183.051 93.84 178.251 92.84 174.091 90.84C169.931 88.76 166.691 85.64 164.371 81.48C162.051 77.24 160.891 71.92 160.891 65.52V28.92H175.891V63.48C175.891 69.24 177.171 73.56 179.731 76.44C182.371 79.24 186.091 80.64 190.891 80.64C194.411 80.64 197.451 79.92 200.011 78.48C202.651 77.04 204.691 74.88 206.131 72C207.651 69.12 208.411 65.56 208.411 61.32V28.92H223.411V93H209.131V75.72L211.651 81C209.491 85.16 206.331 88.36 202.171 90.6C198.011 92.76 193.451 93.84 188.491 93.84ZM243.051 93V28.92H257.331V46.56L255.651 41.4C257.571 37.08 260.571 33.8 264.651 31.56C268.811 29.32 273.971 28.2 280.131 28.2V42.48C279.491 42.32 278.891 42.24 278.331 42.24C277.771 42.16 277.211 42.12 276.651 42.12C270.971 42.12 266.451 43.8 263.091 47.16C259.731 50.44 258.051 55.36 258.051 61.92V93H243.051ZM313.242 93.84C307.882 93.84 302.722 93.16 297.762 91.8C292.882 90.36 289.002 88.64 286.122 86.64L291.882 75.24C294.762 77.08 298.202 78.6 302.202 79.8C306.202 81 310.202 81.6 314.202 81.6C318.922 81.6 322.322 80.96 324.402 79.68C326.562 78.4 327.642 76.68 327.642 74.52C327.642 72.76 326.922 71.44 325.482 70.56C324.042 69.6 322.162 68.88 319.842 68.4C317.522 67.92 314.922 67.48 312.042 67.08C309.242 66.68 306.402 66.16 303.522 65.52C300.722 64.8 298.162 63.8 295.842 62.52C293.522 61.16 291.642 59.36 290.202 57.12C288.762 54.88 288.042 51.92 288.042 48.24C288.042 44.16 289.202 40.64 291.522 37.68C293.842 34.64 297.082 32.32 301.242 30.72C305.482 29.04 310.482 28.2 316.242 28.2C320.562 28.2 324.922 28.68 329.322 29.64C333.722 30.6 337.362 31.96 340.242 33.72L334.482 45.12C331.442 43.28 328.362 42.04 325.242 41.4C322.202 40.68 319.162 40.32 316.122 40.32C311.562 40.32 308.162 41 305.922 42.36C303.762 43.72 302.682 45.44 302.682 47.52C302.682 49.44 303.402 50.88 304.842 51.84C306.282 52.8 308.162 53.56 310.482 54.12C312.802 54.68 315.362 55.16 318.162 55.56C321.042 55.88 323.882 56.4 326.682 57.12C329.482 57.84 332.042 58.84 334.362 60.12C336.762 61.32 338.682 63.04 340.122 65.28C341.562 67.52 342.282 70.44 342.282 74.04C342.282 78.04 341.082 81.52 338.682 84.48C336.362 87.44 333.042 89.76 328.722 91.44C324.402 93.04 319.242 93.84 313.242 93.84ZM394.679 93V80.04L393.839 77.28V54.6C393.839 50.2 392.519 46.8 389.879 44.4C387.239 41.92 383.239 40.68 377.879 40.68C374.279 40.68 370.719 41.24 367.199 42.36C363.759 43.48 360.839 45.04 358.439 47.04L352.559 36.12C355.999 33.48 360.079 31.52 364.799 30.24C369.599 28.88 374.559 28.2 379.679 28.2C388.959 28.2 396.119 30.44 401.159 34.92C406.279 39.32 408.839 46.16 408.839 55.44V93H394.679ZM374.519 93.84C369.719 93.84 365.519 93.04 361.919 91.44C358.319 89.76 355.519 87.48 353.519 84.6C351.599 81.64 350.639 78.32 350.639 74.64C350.639 71.04 351.479 67.8 353.159 64.92C354.919 62.04 357.759 59.76 361.679 58.08C365.599 56.4 370.799 55.56 377.279 55.56H395.879V65.52H378.359C373.239 65.52 369.799 66.36 368.039 68.04C366.279 69.64 365.399 71.64 365.399 74.04C365.399 76.76 366.479 78.92 368.639 80.52C370.799 82.12 373.799 82.92 377.639 82.92C381.319 82.92 384.599 82.08 387.479 80.4C390.439 78.72 392.559 76.24 393.839 72.96L396.359 81.96C394.919 85.72 392.319 88.64 388.559 90.72C384.879 92.8 380.199 93.84 374.519 93.84ZM447.89 93.84C442.53 93.84 437.37 93.16 432.41 91.8C427.53 90.36 423.65 88.64 420.77 86.64L426.53 75.24C429.41 77.08 432.85 78.6 436.85 79.8C440.85 81 444.85 81.6 448.85 81.6C453.57 81.6 456.97 80.96 459.05 79.68C461.21 78.4 462.29 76.68 462.29 74.52C462.29 72.76 461.57 71.44 460.13 70.56C458.69 69.6 456.81 68.88 454.49 68.4C452.17 67.92 449.57 67.48 446.69 67.08C443.89 66.68 441.05 66.16 438.17 65.52C435.37 64.8 432.81 63.8 430.49 62.52C428.17 61.16 426.29 59.36 424.85 57.12C423.41 54.88 422.69 51.92 422.69 48.24C422.69 44.16 423.85 40.64 426.17 37.68C428.49 34.64 431.73 32.32 435.89 30.72C440.13 29.04 445.13 28.2 450.89 28.2C455.21 28.2 459.57 28.68 463.97 29.64C468.37 30.6 472.01 31.96 474.89 33.72L469.13 45.12C466.09 43.28 463.01 42.04 459.89 41.4C456.85 40.68 453.81 40.32 450.77 40.32C446.21 40.32 442.81 41 440.57 42.36C438.41 43.72 437.33 45.44 437.33 47.52C437.33 49.44 438.05 50.88 439.49 51.84C440.93 52.8 442.81 53.56 445.13 54.12C447.45 54.68 450.01 55.16 452.81 55.56C455.69 55.88 458.53 56.4 461.33 57.12C464.13 57.84 466.69 58.84 469.01 60.12C471.41 61.32 473.33 63.04 474.77 65.28C476.21 67.52 476.93 70.44 476.93 74.04C476.93 78.04 475.73 81.52 473.33 84.48C471.01 87.44 467.69 89.76 463.37 91.44C459.05 93.04 453.89 93.84 447.89 93.84ZM509.648 93.84C504.288 93.84 499.128 93.16 494.168 91.8C489.288 90.36 485.408 88.64 482.528 86.64L488.288 75.24C491.168 77.08 494.608 78.6 498.608 79.8C502.608 81 506.608 81.6 510.608 81.6C515.328 81.6 518.728 80.96 520.808 79.68C522.968 78.4 524.048 76.68 524.048 74.52C524.048 72.76 523.328 71.44 521.888 70.56C520.448 69.6 518.568 68.88 516.248 68.4C513.928 67.92 511.328 67.48 508.448 67.08C505.648 66.68 502.808 66.16 499.928 65.52C497.128 64.8 494.568 63.8 492.248 62.52C489.928 61.16 488.048 59.36 486.608 57.12C485.168 54.88 484.448 51.92 484.448 48.24C484.448 44.16 485.608 40.64 487.928 37.68C490.248 34.64 493.488 32.32 497.648 30.72C501.888 29.04 506.888 28.2 512.648 28.2C516.968 28.2 521.328 28.68 525.728 29.64C530.128 30.6 533.768 31.96 536.648 33.72L530.888 45.12C527.848 43.28 524.768 42.04 521.648 41.4C518.608 40.68 515.568 40.32 512.528 40.32C507.968 40.32 504.568 41 502.328 42.36C500.168 43.72 499.088 45.44 499.088 47.52C499.088 49.44 499.808 50.88 501.248 51.84C502.688 52.8 504.568 53.56 506.888 54.12C509.208 54.68 511.768 55.16 514.568 55.56C517.448 55.88 520.288 56.4 523.088 57.12C525.888 57.84 528.448 58.84 530.768 60.12C533.168 61.32 535.088 63.04 536.528 65.28C537.968 67.52 538.688 70.44 538.688 74.04C538.688 78.04 537.488 81.52 535.088 84.48C532.768 87.44 529.448 89.76 525.128 91.44C520.808 93.04 515.648 93.84 509.648 93.84ZM551.606 93V28.92H566.606V93H551.606ZM559.166 18.36C556.366 18.36 554.046 17.48 552.206 15.72C550.446 13.96 549.566 11.84 549.566 9.36C549.566 6.8 550.446 4.68 552.206 2.99999C554.046 1.24 556.366 0.359998 559.166 0.359998C561.966 0.359998 564.246 1.2 566.006 2.87999C567.846 4.48 568.766 6.52 568.766 8.99999C568.766 11.64 567.886 13.88 566.126 15.72C564.366 17.48 562.046 18.36 559.166 18.36ZM606.093 93.84C600.733 93.84 595.573 93.16 590.613 91.8C585.733 90.36 581.853 88.64 578.973 86.64L584.733 75.24C587.613 77.08 591.053 78.6 595.053 79.8C599.053 81 603.053 81.6 607.053 81.6C611.773 81.6 615.173 80.96 617.253 79.68C619.413 78.4 620.493 76.68 620.493 74.52C620.493 72.76 619.773 71.44 618.333 70.56C616.893 69.6 615.013 68.88 612.693 68.4C610.373 67.92 607.773 67.48 604.893 67.08C602.093 66.68 599.253 66.16 596.373 65.52C593.573 64.8 591.013 63.8 588.693 62.52C586.373 61.16 584.493 59.36 583.053 57.12C581.613 54.88 580.893 51.92 580.893 48.24C580.893 44.16 582.053 40.64 584.373 37.68C586.693 34.64 589.933 32.32 594.093 30.72C598.333 29.04 603.333 28.2 609.093 28.2C613.413 28.2 617.773 28.68 622.173 29.64C626.573 30.6 630.213 31.96 633.093 33.72L627.333 45.12C624.293 43.28 621.213 42.04 618.093 41.4C615.053 40.68 612.013 40.32 608.973 40.32C604.413 40.32 601.013 41 598.773 42.36C596.613 43.72 595.533 45.44 595.533 47.52C595.533 49.44 596.253 50.88 597.693 51.84C599.133 52.8 601.013 53.56 603.333 54.12C605.653 54.68 608.213 55.16 611.013 55.56C613.893 55.88 616.733 56.4 619.533 57.12C622.333 57.84 624.893 58.84 627.213 60.12C629.613 61.32 631.533 63.04 632.973 65.28C634.413 67.52 635.133 70.44 635.133 74.04C635.133 78.04 633.933 81.52 631.533 84.48C629.213 87.44 625.893 89.76 621.573 91.44C617.253 93.04 612.093 93.84 606.093 93.84ZM672.171 93.84C665.131 93.84 659.691 92.04 655.851 88.44C652.011 84.76 650.091 79.36 650.091 72.24V14.76H665.091V71.88C665.091 74.92 665.851 77.28 667.371 78.96C668.971 80.64 671.171 81.48 673.971 81.48C677.331 81.48 680.131 80.6 682.371 78.84L686.571 89.52C684.811 90.96 682.651 92.04 680.091 92.76C677.531 93.48 674.891 93.84 672.171 93.84ZM639.531 41.4V29.4H682.251V41.4H639.531ZM738.39 93V80.04L737.55 77.28V54.6C737.55 50.2 736.23 46.8 733.59 44.4C730.95 41.92 726.95 40.68 721.59 40.68C717.99 40.68 714.43 41.24 710.91 42.36C707.47 43.48 704.55 45.04 702.15 47.04L696.27 36.12C699.71 33.48 703.79 31.52 708.51 30.24C713.31 28.88 718.27 28.2 723.39 28.2C732.67 28.2 739.83 30.44 744.87 34.92C749.99 39.32 752.55 46.16 752.55 55.44V93H738.39ZM718.23 93.84C713.43 93.84 709.23 93.04 705.63 91.44C702.03 89.76 699.23 87.48 697.23 84.6C695.31 81.64 694.35 78.32 694.35 74.64C694.35 71.04 695.19 67.8 696.87 64.92C698.63 62.04 701.47 59.76 705.39 58.08C709.31 56.4 714.51 55.56 720.99 55.56H739.59V65.52H722.07C716.95 65.52 713.51 66.36 711.75 68.04C709.99 69.64 709.11 71.64 709.11 74.04C709.11 76.76 710.19 78.92 712.35 80.52C714.51 82.12 717.51 82.92 721.35 82.92C725.03 82.92 728.31 82.08 731.19 80.4C734.15 78.72 736.27 76.24 737.55 72.96L740.07 81.96C738.63 85.72 736.03 88.64 732.27 90.72C728.59 92.8 723.91 93.84 718.23 93.84ZM808.161 28.2C813.281 28.2 817.841 29.2 821.841 31.2C825.921 33.2 829.121 36.28 831.441 40.44C833.761 44.52 834.921 49.8 834.921 56.28V93H819.921V58.2C819.921 52.52 818.561 48.28 815.841 45.48C813.201 42.68 809.481 41.28 804.681 41.28C801.161 41.28 798.041 42 795.321 43.44C792.601 44.88 790.481 47.04 788.961 49.92C787.521 52.72 786.801 56.28 786.801 60.6V93H771.801V28.92H786.081V46.2L783.561 40.92C785.801 36.84 789.041 33.72 793.281 31.56C797.601 29.32 802.561 28.2 808.161 28.2ZM883.467 93.84C876.747 93.84 870.747 92.44 865.467 89.64C860.267 86.76 856.187 82.84 853.227 77.88C850.267 72.92 848.787 67.28 848.787 60.96C848.787 54.56 850.267 48.92 853.227 44.04C856.187 39.08 860.267 35.2 865.467 32.4C870.747 29.6 876.747 28.2 883.467 28.2C889.707 28.2 895.187 29.48 899.907 32.04C904.707 34.52 908.347 38.2 910.827 43.08L899.307 49.8C897.387 46.76 895.027 44.52 892.227 43.08C889.507 41.64 886.547 40.92 883.347 40.92C879.667 40.92 876.347 41.72 873.387 43.32C870.427 44.92 868.107 47.24 866.427 50.28C864.747 53.24 863.907 56.8 863.907 60.96C863.907 65.12 864.747 68.72 866.427 71.76C868.107 74.72 870.427 77 873.387 78.6C876.347 80.2 879.667 81 883.347 81C886.547 81 889.507 80.28 892.227 78.84C895.027 77.4 897.387 75.16 899.307 72.12L910.827 78.84C908.347 83.64 904.707 87.36 899.907 90C895.187 92.56 889.707 93.84 883.467 93.84ZM952.976 93.84C945.856 93.84 939.616 92.44 934.256 89.64C928.976 86.76 924.856 82.84 921.896 77.88C919.016 72.92 917.576 67.28 917.576 60.96C917.576 54.56 918.976 48.92 921.776 44.04C924.656 39.08 928.576 35.2 933.536 32.4C938.576 29.6 944.296 28.2 950.696 28.2C956.936 28.2 962.496 29.56 967.376 32.28C972.256 35 976.096 38.84 978.896 43.8C981.696 48.76 983.096 54.6 983.096 61.32C983.096 61.96 983.056 62.68 982.976 63.48C982.976 64.28 982.936 65.04 982.856 65.76H929.456V55.8H974.936L969.056 58.92C969.136 55.24 968.376 52 966.776 49.2C965.176 46.4 962.976 44.2 960.176 42.6C957.456 41 954.296 40.2 950.696 40.2C947.016 40.2 943.776 41 940.976 42.6C938.256 44.2 936.096 46.44 934.496 49.32C932.976 52.12 932.216 55.44 932.216 59.28V61.68C932.216 65.52 933.096 68.92 934.856 71.88C936.616 74.84 939.096 77.12 942.296 78.72C945.496 80.32 949.176 81.12 953.336 81.12C956.936 81.12 960.176 80.56 963.056 79.44C965.936 78.32 968.496 76.56 970.736 74.16L978.776 83.4C975.896 86.76 972.256 89.36 967.856 91.2C963.536 92.96 958.576 93.84 952.976 93.84Z"/>
</mask>
<path d="M33.92 93H32.92V94H33.92V93ZM33.92 59.76L34.8601 59.4192L32.92 59.76H33.92ZM37.4 69.36L36.5442 69.8772L38.3401 69.0192L37.4 69.36ZM0.92 8.99999V7.99999H-0.85282L0.0641629 9.51724L0.92 8.99999ZM17.6 8.99999L18.4566 8.48394L18.165 7.99999H17.6V8.99999ZM46.88 57.6V58.6H48.6499L47.7366 57.0839L46.88 57.6ZM37.52 57.6L36.6653 57.0809L35.7426 58.6H37.52V57.6ZM67.04 8.99999V7.99999H66.4774L66.1853 8.48085L67.04 8.99999ZM82.4 8.99999L83.2558 9.51724L84.1728 7.99999H82.4V8.99999ZM45.92 69.36L44.9837 69.0089L46.7758 69.8772L45.92 69.36ZM49.52 59.76H50.52L48.5837 59.4089L49.52 59.76ZM49.52 93V94H50.52V93H49.52ZM34.92 93V59.76H32.92V93H34.92ZM32.9799 60.1008L36.4599 69.7008L38.3401 69.0192L34.8601 59.4192L32.9799 60.1008ZM38.2558 68.8428L1.77584 8.48275L0.0641629 9.51724L36.5442 69.8772L38.2558 68.8428ZM0.92 9.99999H17.6V7.99999H0.92V9.99999ZM16.7434 9.51604L46.0234 58.1161L47.7366 57.0839L18.4566 8.48394L16.7434 9.51604ZM46.88 56.6H37.52V58.6H46.88V56.6ZM38.3747 58.1191L67.8947 9.51914L66.1853 8.48085L36.6653 57.0809L38.3747 58.1191ZM67.04 9.99999H82.4V7.99999H67.04V9.99999ZM81.5442 8.48275L45.0642 68.8428L46.7758 69.8772L83.2558 9.51724L81.5442 8.48275ZM46.8563 69.7111L50.4563 60.1111L48.5837 59.4089L44.9837 69.0089L46.8563 69.7111ZM48.52 59.76V93H50.52V59.76H48.52ZM49.52 92H33.92V94H49.52V92ZM95.3075 89.64L94.8172 90.5116L94.8277 90.5174L95.3075 89.64ZM83.1875 77.88L82.3288 78.3925L83.1875 77.88ZM83.1875 44.04L84.0425 44.5586L84.0462 44.5525L83.1875 44.04ZM95.3075 32.4L95.7873 33.2774L95.3075 32.4ZM130.467 32.4L129.988 33.2774L129.993 33.2805L130.467 32.4ZM142.588 43.92L141.726 44.4283L141.732 44.4386L142.588 43.92ZM142.588 77.88L141.729 77.3675L141.723 77.3779L142.588 77.88ZM130.467 89.64L130.947 90.5174L130.952 90.5148L130.467 89.64ZM122.668 78.6L122.182 77.7258L122.668 78.6ZM129.388 71.64L128.512 71.1563L128.507 71.1652L128.503 71.1743L129.388 71.64ZM129.388 50.28L128.503 50.7457L128.51 50.7598L128.518 50.7736L129.388 50.28ZM122.668 43.32L123.153 42.4458L122.668 43.32ZM103.107 43.32L102.622 42.4458L102.611 42.4518L103.107 43.32ZM96.3875 50.28L97.2572 50.7736L97.2627 50.7637L96.3875 50.28ZM96.3875 71.64L95.5123 72.1237L96.3875 71.64ZM103.107 78.6L102.611 79.4683L102.622 79.4742L103.107 78.6ZM112.827 92.84C106.414 92.84 100.743 91.4726 95.7873 88.7626L94.8277 90.5174C100.112 93.4074 106.121 94.84 112.827 94.84V92.84ZM95.7978 88.7684C90.8271 85.9724 86.9152 82.1751 84.0462 77.3675L82.3288 78.3925C85.3798 83.5049 89.5479 87.5476 94.8172 90.5116L95.7978 88.7684ZM84.0462 77.3675C81.1873 72.5769 79.7475 67.1171 79.7475 60.96H77.7475C77.7475 67.4429 79.2677 73.2631 82.3288 78.3925L84.0462 77.3675ZM79.7475 60.96C79.7475 54.7201 81.1885 49.2639 84.0425 44.5586L82.3325 43.5214C79.2665 48.5761 77.7475 54.3999 77.7475 60.96H79.7475ZM84.0462 44.5525C86.9138 39.7474 90.8222 35.9927 95.7873 33.2774L94.8277 31.5226C89.5528 34.4073 85.3812 38.4126 82.3288 43.5275L84.0462 44.5525ZM95.7873 33.2774C100.743 30.5674 106.414 29.2 112.827 29.2V27.2C106.121 27.2 100.112 28.6326 94.8277 31.5226L95.7873 33.2774ZM112.827 29.2C119.323 29.2 125.034 30.5684 129.988 33.2774L130.947 31.5226C125.661 28.6316 119.612 27.2 112.827 27.2V29.2ZM129.993 33.2805C135.04 35.9978 138.943 39.7121 141.726 44.4283L143.449 43.4117C140.472 38.3679 136.295 34.4022 130.942 31.5195L129.993 33.2805ZM141.732 44.4386C144.585 49.1419 146.028 54.6376 146.028 60.96H148.028C148.028 54.3224 146.51 48.4581 143.443 43.4014L141.732 44.4386ZM146.028 60.96C146.028 67.1171 144.588 72.5769 141.729 77.3675L143.446 78.3925C146.507 73.2631 148.028 67.4429 148.028 60.96H146.028ZM141.723 77.3779C138.937 82.1757 135.031 85.9694 129.983 88.7652L130.952 90.5148C136.304 87.5506 140.478 83.5043 143.452 78.3821L141.723 77.3779ZM129.988 88.7626C125.034 91.4716 119.323 92.84 112.827 92.84V94.84C119.612 94.84 125.661 93.4084 130.947 90.5174L129.988 88.7626ZM112.827 82C116.657 82 120.108 81.166 123.153 79.4742L122.182 77.7258C119.467 79.234 116.358 80 112.827 80V82ZM123.153 79.4742C126.211 77.7756 128.586 75.3101 130.272 72.1057L128.503 71.1743C126.989 74.0499 124.884 76.2244 122.182 77.7258L123.153 79.4742ZM130.263 72.1237C132.038 68.9116 132.908 65.1795 132.908 60.96H130.908C130.908 64.9005 130.097 68.2884 128.512 71.1563L130.263 72.1237ZM132.908 60.96C132.908 56.6652 132.04 52.927 130.257 49.7864L128.518 50.7736C130.095 53.553 130.908 56.9348 130.908 60.96H132.908ZM130.272 49.8143C128.586 46.6099 126.211 44.1444 123.153 42.4458L122.182 44.1942C124.884 45.6956 126.989 47.87 128.503 50.7457L130.272 49.8143ZM123.153 42.4458C120.111 40.7558 116.701 39.92 112.948 39.92V41.92C116.394 41.92 119.464 42.6842 122.182 44.1942L123.153 42.4458ZM112.948 39.92C109.118 39.92 105.667 40.754 102.622 42.4458L103.593 44.1942C106.308 42.686 109.417 41.92 112.948 41.92V39.92ZM102.611 42.4518C99.6398 44.1498 97.2739 46.6086 95.5123 49.7963L97.2627 50.7637C98.8611 47.8714 100.975 45.6902 103.604 44.1882L102.611 42.4518ZM95.5178 49.7864C93.7353 52.927 92.8675 56.6652 92.8675 60.96H94.8675C94.8675 56.9348 95.6797 53.553 97.2572 50.7736L95.5178 49.7864ZM92.8675 60.96C92.8675 65.1795 93.7372 68.9116 95.5123 72.1237L97.2627 71.1563C95.6778 68.2884 94.8675 64.9005 94.8675 60.96H92.8675ZM95.5123 72.1237C97.2739 75.3114 99.6398 77.7702 102.611 79.4682L103.604 77.7318C100.975 76.2298 98.8611 74.0486 97.2627 71.1563L95.5123 72.1237ZM102.622 79.4742C105.664 81.1642 109.074 82 112.827 82V80C109.381 80 106.311 79.2358 103.593 77.7258L102.622 79.4742ZM174.091 90.84L173.644 91.7344L173.651 91.7379L173.658 91.7412L174.091 90.84ZM164.371 81.48L163.494 81.96L163.498 81.9671L164.371 81.48ZM160.891 28.92V27.92H159.891V28.92H160.891ZM175.891 28.92H176.891V27.92H175.891V28.92ZM179.731 76.44L178.984 77.1044L178.994 77.1153L179.004 77.126L179.731 76.44ZM200.011 78.48L199.532 77.602L199.521 77.6084L200.011 78.48ZM206.131 72L205.247 71.5332L205.242 71.543L205.237 71.5528L206.131 72ZM208.411 28.92V27.92H207.411V28.92H208.411ZM223.411 28.92H224.411V27.92H223.411V28.92ZM223.411 93V94H224.411V93H223.411ZM209.131 93H208.131V94H209.131V93ZM209.131 75.72L210.034 75.2893L208.131 75.72H209.131ZM211.651 81L212.539 81.4608L212.768 81.0188L212.554 80.5693L211.651 81ZM202.171 90.6L202.632 91.4875L202.639 91.484L202.645 91.4805L202.171 90.6ZM188.491 92.84C183.175 92.84 178.527 91.8631 174.525 89.9388L173.658 91.7412C177.975 93.8169 182.928 94.84 188.491 94.84V92.84ZM174.538 89.9456C170.563 87.9577 167.469 84.9819 165.245 80.9929L163.498 81.9671C165.913 86.2981 169.3 89.5623 173.644 91.7344L174.538 89.9456ZM165.249 81C163.031 76.9472 161.891 71.8047 161.891 65.52H159.891C159.891 72.0353 161.072 77.5328 163.494 81.96L165.249 81ZM161.891 65.52V28.92H159.891V65.52H161.891ZM160.891 29.92H175.891V27.92H160.891V29.92ZM174.891 28.92V63.48H176.891V28.92H174.891ZM174.891 63.48C174.891 69.367 176.197 73.9691 178.984 77.1044L180.479 75.7756C178.146 73.1509 176.891 69.113 176.891 63.48H174.891ZM179.004 77.126C181.877 80.1738 185.889 81.64 190.891 81.64V79.64C186.294 79.64 182.865 78.3062 180.459 75.754L179.004 77.126ZM190.891 81.64C194.549 81.64 197.765 80.891 200.502 79.3516L199.521 77.6084C197.138 78.949 194.274 79.64 190.891 79.64V81.64ZM200.49 79.3579C203.322 77.8131 205.501 75.4962 207.026 72.4472L205.237 71.5528C203.881 74.2638 201.98 76.2669 199.532 77.6021L200.49 79.3579ZM207.016 72.4668C208.631 69.406 209.411 65.6751 209.411 61.32H207.411C207.411 65.4449 206.671 68.834 205.247 71.5332L207.016 72.4668ZM209.411 61.32V28.92H207.411V61.32H209.411ZM208.411 29.92H223.411V27.92H208.411V29.92ZM222.411 28.92V93H224.411V28.92H222.411ZM223.411 92H209.131V94H223.411V92ZM210.131 93V75.72H208.131V93H210.131ZM208.229 76.1507L210.749 81.4307L212.554 80.5693L210.034 75.2893L208.229 76.1507ZM210.764 80.5392C208.697 84.5195 205.682 87.5739 201.697 89.7195L202.645 91.4805C206.981 89.1461 210.285 85.8005 212.539 81.4608L210.764 80.5392ZM201.71 89.7125C197.701 91.7943 193.3 92.84 188.491 92.84V94.84C193.602 94.84 198.321 93.7257 202.632 91.4875L201.71 89.7125ZM243.051 93H242.051V94H243.051V93ZM243.051 28.92V27.92H242.051V28.92H243.051ZM257.331 28.92H258.331V27.92H257.331V28.92ZM257.331 46.56L256.38 46.8696L258.331 46.56H257.331ZM255.651 41.4L254.737 40.9939L254.581 41.3446L254.7 41.7096L255.651 41.4ZM264.651 31.56L264.177 30.6795L264.17 30.6834L264.651 31.56ZM280.131 28.2H281.131V27.2H280.131V28.2ZM280.131 42.48L279.888 43.4501L281.131 43.7608V42.48H280.131ZM278.331 42.24L278.19 43.2299L278.26 43.24H278.331V42.24ZM263.091 47.16L263.79 47.8756L263.798 47.8671L263.091 47.16ZM258.051 93V94H259.051V93H258.051ZM244.051 93V28.92H242.051V93H244.051ZM243.051 29.92H257.331V27.92H243.051V29.92ZM256.331 28.92V46.56H258.331V28.92H256.331ZM258.282 46.2504L256.602 41.0904L254.7 41.7096L256.38 46.8696L258.282 46.2504ZM256.565 41.8061C258.397 37.6827 261.247 34.5695 265.132 32.4366L264.17 30.6834C259.895 33.0305 256.744 36.4773 254.737 40.9939L256.565 41.8061ZM265.125 32.4405C269.102 30.2992 274.088 29.2 280.131 29.2V27.2C273.854 27.2 268.52 28.3408 264.177 30.6795L265.125 32.4405ZM279.131 28.2V42.48H281.131V28.2H279.131ZM280.373 41.5098C279.668 41.3334 278.986 41.24 278.331 41.24V43.24C278.796 43.24 279.314 43.3066 279.888 43.4501L280.373 41.5098ZM278.472 41.2501C277.866 41.1634 277.259 41.12 276.651 41.12V43.12C277.163 43.12 277.676 43.1566 278.19 43.2299L278.472 41.2501ZM276.651 41.12C270.761 41.12 265.967 42.8694 262.384 46.4529L263.798 47.8671C266.935 44.7306 271.181 43.12 276.651 43.12V41.12ZM262.392 46.4444C258.774 49.9771 257.051 55.1997 257.051 61.92H259.051C259.051 55.5203 260.688 50.9029 263.789 47.8756L262.392 46.4444ZM257.051 61.92V93H259.051V61.92H257.051ZM258.051 92H243.051V94H258.051V92ZM297.762 91.8L297.479 92.7591L297.488 92.7618L297.497 92.7644L297.762 91.8ZM286.122 86.64L285.229 86.189L284.837 86.9653L285.551 87.4614L286.122 86.64ZM291.882 75.24L292.42 74.3973L291.488 73.8018L290.989 74.789L291.882 75.24ZM302.202 79.8L302.489 78.8422L302.202 79.8ZM324.402 79.68L323.892 78.8197L323.885 78.824L323.877 78.8283L324.402 79.68ZM325.482 70.56L324.927 71.3921L324.943 71.403L324.96 71.4133L325.482 70.56ZM312.042 67.08L311.9 68.07L311.904 68.0705L312.042 67.08ZM303.522 65.52L303.273 66.4885L303.289 66.4926L303.305 66.4962L303.522 65.52ZM295.842 62.52L295.336 63.3827L295.347 63.3893L295.358 63.3956L295.842 62.52ZM291.522 37.68L292.309 38.2969L292.317 38.2867L291.522 37.68ZM301.242 30.72L301.601 31.6534L301.61 31.6497L301.242 30.72ZM329.322 29.64L329.108 30.617L329.322 29.64ZM340.242 33.72L341.134 34.171L341.55 33.3477L340.763 32.8667L340.242 33.72ZM334.482 45.12L333.964 45.9755L334.887 46.5345L335.374 45.571L334.482 45.12ZM325.242 41.4L325.011 42.3731L325.026 42.3766L325.041 42.3796L325.242 41.4ZM305.922 42.36L305.403 41.5052L305.396 41.5094L305.389 41.5138L305.922 42.36ZM304.842 51.84L304.287 52.6721L304.842 51.84ZM310.482 54.12L310.247 55.0921L310.482 54.12ZM318.162 55.56L318.02 56.5499L318.036 56.5522L318.051 56.5539L318.162 55.56ZM326.682 57.12L326.931 56.1515L326.682 57.12ZM334.362 60.12L333.878 60.9956L333.896 61.0054L333.914 61.0144L334.362 60.12ZM338.682 84.48L337.905 83.8502L337.9 83.8566L337.895 83.8631L338.682 84.48ZM328.722 91.44L329.069 92.3777L329.076 92.3749L329.084 92.372L328.722 91.44ZM313.242 92.84C307.967 92.84 302.896 92.171 298.026 90.8356L297.497 92.7644C302.547 94.149 307.796 94.84 313.242 94.84V92.84ZM298.045 90.8409C293.225 89.4187 289.454 87.7369 286.692 85.8186L285.551 87.4614C288.549 89.5431 292.538 91.3012 297.479 92.7591L298.045 90.8409ZM287.014 87.091L292.774 75.691L290.989 74.789L285.229 86.189L287.014 87.091ZM291.343 76.0827C294.316 77.9821 297.844 79.5369 301.914 80.7578L302.489 78.8422C298.559 77.6631 295.207 76.1779 292.42 74.3973L291.343 76.0827ZM301.914 80.7578C306.003 81.9846 310.1 82.6 314.202 82.6V80.6C310.303 80.6 306.4 80.0154 302.489 78.8422L301.914 80.7578ZM314.202 82.6C318.963 82.6 322.599 81.9634 324.926 80.5317L323.877 78.8283C322.044 79.9566 318.88 80.6 314.202 80.6V82.6ZM324.911 80.5403C327.317 79.1149 328.642 77.0964 328.642 74.52H326.642C326.642 76.2636 325.806 77.6851 323.892 78.8197L324.911 80.5403ZM328.642 74.52C328.642 72.4298 327.755 70.7777 326.003 69.7067L324.96 71.4133C326.088 72.1023 326.642 73.0902 326.642 74.52H328.642ZM326.036 69.728C324.458 68.6757 322.447 67.9178 320.044 67.4207L319.639 69.3793C321.877 69.8422 323.625 70.5243 324.927 71.3921L326.036 69.728ZM320.044 67.4207C317.698 66.9354 315.076 66.4919 312.179 66.0895L311.904 68.0705C314.767 68.4681 317.345 68.9046 319.639 69.3793L320.044 67.4207ZM312.183 66.09C309.409 65.6938 306.595 65.1785 303.738 64.5438L303.305 66.4962C306.209 67.1415 309.074 67.6662 311.9 68.0699L312.183 66.09ZM303.771 64.5515C301.045 63.8506 298.564 62.8802 296.325 61.6444L295.358 63.3956C297.759 64.7198 300.398 65.7494 303.273 66.4885L303.771 64.5515ZM296.347 61.6573C294.161 60.3759 292.397 58.6857 291.043 56.5792L289.36 57.6608C290.886 60.0343 292.882 61.944 295.336 63.3827L296.347 61.6573ZM291.043 56.5792C289.739 54.5511 289.042 51.7989 289.042 48.24H287.042C287.042 52.0411 287.784 55.2089 289.36 57.6608L291.043 56.5792ZM289.042 48.24C289.042 44.3634 290.139 41.0656 292.309 38.2969L290.734 37.0631C288.265 40.2144 287.042 43.9566 287.042 48.24H289.042ZM292.317 38.2867C294.507 35.4167 297.584 33.1981 301.601 31.6533L300.883 29.7866C296.579 31.4419 293.176 33.8633 290.727 37.0733L292.317 38.2867ZM301.61 31.6497C305.706 30.0266 310.576 29.2 316.242 29.2V27.2C310.387 27.2 305.257 28.0534 300.873 29.7903L301.61 31.6497ZM316.242 29.2C320.487 29.2 324.775 29.6716 329.108 30.617L329.535 28.663C325.068 27.6884 320.636 27.2 316.242 27.2V29.2ZM329.108 30.617C333.434 31.5607 336.961 32.8872 339.72 34.5733L340.763 32.8667C337.762 31.0328 334.01 29.6393 329.535 28.663L329.108 30.617ZM339.349 33.269L333.589 44.669L335.374 45.571L341.134 34.171L339.349 33.269ZM334.999 44.2645C331.873 42.3721 328.687 41.0859 325.443 40.4204L325.041 42.3796C328.036 42.9941 331.01 44.1879 333.964 45.9755L334.999 44.2645ZM325.472 40.4269C322.359 39.6895 319.241 39.32 316.122 39.32V41.32C319.082 41.32 322.045 41.6705 325.011 42.3731L325.472 40.4269ZM316.122 39.32C311.497 39.32 307.876 40.0034 305.403 41.5052L306.441 43.2148C308.447 41.9966 311.626 41.32 316.122 41.32V39.32ZM305.389 41.5138C303.014 43.0089 301.682 45.0151 301.682 47.52H303.682C303.682 45.8649 304.509 44.4311 306.454 43.2062L305.389 41.5138ZM301.682 47.52C301.682 49.7313 302.535 51.5039 304.287 52.6721L305.396 51.0079C304.268 50.2561 303.682 49.1487 303.682 47.52H301.682ZM304.287 52.6721C305.854 53.7167 307.853 54.5142 310.247 55.0921L310.716 53.1479C308.47 52.6058 306.709 51.8833 305.396 51.0079L304.287 52.6721ZM310.247 55.0921C312.603 55.6607 315.194 56.1463 318.02 56.5499L318.303 54.5701C315.529 54.1737 313 53.6993 310.716 53.1479L310.247 55.0921ZM318.051 56.5539C320.884 56.8687 323.678 57.3802 326.433 58.0885L326.931 56.1515C324.085 55.4198 321.199 54.8913 318.272 54.5661L318.051 56.5539ZM326.433 58.0885C329.158 58.7894 331.639 59.7598 333.878 60.9956L334.845 59.2444C332.444 57.9202 329.805 56.8906 326.931 56.1515L326.433 58.0885ZM333.914 61.0144C336.155 62.1347 337.938 63.7331 339.28 65.8208L340.963 64.7392C339.425 62.3469 337.368 60.5053 334.809 59.2256L333.914 61.0144ZM339.28 65.8208C340.586 67.852 341.282 70.5662 341.282 74.04H343.282C343.282 70.3138 342.537 67.188 340.963 64.7392L339.28 65.8208ZM341.282 74.04C341.282 77.823 340.153 81.0777 337.905 83.8502L339.458 85.1098C342.01 81.9623 343.282 78.257 343.282 74.04H341.282ZM337.895 83.8631C335.708 86.6525 332.551 88.878 328.359 90.508L329.084 92.372C333.533 90.642 337.015 88.2276 339.469 85.0969L337.895 83.8631ZM328.374 90.5023C324.193 92.0507 319.157 92.84 313.242 92.84V94.84C319.326 94.84 324.61 94.0293 329.069 92.3777L328.374 90.5023ZM394.679 93H393.679V94H394.679V93ZM394.679 80.04H395.679V79.8912L395.636 79.7488L394.679 80.04ZM393.839 77.28H392.839V77.4288L392.883 77.5712L393.839 77.28ZM389.879 44.4L389.195 45.1288L389.201 45.1344L389.207 45.1399L389.879 44.4ZM367.199 42.36L366.896 41.4071L366.89 41.4091L367.199 42.36ZM358.439 47.04L357.559 47.5141L358.139 48.5918L359.08 47.8082L358.439 47.04ZM352.559 36.12L351.951 35.3267L351.275 35.8448L351.679 36.5941L352.559 36.12ZM364.799 30.24L365.061 31.2052L365.072 31.2021L364.799 30.24ZM401.159 34.92L400.495 35.6674L400.501 35.673L400.508 35.6784L401.159 34.92ZM408.839 93V94H409.839V93H408.839ZM361.919 91.44L361.496 92.3462L361.505 92.3501L361.513 92.3538L361.919 91.44ZM353.519 84.6L352.68 85.1442L352.689 85.1574L352.698 85.1704L353.519 84.6ZM353.159 64.92L352.306 64.3986L352.301 64.4073L352.296 64.4161L353.159 64.92ZM361.679 58.08L362.073 58.9991L361.679 58.08ZM395.879 55.56H396.879V54.56H395.879V55.56ZM395.879 65.52V66.52H396.879V65.52H395.879ZM368.039 68.04L368.712 68.7799L368.721 68.7718L368.73 68.7634L368.039 68.04ZM368.639 80.52L368.044 81.3236L368.639 80.52ZM387.479 80.4L386.986 79.5303L386.975 79.5362L387.479 80.4ZM393.839 72.96L394.802 72.6904L393.996 69.809L392.908 72.5965L393.839 72.96ZM396.359 81.96L397.293 82.3176L397.411 82.0088L397.322 81.6904L396.359 81.96ZM388.559 90.72L388.075 89.8449L388.067 89.8494L388.559 90.72ZM395.679 93V80.04H393.679V93H395.679ZM395.636 79.7488L394.796 76.9888L392.883 77.5712L393.723 80.3312L395.636 79.7488ZM394.839 77.28V54.6H392.839V77.28H394.839ZM394.839 54.6C394.839 49.9891 393.448 46.2925 390.552 43.6601L389.207 45.1399C391.591 47.3075 392.839 50.4109 392.839 54.6H394.839ZM390.564 43.6712C387.666 40.9492 383.374 39.68 377.879 39.68V41.68C383.105 41.68 386.812 42.8908 389.195 45.1288L390.564 43.6712ZM377.879 39.68C374.174 39.68 370.512 40.2567 366.896 41.4071L367.503 43.3129C370.927 42.2233 374.385 41.68 377.879 41.68V39.68ZM366.89 41.4091C363.348 42.5623 360.311 44.1787 357.799 46.2718L359.08 47.8082C361.368 45.9013 364.171 44.3977 367.509 43.3109L366.89 41.4091ZM359.32 46.5659L353.44 35.6459L351.679 36.5941L357.559 47.5141L359.32 46.5659ZM353.168 36.9133C356.492 34.3622 360.451 32.4554 365.061 31.2051L364.538 29.2749C359.708 30.5846 355.506 32.5978 351.951 35.3267L353.168 36.9133ZM365.072 31.2021C369.781 29.8679 374.649 29.2 379.679 29.2V27.2C374.47 27.2 369.418 27.8921 364.527 29.2779L365.072 31.2021ZM379.679 29.2C388.807 29.2 395.697 31.4026 400.495 35.6674L401.824 34.1726C396.542 29.4774 389.112 27.2 379.679 27.2V29.2ZM400.508 35.6784C405.332 39.8248 407.839 46.3371 407.839 55.44H409.839C409.839 45.9829 407.226 38.8152 401.811 34.1616L400.508 35.6784ZM407.839 55.44V93H409.839V55.44H407.839ZM408.839 92H394.679V94H408.839V92ZM374.519 92.84C369.829 92.84 365.773 92.0584 362.326 90.5262L361.513 92.3538C365.266 94.0216 369.609 94.84 374.519 94.84V92.84ZM362.342 90.5338C358.881 88.9184 356.227 86.7459 354.341 84.0296L352.698 85.1704C354.812 88.2141 357.758 90.6016 361.496 92.3462L362.342 90.5338ZM354.358 84.0558C352.548 81.265 351.639 78.1356 351.639 74.64H349.639C349.639 78.5044 350.651 82.015 352.68 85.1442L354.358 84.0558ZM351.639 74.64C351.639 71.2025 352.439 68.1388 354.023 65.4239L352.296 64.4161C350.519 67.4612 349.639 70.8775 349.639 74.64H351.639ZM354.013 65.4415C355.639 62.7802 358.293 60.6191 362.073 58.9991L361.285 57.1609C357.225 58.9009 354.2 61.2998 352.306 64.3986L354.013 65.4415ZM362.073 58.9991C365.821 57.3928 370.871 56.56 377.279 56.56V54.56C370.727 54.56 365.377 55.4072 361.285 57.1609L362.073 58.9991ZM377.279 56.56H395.879V54.56H377.279V56.56ZM394.879 55.56V65.52H396.879V55.56H394.879ZM395.879 64.52H378.359V66.52H395.879V64.52ZM378.359 64.52C375.752 64.52 373.526 64.7332 371.702 65.1785C369.885 65.6224 368.401 66.3128 367.349 67.3166L368.73 68.7634C369.438 68.0872 370.554 67.5176 372.177 67.1215C373.793 66.7268 375.847 66.52 378.359 66.52V64.52ZM367.367 67.3001C365.396 69.0915 364.399 71.3612 364.399 74.04H366.399C366.399 71.9188 367.163 70.1885 368.712 68.7799L367.367 67.3001ZM364.399 74.04C364.399 77.0724 365.626 79.5323 368.044 81.3236L369.235 79.7164C367.333 78.3077 366.399 76.4476 366.399 74.04H364.399ZM368.044 81.3236C370.436 83.0954 373.674 83.92 377.639 83.92V81.92C373.925 81.92 371.163 81.1446 369.235 79.7164L368.044 81.3236ZM377.639 83.92C381.478 83.92 384.935 83.042 387.983 81.2638L386.975 79.5362C384.264 81.118 381.161 81.92 377.639 81.92V83.92ZM387.973 81.2697C391.14 79.4721 393.411 76.8096 394.771 73.3235L392.908 72.5965C391.708 75.6704 389.739 77.9679 386.986 79.5303L387.973 81.2697ZM392.876 73.2296L395.396 82.2296L397.322 81.6904L394.802 72.6904L392.876 73.2296ZM395.426 81.6023C394.076 85.1268 391.644 87.8708 388.075 89.845L389.043 91.595C392.995 89.4092 395.763 86.3132 397.293 82.3176L395.426 81.6023ZM388.067 89.8494C384.58 91.8204 380.084 92.84 374.519 92.84V94.84C380.315 94.84 385.178 93.7796 389.051 91.5906L388.067 89.8494ZM432.41 91.8L432.127 92.7591L432.136 92.7618L432.146 92.7644L432.41 91.8ZM420.77 86.64L419.877 86.189L419.485 86.9653L420.2 87.4614L420.77 86.64ZM426.53 75.24L427.068 74.3973L426.136 73.8018L425.637 74.789L426.53 75.24ZM436.85 79.8L437.137 78.8422L436.85 79.8ZM459.05 79.68L458.54 78.8197L458.533 78.824L458.526 78.8283L459.05 79.68ZM460.13 70.56L459.575 71.3921L459.592 71.403L459.609 71.4133L460.13 70.56ZM446.69 67.08L446.549 68.07L446.552 68.0705L446.69 67.08ZM438.17 65.52L437.921 66.4885L437.937 66.4926L437.953 66.4962L438.17 65.52ZM430.49 62.52L429.984 63.3827L429.996 63.3893L430.007 63.3956L430.49 62.52ZM426.17 37.68L426.957 38.2969L426.965 38.2867L426.17 37.68ZM435.89 30.72L436.249 31.6534L436.258 31.6497L435.89 30.72ZM463.97 29.64L463.757 30.617L463.97 29.64ZM474.89 33.72L475.783 34.171L476.199 33.3477L475.411 32.8667L474.89 33.72ZM469.13 45.12L468.612 45.9755L469.536 46.5345L470.023 45.571L469.13 45.12ZM459.89 41.4L459.66 42.3731L459.674 42.3766L459.689 42.3796L459.89 41.4ZM440.57 42.36L440.051 41.5052L440.044 41.5094L440.037 41.5138L440.57 42.36ZM439.49 51.84L438.935 52.6721L439.49 51.84ZM445.13 54.12L444.895 55.0921L445.13 54.12ZM452.81 55.56L452.669 56.5499L452.684 56.5522L452.7 56.5539L452.81 55.56ZM461.33 57.12L461.579 56.1515L461.33 57.12ZM469.01 60.12L468.527 60.9956L468.545 61.0054L468.563 61.0144L469.01 60.12ZM473.33 84.48L472.553 83.8502L472.548 83.8566L472.543 83.8631L473.33 84.48ZM463.37 91.44L463.717 92.3777L463.725 92.3749L463.732 92.372L463.37 91.44ZM447.89 92.84C442.616 92.84 437.545 92.171 432.674 90.8356L432.146 92.7644C437.195 94.149 442.444 94.84 447.89 94.84V92.84ZM432.693 90.8409C427.874 89.4187 424.103 87.7369 421.34 85.8186L420.2 87.4614C423.197 89.5431 427.186 91.3012 432.127 92.7591L432.693 90.8409ZM421.663 87.091L427.423 75.691L425.637 74.789L419.877 86.189L421.663 87.091ZM425.992 76.0827C428.965 77.9821 432.493 79.5369 436.563 80.7578L437.137 78.8422C433.207 77.6631 429.855 76.1779 427.068 74.3973L425.992 76.0827ZM436.563 80.7578C440.652 81.9846 444.748 82.6 448.85 82.6V80.6C444.952 80.6 441.048 80.0154 437.137 78.8422L436.563 80.7578ZM448.85 82.6C453.611 82.6 457.247 81.9634 459.574 80.5317L458.526 78.8283C456.693 79.9566 453.529 80.6 448.85 80.6V82.6ZM459.56 80.5403C461.965 79.1149 463.29 77.0964 463.29 74.52H461.29C461.29 76.2636 460.455 77.6851 458.54 78.8197L459.56 80.5403ZM463.29 74.52C463.29 72.4298 462.404 70.7777 460.651 69.7067L459.609 71.4133C460.736 72.1023 461.29 73.0902 461.29 74.52H463.29ZM460.685 69.728C459.106 68.6757 457.095 67.9178 454.693 67.4207L454.287 69.3793C456.525 69.8422 458.274 70.5243 459.575 71.3921L460.685 69.728ZM454.693 67.4207C452.347 66.9354 449.725 66.4919 446.828 66.0895L446.552 68.0705C449.415 68.4681 451.993 68.9046 454.287 69.3793L454.693 67.4207ZM446.831 66.09C444.058 65.6938 441.243 65.1785 438.387 64.5438L437.953 66.4962C440.857 67.1415 443.722 67.6662 446.549 68.0699L446.831 66.09ZM438.419 64.5515C435.693 63.8506 433.213 62.8802 430.973 61.6444L430.007 63.3956C432.407 64.7198 435.047 65.7494 437.921 66.4885L438.419 64.5515ZM430.996 61.6573C428.81 60.3759 427.045 58.6857 425.691 56.5792L424.009 57.6608C425.535 60.0343 427.53 61.944 429.984 63.3827L430.996 61.6573ZM425.691 56.5792C424.387 54.5511 423.69 51.7989 423.69 48.24H421.69C421.69 52.0411 422.433 55.2089 424.009 57.6608L425.691 56.5792ZM423.69 48.24C423.69 44.3634 424.787 41.0656 426.957 38.2969L425.383 37.0631C422.913 40.2144 421.69 43.9566 421.69 48.24H423.69ZM426.965 38.2867C429.155 35.4167 432.233 33.1981 436.249 31.6533L435.531 29.7866C431.227 31.4419 427.825 33.8633 425.375 37.0733L426.965 38.2867ZM436.258 31.6497C440.355 30.0266 445.224 29.2 450.89 29.2V27.2C445.036 27.2 439.905 28.0534 435.522 29.7903L436.258 31.6497ZM450.89 29.2C455.135 29.2 459.424 29.6716 463.757 30.617L464.183 28.663C459.716 27.6884 455.285 27.2 450.89 27.2V29.2ZM463.757 30.617C468.082 31.5607 471.61 32.8872 474.369 34.5733L475.411 32.8667C472.41 31.0328 468.658 29.6393 464.183 28.663L463.757 30.617ZM473.997 33.269L468.237 44.669L470.023 45.571L475.783 34.171L473.997 33.269ZM469.648 44.2645C466.521 42.3721 463.335 41.0859 460.091 40.4204L459.689 42.3796C462.685 42.9941 465.659 44.1879 468.612 45.9755L469.648 44.2645ZM460.12 40.4269C457.007 39.6895 453.89 39.32 450.77 39.32V41.32C453.73 41.32 456.693 41.6705 459.66 42.3731L460.12 40.4269ZM450.77 39.32C446.145 39.32 442.525 40.0034 440.051 41.5052L441.089 43.2148C443.095 41.9966 446.275 41.32 450.77 41.32V39.32ZM440.037 41.5138C437.663 43.0089 436.33 45.0151 436.33 47.52H438.33C438.33 45.8649 439.157 44.4311 441.103 43.2062L440.037 41.5138ZM436.33 47.52C436.33 49.7313 437.183 51.5039 438.935 52.6721L440.045 51.0079C438.917 50.2561 438.33 49.1487 438.33 47.52H436.33ZM438.935 52.6721C440.502 53.7167 442.501 54.5142 444.895 55.0921L445.365 53.1479C443.119 52.6058 441.358 51.8833 440.045 51.0079L438.935 52.6721ZM444.895 55.0921C447.251 55.6607 449.843 56.1463 452.669 56.5499L452.951 54.5701C450.177 54.1737 447.649 53.6993 445.365 53.1479L444.895 55.0921ZM452.7 56.5539C455.533 56.8687 458.327 57.3802 461.081 58.0885L461.579 56.1515C458.733 55.4198 455.847 54.8913 452.92 54.5661L452.7 56.5539ZM461.081 58.0885C463.807 58.7894 466.287 59.7598 468.527 60.9956L469.493 59.2444C467.093 57.9202 464.453 56.8906 461.579 56.1515L461.081 58.0885ZM468.563 61.0144C470.803 62.1347 472.587 63.7331 473.929 65.8208L475.611 64.7392C474.073 62.3469 472.017 60.5053 469.457 59.2256L468.563 61.0144ZM473.929 65.8208C475.235 67.852 475.93 70.5662 475.93 74.04H477.93C477.93 70.3138 477.185 67.188 475.611 64.7392L473.929 65.8208ZM475.93 74.04C475.93 77.823 474.801 81.0777 472.553 83.8502L474.107 85.1098C476.659 81.9623 477.93 78.257 477.93 74.04H475.93ZM472.543 83.8631C470.357 86.6525 467.199 88.878 463.008 90.508L463.732 92.372C468.181 90.642 471.663 88.2276 474.117 85.0969L472.543 83.8631ZM463.023 90.5023C458.842 92.0507 453.805 92.84 447.89 92.84V94.84C453.975 94.84 459.258 94.0293 463.717 92.3777L463.023 90.5023ZM494.168 91.8L493.885 92.7591L493.894 92.7618L493.903 92.7644L494.168 91.8ZM482.528 86.64L481.635 86.189L481.243 86.9653L481.957 87.4614L482.528 86.64ZM488.288 75.24L488.826 74.3973L487.894 73.8018L487.395 74.789L488.288 75.24ZM498.608 79.8L498.895 78.8422L498.608 79.8ZM520.808 79.68L520.298 78.8197L520.291 78.824L520.284 78.8283L520.808 79.68ZM521.888 70.56L521.333 71.3921L521.35 71.403L521.366 71.4133L521.888 70.56ZM508.448 67.08L508.306 68.07L508.31 68.0705L508.448 67.08ZM499.928 65.52L499.679 66.4885L499.695 66.4926L499.711 66.4962L499.928 65.52ZM492.248 62.52L491.742 63.3827L491.753 63.3893L491.765 63.3956L492.248 62.52ZM487.928 37.68L488.715 38.2969L488.723 38.2867L487.928 37.68ZM497.648 30.72L498.007 31.6534L498.016 31.6497L497.648 30.72ZM525.728 29.64L525.515 30.617L525.728 29.64ZM536.648 33.72L537.54 34.171L537.956 33.3477L537.169 32.8667L536.648 33.72ZM530.888 45.12L530.37 45.9755L531.294 46.5345L531.78 45.571L530.888 45.12ZM521.648 41.4L521.417 42.3731L521.432 42.3766L521.447 42.3796L521.648 41.4ZM502.328 42.36L501.809 41.5052L501.802 41.5094L501.795 41.5138L502.328 42.36ZM501.248 51.84L500.693 52.6721L501.248 51.84ZM506.888 54.12L506.653 55.0921L506.888 54.12ZM514.568 55.56L514.426 56.5499L514.442 56.5522L514.457 56.5539L514.568 55.56ZM523.088 57.12L523.337 56.1515L523.088 57.12ZM530.768 60.12L530.285 60.9956L530.302 61.0054L530.321 61.0144L530.768 60.12ZM535.088 84.48L534.311 83.8502L534.306 83.8566L534.301 83.8631L535.088 84.48ZM525.128 91.44L525.475 92.3777L525.483 92.3749L525.49 92.372L525.128 91.44ZM509.648 92.84C504.373 92.84 499.303 92.171 494.432 90.8356L493.903 92.7644C498.953 94.149 504.202 94.84 509.648 94.84V92.84ZM494.451 90.8409C489.631 89.4187 485.86 87.7369 483.098 85.8186L481.957 87.4614C484.955 89.5431 488.944 91.3012 493.885 92.7591L494.451 90.8409ZM483.42 87.091L489.18 75.691L487.395 74.789L481.635 86.189L483.42 87.091ZM487.749 76.0827C490.722 77.9821 494.251 79.5369 498.32 80.7578L498.895 78.8422C494.965 77.6631 491.613 76.1779 488.826 74.3973L487.749 76.0827ZM498.32 80.7578C502.41 81.9846 506.506 82.6 510.608 82.6V80.6C506.709 80.6 502.806 80.0154 498.895 78.8422L498.32 80.7578ZM510.608 82.6C515.369 82.6 519.005 81.9634 521.332 80.5317L520.284 78.8283C518.45 79.9566 515.287 80.6 510.608 80.6V82.6ZM521.318 80.5403C523.723 79.1149 525.048 77.0964 525.048 74.52H523.048C523.048 76.2636 522.213 77.6851 520.298 78.8197L521.318 80.5403ZM525.048 74.52C525.048 72.4298 524.162 70.7777 522.409 69.7067L521.366 71.4133C522.494 72.1023 523.048 73.0902 523.048 74.52H525.048ZM522.443 69.728C520.864 68.6757 518.853 67.9178 516.45 67.4207L516.045 69.3793C518.283 69.8422 520.031 70.5243 521.333 71.3921L522.443 69.728ZM516.45 67.4207C514.105 66.9354 511.483 66.4919 508.585 66.0895L508.31 68.0705C511.173 68.4681 513.751 68.9046 516.045 69.3793L516.45 67.4207ZM508.589 66.09C505.816 65.6938 503.001 65.1785 500.145 64.5438L499.711 66.4962C502.615 67.1415 505.48 67.6662 508.306 68.0699L508.589 66.09ZM500.177 64.5515C497.451 63.8506 494.971 62.8802 492.731 61.6444L491.765 63.3956C494.165 64.7198 496.805 65.7494 499.679 66.4885L500.177 64.5515ZM492.754 61.6573C490.568 60.3759 488.803 58.6857 487.449 56.5792L485.767 57.6608C487.292 60.0343 489.288 61.944 491.742 63.3827L492.754 61.6573ZM487.449 56.5792C486.145 54.5511 485.448 51.7989 485.448 48.24H483.448C483.448 52.0411 484.19 55.2089 485.767 57.6608L487.449 56.5792ZM485.448 48.24C485.448 44.3634 486.545 41.0656 488.715 38.2969L487.141 37.0631C484.671 40.2144 483.448 43.9566 483.448 48.24H485.448ZM488.723 38.2867C490.913 35.4167 493.991 33.1981 498.007 31.6533L497.289 29.7866C492.985 31.4419 489.583 33.8633 487.133 37.0733L488.723 38.2867ZM498.016 31.6497C502.113 30.0266 506.982 29.2 512.648 29.2V27.2C506.794 27.2 501.663 28.0534 497.279 29.7903L498.016 31.6497ZM512.648 29.2C516.893 29.2 521.182 29.6716 525.515 30.617L525.941 28.663C521.474 27.6884 517.042 27.2 512.648 27.2V29.2ZM525.515 30.617C529.84 31.5607 533.367 32.8872 536.126 34.5733L537.169 32.8667C534.168 31.0328 530.416 29.6393 525.941 28.663L525.515 30.617ZM535.755 33.269L529.995 44.669L531.78 45.571L537.54 34.171L535.755 33.269ZM531.406 44.2645C528.279 42.3721 525.093 41.0859 521.849 40.4204L521.447 42.3796C524.443 42.9941 527.417 44.1879 530.37 45.9755L531.406 44.2645ZM521.878 40.4269C518.765 39.6895 515.648 39.32 512.528 39.32V41.32C515.488 41.32 518.451 41.6705 521.417 42.3731L521.878 40.4269ZM512.528 39.32C507.903 39.32 504.282 40.0034 501.809 41.5052L502.847 43.2148C504.853 41.9966 508.032 41.32 512.528 41.32V39.32ZM501.795 41.5138C499.42 43.0089 498.088 45.0151 498.088 47.52H500.088C500.088 45.8649 500.915 44.4311 502.861 43.2062L501.795 41.5138ZM498.088 47.52C498.088 49.7313 498.941 51.5039 500.693 52.6721L501.803 51.0079C500.675 50.2561 500.088 49.1487 500.088 47.52H498.088ZM500.693 52.6721C502.26 53.7167 504.259 54.5142 506.653 55.0921L507.122 53.1479C504.876 52.6058 503.116 51.8833 501.803 51.0079L500.693 52.6721ZM506.653 55.0921C509.009 55.6607 511.601 56.1463 514.426 56.5499L514.709 54.5701C511.935 54.1737 509.407 53.6993 507.122 53.1479L506.653 55.0921ZM514.457 56.5539C517.291 56.8687 520.084 57.3802 522.839 58.0885L523.337 56.1515C520.491 55.4198 517.605 54.8913 514.678 54.5661L514.457 56.5539ZM522.839 58.0885C525.565 58.7894 528.045 59.7598 530.285 60.9956L531.251 59.2444C528.851 57.9202 526.211 56.8906 523.337 56.1515L522.839 58.0885ZM530.321 61.0144C532.561 62.1347 534.345 63.7331 535.687 65.8208L537.369 64.7392C535.831 62.3469 533.774 60.5053 531.215 59.2256L530.321 61.0144ZM535.687 65.8208C536.992 67.852 537.688 70.5662 537.688 74.04H539.688C539.688 70.3138 538.943 67.188 537.369 64.7392L535.687 65.8208ZM537.688 74.04C537.688 77.823 536.559 81.0777 534.311 83.8502L535.865 85.1098C538.417 81.9623 539.688 78.257 539.688 74.04H537.688ZM534.301 83.8631C532.115 86.6525 528.957 88.878 524.765 90.508L525.49 92.372C529.939 90.642 533.421 88.2276 535.875 85.0969L534.301 83.8631ZM524.781 90.5023C520.6 92.0507 515.563 92.84 509.648 92.84V94.84C515.732 94.84 521.016 94.0293 525.475 92.3777L524.781 90.5023ZM551.606 93H550.606V94H551.606V93ZM551.606 28.92V27.92H550.606V28.92H551.606ZM566.606 28.92H567.606V27.92H566.606V28.92ZM566.606 93V94H567.606V93H566.606ZM552.206 15.72L551.499 16.4271L551.506 16.435L551.514 16.4426L552.206 15.72ZM552.206 2.99999L552.896 3.72335L552.897 3.72264L552.206 2.99999ZM566.006 2.87999L565.315 3.60335L565.332 3.61937L565.349 3.6346L566.006 2.87999ZM566.126 15.72L566.833 16.4271L566.841 16.4192L566.848 16.4112L566.126 15.72ZM552.606 93V28.92H550.606V93H552.606ZM551.606 29.92H566.606V27.92H551.606V29.92ZM565.606 28.92V93H567.606V28.92H565.606ZM566.606 92H551.606V94H566.606V92ZM559.166 17.36C556.595 17.36 554.531 16.5609 552.897 14.9974L551.514 16.4426C553.56 18.3991 556.136 19.36 559.166 19.36V17.36ZM552.913 15.0129C551.339 13.4397 550.566 11.5737 550.566 9.36H548.566C548.566 12.1063 549.552 14.4803 551.499 16.4271L552.913 15.0129ZM550.566 9.36C550.566 7.05731 551.345 5.20391 552.896 3.72335L551.515 2.27664C549.546 4.15609 548.566 6.54268 548.566 9.36H550.566ZM552.897 3.72264C554.531 2.15911 556.595 1.36 559.166 1.36V-0.640001C556.136 -0.640001 553.56 0.320883 551.514 2.27735L552.897 3.72264ZM559.166 1.36C561.75 1.36 563.769 2.12779 565.315 3.60335L566.696 2.15664C564.722 0.2722 562.181 -0.640001 559.166 -0.640001V1.36ZM565.349 3.6346C566.967 5.04099 567.766 6.80376 567.766 8.99999H569.766C569.766 6.23623 568.724 3.91901 566.662 2.12539L565.349 3.6346ZM567.766 8.99999C567.766 11.393 566.978 13.3823 565.403 15.0288L566.848 16.4112C568.793 14.3777 569.766 11.887 569.766 8.99999H567.766ZM565.419 15.0129C563.876 16.5557 561.826 17.36 559.166 17.36V19.36C562.266 19.36 564.856 18.4043 566.833 16.4271L565.419 15.0129ZM590.613 91.8L590.33 92.7591L590.339 92.7618L590.349 92.7644L590.613 91.8ZM578.973 86.64L578.081 86.189L577.688 86.9653L578.403 87.4614L578.973 86.64ZM584.733 75.24L585.272 74.3973L584.339 73.8018L583.841 74.789L584.733 75.24ZM595.053 79.8L595.34 78.8422L595.053 79.8ZM617.253 79.68L616.743 78.8197L616.736 78.824L616.729 78.8283L617.253 79.68ZM618.333 70.56L617.778 71.3921L617.795 71.403L617.812 71.4133L618.333 70.56ZM604.893 67.08L604.752 68.07L604.756 68.0705L604.893 67.08ZM596.373 65.52L596.124 66.4885L596.14 66.4926L596.156 66.4962L596.373 65.52ZM588.693 62.52L588.187 63.3827L588.199 63.3893L588.21 63.3956L588.693 62.52ZM584.373 37.68L585.16 38.2969L585.168 38.2867L584.373 37.68ZM594.093 30.72L594.452 31.6534L594.461 31.6497L594.093 30.72ZM622.173 29.64L621.96 30.617L622.173 29.64ZM633.093 33.72L633.986 34.171L634.402 33.3477L633.615 32.8667L633.093 33.72ZM627.333 45.12L626.815 45.9755L627.739 46.5345L628.226 45.571L627.333 45.12ZM618.093 41.4L617.863 42.3731L617.877 42.3766L617.892 42.3796L618.093 41.4ZM598.773 42.36L598.254 41.5052L598.247 41.5094L598.24 41.5138L598.773 42.36ZM597.693 51.84L597.138 52.6721L597.693 51.84ZM603.333 54.12L603.099 55.0921L603.333 54.12ZM611.013 55.56L610.872 56.5499L610.887 56.5522L610.903 56.5539L611.013 55.56ZM619.533 57.12L619.782 56.1515L619.533 57.12ZM627.213 60.12L626.73 60.9956L626.748 61.0054L626.766 61.0144L627.213 60.12ZM631.533 84.48L630.756 83.8502L630.751 83.8566L630.746 83.8631L631.533 84.48ZM621.573 91.44L621.92 92.3777L621.928 92.3749L621.936 92.372L621.573 91.44ZM606.093 92.84C600.819 92.84 595.748 92.171 590.878 90.8356L590.349 92.7644C595.398 94.149 600.648 94.84 606.093 94.84V92.84ZM590.896 90.8409C586.077 89.4187 582.306 87.7369 579.544 85.8186L578.403 87.4614C581.4 89.5431 585.39 91.3012 590.33 92.7591L590.896 90.8409ZM579.866 87.091L585.626 75.691L583.841 74.789L578.081 86.189L579.866 87.091ZM584.195 76.0827C587.168 77.9821 590.696 79.5369 594.766 80.7578L595.34 78.8422C591.41 77.6631 588.059 76.1779 585.272 74.3973L584.195 76.0827ZM594.766 80.7578C598.855 81.9846 602.952 82.6 607.053 82.6V80.6C603.155 80.6 599.251 80.0154 595.34 78.8422L594.766 80.7578ZM607.053 82.6C611.814 82.6 615.451 81.9634 617.777 80.5317L616.729 78.8283C614.896 79.9566 611.732 80.6 607.053 80.6V82.6ZM617.763 80.5403C620.168 79.1149 621.493 77.0964 621.493 74.52H619.493C619.493 76.2636 618.658 77.6851 616.743 78.8197L617.763 80.5403ZM621.493 74.52C621.493 72.4298 620.607 70.7777 618.855 69.7067L617.812 71.4133C618.939 72.1023 619.493 73.0902 619.493 74.52H621.493ZM618.888 69.728C617.309 68.6757 615.298 67.9178 612.896 67.4207L612.491 69.3793C614.728 69.8422 616.477 70.5243 617.778 71.3921L618.888 69.728ZM612.896 67.4207C610.55 66.9354 607.928 66.4919 605.031 66.0895L604.756 68.0705C607.618 68.4681 610.196 68.9046 612.491 69.3793L612.896 67.4207ZM605.035 66.09C602.261 65.6938 599.446 65.1785 596.59 64.5438L596.156 66.4962C599.06 67.1415 601.925 67.6662 604.752 68.0699L605.035 66.09ZM596.622 64.5515C593.896 63.8506 591.416 62.8802 589.176 61.6444L588.21 63.3956C590.61 64.7198 593.25 65.7494 596.124 66.4885L596.622 64.5515ZM589.199 61.6573C587.013 60.3759 585.248 58.6857 583.894 56.5792L582.212 57.6608C583.738 60.0343 585.733 61.944 588.187 63.3827L589.199 61.6573ZM583.894 56.5792C582.591 54.5511 581.893 51.7989 581.893 48.24H579.893C579.893 52.0411 580.636 55.2089 582.212 57.6608L583.894 56.5792ZM581.893 48.24C581.893 44.3634 582.99 41.0656 585.16 38.2969L583.586 37.0631C581.116 40.2144 579.893 43.9566 579.893 48.24H581.893ZM585.168 38.2867C587.358 35.4167 590.436 33.1981 594.452 31.6533L593.734 29.7866C589.43 31.4419 586.028 33.8633 583.578 37.0733L585.168 38.2867ZM594.461 31.6497C598.558 30.0266 603.427 29.2 609.093 29.2V27.2C603.239 27.2 598.108 28.0534 593.725 29.7903L594.461 31.6497ZM609.093 29.2C613.339 29.2 617.627 29.6716 621.96 30.617L622.386 28.663C617.919 27.6884 613.488 27.2 609.093 27.2V29.2ZM621.96 30.617C626.285 31.5607 629.813 32.8872 632.572 34.5733L633.615 32.8667C630.614 31.0328 626.861 29.6393 622.386 28.663L621.96 30.617ZM632.201 33.269L626.441 44.669L628.226 45.571L633.986 34.171L632.201 33.269ZM627.851 44.2645C624.724 42.3721 621.538 41.0859 618.294 40.4204L617.892 42.3796C620.888 42.9941 623.862 44.1879 626.815 45.9755L627.851 44.2645ZM618.324 40.4269C615.21 39.6895 612.093 39.32 608.973 39.32V41.32C611.933 41.32 614.896 41.6705 617.863 42.3731L618.324 40.4269ZM608.973 39.32C604.349 39.32 600.728 40.0034 598.254 41.5052L599.292 43.2148C601.299 41.9966 604.478 41.32 608.973 41.32V39.32ZM598.24 41.5138C595.866 43.0089 594.533 45.0151 594.533 47.52H596.533C596.533 45.8649 597.361 44.4311 599.306 43.2062L598.24 41.5138ZM594.533 47.52C594.533 49.7313 595.386 51.5039 597.138 52.6721L598.248 51.0079C597.12 50.2561 596.533 49.1487 596.533 47.52H594.533ZM597.138 52.6721C598.705 53.7167 600.705 54.5142 603.099 55.0921L603.568 53.1479C601.322 52.6058 599.561 51.8833 598.248 51.0079L597.138 52.6721ZM603.099 55.0921C605.454 55.6607 608.046 56.1463 610.872 56.5499L611.155 54.5701C608.38 54.1737 605.852 53.6993 603.568 53.1479L603.099 55.0921ZM610.903 56.5539C613.736 56.8687 616.53 57.3802 619.284 58.0885L619.782 56.1515C616.937 55.4198 614.05 54.8913 611.124 54.5661L610.903 56.5539ZM619.284 58.0885C622.01 58.7894 624.49 59.7598 626.73 60.9956L627.696 59.2444C625.296 57.9202 622.656 56.8906 619.782 56.1515L619.284 58.0885ZM626.766 61.0144C629.006 62.1347 630.79 63.7331 632.132 65.8208L633.814 64.7392C632.276 62.3469 630.22 60.5053 627.66 59.2256L626.766 61.0144ZM632.132 65.8208C633.438 67.852 634.133 70.5662 634.133 74.04H636.133C636.133 70.3138 635.389 67.188 633.814 64.7392L632.132 65.8208ZM634.133 74.04C634.133 77.823 633.004 81.0777 630.756 83.8502L632.31 85.1098C634.862 81.9623 636.133 78.257 636.133 74.04H634.133ZM630.746 83.8631C628.56 86.6525 625.402 88.878 621.211 90.508L621.936 92.372C626.384 90.642 629.866 88.2276 632.32 85.0969L630.746 83.8631ZM621.226 90.5023C617.045 92.0507 612.009 92.84 606.093 92.84V94.84C612.178 94.84 617.461 94.0293 621.92 92.3777L621.226 90.5023ZM655.851 88.44L655.159 89.162L655.167 89.1695L655.851 88.44ZM650.091 14.76V13.76H649.091V14.76H650.091ZM665.091 14.76H666.091V13.76H665.091V14.76ZM667.371 78.96L666.629 79.6309L666.638 79.6404L666.647 79.6497L667.371 78.96ZM682.371 78.84L683.302 78.474L682.81 77.2235L681.753 78.0537L682.371 78.84ZM686.571 89.52L687.204 90.294L687.768 89.8324L687.502 89.154L686.571 89.52ZM680.091 92.76L680.362 93.7226L680.091 92.76ZM639.531 41.4H638.531V42.4H639.531V41.4ZM639.531 29.4V28.4H638.531V29.4H639.531ZM682.251 29.4H683.251V28.4H682.251V29.4ZM682.251 41.4V42.4H683.251V41.4H682.251ZM672.171 92.84C665.297 92.84 660.134 91.0848 656.535 87.7105L655.167 89.1695C659.248 92.9952 664.964 94.84 672.171 94.84V92.84ZM656.543 87.718C652.96 84.284 651.091 79.1833 651.091 72.24H649.091C649.091 79.5367 651.062 85.236 655.159 89.162L656.543 87.718ZM651.091 72.24V14.76H649.091V72.24H651.091ZM650.091 15.76H665.091V13.76H650.091V15.76ZM664.091 14.76V71.88H666.091V14.76H664.091ZM664.091 71.88C664.091 75.0819 664.893 77.7119 666.629 79.6309L668.112 78.2891C666.809 76.8481 666.091 74.7581 666.091 71.88H664.091ZM666.647 79.6497C668.474 81.568 670.958 82.48 673.971 82.48V80.48C671.384 80.48 669.468 79.712 668.095 78.2703L666.647 79.6497ZM673.971 82.48C677.513 82.48 680.542 81.5485 682.989 79.6263L681.753 78.0537C679.72 79.6515 677.149 80.48 673.971 80.48V82.48ZM681.44 79.206L685.64 89.886L687.502 89.154L683.302 78.474L681.44 79.206ZM685.938 88.746C684.301 90.0854 682.27 91.1084 679.82 91.7973L680.362 93.7226C683.032 92.9716 685.321 91.8346 687.204 90.294L685.938 88.746ZM679.82 91.7973C677.35 92.492 674.802 92.84 672.171 92.84V94.84C674.98 94.84 677.712 94.468 680.362 93.7226L679.82 91.7973ZM640.531 41.4V29.4H638.531V41.4H640.531ZM639.531 30.4H682.251V28.4H639.531V30.4ZM681.251 29.4V41.4H683.251V29.4H681.251ZM682.251 40.4H639.531V42.4H682.251V40.4ZM738.39 93H737.39V94H738.39V93ZM738.39 80.04H739.39V79.8912L739.347 79.7488L738.39 80.04ZM737.55 77.28H736.55V77.4288L736.594 77.5712L737.55 77.28ZM733.59 44.4L732.906 45.1288L732.912 45.1344L732.918 45.1399L733.59 44.4ZM710.91 42.36L710.607 41.4071L710.601 41.4091L710.91 42.36ZM702.15 47.04L701.27 47.5141L701.85 48.5918L702.791 47.8082L702.15 47.04ZM696.27 36.12L695.661 35.3267L694.986 35.8448L695.39 36.5941L696.27 36.12ZM708.51 30.24L708.772 31.2052L708.783 31.2021L708.51 30.24ZM744.87 34.92L744.206 35.6674L744.212 35.673L744.219 35.6784L744.87 34.92ZM752.55 93V94H753.55V93H752.55ZM705.63 91.44L705.207 92.3462L705.216 92.3501L705.224 92.3538L705.63 91.44ZM697.23 84.6L696.391 85.1442L696.4 85.1574L696.409 85.1704L697.23 84.6ZM696.87 64.92L696.017 64.3986L696.012 64.4073L696.007 64.4161L696.87 64.92ZM705.39 58.08L705.784 58.9991L705.39 58.08ZM739.59 55.56H740.59V54.56H739.59V55.56ZM739.59 65.52V66.52H740.59V65.52H739.59ZM711.75 68.04L712.423 68.7799L712.432 68.7718L712.441 68.7634L711.75 68.04ZM712.35 80.52L711.755 81.3236L712.35 80.52ZM731.19 80.4L730.697 79.5303L730.686 79.5362L731.19 80.4ZM737.55 72.96L738.513 72.6904L737.706 69.809L736.619 72.5965L737.55 72.96ZM740.07 81.96L741.004 82.3176L741.122 82.0088L741.033 81.6904L740.07 81.96ZM732.27 90.72L731.786 89.8449L731.778 89.8494L732.27 90.72ZM739.39 93V80.04H737.39V93H739.39ZM739.347 79.7488L738.507 76.9888L736.594 77.5712L737.434 80.3312L739.347 79.7488ZM738.55 77.28V54.6H736.55V77.28H738.55ZM738.55 54.6C738.55 49.9891 737.159 46.2925 734.263 43.6601L732.918 45.1399C735.302 47.3075 736.55 50.4109 736.55 54.6H738.55ZM734.275 43.6712C731.377 40.9492 727.085 39.68 721.59 39.68V41.68C726.816 41.68 730.523 42.8908 732.906 45.1288L734.275 43.6712ZM721.59 39.68C717.885 39.68 714.223 40.2567 710.607 41.4071L711.214 43.3129C714.638 42.2233 718.096 41.68 721.59 41.68V39.68ZM710.601 41.4091C707.059 42.5623 704.022 44.1787 701.51 46.2718L702.791 47.8082C705.079 45.9013 707.882 44.3977 711.22 43.3109L710.601 41.4091ZM703.031 46.5659L697.151 35.6459L695.39 36.5941L701.27 47.5141L703.031 46.5659ZM696.879 36.9133C700.203 34.3622 704.162 32.4554 708.772 31.2051L708.249 29.2749C703.419 30.5846 699.217 32.5978 695.661 35.3267L696.879 36.9133ZM708.783 31.2021C713.492 29.8679 718.36 29.2 723.39 29.2V27.2C718.181 27.2 713.129 27.8921 708.238 29.2779L708.783 31.2021ZM723.39 29.2C732.518 29.2 739.408 31.4026 744.206 35.6674L745.535 34.1726C740.253 29.4774 732.823 27.2 723.39 27.2V29.2ZM744.219 35.6784C749.043 39.8248 751.55 46.3371 751.55 55.44H753.55C753.55 45.9829 750.937 38.8152 745.522 34.1616L744.219 35.6784ZM751.55 55.44V93H753.55V55.44H751.55ZM752.55 92H738.39V94H752.55V92ZM718.23 92.84C713.54 92.84 709.484 92.0584 706.036 90.5262L705.224 92.3538C708.977 94.0216 713.32 94.84 718.23 94.84V92.84ZM706.053 90.5338C702.592 88.9184 699.938 86.7459 698.052 84.0296L696.409 85.1704C698.523 88.2141 701.469 90.6016 705.207 92.3462L706.053 90.5338ZM698.069 84.0558C696.259 81.265 695.35 78.1356 695.35 74.64H693.35C693.35 78.5044 694.362 82.015 696.391 85.1442L698.069 84.0558ZM695.35 74.64C695.35 71.2025 696.15 68.1388 697.734 65.4239L696.007 64.4161C694.23 67.4612 693.35 70.8775 693.35 74.64H695.35ZM697.724 65.4415C699.35 62.7802 702.004 60.6191 705.784 58.9991L704.996 57.1609C700.936 58.9009 697.911 61.2998 696.017 64.3986L697.724 65.4415ZM705.784 58.9991C709.532 57.3928 714.582 56.56 720.99 56.56V54.56C714.438 54.56 709.088 55.4072 704.996 57.1609L705.784 58.9991ZM720.99 56.56H739.59V54.56H720.99V56.56ZM738.59 55.56V65.52H740.59V55.56H738.59ZM739.59 64.52H722.07V66.52H739.59V64.52ZM722.07 64.52C719.463 64.52 717.237 64.7332 715.413 65.1785C713.595 65.6224 712.111 66.3128 711.06 67.3166L712.441 68.7634C713.149 68.0872 714.265 67.5176 715.888 67.1215C717.504 66.7268 719.558 66.52 722.07 66.52V64.52ZM711.078 67.3001C709.107 69.0915 708.11 71.3612 708.11 74.04H710.11C710.11 71.9188 710.874 70.1885 712.423 68.7799L711.078 67.3001ZM708.11 74.04C708.11 77.0724 709.337 79.5323 711.755 81.3236L712.946 79.7164C711.044 78.3077 710.11 76.4476 710.11 74.04H708.11ZM711.755 81.3236C714.147 83.0954 717.385 83.92 721.35 83.92V81.92C717.636 81.92 714.873 81.1446 712.946 79.7164L711.755 81.3236ZM721.35 83.92C725.189 83.92 728.646 83.042 731.694 81.2638L730.686 79.5362C727.975 81.118 724.872 81.92 721.35 81.92V83.92ZM731.684 81.2697C734.851 79.4721 737.122 76.8096 738.482 73.3235L736.619 72.5965C735.419 75.6704 733.45 77.9679 730.697 79.5303L731.684 81.2697ZM736.587 73.2296L739.107 82.2296L741.033 81.6904L738.513 72.6904L736.587 73.2296ZM739.136 81.6023C737.787 85.1268 735.355 87.8708 731.786 89.845L732.754 91.595C736.706 89.4092 739.474 86.3132 741.004 82.3176L739.136 81.6023ZM731.778 89.8494C728.291 91.8204 723.795 92.84 718.23 92.84V94.84C724.026 94.84 728.889 93.7796 732.762 91.5906L731.778 89.8494ZM821.841 31.2L821.394 32.0944L821.401 32.0979L821.841 31.2ZM831.441 40.44L830.568 40.9271L830.572 40.9343L831.441 40.44ZM834.921 93V94H835.921V93H834.921ZM819.921 93H818.921V94H819.921V93ZM815.841 45.48L815.113 46.166L815.118 46.1714L815.124 46.1768L815.841 45.48ZM795.321 43.44L795.789 44.3238L795.321 43.44ZM788.961 49.92L788.076 49.4532L788.072 49.4626L788.961 49.92ZM786.801 93V94H787.801V93H786.801ZM771.801 93H770.801V94H771.801V93ZM771.801 28.92V27.92H770.801V28.92H771.801ZM786.081 28.92H787.081V27.92H786.081V28.92ZM786.081 46.2L785.178 46.6307L787.081 46.2H786.081ZM783.561 40.92L782.684 40.4387L782.438 40.8881L782.658 41.3507L783.561 40.92ZM793.281 31.56L793.735 32.4511L793.741 32.4478L793.281 31.56ZM808.161 29.2C813.148 29.2 817.551 30.1733 821.394 32.0944L822.288 30.3056C818.13 28.2267 813.414 27.2 808.161 27.2V29.2ZM821.401 32.0979C825.289 34.0038 828.342 36.9358 830.568 40.9271L832.314 39.9529C829.9 35.6242 826.553 32.3962 822.281 30.3021L821.401 32.0979ZM830.572 40.9343C832.779 44.817 833.921 49.9104 833.921 56.28H835.921C835.921 49.6896 834.742 44.2229 832.31 39.9457L830.572 40.9343ZM833.921 56.28V93H835.921V56.28H833.921ZM834.921 92H819.921V94H834.921V92ZM820.921 93V58.2H818.921V93H820.921ZM820.921 58.2C820.921 52.3777 819.528 47.8401 816.558 44.7832L815.124 46.1768C817.594 48.7199 818.921 52.6623 818.921 58.2H820.921ZM816.569 44.794C813.695 41.7462 809.684 40.28 804.681 40.28V42.28C809.278 42.28 812.707 43.6138 815.113 46.166L816.569 44.794ZM804.681 40.28C801.021 40.28 797.737 41.0295 794.853 42.5562L795.789 44.3238C798.345 42.9704 801.3 42.28 804.681 42.28V40.28ZM794.853 42.5562C791.945 44.0958 789.685 46.4064 788.077 49.4532L789.845 50.3868C791.277 47.6736 793.257 45.6642 795.789 44.3238L794.853 42.5562ZM788.072 49.4626C786.537 52.4468 785.801 56.177 785.801 60.6H787.801C787.801 56.383 788.505 52.9932 789.85 50.3773L788.072 49.4626ZM785.801 60.6V93H787.801V60.6H785.801ZM786.801 92H771.801V94H786.801V92ZM772.801 93V28.92H770.801V93H772.801ZM771.801 29.92H786.081V27.92H771.801V29.92ZM785.081 28.92V46.2H787.081V28.92H785.081ZM786.983 45.7693L784.463 40.4893L782.658 41.3507L785.178 46.6307L786.983 45.7693ZM784.438 41.4013C786.579 37.5013 789.669 34.5221 793.735 32.451L792.827 30.669C788.412 32.9179 785.023 36.1787 782.684 40.4387L784.438 41.4013ZM793.741 32.4478C797.899 30.2919 802.697 29.2 808.161 29.2V27.2C802.425 27.2 797.303 28.3481 792.821 30.6722L793.741 32.4478ZM865.467 89.64L864.982 90.5148L864.99 90.5192L864.998 90.5235L865.467 89.64ZM853.227 77.88L852.368 78.3925L853.227 77.88ZM853.227 44.04L854.082 44.5586L854.085 44.5525L853.227 44.04ZM865.467 32.4L864.998 31.5165L864.992 31.5195L865.467 32.4ZM899.907 32.04L899.43 32.919L899.439 32.9238L899.448 32.9284L899.907 32.04ZM910.827 43.08L911.33 43.9438L912.146 43.4683L911.718 42.627L910.827 43.08ZM899.307 49.8L898.461 50.334L898.977 51.1502L899.81 50.6638L899.307 49.8ZM892.227 43.08L891.759 43.9639L891.769 43.9693L892.227 43.08ZM873.387 43.32L872.911 42.4403L873.387 43.32ZM866.427 50.28L867.296 50.7736L867.302 50.7637L866.427 50.28ZM866.427 71.76L865.551 72.2437L865.557 72.2536L866.427 71.76ZM873.387 78.6L873.862 77.7203L873.387 78.6ZM892.227 78.84L891.769 77.9506L891.759 77.9562L892.227 78.84ZM899.307 72.12L899.81 71.2562L898.977 70.7698L898.461 71.586L899.307 72.12ZM910.827 78.84L911.715 79.299L912.151 78.4549L911.33 77.9762L910.827 78.84ZM899.907 90L900.383 90.879L900.388 90.8762L899.907 90ZM883.467 92.84C876.889 92.84 871.054 91.4709 865.935 88.7565L864.998 90.5235C870.44 93.4091 876.604 94.84 883.467 94.84V92.84ZM865.951 88.7652C860.901 85.9682 856.952 82.1713 854.085 77.3675L852.368 78.3925C855.421 83.5087 859.632 87.5518 864.982 90.5148L865.951 88.7652ZM854.085 77.3675C851.226 72.5769 849.787 67.1171 849.787 60.96H847.787C847.787 67.4429 849.307 73.2631 852.368 78.3925L854.085 77.3675ZM849.787 60.96C849.787 54.7201 851.228 49.2639 854.082 44.5586L852.372 43.5214C849.306 48.5761 847.787 54.3999 847.787 60.96H849.787ZM854.085 44.5525C856.951 39.7512 860.896 35.9968 865.941 33.2805L864.992 31.5195C859.637 34.4032 855.423 38.4087 852.368 43.5275L854.085 44.5525ZM865.935 33.2835C871.054 30.5691 876.889 29.2 883.467 29.2V27.2C876.604 27.2 870.44 28.6309 864.998 31.5165L865.935 33.2835ZM883.467 29.2C889.567 29.2 894.878 30.4504 899.43 32.919L900.383 31.161C895.495 28.5096 889.846 27.2 883.467 27.2V29.2ZM899.448 32.9284C904.059 35.3109 907.549 38.8373 909.935 43.5331L911.718 42.627C909.144 37.5627 905.354 33.7291 900.366 31.1516L899.448 32.9284ZM910.323 42.2162L898.803 48.9362L899.81 50.6638L911.33 43.9438L910.323 42.2162ZM900.152 49.266C898.151 46.0969 895.664 43.7234 892.684 42.1907L891.769 43.9693C894.389 45.3166 896.623 47.4231 898.461 50.334L900.152 49.266ZM892.694 42.1962C889.824 40.6768 886.703 39.92 883.347 39.92V41.92C886.39 41.92 889.189 42.6032 891.759 43.9638L892.694 42.1962ZM883.347 39.92C879.516 39.92 876.031 40.7541 872.911 42.4403L873.862 44.1997C876.663 42.6859 879.817 41.92 883.347 41.92V39.92ZM872.911 42.4403C869.777 44.1344 867.321 46.5945 865.551 49.7963L867.302 50.7637C868.892 47.8855 871.076 45.7056 873.862 44.1997L872.911 42.4403ZM865.557 49.7864C863.774 52.927 862.907 56.6652 862.907 60.96H864.907C864.907 56.9348 865.719 53.553 867.296 50.7736L865.557 49.7864ZM862.907 60.96C862.907 65.2558 863.775 69.0289 865.551 72.2437L867.302 71.2763C865.718 68.4111 864.907 64.9842 864.907 60.96H862.907ZM865.557 72.2536C867.328 75.3747 869.784 77.7894 872.911 79.4797L873.862 77.7203C871.069 76.2106 868.885 74.0653 867.296 71.2664L865.557 72.2536ZM872.911 79.4797C876.031 81.1659 879.516 82 883.347 82V80C879.817 80 876.663 79.2341 873.862 77.7203L872.911 79.4797ZM883.347 82C886.703 82 889.824 81.2432 892.694 79.7238L891.759 77.9562C889.189 79.3168 886.39 80 883.347 80V82ZM892.684 79.7293C895.664 78.1966 898.151 75.8231 900.152 72.654L898.461 71.586C896.623 74.4969 894.389 76.6034 891.769 77.9507L892.684 79.7293ZM898.803 72.9838L910.323 79.7038L911.33 77.9762L899.81 71.2562L898.803 72.9838ZM909.938 78.381C907.551 83.0021 904.053 86.578 899.425 89.1238L900.388 90.8762C905.36 88.142 909.143 84.2779 911.715 79.299L909.938 78.381ZM899.43 89.121C894.878 91.5896 889.567 92.84 883.467 92.84V94.84C889.846 94.84 895.495 93.5304 900.383 90.879L899.43 89.121ZM934.256 89.64L933.777 90.5179L933.785 90.5222L933.793 90.5264L934.256 89.64ZM921.896 77.88L921.031 78.3822L921.037 78.3925L921.896 77.88ZM921.776 44.04L920.911 43.5379L920.908 43.5423L921.776 44.04ZM933.536 32.4L933.05 31.5258L933.044 31.5292L933.536 32.4ZM967.376 32.28L967.862 31.4065L967.376 32.28ZM978.896 43.8L978.025 44.2916L978.896 43.8ZM982.976 63.48L981.981 63.3805L981.976 63.4301V63.48H982.976ZM982.856 65.76V66.76H983.751L983.849 65.8704L982.856 65.76ZM929.456 65.76H928.456V66.76H929.456V65.76ZM929.456 55.8V54.8H928.456V55.8H929.456ZM974.936 55.8L975.404 56.6833L974.936 54.8V55.8ZM969.056 58.92L968.056 58.8983L968.019 60.6022L969.524 59.8033L969.056 58.92ZM966.776 49.2L965.907 49.6961L966.776 49.2ZM960.176 42.6L959.669 43.462L959.68 43.4682L960.176 42.6ZM940.976 42.6L940.479 41.7317L940.469 41.7381L940.976 42.6ZM934.496 49.32L933.621 48.8343L933.617 48.8429L934.496 49.32ZM942.296 78.72L941.848 79.6144L942.296 78.72ZM963.056 79.44L963.418 80.372L963.056 79.44ZM970.736 74.16L971.49 73.5036L970.762 72.6665L970.005 73.4777L970.736 74.16ZM978.776 83.4L979.535 84.0508L980.097 83.3951L979.53 82.7436L978.776 83.4ZM967.856 91.2L968.233 92.1261L968.241 92.1226L967.856 91.2ZM952.976 92.84C945.988 92.84 939.912 91.4668 934.719 88.7537L933.793 90.5264C939.319 93.4132 945.723 94.84 952.976 94.84V92.84ZM934.734 88.7621C929.605 85.9641 925.619 82.1675 922.754 77.3675L921.037 78.3925C924.092 83.5125 928.346 87.5559 933.777 90.5179L934.734 88.7621ZM922.76 77.3779C919.978 72.5856 918.576 67.1221 918.576 60.96H916.576C916.576 67.4379 918.053 73.2544 921.031 78.3821L922.76 77.3779ZM918.576 60.96C918.576 54.7102 919.941 49.2463 922.643 44.5377L920.908 43.5423C918.01 48.5937 916.576 54.4098 916.576 60.96H918.576ZM922.64 44.5421C925.432 39.7349 929.223 35.9827 934.027 33.2708L933.044 31.5292C927.928 34.4173 923.88 38.4251 920.911 43.5379L922.64 44.5421ZM934.021 33.2742C938.897 30.5655 944.446 29.2 950.696 29.2V27.2C944.145 27.2 938.254 28.6345 933.05 31.5258L934.021 33.2742ZM950.696 29.2C956.786 29.2 962.174 30.5258 966.889 33.1535L967.862 31.4065C962.817 28.5942 957.086 27.2 950.696 27.2V29.2ZM966.889 33.1535C971.605 35.7821 975.313 39.4885 978.025 44.2916L979.766 43.3084C976.878 38.1915 972.906 34.2179 967.862 31.4065L966.889 33.1535ZM978.025 44.2916C980.726 49.0766 982.096 54.7411 982.096 61.32H984.096C984.096 54.4589 982.665 48.4434 979.766 43.3084L978.025 44.2916ZM982.096 61.32C982.096 61.9196 982.058 62.6056 981.981 63.3805L983.971 63.5795C984.053 62.7544 984.096 62.0004 984.096 61.32H982.096ZM981.976 63.48C981.976 64.2469 981.937 64.9698 981.862 65.6496L983.849 65.8704C983.934 65.1102 983.976 64.3131 983.976 63.48H981.976ZM982.856 64.76H929.456V66.76H982.856V64.76ZM930.456 65.76V55.8H928.456V65.76H930.456ZM929.456 56.8H974.936V54.8H929.456V56.8ZM974.467 54.9166L968.587 58.0367L969.524 59.8033L975.404 56.6833L974.467 54.9166ZM970.055 58.9417C970.139 55.1065 969.346 51.6826 967.644 48.7039L965.907 49.6961C967.405 52.3174 968.133 55.3735 968.056 58.8983L970.055 58.9417ZM967.644 48.7039C965.955 45.7488 963.627 43.4203 960.672 41.7318L959.68 43.4682C962.324 44.9797 964.396 47.0512 965.907 49.6961L967.644 48.7039ZM960.683 41.7381C957.788 40.0355 954.448 39.2 950.696 39.2V41.2C954.143 41.2 957.123 41.9645 959.669 43.4619L960.683 41.7381ZM950.696 39.2C946.867 39.2 943.451 40.0338 940.479 41.7318L941.472 43.4682C944.1 41.9662 947.165 41.2 950.696 41.2V39.2ZM940.469 41.7381C937.588 43.4326 935.304 45.8056 933.621 48.8344L935.37 49.8056C936.887 47.0744 938.923 44.9674 941.483 43.4619L940.469 41.7381ZM933.617 48.8429C932.003 51.8166 931.216 55.3074 931.216 59.28H933.216C933.216 55.5726 933.949 52.4234 935.374 49.7971L933.617 48.8429ZM931.216 59.28V61.68H933.216V59.28H931.216ZM931.216 61.68C931.216 65.6786 932.134 69.2592 933.996 72.3911L935.715 71.3689C934.057 68.5808 933.216 65.3613 933.216 61.68H931.216ZM933.996 72.3911C935.858 75.5223 938.484 77.9323 941.848 79.6144L942.743 77.8256C939.707 76.3077 937.373 74.1577 935.715 71.3689L933.996 72.3911ZM941.848 79.6144C945.208 81.2943 949.046 82.12 953.336 82.12V80.12C949.306 80.12 945.783 79.3457 942.743 77.8256L941.848 79.6144ZM953.336 82.12C957.039 82.12 960.405 81.5437 963.418 80.372L962.693 78.508C959.946 79.5763 956.832 80.12 953.336 80.12V82.12ZM963.418 80.372C966.447 79.1942 969.131 77.3452 971.467 74.8423L970.005 73.4777C967.861 75.7748 965.424 77.4458 962.693 78.508L963.418 80.372ZM969.981 74.8164L978.021 84.0564L979.53 82.7436L971.49 73.5036L969.981 74.8164ZM978.016 82.7492C975.246 85.9817 971.737 88.4929 967.47 90.2774L968.241 92.1226C972.774 90.2271 976.546 87.5384 979.535 84.0508L978.016 82.7492ZM967.478 90.2739C963.3 91.9764 958.472 92.84 952.976 92.84V94.84C958.68 94.84 963.772 93.9436 968.233 92.1261L967.478 90.2739Z" fill="#0298DA" fill-opacity="0.4" mask="url(#path-1-outside-1_2_64)"/>
</svg>
