<svg width="525" height="51" viewBox="0 0 525 51" fill="none" xmlns="http://www.w3.org/2000/svg">
<mask id="path-1-outside-1_233_1048" maskUnits="userSpaceOnUse" x="-2" y="-1" width="528" height="53" fill="black">
<rect fill="white" x="-2" y="-1" width="528" height="53"/>
<path d="M18.024 50V32.272L19.88 37.392L0.424 5.2H9.32L24.936 31.12H19.944L35.688 5.2H43.88L24.424 37.392L26.344 32.272V50H18.024ZM60.108 50.448C56.6093 50.448 53.4947 49.7013 50.764 48.208C48.0333 46.672 45.8787 44.5813 44.3 41.936C42.7213 39.2907 41.932 36.2827 41.932 32.912C41.932 29.4987 42.7213 26.4907 44.3 23.888C45.8787 21.2427 48.0333 19.1733 50.764 17.68C53.4947 16.1867 56.6093 15.44 60.108 15.44C63.6493 15.44 66.7853 16.1867 69.516 17.68C72.2893 19.1733 74.444 21.2213 75.98 23.824C77.5587 26.4267 78.348 29.456 78.348 32.912C78.348 36.2827 77.5587 39.2907 75.98 41.936C74.444 44.5813 72.2893 46.672 69.516 48.208C66.7853 49.7013 63.6493 50.448 60.108 50.448ZM60.108 43.6C62.0707 43.6 63.82 43.1733 65.356 42.32C66.892 41.4667 68.0867 40.2293 68.94 38.608C69.836 36.9867 70.284 35.088 70.284 32.912C70.284 30.6933 69.836 28.7947 68.94 27.216C68.0867 25.5947 66.892 24.3573 65.356 23.504C63.82 22.6507 62.092 22.224 60.172 22.224C58.2093 22.224 56.46 22.6507 54.924 23.504C53.4307 24.3573 52.236 25.5947 51.34 27.216C50.444 28.7947 49.996 30.6933 49.996 32.912C49.996 35.088 50.444 36.9867 51.34 38.608C52.236 40.2293 53.4307 41.4667 54.924 42.32C56.46 43.1733 58.188 43.6 60.108 43.6ZM100.462 50.448C97.5607 50.448 95.0007 49.9147 92.782 48.848C90.5633 47.7387 88.8353 46.0747 87.598 43.856C86.3607 41.5947 85.742 38.7573 85.742 35.344V15.824H93.742V34.256C93.742 37.328 94.4247 39.632 95.79 41.168C97.198 42.6613 99.182 43.408 101.742 43.408C103.619 43.408 105.241 43.024 106.606 42.256C108.014 41.488 109.102 40.336 109.87 38.8C110.681 37.264 111.086 35.3653 111.086 33.104V15.824H119.086V50H111.47V40.784L112.814 43.6C111.662 45.8187 109.977 47.5253 107.758 48.72C105.539 49.872 103.107 50.448 100.462 50.448ZM129.561 50V15.824H137.177V25.232L136.281 22.48C137.305 20.176 138.905 18.4267 141.081 17.232C143.299 16.0373 146.051 15.44 149.337 15.44V23.056C148.995 22.9707 148.675 22.928 148.377 22.928C148.078 22.8853 147.779 22.864 147.481 22.864C144.451 22.864 142.041 23.76 140.249 25.552C138.457 27.3013 137.561 29.9253 137.561 33.424V50H129.561ZM166.996 50.448C164.137 50.448 161.385 50.0853 158.74 49.36C156.137 48.592 154.068 47.6747 152.532 46.608L155.604 40.528C157.14 41.5093 158.974 42.32 161.108 42.96C163.241 43.6 165.374 43.92 167.508 43.92C170.025 43.92 171.838 43.5787 172.948 42.896C174.1 42.2133 174.676 41.296 174.676 40.144C174.676 39.2053 174.292 38.5013 173.524 38.032C172.756 37.52 171.753 37.136 170.516 36.88C169.278 36.624 167.892 36.3893 166.356 36.176C164.862 35.9627 163.348 35.6853 161.812 35.344C160.318 34.96 158.953 34.4267 157.716 33.744C156.478 33.0187 155.476 32.0587 154.708 30.864C153.94 29.6693 153.556 28.0907 153.556 26.128C153.556 23.952 154.174 22.0747 155.411 20.496C156.649 18.8747 158.377 17.6373 160.595 16.784C162.857 15.888 165.524 15.44 168.596 15.44C170.9 15.44 173.225 15.696 175.572 16.208C177.918 16.72 179.86 17.4453 181.396 18.384L178.324 24.464C176.702 23.4827 175.06 22.8213 173.396 22.48C171.774 22.096 170.153 21.904 168.532 21.904C166.1 21.904 164.286 22.2667 163.092 22.992C161.94 23.7173 161.364 24.6347 161.364 25.744C161.364 26.768 161.748 27.536 162.516 28.048C163.284 28.56 164.286 28.9653 165.524 29.264C166.761 29.5627 168.126 29.8187 169.62 30.032C171.156 30.2027 172.67 30.48 174.164 30.864C175.657 31.248 177.022 31.7813 178.26 32.464C179.54 33.104 180.564 34.0213 181.332 35.216C182.1 36.4107 182.484 37.968 182.484 39.888C182.484 42.0213 181.844 43.8773 180.564 45.456C179.326 47.0347 177.556 48.272 175.252 49.168C172.948 50.0213 170.196 50.448 166.996 50.448ZM210.429 50V43.088L209.981 41.616V29.52C209.981 27.1733 209.277 25.36 207.869 24.08C206.461 22.7573 204.328 22.096 201.469 22.096C199.549 22.096 197.65 22.3947 195.773 22.992C193.938 23.5893 192.381 24.4213 191.101 25.488L187.965 19.664C189.8 18.256 191.976 17.2107 194.493 16.528C197.053 15.8027 199.698 15.44 202.429 15.44C207.378 15.44 211.197 16.6347 213.885 19.024C216.616 21.3707 217.981 25.0187 217.981 29.968V50H210.429ZM199.677 50.448C197.117 50.448 194.877 50.0213 192.957 49.168C191.037 48.272 189.544 47.056 188.477 45.52C187.453 43.9413 186.941 42.1707 186.941 40.208C186.941 38.288 187.389 36.56 188.285 35.024C189.224 33.488 190.738 32.272 192.829 31.376C194.92 30.48 197.693 30.032 201.149 30.032H211.069V35.344H201.725C198.994 35.344 197.16 35.792 196.221 36.688C195.282 37.5413 194.813 38.608 194.813 39.888C194.813 41.3387 195.389 42.4907 196.541 43.344C197.693 44.1973 199.293 44.624 201.341 44.624C203.304 44.624 205.053 44.176 206.589 43.28C208.168 42.384 209.298 41.0613 209.981 39.312L211.325 44.112C210.557 46.1173 209.17 47.6747 207.165 48.784C205.202 49.8933 202.706 50.448 199.677 50.448ZM238.808 50.448C235.949 50.448 233.197 50.0853 230.552 49.36C227.949 48.592 225.88 47.6747 224.344 46.608L227.416 40.528C228.952 41.5093 230.787 42.32 232.92 42.96C235.053 43.6 237.187 43.92 239.32 43.92C241.837 43.92 243.651 43.5787 244.76 42.896C245.912 42.2133 246.488 41.296 246.488 40.144C246.488 39.2053 246.104 38.5013 245.336 38.032C244.568 37.52 243.565 37.136 242.328 36.88C241.091 36.624 239.704 36.3893 238.168 36.176C236.675 35.9627 235.16 35.6853 233.624 35.344C232.131 34.96 230.765 34.4267 229.528 33.744C228.291 33.0187 227.288 32.0587 226.52 30.864C225.752 29.6693 225.368 28.0907 225.368 26.128C225.368 23.952 225.987 22.0747 227.224 20.496C228.461 18.8747 230.189 17.6373 232.408 16.784C234.669 15.888 237.336 15.44 240.408 15.44C242.712 15.44 245.037 15.696 247.384 16.208C249.731 16.72 251.672 17.4453 253.208 18.384L250.136 24.464C248.515 23.4827 246.872 22.8213 245.208 22.48C243.587 22.096 241.965 21.904 240.344 21.904C237.912 21.904 236.099 22.2667 234.904 22.992C233.752 23.7173 233.176 24.6347 233.176 25.744C233.176 26.768 233.56 27.536 234.328 28.048C235.096 28.56 236.099 28.9653 237.336 29.264C238.573 29.5627 239.939 29.8187 241.432 30.032C242.968 30.2027 244.483 30.48 245.976 30.864C247.469 31.248 248.835 31.7813 250.072 32.464C251.352 33.104 252.376 34.0213 253.144 35.216C253.912 36.4107 254.296 37.968 254.296 39.888C254.296 42.0213 253.656 43.8773 252.376 45.456C251.139 47.0347 249.368 48.272 247.064 49.168C244.76 50.0213 242.008 50.448 238.808 50.448ZM271.746 50.448C268.887 50.448 266.135 50.0853 263.49 49.36C260.887 48.592 258.818 47.6747 257.282 46.608L260.354 40.528C261.89 41.5093 263.724 42.32 265.858 42.96C267.991 43.6 270.124 43.92 272.258 43.92C274.775 43.92 276.588 43.5787 277.698 42.896C278.85 42.2133 279.426 41.296 279.426 40.144C279.426 39.2053 279.042 38.5013 278.274 38.032C277.506 37.52 276.503 37.136 275.266 36.88C274.028 36.624 272.642 36.3893 271.106 36.176C269.612 35.9627 268.098 35.6853 266.562 35.344C265.068 34.96 263.703 34.4267 262.466 33.744C261.228 33.0187 260.226 32.0587 259.458 30.864C258.69 29.6693 258.306 28.0907 258.306 26.128C258.306 23.952 258.924 22.0747 260.161 20.496C261.399 18.8747 263.127 17.6373 265.345 16.784C267.607 15.888 270.274 15.44 273.346 15.44C275.65 15.44 277.975 15.696 280.322 16.208C282.668 16.72 284.61 17.4453 286.146 18.384L283.074 24.464C281.452 23.4827 279.81 22.8213 278.146 22.48C276.524 22.096 274.903 21.904 273.282 21.904C270.85 21.904 269.036 22.2667 267.842 22.992C266.69 23.7173 266.114 24.6347 266.114 25.744C266.114 26.768 266.498 27.536 267.266 28.048C268.034 28.56 269.036 28.9653 270.274 29.264C271.511 29.5627 272.876 29.8187 274.37 30.032C275.906 30.2027 277.42 30.48 278.914 30.864C280.407 31.248 281.772 31.7813 283.01 32.464C284.29 33.104 285.314 34.0213 286.082 35.216C286.85 36.4107 287.234 37.968 287.234 39.888C287.234 42.0213 286.594 43.8773 285.314 45.456C284.076 47.0347 282.306 48.272 280.002 49.168C277.698 50.0213 274.946 50.448 271.746 50.448ZM294.123 50V15.824H302.123V50H294.123ZM298.155 10.192C296.662 10.192 295.424 9.72266 294.443 8.784C293.504 7.84533 293.035 6.71467 293.035 5.392C293.035 4.02666 293.504 2.896 294.443 2C295.424 1.06133 296.662 0.591999 298.155 0.591999C299.648 0.591999 300.864 1.04 301.803 1.936C302.784 2.78933 303.275 3.87733 303.275 5.2C303.275 6.608 302.806 7.80266 301.867 8.784C300.928 9.72266 299.691 10.192 298.155 10.192ZM323.183 50.448C320.324 50.448 317.572 50.0853 314.927 49.36C312.324 48.592 310.255 47.6747 308.719 46.608L311.791 40.528C313.327 41.5093 315.162 42.32 317.295 42.96C319.428 43.6 321.562 43.92 323.695 43.92C326.212 43.92 328.026 43.5787 329.135 42.896C330.287 42.2133 330.863 41.296 330.863 40.144C330.863 39.2053 330.479 38.5013 329.711 38.032C328.943 37.52 327.94 37.136 326.703 36.88C325.466 36.624 324.079 36.3893 322.543 36.176C321.05 35.9627 319.535 35.6853 317.999 35.344C316.506 34.96 315.14 34.4267 313.903 33.744C312.666 33.0187 311.663 32.0587 310.895 30.864C310.127 29.6693 309.743 28.0907 309.743 26.128C309.743 23.952 310.362 22.0747 311.599 20.496C312.836 18.8747 314.564 17.6373 316.783 16.784C319.044 15.888 321.711 15.44 324.783 15.44C327.087 15.44 329.412 15.696 331.759 16.208C334.106 16.72 336.047 17.4453 337.583 18.384L334.511 24.464C332.89 23.4827 331.247 22.8213 329.583 22.48C327.962 22.096 326.34 21.904 324.719 21.904C322.287 21.904 320.474 22.2667 319.279 22.992C318.127 23.7173 317.551 24.6347 317.551 25.744C317.551 26.768 317.935 27.536 318.703 28.048C319.471 28.56 320.474 28.9653 321.711 29.264C322.948 29.5627 324.314 29.8187 325.807 30.032C327.343 30.2027 328.858 30.48 330.351 30.864C331.844 31.248 333.21 31.7813 334.447 32.464C335.727 33.104 336.751 34.0213 337.519 35.216C338.287 36.4107 338.671 37.968 338.671 39.888C338.671 42.0213 338.031 43.8773 336.751 45.456C335.514 47.0347 333.743 48.272 331.439 49.168C329.135 50.0213 326.383 50.448 323.183 50.448ZM358.425 50.448C354.67 50.448 351.769 49.488 349.72 47.568C347.673 45.6053 346.649 42.7253 346.649 38.928V8.272H354.649V38.736C354.649 40.3573 355.054 41.616 355.865 42.512C356.718 43.408 357.891 43.856 359.385 43.856C361.177 43.856 362.67 43.3867 363.865 42.448L366.105 48.144C365.166 48.912 364.014 49.488 362.649 49.872C361.283 50.256 359.875 50.448 358.425 50.448ZM341.017 22.48V16.08H363.801V22.48H341.017ZM393.742 50V43.088L393.294 41.616V29.52C393.294 27.1733 392.59 25.36 391.182 24.08C389.774 22.7573 387.64 22.096 384.782 22.096C382.862 22.096 380.963 22.3947 379.086 22.992C377.251 23.5893 375.694 24.4213 374.414 25.488L371.278 19.664C373.112 18.256 375.288 17.2107 377.806 16.528C380.366 15.8027 383.011 15.44 385.742 15.44C390.691 15.44 394.51 16.6347 397.198 19.024C399.928 21.3707 401.294 25.0187 401.294 29.968V50H393.742ZM382.99 50.448C380.43 50.448 378.19 50.0213 376.27 49.168C374.35 48.272 372.856 47.056 371.79 45.52C370.766 43.9413 370.254 42.1707 370.254 40.208C370.254 38.288 370.702 36.56 371.598 35.024C372.536 33.488 374.051 32.272 376.142 31.376C378.232 30.48 381.006 30.032 384.462 30.032H394.382V35.344H385.038C382.307 35.344 380.472 35.792 379.534 36.688C378.595 37.5413 378.126 38.608 378.126 39.888C378.126 41.3387 378.702 42.4907 379.854 43.344C381.006 44.1973 382.606 44.624 384.654 44.624C386.616 44.624 388.366 44.176 389.902 43.28C391.48 42.384 392.611 41.0613 393.294 39.312L394.638 44.112C393.87 46.1173 392.483 47.6747 390.478 48.784C388.515 49.8933 386.019 50.448 382.99 50.448ZM430.953 15.44C433.683 15.44 436.115 15.9733 438.249 17.04C440.425 18.1067 442.131 19.7493 443.369 21.968C444.606 24.144 445.225 26.96 445.225 30.416V50H437.225V31.44C437.225 28.4107 436.499 26.1493 435.049 24.656C433.641 23.1627 431.657 22.416 429.097 22.416C427.219 22.416 425.555 22.8 424.105 23.568C422.654 24.336 421.523 25.488 420.713 27.024C419.945 28.5173 419.561 30.416 419.561 32.72V50H411.561V15.824H419.177V25.04L417.833 22.224C419.027 20.048 420.755 18.384 423.017 17.232C425.321 16.0373 427.966 15.44 430.953 15.44ZM471.116 50.448C467.532 50.448 464.332 49.7013 461.516 48.208C458.742 46.672 456.566 44.5813 454.988 41.936C453.409 39.2907 452.62 36.2827 452.62 32.912C452.62 29.4987 453.409 26.4907 454.988 23.888C456.566 21.2427 458.742 19.1733 461.516 17.68C464.332 16.1867 467.532 15.44 471.116 15.44C474.444 15.44 477.366 16.1227 479.884 17.488C482.444 18.8107 484.385 20.7733 485.708 23.376L479.564 26.96C478.54 25.3387 477.281 24.144 475.788 23.376C474.337 22.608 472.758 22.224 471.052 22.224C469.089 22.224 467.318 22.6507 465.74 23.504C464.161 24.3573 462.924 25.5947 462.028 27.216C461.132 28.7947 460.684 30.6933 460.684 32.912C460.684 35.1307 461.132 37.0507 462.028 38.672C462.924 40.2507 464.161 41.4667 465.74 42.32C467.318 43.1733 469.089 43.6 471.052 43.6C472.758 43.6 474.337 43.216 475.788 42.448C477.281 41.68 478.54 40.4853 479.564 38.864L485.708 42.448C484.385 45.008 482.444 46.992 479.884 48.4C477.366 49.7653 474.444 50.448 471.116 50.448ZM508.187 50.448C504.39 50.448 501.062 49.7013 498.203 48.208C495.387 46.672 493.19 44.5813 491.611 41.936C490.075 39.2907 489.307 36.2827 489.307 32.912C489.307 29.4987 490.054 26.4907 491.547 23.888C493.083 21.2427 495.174 19.1733 497.819 17.68C500.507 16.1867 503.558 15.44 506.971 15.44C510.299 15.44 513.264 16.1653 515.867 17.616C518.47 19.0667 520.518 21.1147 522.011 23.76C523.504 26.4053 524.251 29.52 524.251 33.104C524.251 33.4453 524.23 33.8293 524.187 34.256C524.187 34.6827 524.166 35.088 524.123 35.472H495.643V30.16H519.899L516.763 31.824C516.806 29.8613 516.4 28.1333 515.547 26.64C514.694 25.1467 513.52 23.9733 512.027 23.12C510.576 22.2667 508.891 21.84 506.971 21.84C505.008 21.84 503.28 22.2667 501.787 23.12C500.336 23.9733 499.184 25.168 498.331 26.704C497.52 28.1973 497.115 29.968 497.115 32.016V33.296C497.115 35.344 497.584 37.1573 498.523 38.736C499.462 40.3147 500.784 41.5307 502.491 42.384C504.198 43.2373 506.16 43.664 508.379 43.664C510.299 43.664 512.027 43.3653 513.563 42.768C515.099 42.1707 516.464 41.232 517.659 39.952L521.947 44.88C520.411 46.672 518.47 48.0587 516.123 49.04C513.819 49.9787 511.174 50.448 508.187 50.448Z"/>
</mask>
<path d="M18.024 50H17.024V51H18.024V50ZM18.024 32.272L18.9641 31.9312L17.024 32.272H18.024ZM19.88 37.392L19.0242 37.9092L20.8201 37.0512L19.88 37.392ZM0.424 5.2V4.2H-1.34882L-0.431837 5.71724L0.424 5.2ZM9.32 5.2L10.1766 4.68395L9.88499 4.2H9.32V5.2ZM24.936 31.12V32.12H26.7059L25.7926 30.6039L24.936 31.12ZM19.944 31.12L19.0893 30.6009L18.1666 32.12H19.944V31.12ZM35.688 5.2V4.2H35.1254L34.8333 4.68085L35.688 5.2ZM43.88 5.2L44.7358 5.71724L45.6528 4.2H43.88V5.2ZM24.424 37.392L23.4877 37.0409L25.2798 37.9092L24.424 37.392ZM26.344 32.272H27.344L25.4077 31.9209L26.344 32.272ZM26.344 50V51H27.344V50H26.344ZM19.024 50V32.272H17.024V50H19.024ZM17.0839 32.6128L18.9399 37.7328L20.8201 37.0512L18.9641 31.9312L17.0839 32.6128ZM20.7358 36.8748L1.27984 4.68275L-0.431837 5.71724L19.0242 37.9092L20.7358 36.8748ZM0.424 6.2H9.32V4.2H0.424V6.2ZM8.46344 5.71605L24.0794 31.636L25.7926 30.6039L10.1766 4.68395L8.46344 5.71605ZM24.936 30.12H19.944V32.12H24.936V30.12ZM20.7987 31.6391L36.5427 5.71914L34.8333 4.68085L19.0893 30.6009L20.7987 31.6391ZM35.688 6.2H43.88V4.2H35.688V6.2ZM43.0242 4.68275L23.5682 36.8748L25.2798 37.9092L44.7358 5.71724L43.0242 4.68275ZM25.3603 37.7431L27.2803 32.6231L25.4077 31.9209L23.4877 37.0409L25.3603 37.7431ZM25.344 32.272V50H27.344V32.272H25.344ZM26.344 49H18.024V51H26.344V49ZM50.764 48.208L50.2737 49.0796L50.2842 49.0854L50.764 48.208ZM44.3 41.936L43.4413 42.4485L43.4413 42.4485L44.3 41.936ZM44.3 23.888L45.155 24.4066L45.1587 24.4005L44.3 23.888ZM50.764 17.68L51.2438 18.5574L51.2438 18.5574L50.764 17.68ZM69.516 17.68L69.0362 18.5574L69.0419 18.5605L69.516 17.68ZM75.98 23.824L75.1187 24.3323L75.125 24.3426L75.98 23.824ZM75.98 41.936L75.1212 41.4235L75.1152 41.4339L75.98 41.936ZM69.516 48.208L69.9958 49.0854L70.0005 49.0828L69.516 48.208ZM65.356 42.32L64.8704 41.4458L64.8704 41.4458L65.356 42.32ZM68.94 38.608L68.0648 38.1243L68.0598 38.1332L68.0551 38.1423L68.94 38.608ZM68.94 27.216L68.0551 27.6817L68.0625 27.6958L68.0703 27.7096L68.94 27.216ZM65.356 23.504L65.8416 22.6298L65.8416 22.6298L65.356 23.504ZM54.924 23.504L54.4383 22.6298L54.4279 22.6358L54.924 23.504ZM51.34 27.216L52.2097 27.7096L52.2152 27.6997L51.34 27.216ZM51.34 38.608L50.4648 39.0917L50.4648 39.0917L51.34 38.608ZM54.924 42.32L54.4278 43.1883L54.4384 43.1942L54.924 42.32ZM60.108 49.448C56.7559 49.448 53.8098 48.7339 51.2438 47.3306L50.2842 49.0854C53.1795 50.6687 56.4628 51.448 60.108 51.448V49.448ZM51.2543 47.3364C48.6729 45.8844 46.6464 43.9164 45.1587 41.4235L43.4413 42.4485C45.1109 45.2462 47.3937 47.4596 50.2737 49.0796L51.2543 47.3364ZM45.1587 41.4235C43.6811 38.9475 42.932 36.1198 42.932 32.912H40.932C40.932 36.4456 41.7616 39.6338 43.4413 42.4485L45.1587 41.4235ZM42.932 32.912C42.932 29.6588 43.6823 26.8345 45.155 24.4066L43.445 23.3694C41.7603 26.1468 40.932 29.3386 40.932 32.912H42.932ZM45.1587 24.4005C46.6449 21.9101 48.6681 19.966 51.2438 18.5574L50.2842 16.8026C47.3986 18.3807 45.1124 20.5753 43.4413 23.3755L45.1587 24.4005ZM51.2438 18.5574C53.8098 17.1541 56.7559 16.44 60.108 16.44V14.44C56.4628 14.44 53.1795 15.2193 50.2842 16.8026L51.2438 18.5574ZM60.108 16.44C63.5051 16.44 66.4719 17.155 69.0362 18.5574L69.9958 16.8026C67.0988 15.2183 63.7936 14.44 60.108 14.44V16.44ZM69.0419 18.5605C71.6618 19.9712 73.6795 21.8934 75.1188 24.3323L76.8412 23.3157C75.2085 20.5492 72.9169 18.3755 69.9901 16.7995L69.0419 18.5605ZM75.125 24.3426C76.5965 26.7686 77.348 29.6136 77.348 32.912H79.348C79.348 29.2984 78.5208 26.0847 76.835 23.3054L75.125 24.3426ZM77.348 32.912C77.348 36.1198 76.5989 38.9475 75.1213 41.4235L76.8387 42.4485C78.5184 39.6338 79.348 36.4456 79.348 32.912H77.348ZM75.1152 41.4339C73.6734 43.917 71.6528 45.8814 69.0315 47.3332L70.0005 49.0828C72.9259 47.4626 75.2146 45.2456 76.8448 42.4381L75.1152 41.4339ZM69.0362 47.3306C66.4719 48.733 63.5051 49.448 60.108 49.448V51.448C63.7936 51.448 67.0988 50.6697 69.9958 49.0854L69.0362 47.3306ZM60.108 44.6C62.2203 44.6 64.1403 44.1393 65.8416 43.1942L64.8704 41.4458C63.4997 42.2073 61.921 42.6 60.108 42.6V44.6ZM65.8416 43.1942C67.5551 42.2422 68.8851 40.8594 69.8249 39.0737L68.0551 38.1423C67.2882 39.5993 66.2289 40.6911 64.8704 41.4458L65.8416 43.1942ZM69.8152 39.0917C70.8063 37.2983 71.284 35.2275 71.284 32.912H69.284C69.284 34.9485 68.8657 36.675 68.0648 38.1243L69.8152 39.0917ZM71.284 32.912C71.284 30.5585 70.8082 28.4816 69.8097 26.7224L68.0703 27.7096C68.8638 29.1077 69.284 30.8282 69.284 32.912H71.284ZM69.8249 26.7503C68.8851 24.9646 67.5551 23.5818 65.8416 22.6298L64.8704 24.3782C66.2289 25.1329 67.2882 26.2247 68.0551 27.6817L69.8249 26.7503ZM65.8416 22.6298C64.1436 21.6865 62.2458 21.224 60.172 21.224V23.224C61.9382 23.224 63.4964 23.6149 64.8704 24.3782L65.8416 22.6298ZM60.172 21.224C58.0597 21.224 56.1397 21.6847 54.4384 22.6298L55.4096 24.3782C56.7803 23.6167 58.359 23.224 60.172 23.224V21.224ZM54.4279 22.6358C52.763 23.5871 51.4424 24.9633 50.4648 26.7323L52.2152 27.6997C53.0296 26.226 54.0983 25.1276 55.4201 24.3722L54.4279 22.6358ZM50.4703 26.7224C49.4718 28.4816 48.996 30.5585 48.996 32.912H50.996C50.996 30.8282 51.4162 29.1077 52.2097 27.7096L50.4703 26.7224ZM48.996 32.912C48.996 35.2275 49.4737 37.2983 50.4648 39.0917L52.2152 38.1243C51.4143 36.675 50.996 34.9485 50.996 32.912H48.996ZM50.4648 39.0917C51.4424 40.8607 52.763 42.2369 54.4279 43.1882L55.4201 41.4518C54.0983 40.6964 53.0296 39.598 52.2152 38.1243L50.4648 39.0917ZM54.4384 43.1942C56.1364 44.1375 58.0342 44.6 60.108 44.6V42.6C58.3418 42.6 56.7836 42.2091 55.4096 41.4458L54.4384 43.1942ZM92.782 48.848L92.3348 49.7424L92.3417 49.7459L92.3487 49.7493L92.782 48.848ZM87.598 43.856L86.7207 44.336L86.7246 44.3431L87.598 43.856ZM85.742 15.824V14.824H84.742V15.824H85.742ZM93.742 15.824H94.742V14.824H93.742V15.824ZM95.79 41.168L95.0426 41.8324L95.0523 41.8433L95.0624 41.854L95.79 41.168ZM106.606 42.256L106.127 41.378L106.116 41.3844L106.606 42.256ZM109.87 38.8L108.986 38.3332L108.98 38.343L108.976 38.3528L109.87 38.8ZM111.086 15.824V14.824H110.086V15.824H111.086ZM119.086 15.824H120.086V14.824H119.086V15.824ZM119.086 50V51H120.086V50H119.086ZM111.47 50H110.47V51H111.47V50ZM111.47 40.784L112.372 40.3533L110.47 40.784H111.47ZM112.814 43.6L113.701 44.0608L113.931 43.6188L113.716 43.1693L112.814 43.6ZM107.758 48.72L108.219 49.6075L108.225 49.604L108.232 49.6005L107.758 48.72ZM100.462 49.448C97.6841 49.448 95.2767 48.9378 93.2153 47.9467L92.3487 49.7493C94.7246 50.8915 97.4372 51.448 100.462 51.448V49.448ZM93.2292 47.9536C91.1949 46.9364 89.6133 45.4166 88.4714 43.3689L86.7246 44.3431C88.0573 46.7328 89.9318 48.5409 92.3348 49.7424L93.2292 47.9536ZM88.4753 43.376C87.3404 41.3019 86.742 38.642 86.742 35.344H84.742C84.742 38.8726 85.381 41.8875 86.7207 44.336L88.4753 43.376ZM86.742 35.344V15.824H84.742V35.344H86.742ZM85.742 16.824H93.742V14.824H85.742V16.824ZM92.742 15.824V34.256H94.742V15.824H92.742ZM92.742 34.256C92.742 37.455 93.4503 40.0411 95.0426 41.8324L96.5374 40.5036C95.399 39.2229 94.742 37.201 94.742 34.256H92.742ZM95.0624 41.854C96.704 43.5951 98.9793 44.408 101.742 44.408V42.408C99.3847 42.408 97.692 41.7276 96.5176 40.482L95.0624 41.854ZM101.742 44.408C103.757 44.408 105.554 43.995 107.096 43.1276L106.116 41.3844C104.927 42.053 103.482 42.408 101.742 42.408V44.408ZM107.085 43.1339C108.685 42.2611 109.912 40.9522 110.764 39.2472L108.976 38.3528C108.292 39.7198 107.343 40.7149 106.127 41.3781L107.085 43.1339ZM110.754 39.2668C111.66 37.55 112.086 35.4805 112.086 33.104H110.086C110.086 35.2502 109.701 36.978 108.986 38.3332L110.754 39.2668ZM112.086 33.104V15.824H110.086V33.104H112.086ZM111.086 16.824H119.086V14.824H111.086V16.824ZM118.086 15.824V50H120.086V15.824H118.086ZM119.086 49H111.47V51H119.086V49ZM112.47 50V40.784H110.47V50H112.47ZM110.568 41.2147L111.912 44.0307L113.716 43.1693L112.372 40.3533L110.568 41.2147ZM111.927 43.1392C110.868 45.1781 109.327 46.7393 107.284 47.8395L108.232 49.6005C110.626 48.3114 112.456 46.4592 113.701 44.0608L111.927 43.1392ZM107.297 47.8325C105.229 48.9063 102.957 49.448 100.462 49.448V51.448C103.258 51.448 105.85 50.8377 108.219 49.6075L107.297 47.8325ZM129.561 50H128.561V51H129.561V50ZM129.561 15.824V14.824H128.561V15.824H129.561ZM137.177 15.824H138.177V14.824H137.177V15.824ZM137.177 25.232L136.226 25.5416L138.177 25.232H137.177ZM136.281 22.48L135.367 22.0739L135.211 22.4246L135.33 22.7896L136.281 22.48ZM141.081 17.232L140.606 16.3515L140.599 16.3554L141.081 17.232ZM149.337 15.44H150.337V14.44H149.337V15.44ZM149.337 23.056L149.094 24.0261L150.337 24.3368V23.056H149.337ZM148.377 22.928L148.235 23.9179L148.305 23.928H148.377V22.928ZM140.249 25.552L140.947 26.2676L140.956 26.2591L140.249 25.552ZM137.561 50V51H138.561V50H137.561ZM130.561 50V15.824H128.561V50H130.561ZM129.561 16.824H137.177V14.824H129.561V16.824ZM136.177 15.824V25.232H138.177V15.824H136.177ZM138.127 24.9224L137.231 22.1704L135.33 22.7896L136.226 25.5416L138.127 24.9224ZM137.194 22.8861C138.131 20.7787 139.581 19.1962 141.562 18.1086L140.599 16.3554C138.228 17.6571 136.478 19.5733 135.367 22.0739L137.194 22.8861ZM141.555 18.1125C143.59 17.0165 146.168 16.44 149.337 16.44V14.44C145.934 14.44 143.008 15.0582 140.606 16.3515L141.555 18.1125ZM148.337 15.44V23.056H150.337V15.44H148.337ZM149.579 22.0859C149.172 21.9841 148.77 21.928 148.377 21.928V23.928C148.58 23.928 148.818 23.9572 149.094 24.0261L149.579 22.0859ZM148.518 21.9381C148.173 21.8888 147.827 21.864 147.481 21.864V23.864C147.731 23.864 147.983 23.8819 148.235 23.9179L148.518 21.9381ZM147.481 21.864C144.241 21.864 141.557 22.8294 139.541 24.8449L140.956 26.2591C142.524 24.6906 144.661 23.864 147.481 23.864V21.864ZM139.55 24.8364C137.499 26.8385 136.561 29.765 136.561 33.424H138.561C138.561 30.0857 139.414 27.7642 140.947 26.2676L139.55 24.8364ZM136.561 33.424V50H138.561V33.424H136.561ZM137.561 49H129.561V51H137.561V49ZM158.74 49.36L158.456 50.3191L158.466 50.3218L158.475 50.3244L158.74 49.36ZM152.532 46.608L151.639 46.157L151.247 46.9333L151.961 47.4294L152.532 46.608ZM155.604 40.528L156.142 39.6853L155.21 39.0898L154.711 40.077L155.604 40.528ZM161.108 42.96L161.395 42.0022L161.395 42.0022L161.108 42.96ZM172.948 42.896L172.438 42.0357L172.431 42.04L172.423 42.0443L172.948 42.896ZM173.524 38.032L172.969 38.864L172.985 38.875L173.002 38.8853L173.524 38.032ZM166.356 36.176L166.214 37.166L166.218 37.1665L166.356 36.176ZM161.812 35.344L161.562 36.3125L161.578 36.3166L161.595 36.3202L161.812 35.344ZM157.716 33.744L157.21 34.6067L157.221 34.6133L157.232 34.6196L157.716 33.744ZM155.411 20.496L156.199 21.1129L156.206 21.1027L155.411 20.496ZM160.595 16.784L160.954 17.7174L160.964 17.7137L160.595 16.784ZM175.572 16.208L175.358 17.185L175.358 17.185L175.572 16.208ZM181.396 18.384L182.288 18.835L182.704 18.0117L181.917 17.5307L181.396 18.384ZM178.324 24.464L177.806 25.3195L178.729 25.8785L179.216 24.915L178.324 24.464ZM173.396 22.48L173.165 23.4531L173.18 23.4566L173.195 23.4596L173.396 22.48ZM163.092 22.992L162.573 22.1372L162.566 22.1414L162.559 22.1458L163.092 22.992ZM162.516 28.048L161.961 28.88L161.961 28.88L162.516 28.048ZM165.524 29.264L165.289 30.2361L165.289 30.2361L165.524 29.264ZM169.62 30.032L169.478 31.0219L169.494 31.0242L169.509 31.0259L169.62 30.032ZM174.164 30.864L174.413 29.8955L174.413 29.8955L174.164 30.864ZM178.26 32.464L177.776 33.3396L177.794 33.3494L177.812 33.3584L178.26 32.464ZM180.564 45.456L179.787 44.8262L179.782 44.8326L179.776 44.8391L180.564 45.456ZM175.252 49.168L175.599 50.1057L175.606 50.1029L175.614 50.1L175.252 49.168ZM166.996 49.448C164.222 49.448 161.56 49.0963 159.004 48.3956L158.475 50.3244C161.21 51.0743 164.051 51.448 166.996 51.448V49.448ZM159.023 48.4009C156.48 47.6507 154.52 46.7715 153.102 45.7866L151.961 47.4294C153.615 48.5778 155.793 49.5333 158.456 50.3191L159.023 48.4009ZM153.424 47.059L156.496 40.979L154.711 40.077L151.639 46.157L153.424 47.059ZM155.065 41.3707C156.694 42.4114 158.617 43.2569 160.82 43.9178L161.395 42.0022C159.331 41.3831 157.585 40.6072 156.142 39.6853L155.065 41.3707ZM160.82 43.9178C163.043 44.5846 165.273 44.92 167.508 44.92V42.92C165.476 42.92 163.439 42.6154 161.395 42.0022L160.82 43.9178ZM167.508 44.92C170.066 44.92 172.116 44.5821 173.472 43.7477L172.423 42.0443C171.561 42.5752 169.984 42.92 167.508 42.92V44.92ZM173.457 43.7563C174.855 42.9283 175.676 41.7124 175.676 40.144H173.676C173.676 40.8796 173.344 41.4984 172.438 42.0357L173.457 43.7563ZM175.676 40.144C175.676 38.8752 175.125 37.839 174.045 37.1787L173.002 38.8853C173.458 39.1637 173.676 39.5355 173.676 40.144H175.676ZM174.078 37.1999C173.172 36.5957 172.038 36.1738 170.718 35.9007L170.313 37.8593C171.468 38.0982 172.339 38.4443 172.969 38.864L174.078 37.1999ZM170.718 35.9007C169.455 35.6394 168.046 35.4012 166.493 35.1855L166.218 37.1665C167.737 37.3774 169.101 37.6086 170.313 37.8593L170.718 35.9007ZM166.497 35.1861C165.03 34.9765 163.541 34.7038 162.028 34.3678L161.595 36.3202C163.154 36.6668 164.694 36.9488 166.214 37.1659L166.497 35.1861ZM162.061 34.3755C160.641 34.0106 159.356 33.5069 158.199 32.8684L157.232 34.6196C158.55 35.3465 159.995 35.9094 161.562 36.3125L162.061 34.3755ZM158.221 32.8813C157.118 32.2346 156.231 31.3844 155.549 30.3232L153.866 31.4048C154.72 32.733 155.838 33.8027 157.21 34.6067L158.221 32.8813ZM155.549 30.3232C154.917 29.3405 154.556 27.9695 154.556 26.128H152.556C152.556 28.2118 152.962 29.9982 153.866 31.4048L155.549 30.3232ZM154.556 26.128C154.556 24.1554 155.111 22.5002 156.199 21.1129L154.624 19.8791C153.237 21.6491 152.556 23.7486 152.556 26.128H154.556ZM156.206 21.1027C157.314 19.6514 158.88 18.5154 160.954 17.7173L160.237 15.8507C157.874 16.7593 155.984 18.0979 154.617 19.8893L156.206 21.1027ZM160.964 17.7137C163.082 16.8746 165.618 16.44 168.596 16.44V14.44C165.429 14.44 162.632 14.9014 160.227 15.8543L160.964 17.7137ZM168.596 16.44C170.825 16.44 173.079 16.6876 175.358 17.185L175.785 15.231C173.371 14.7044 170.974 14.44 168.596 14.44V16.44ZM175.358 17.185C177.63 17.6807 179.459 18.3725 180.874 19.2373L181.917 17.5307C180.26 16.5181 178.206 15.7593 175.785 15.231L175.358 17.185ZM180.503 17.933L177.431 24.013L179.216 24.915L182.288 18.835L180.503 17.933ZM178.841 23.6085C177.133 22.5748 175.385 21.8672 173.596 21.5004L173.195 23.4596C174.734 23.7755 176.271 24.3905 177.806 25.3195L178.841 23.6085ZM173.626 21.5069C171.931 21.1055 170.233 20.904 168.532 20.904V22.904C170.073 22.904 171.617 23.0865 173.165 23.4531L173.626 21.5069ZM168.532 20.904C166.035 20.904 164.001 21.27 162.573 22.1372L163.61 23.8468C164.572 23.2633 166.164 22.904 168.532 22.904V20.904ZM162.559 22.1458C161.192 23.0062 160.364 24.2098 160.364 25.744H162.364C162.364 25.0595 162.687 24.4284 163.624 23.8382L162.559 22.1458ZM160.364 25.744C160.364 27.0593 160.881 28.1599 161.961 28.88L163.07 27.2159C162.614 26.9121 162.364 26.4767 162.364 25.744H160.364ZM161.961 28.88C162.856 29.4767 163.978 29.9196 165.289 30.2361L165.758 28.2919C164.595 28.0111 163.711 27.6433 163.07 27.2159L161.961 28.88ZM165.289 30.2361C166.562 30.5434 167.959 30.8049 169.478 31.0219L169.761 29.0421C168.293 28.8324 166.96 28.5819 165.758 28.2919L165.289 30.2361ZM169.509 31.0259C170.998 31.1914 172.467 31.4602 173.914 31.8325L174.413 29.8955C172.874 29.4998 171.313 29.214 169.73 29.0381L169.509 31.0259ZM173.914 31.8325C175.334 32.1974 176.619 32.7011 177.776 33.3396L178.743 31.5884C177.425 30.8615 175.98 30.2986 174.413 29.8955L173.914 31.8325ZM177.812 33.3584C178.933 33.9187 179.82 34.7144 180.49 35.7568L182.173 34.6752C181.307 33.3282 180.146 32.2893 178.707 31.5696L177.812 33.3584ZM180.49 35.7568C181.124 36.7426 181.484 38.0942 181.484 39.888H183.484C183.484 37.8418 183.075 36.0787 182.173 34.6752L180.49 35.7568ZM181.484 39.888C181.484 41.8043 180.915 43.435 179.787 44.8262L181.34 46.0858C182.772 44.3197 183.484 42.2384 183.484 39.888H181.484ZM179.776 44.8391C178.673 46.2471 177.064 47.39 174.889 48.236L175.614 50.1C178.047 49.154 179.979 47.8222 181.351 46.0729L179.776 44.8391ZM174.904 48.2303C172.739 49.0321 170.111 49.448 166.996 49.448V51.448C170.28 51.448 173.156 51.0106 175.599 50.1057L174.904 48.2303ZM210.429 50H209.429V51H210.429V50ZM210.429 43.088H211.429V42.9392L211.386 42.7968L210.429 43.088ZM209.981 41.616H208.981V41.7648L209.024 41.9072L209.981 41.616ZM207.869 24.08L207.184 24.8088L207.19 24.8144L207.196 24.8199L207.869 24.08ZM195.773 22.992L195.47 22.0391L195.463 22.0411L195.773 22.992ZM191.101 25.488L190.221 25.9621L190.801 27.0398L191.741 26.2562L191.101 25.488ZM187.965 19.664L187.356 18.8707L186.681 19.3888L187.085 20.1381L187.965 19.664ZM194.493 16.528L194.755 17.4932L194.766 17.4901L194.493 16.528ZM213.885 19.024L213.221 19.7714L213.227 19.777L213.233 19.7824L213.885 19.024ZM217.981 50V51H218.981V50H217.981ZM192.957 49.168L192.534 50.0742L192.542 50.0781L192.551 50.0818L192.957 49.168ZM188.477 45.52L187.638 46.0642L187.647 46.0774L187.656 46.0904L188.477 45.52ZM188.285 35.024L187.432 34.5025L187.426 34.5113L187.421 34.5201L188.285 35.024ZM192.829 31.376L193.223 32.2951L193.223 32.2951L192.829 31.376ZM211.069 30.032H212.069V29.032H211.069V30.032ZM211.069 35.344V36.344H212.069V35.344H211.069ZM196.221 36.688L196.894 37.4279L196.903 37.4198L196.911 37.4114L196.221 36.688ZM196.541 43.344L195.946 44.1476L195.946 44.1476L196.541 43.344ZM206.589 43.28L206.095 42.4103L206.085 42.4162L206.589 43.28ZM209.981 39.312L210.944 39.0424L210.137 36.161L209.049 38.9485L209.981 39.312ZM211.325 44.112L212.259 44.4696L212.377 44.1608L212.288 43.8424L211.325 44.112ZM207.165 48.784L206.681 47.9089L206.673 47.9134L207.165 48.784ZM211.429 50V43.088H209.429V50H211.429ZM211.386 42.7968L210.938 41.3248L209.024 41.9072L209.472 43.3792L211.386 42.7968ZM210.981 41.616V29.52H208.981V41.616H210.981ZM210.981 29.52C210.981 26.9624 210.205 24.8525 208.542 23.3401L207.196 24.8199C208.349 25.8675 208.981 27.3843 208.981 29.52H210.981ZM208.554 23.3511C206.888 21.7865 204.462 21.096 201.469 21.096V23.096C204.193 23.096 206.034 23.7281 207.184 24.8088L208.554 23.3511ZM201.469 21.096C199.443 21.096 197.443 21.4114 195.47 22.0391L196.076 23.9449C197.858 23.378 199.655 23.096 201.469 23.096V21.096ZM195.463 22.0411C193.527 22.6717 191.853 23.56 190.461 24.7198L191.741 26.2562C192.909 25.2827 194.35 24.507 196.083 23.9429L195.463 22.0411ZM191.981 25.0139L188.845 19.1899L187.085 20.1381L190.221 25.9621L191.981 25.0139ZM188.574 20.4573C190.293 19.1382 192.347 18.146 194.755 17.4931L194.231 15.5629C191.604 16.2753 189.307 17.3738 187.356 18.8707L188.574 20.4573ZM194.766 17.4901C197.235 16.7906 199.788 16.44 202.429 16.44V14.44C199.609 14.44 196.871 14.8148 194.22 15.5659L194.766 17.4901ZM202.429 16.44C207.226 16.44 210.775 17.5972 213.221 19.7714L214.549 18.2766C211.619 15.6721 207.531 14.44 202.429 14.44V16.44ZM213.233 19.7824C215.669 21.8755 216.981 25.1958 216.981 29.968H218.981C218.981 24.8415 217.563 20.8659 214.537 18.2656L213.233 19.7824ZM216.981 29.968V50H218.981V29.968H216.981ZM217.981 49H210.429V51H217.981V49ZM199.677 49.448C197.227 49.448 195.131 49.0397 193.363 48.2542L192.551 50.0818C194.623 51.003 197.007 51.448 199.677 51.448V49.448ZM193.38 48.2618C191.598 47.4304 190.251 46.3219 189.298 44.9496L187.656 46.0904C188.836 47.7901 190.476 49.1136 192.534 50.0742L193.38 48.2618ZM189.316 44.9758C188.402 43.5664 187.941 41.9863 187.941 40.208H185.941C185.941 42.3551 186.504 44.3163 187.638 46.0642L189.316 44.9758ZM187.941 40.208C187.941 38.4505 188.349 36.8988 189.149 35.5279L187.421 34.5201C186.429 36.2212 185.941 38.1255 185.941 40.208H187.941ZM189.138 35.5454C189.943 34.2282 191.272 33.1311 193.223 32.2951L192.435 30.4569C190.204 31.4129 188.504 32.7478 187.432 34.5025L189.138 35.5454ZM193.223 32.2951C195.142 31.4728 197.765 31.032 201.149 31.032V29.032C197.621 29.032 194.698 29.4872 192.435 30.4569L193.223 32.2951ZM201.149 31.032H211.069V29.032H201.149V31.032ZM210.069 30.032V35.344H212.069V30.032H210.069ZM211.069 34.344H201.725V36.344H211.069V34.344ZM201.725 34.344C200.312 34.344 199.085 34.4592 198.064 34.7085C197.049 34.9564 196.171 35.3528 195.531 35.9646L196.911 37.4114C197.209 37.1272 197.719 36.8516 198.538 36.6515C199.352 36.4528 200.407 36.344 201.725 36.344V34.344ZM195.548 35.9481C194.399 36.9929 193.813 38.3292 193.813 39.888H195.813C195.813 38.8868 196.166 38.0898 196.894 37.4279L195.548 35.9481ZM193.813 39.888C193.813 41.6511 194.536 43.103 195.946 44.1476L197.136 42.5404C196.242 41.8783 195.813 41.0263 195.813 39.888H193.813ZM195.946 44.1476C197.33 45.1728 199.167 45.624 201.341 45.624V43.624C199.419 43.624 198.056 43.2219 197.136 42.5404L195.946 44.1476ZM201.341 45.624C203.462 45.624 205.388 45.138 207.093 44.1438L206.085 42.4162C204.718 43.214 203.145 43.624 201.341 43.624V45.624ZM207.083 44.1497C208.868 43.1361 210.15 41.6309 210.913 39.6755L209.049 38.9485C208.447 40.4918 207.467 41.6319 206.095 42.4103L207.083 44.1497ZM209.018 39.5816L210.362 44.3816L212.288 43.8424L210.944 39.0424L209.018 39.5816ZM210.391 43.7544C209.713 45.5241 208.495 46.9054 206.681 47.909L207.649 49.659C209.846 48.4439 211.401 46.7105 212.259 44.4696L210.391 43.7544ZM206.673 47.9134C204.903 48.9137 202.591 49.448 199.677 49.448V51.448C202.822 51.448 205.501 50.873 207.657 49.6546L206.673 47.9134ZM230.552 49.36L230.269 50.3191L230.278 50.3218L230.288 50.3244L230.552 49.36ZM224.344 46.608L223.451 46.157L223.059 46.9333L223.774 47.4294L224.344 46.608ZM227.416 40.528L227.954 39.6853L227.022 39.0898L226.523 40.077L227.416 40.528ZM232.92 42.96L233.207 42.0022L233.207 42.0022L232.92 42.96ZM244.76 42.896L244.25 42.0357L244.243 42.04L244.236 42.0443L244.76 42.896ZM245.336 38.032L244.781 38.864L244.798 38.875L244.815 38.8853L245.336 38.032ZM238.168 36.176L238.027 37.166L238.03 37.1665L238.168 36.176ZM233.624 35.344L233.375 36.3125L233.391 36.3166L233.407 36.3202L233.624 35.344ZM229.528 33.744L229.022 34.6067L229.034 34.6133L229.045 34.6196L229.528 33.744ZM227.224 20.496L228.011 21.1129L228.019 21.1027L227.224 20.496ZM232.408 16.784L232.767 17.7174L232.776 17.7137L232.408 16.784ZM247.384 16.208L247.171 17.185L247.171 17.185L247.384 16.208ZM253.208 18.384L254.101 18.835L254.517 18.0117L253.729 17.5307L253.208 18.384ZM250.136 24.464L249.618 25.3195L250.542 25.8785L251.029 24.915L250.136 24.464ZM245.208 22.48L244.978 23.4531L244.992 23.4566L245.007 23.4596L245.208 22.48ZM234.904 22.992L234.385 22.1372L234.378 22.1414L234.371 22.1458L234.904 22.992ZM234.328 28.048L233.773 28.88L233.773 28.88L234.328 28.048ZM237.336 29.264L237.101 30.2361L237.101 30.2361L237.336 29.264ZM241.432 30.032L241.291 31.0219L241.306 31.0242L241.322 31.0259L241.432 30.032ZM245.976 30.864L246.225 29.8955L246.225 29.8955L245.976 30.864ZM250.072 32.464L249.589 33.3396L249.607 33.3494L249.625 33.3584L250.072 32.464ZM252.376 45.456L251.599 44.8262L251.594 44.8326L251.589 44.8391L252.376 45.456ZM247.064 49.168L247.411 50.1057L247.419 50.1029L247.426 50.1L247.064 49.168ZM238.808 49.448C236.035 49.448 233.372 49.0963 230.816 48.3956L230.288 50.3244C233.023 51.0743 235.864 51.448 238.808 51.448V49.448ZM230.835 48.4009C228.293 47.6507 226.333 46.7715 224.914 45.7866L223.774 47.4294C225.427 48.5778 227.606 49.5333 230.269 50.3191L230.835 48.4009ZM225.237 47.059L228.309 40.979L226.523 40.077L223.451 46.157L225.237 47.059ZM226.878 41.3707C228.507 42.4114 230.43 43.2569 232.633 43.9178L233.207 42.0022C231.144 41.3831 229.397 40.6072 227.954 39.6853L226.878 41.3707ZM232.633 43.9178C234.855 44.5846 237.085 44.92 239.32 44.92V42.92C237.288 42.92 235.252 42.6154 233.207 42.0022L232.633 43.9178ZM239.32 44.92C241.878 44.92 243.928 44.5821 245.284 43.7477L244.236 42.0443C243.373 42.5752 241.796 42.92 239.32 42.92V44.92ZM245.27 43.7563C246.667 42.9283 247.488 41.7124 247.488 40.144H245.488C245.488 40.8796 245.157 41.4984 244.25 42.0357L245.27 43.7563ZM247.488 40.144C247.488 38.8752 246.938 37.839 245.857 37.1787L244.815 38.8853C245.27 39.1637 245.488 39.5355 245.488 40.144H247.488ZM245.891 37.1999C244.984 36.5957 243.85 36.1738 242.531 35.9007L242.125 37.8593C243.28 38.0982 244.152 38.4443 244.781 38.864L245.891 37.1999ZM242.531 35.9007C241.268 35.6394 239.859 35.4012 238.306 35.1855L238.03 37.1665C239.549 37.3774 240.914 37.6086 242.125 37.8593L242.531 35.9007ZM238.309 35.1861C236.842 34.9765 235.353 34.7038 233.841 34.3678L233.407 36.3202C234.967 36.6668 236.507 36.9488 238.027 37.1659L238.309 35.1861ZM233.873 34.3755C232.454 34.0106 231.168 33.5069 230.011 32.8684L229.045 34.6196C230.362 35.3465 231.807 35.9094 233.375 36.3125L233.873 34.3755ZM230.034 32.8813C228.931 32.2346 228.043 31.3844 227.361 30.3232L225.679 31.4048C226.533 32.733 227.651 33.8027 229.022 34.6067L230.034 32.8813ZM227.361 30.3232C226.729 29.3405 226.368 27.9695 226.368 26.128H224.368C224.368 28.2118 224.775 29.9982 225.679 31.4048L227.361 30.3232ZM226.368 26.128C226.368 24.1554 226.924 22.5002 228.011 21.1129L226.437 19.8791C225.05 21.6491 224.368 23.7486 224.368 26.128H226.368ZM228.019 21.1027C229.127 19.6514 230.692 18.5154 232.767 17.7173L232.049 15.8507C229.687 16.7593 227.796 18.0979 226.429 19.8893L228.019 21.1027ZM232.776 17.7137C234.894 16.8746 237.43 16.44 240.408 16.44V14.44C237.242 14.44 234.445 14.9014 232.04 15.8543L232.776 17.7137ZM240.408 16.44C242.637 16.44 244.891 16.6876 247.171 17.185L247.597 15.231C245.183 14.7044 242.787 14.44 240.408 14.44V16.44ZM247.171 17.185C249.443 17.6807 251.272 18.3725 252.687 19.2373L253.729 17.5307C252.072 16.5181 250.019 15.7593 247.597 15.231L247.171 17.185ZM252.315 17.933L249.243 24.013L251.029 24.915L254.101 18.835L252.315 17.933ZM250.654 23.6085C248.946 22.5748 247.197 21.8672 245.409 21.5004L245.007 23.4596C246.547 23.7755 248.083 24.3905 249.618 25.3195L250.654 23.6085ZM245.438 21.5069C243.744 21.1055 242.045 20.904 240.344 20.904V22.904C241.886 22.904 243.43 23.0865 244.978 23.4531L245.438 21.5069ZM240.344 20.904C237.847 20.904 235.813 21.27 234.385 22.1372L235.423 23.8468C236.384 23.2633 237.977 22.904 240.344 22.904V20.904ZM234.371 22.1458C233.005 23.0062 232.176 24.2098 232.176 25.744H234.176C234.176 25.0595 234.499 24.4284 235.437 23.8382L234.371 22.1458ZM232.176 25.744C232.176 27.0593 232.693 28.1599 233.773 28.88L234.883 27.2159C234.427 26.9121 234.176 26.4767 234.176 25.744H232.176ZM233.773 28.88C234.668 29.4767 235.79 29.9196 237.101 30.2361L237.571 28.2919C236.407 28.0111 235.524 27.6433 234.883 27.2159L233.773 28.88ZM237.101 30.2361C238.374 30.5434 239.771 30.8049 241.291 31.0219L241.573 29.0421C240.106 28.8324 238.772 28.5819 237.571 28.2919L237.101 30.2361ZM241.322 31.0259C242.811 31.1914 244.279 31.4602 245.727 31.8325L246.225 29.8955C244.686 29.4998 243.125 29.214 241.542 29.0381L241.322 31.0259ZM245.727 31.8325C247.146 32.1974 248.432 32.7011 249.589 33.3396L250.555 31.5884C249.238 30.8615 247.793 30.2986 246.225 29.8955L245.727 31.8325ZM249.625 33.3584C250.745 33.9187 251.633 34.7144 252.303 35.7568L253.985 34.6752C253.119 33.3282 251.959 32.2893 250.519 31.5696L249.625 33.3584ZM252.303 35.7568C252.937 36.7426 253.296 38.0942 253.296 39.888H255.296C255.296 37.8418 254.887 36.0787 253.985 34.6752L252.303 35.7568ZM253.296 39.888C253.296 41.8043 252.727 43.435 251.599 44.8262L253.153 46.0858C254.585 44.3197 255.296 42.2384 255.296 39.888H253.296ZM251.589 44.8391C250.485 46.2471 248.877 47.39 246.702 48.236L247.426 50.1C249.859 49.154 251.792 47.8222 253.163 46.0729L251.589 44.8391ZM246.717 48.2303C244.552 49.0321 241.923 49.448 238.808 49.448V51.448C242.093 51.448 244.968 51.0106 247.411 50.1057L246.717 48.2303ZM263.49 49.36L263.206 50.3191L263.216 50.3218L263.225 50.3244L263.49 49.36ZM257.282 46.608L256.389 46.157L255.997 46.9333L256.711 47.4294L257.282 46.608ZM260.354 40.528L260.892 39.6853L259.96 39.0898L259.461 40.077L260.354 40.528ZM265.858 42.96L266.145 42.0022L266.145 42.0022L265.858 42.96ZM277.698 42.896L277.188 42.0357L277.181 42.04L277.173 42.0443L277.698 42.896ZM278.274 38.032L277.719 38.864L277.735 38.875L277.752 38.8853L278.274 38.032ZM271.106 36.176L270.964 37.166L270.968 37.1665L271.106 36.176ZM266.562 35.344L266.312 36.3125L266.328 36.3166L266.345 36.3202L266.562 35.344ZM262.466 33.744L261.96 34.6067L261.971 34.6133L261.982 34.6196L262.466 33.744ZM260.161 20.496L260.949 21.1129L260.956 21.1027L260.161 20.496ZM265.345 16.784L265.704 17.7174L265.714 17.7137L265.345 16.784ZM280.322 16.208L280.108 17.185L280.108 17.185L280.322 16.208ZM286.146 18.384L287.038 18.835L287.454 18.0117L286.667 17.5307L286.146 18.384ZM283.074 24.464L282.556 25.3195L283.479 25.8785L283.966 24.915L283.074 24.464ZM278.146 22.48L277.915 23.4531L277.93 23.4566L277.945 23.4596L278.146 22.48ZM267.842 22.992L267.323 22.1372L267.316 22.1414L267.309 22.1458L267.842 22.992ZM267.266 28.048L266.711 28.88L266.711 28.88L267.266 28.048ZM270.274 29.264L270.039 30.2361L270.039 30.2361L270.274 29.264ZM274.37 30.032L274.228 31.0219L274.244 31.0242L274.259 31.0259L274.37 30.032ZM278.914 30.864L279.163 29.8955L279.163 29.8955L278.914 30.864ZM283.01 32.464L282.526 33.3396L282.544 33.3494L282.562 33.3584L283.01 32.464ZM285.314 45.456L284.537 44.8262L284.532 44.8326L284.526 44.8391L285.314 45.456ZM280.002 49.168L280.349 50.1057L280.356 50.1029L280.364 50.1L280.002 49.168ZM271.746 49.448C268.972 49.448 266.31 49.0963 263.754 48.3956L263.225 50.3244C265.96 51.0743 268.801 51.448 271.746 51.448V49.448ZM263.773 48.4009C261.23 47.6507 259.27 46.7715 257.852 45.7866L256.711 47.4294C258.365 48.5778 260.543 49.5333 263.206 50.3191L263.773 48.4009ZM258.174 47.059L261.246 40.979L259.461 40.077L256.389 46.157L258.174 47.059ZM259.815 41.3707C261.444 42.4114 263.367 43.2569 265.57 43.9178L266.145 42.0022C264.081 41.3831 262.335 40.6072 260.892 39.6853L259.815 41.3707ZM265.57 43.9178C267.793 44.5846 270.023 44.92 272.258 44.92V42.92C270.226 42.92 268.189 42.6154 266.145 42.0022L265.57 43.9178ZM272.258 44.92C274.816 44.92 276.866 44.5821 278.222 43.7477L277.173 42.0443C276.311 42.5752 274.734 42.92 272.258 42.92V44.92ZM278.207 43.7563C279.605 42.9283 280.426 41.7124 280.426 40.144H278.426C278.426 40.8796 278.094 41.4984 277.188 42.0357L278.207 43.7563ZM280.426 40.144C280.426 38.8752 279.875 37.839 278.795 37.1787L277.752 38.8853C278.208 39.1637 278.426 39.5355 278.426 40.144H280.426ZM278.828 37.1999C277.922 36.5957 276.788 36.1738 275.468 35.9007L275.063 37.8593C276.218 38.0982 277.089 38.4443 277.719 38.864L278.828 37.1999ZM275.468 35.9007C274.205 35.6394 272.796 35.4012 271.243 35.1855L270.968 37.1665C272.487 37.3774 273.851 37.6086 275.063 37.8593L275.468 35.9007ZM271.247 35.1861C269.78 34.9765 268.291 34.7038 266.778 34.3678L266.345 36.3202C267.904 36.6668 269.444 36.9488 270.964 37.1659L271.247 35.1861ZM266.811 34.3755C265.391 34.0106 264.106 33.5069 262.949 32.8684L261.982 34.6196C263.3 35.3465 264.745 35.9094 266.312 36.3125L266.811 34.3755ZM262.971 32.8813C261.868 32.2346 260.981 31.3844 260.299 30.3232L258.616 31.4048C259.47 32.733 260.588 33.8027 261.96 34.6067L262.971 32.8813ZM260.299 30.3232C259.667 29.3405 259.306 27.9695 259.306 26.128H257.306C257.306 28.2118 257.712 29.9982 258.616 31.4048L260.299 30.3232ZM259.306 26.128C259.306 24.1554 259.861 22.5002 260.949 21.1129L259.374 19.8791C257.987 21.6491 257.306 23.7486 257.306 26.128H259.306ZM260.956 21.1027C262.064 19.6514 263.63 18.5154 265.704 17.7173L264.987 15.8507C262.624 16.7593 260.734 18.0979 259.367 19.8893L260.956 21.1027ZM265.714 17.7137C267.832 16.8746 270.368 16.44 273.346 16.44V14.44C270.179 14.44 267.382 14.9014 264.977 15.8543L265.714 17.7137ZM273.346 16.44C275.575 16.44 277.829 16.6876 280.108 17.185L280.535 15.231C278.121 14.7044 275.724 14.44 273.346 14.44V16.44ZM280.108 17.185C282.38 17.6807 284.209 18.3725 285.624 19.2373L286.667 17.5307C285.01 16.5181 282.956 15.7593 280.535 15.231L280.108 17.185ZM285.253 17.933L282.181 24.013L283.966 24.915L287.038 18.835L285.253 17.933ZM283.591 23.6085C281.883 22.5748 280.135 21.8672 278.346 21.5004L277.945 23.4596C279.484 23.7755 281.021 24.3905 282.556 25.3195L283.591 23.6085ZM278.376 21.5069C276.681 21.1055 274.983 20.904 273.282 20.904V22.904C274.823 22.904 276.367 23.0865 277.915 23.4531L278.376 21.5069ZM273.282 20.904C270.785 20.904 268.751 21.27 267.323 22.1372L268.36 23.8468C269.322 23.2633 270.914 22.904 273.282 22.904V20.904ZM267.309 22.1458C265.942 23.0062 265.114 24.2098 265.114 25.744H267.114C267.114 25.0595 267.437 24.4284 268.374 23.8382L267.309 22.1458ZM265.114 25.744C265.114 27.0593 265.631 28.1599 266.711 28.88L267.82 27.2159C267.364 26.9121 267.114 26.4767 267.114 25.744H265.114ZM266.711 28.88C267.606 29.4767 268.728 29.9196 270.039 30.2361L270.508 28.2919C269.345 28.0111 268.461 27.6433 267.82 27.2159L266.711 28.88ZM270.039 30.2361C271.312 30.5434 272.709 30.8049 274.228 31.0219L274.511 29.0421C273.043 28.8324 271.71 28.5819 270.508 28.2919L270.039 30.2361ZM274.259 31.0259C275.748 31.1914 277.217 31.4602 278.664 31.8325L279.163 29.8955C277.624 29.4998 276.063 29.214 274.48 29.0381L274.259 31.0259ZM278.664 31.8325C280.084 32.1974 281.369 32.7011 282.526 33.3396L283.493 31.5884C282.175 30.8615 280.73 30.2986 279.163 29.8955L278.664 31.8325ZM282.562 33.3584C283.683 33.9187 284.57 34.7144 285.24 35.7568L286.923 34.6752C286.057 33.3282 284.896 32.2893 283.457 31.5696L282.562 33.3584ZM285.24 35.7568C285.874 36.7426 286.234 38.0942 286.234 39.888H288.234C288.234 37.8418 287.825 36.0787 286.923 34.6752L285.24 35.7568ZM286.234 39.888C286.234 41.8043 285.665 43.435 284.537 44.8262L286.09 46.0858C287.522 44.3197 288.234 42.2384 288.234 39.888H286.234ZM284.526 44.8391C283.423 46.2471 281.814 47.39 279.639 48.236L280.364 50.1C282.797 49.154 284.729 47.8222 286.101 46.0729L284.526 44.8391ZM279.654 48.2303C277.489 49.0321 274.861 49.448 271.746 49.448V51.448C275.03 51.448 277.906 51.0106 280.349 50.1057L279.654 48.2303ZM294.123 50H293.123V51H294.123V50ZM294.123 15.824V14.824H293.123V15.824H294.123ZM302.123 15.824H303.123V14.824H302.123V15.824ZM302.123 50V51H303.123V50H302.123ZM294.443 8.784L293.736 9.4911L293.744 9.49896L293.752 9.50664L294.443 8.784ZM294.443 2L295.133 2.72335L295.134 2.72264L294.443 2ZM301.803 1.936L301.113 2.65935L301.129 2.67538L301.147 2.6906L301.803 1.936ZM301.867 8.784L302.574 9.4911L302.582 9.48325L302.59 9.47522L301.867 8.784ZM295.123 50V15.824H293.123V50H295.123ZM294.123 16.824H302.123V14.824H294.123V16.824ZM301.123 15.824V50H303.123V15.824H301.123ZM302.123 49H294.123V51H302.123V49ZM298.155 9.192C296.891 9.192 295.91 8.80355 295.134 8.06135L293.752 9.50664C294.939 10.6418 296.432 11.192 298.155 11.192V9.192ZM295.15 8.07689C294.398 7.32499 294.035 6.44837 294.035 5.392H292.035C292.035 6.98097 292.61 8.36567 293.736 9.4911L295.15 8.07689ZM294.035 5.392C294.035 4.28398 294.404 3.41991 295.133 2.72335L293.753 1.27664C292.605 2.37209 292.035 3.76935 292.035 5.392H294.035ZM295.134 2.72264C295.91 1.98044 296.891 1.592 298.155 1.592V-0.408001C296.432 -0.408001 294.939 0.142218 293.752 1.27735L295.134 2.72264ZM298.155 1.592C299.433 1.592 300.388 1.9678 301.113 2.65935L302.493 1.21264C301.341 0.112202 299.864 -0.408001 298.155 -0.408001V1.592ZM301.147 2.6906C301.905 3.35032 302.275 4.1611 302.275 5.2H304.275C304.275 3.59357 303.663 2.22834 302.459 1.18139L301.147 2.6906ZM302.275 5.2C302.275 6.36099 301.898 7.305 301.144 8.09277L302.59 9.47522C303.713 8.30032 304.275 6.855 304.275 5.2H302.275ZM301.16 8.07689C300.438 8.79837 299.471 9.192 298.155 9.192V11.192C299.911 11.192 301.418 10.647 302.574 9.4911L301.16 8.07689ZM314.927 49.36L314.644 50.3191L314.653 50.3218L314.663 50.3244L314.927 49.36ZM308.719 46.608L307.826 46.157L307.434 46.9333L308.149 47.4294L308.719 46.608ZM311.791 40.528L312.329 39.6853L311.397 39.0898L310.898 40.077L311.791 40.528ZM317.295 42.96L317.582 42.0022L317.582 42.0022L317.295 42.96ZM329.135 42.896L328.625 42.0357L328.618 42.04L328.611 42.0443L329.135 42.896ZM329.711 38.032L329.156 38.864L329.173 38.875L329.19 38.8853L329.711 38.032ZM322.543 36.176L322.402 37.166L322.405 37.1665L322.543 36.176ZM317.999 35.344L317.75 36.3125L317.766 36.3166L317.782 36.3202L317.999 35.344ZM313.903 33.744L313.397 34.6067L313.409 34.6133L313.42 34.6196L313.903 33.744ZM311.599 20.496L312.386 21.1129L312.394 21.1027L311.599 20.496ZM316.783 16.784L317.142 17.7174L317.151 17.7137L316.783 16.784ZM331.759 16.208L331.546 17.185L331.546 17.185L331.759 16.208ZM337.583 18.384L338.476 18.835L338.892 18.0117L338.104 17.5307L337.583 18.384ZM334.511 24.464L333.993 25.3195L334.917 25.8785L335.404 24.915L334.511 24.464ZM329.583 22.48L329.353 23.4531L329.367 23.4566L329.382 23.4596L329.583 22.48ZM319.279 22.992L318.76 22.1372L318.753 22.1414L318.746 22.1458L319.279 22.992ZM318.703 28.048L318.148 28.88L318.148 28.88L318.703 28.048ZM321.711 29.264L321.476 30.2361L321.476 30.2361L321.711 29.264ZM325.807 30.032L325.666 31.0219L325.681 31.0242L325.697 31.0259L325.807 30.032ZM330.351 30.864L330.6 29.8955L330.6 29.8955L330.351 30.864ZM334.447 32.464L333.964 33.3396L333.982 33.3494L334 33.3584L334.447 32.464ZM336.751 45.456L335.974 44.8262L335.969 44.8326L335.964 44.8391L336.751 45.456ZM331.439 49.168L331.786 50.1057L331.794 50.1029L331.801 50.1L331.439 49.168ZM323.183 49.448C320.41 49.448 317.747 49.0963 315.191 48.3956L314.663 50.3244C317.398 51.0743 320.239 51.448 323.183 51.448V49.448ZM315.21 48.4009C312.668 47.6507 310.708 46.7715 309.289 45.7866L308.149 47.4294C309.802 48.5778 311.981 49.5333 314.644 50.3191L315.21 48.4009ZM309.612 47.059L312.684 40.979L310.898 40.077L307.826 46.157L309.612 47.059ZM311.253 41.3707C312.882 42.4114 314.805 43.2569 317.008 43.9178L317.582 42.0022C315.519 41.3831 313.772 40.6072 312.329 39.6853L311.253 41.3707ZM317.008 43.9178C319.23 44.5846 321.46 44.92 323.695 44.92V42.92C321.663 42.92 319.627 42.6154 317.582 42.0022L317.008 43.9178ZM323.695 44.92C326.253 44.92 328.303 44.5821 329.659 43.7477L328.611 42.0443C327.748 42.5752 326.171 42.92 323.695 42.92V44.92ZM329.645 43.7563C331.042 42.9283 331.863 41.7124 331.863 40.144H329.863C329.863 40.8796 329.532 41.4984 328.625 42.0357L329.645 43.7563ZM331.863 40.144C331.863 38.8752 331.313 37.839 330.232 37.1787L329.19 38.8853C329.645 39.1637 329.863 39.5355 329.863 40.144H331.863ZM330.266 37.1999C329.359 36.5957 328.225 36.1738 326.906 35.9007L326.5 37.8593C327.655 38.0982 328.527 38.4443 329.156 38.864L330.266 37.1999ZM326.906 35.9007C325.643 35.6394 324.234 35.4012 322.681 35.1855L322.405 37.1665C323.924 37.3774 325.289 37.6086 326.5 37.8593L326.906 35.9007ZM322.684 35.1861C321.217 34.9765 319.728 34.7038 318.216 34.3678L317.782 36.3202C319.342 36.6668 320.882 36.9488 322.402 37.1659L322.684 35.1861ZM318.248 34.3755C316.829 34.0106 315.543 33.5069 314.386 32.8684L313.42 34.6196C314.737 35.3465 316.182 35.9094 317.75 36.3125L318.248 34.3755ZM314.409 32.8813C313.306 32.2346 312.418 31.3844 311.736 30.3232L310.054 31.4048C310.908 32.733 312.026 33.8027 313.397 34.6067L314.409 32.8813ZM311.736 30.3232C311.104 29.3405 310.743 27.9695 310.743 26.128H308.743C308.743 28.2118 309.15 29.9982 310.054 31.4048L311.736 30.3232ZM310.743 26.128C310.743 24.1554 311.299 22.5002 312.386 21.1129L310.812 19.8791C309.425 21.6491 308.743 23.7486 308.743 26.128H310.743ZM312.394 21.1027C313.502 19.6514 315.067 18.5154 317.142 17.7173L316.424 15.8507C314.062 16.7593 312.171 18.0979 310.804 19.8893L312.394 21.1027ZM317.151 17.7137C319.269 16.8746 321.805 16.44 324.783 16.44V14.44C321.617 14.44 318.82 14.9014 316.415 15.8543L317.151 17.7137ZM324.783 16.44C327.012 16.44 329.266 16.6876 331.546 17.185L331.972 15.231C329.558 14.7044 327.162 14.44 324.783 14.44V16.44ZM331.546 17.185C333.818 17.6807 335.647 18.3725 337.062 19.2373L338.104 17.5307C336.447 16.5181 334.394 15.7593 331.972 15.231L331.546 17.185ZM336.69 17.933L333.618 24.013L335.404 24.915L338.476 18.835L336.69 17.933ZM335.029 23.6085C333.321 22.5748 331.572 21.8672 329.784 21.5004L329.382 23.4596C330.922 23.7755 332.458 24.3905 333.993 25.3195L335.029 23.6085ZM329.813 21.5069C328.119 21.1055 326.42 20.904 324.719 20.904V22.904C326.261 22.904 327.805 23.0865 329.353 23.4531L329.813 21.5069ZM324.719 20.904C322.222 20.904 320.188 21.27 318.76 22.1372L319.798 23.8468C320.759 23.2633 322.352 22.904 324.719 22.904V20.904ZM318.746 22.1458C317.38 23.0062 316.551 24.2098 316.551 25.744H318.551C318.551 25.0595 318.874 24.4284 319.812 23.8382L318.746 22.1458ZM316.551 25.744C316.551 27.0593 317.068 28.1599 318.148 28.88L319.258 27.2159C318.802 26.9121 318.551 26.4767 318.551 25.744H316.551ZM318.148 28.88C319.043 29.4767 320.165 29.9196 321.476 30.2361L321.946 28.2919C320.782 28.0111 319.899 27.6433 319.258 27.2159L318.148 28.88ZM321.476 30.2361C322.749 30.5434 324.146 30.8049 325.666 31.0219L325.948 29.0421C324.481 28.8324 323.147 28.5819 321.946 28.2919L321.476 30.2361ZM325.697 31.0259C327.186 31.1914 328.654 31.4602 330.102 31.8325L330.6 29.8955C329.061 29.4998 327.5 29.214 325.917 29.0381L325.697 31.0259ZM330.102 31.8325C331.521 32.1974 332.807 32.7011 333.964 33.3396L334.93 31.5884C333.613 30.8615 332.168 30.2986 330.6 29.8955L330.102 31.8325ZM334 33.3584C335.12 33.9187 336.008 34.7144 336.678 35.7568L338.36 34.6752C337.494 33.3282 336.334 32.2893 334.894 31.5696L334 33.3584ZM336.678 35.7568C337.312 36.7426 337.671 38.0942 337.671 39.888H339.671C339.671 37.8418 339.262 36.0787 338.36 34.6752L336.678 35.7568ZM337.671 39.888C337.671 41.8043 337.102 43.435 335.974 44.8262L337.528 46.0858C338.96 44.3197 339.671 42.2384 339.671 39.888H337.671ZM335.964 44.8391C334.86 46.2471 333.252 47.39 331.077 48.236L331.801 50.1C334.234 49.154 336.167 47.8222 337.538 46.0729L335.964 44.8391ZM331.092 48.2303C328.927 49.0321 326.298 49.448 323.183 49.448V51.448C326.468 51.448 329.343 51.0106 331.786 50.1057L331.092 48.2303ZM349.72 47.568L349.029 48.29L349.037 48.2975L349.72 47.568ZM346.649 8.272V7.272H345.649V8.272H346.649ZM354.649 8.272H355.649V7.272H354.649V8.272ZM355.865 42.512L355.123 43.1829L355.132 43.1924L355.14 43.2017L355.865 42.512ZM363.865 42.448L364.795 42.082L364.303 40.8315L363.247 41.6617L363.865 42.448ZM366.105 48.144L366.738 48.918L367.302 48.4564L367.035 47.778L366.105 48.144ZM362.649 49.872L362.919 50.8347L362.649 49.872ZM341.017 22.48H340.017V23.48H341.017V22.48ZM341.017 16.08V15.08H340.017V16.08H341.017ZM363.801 16.08H364.801V15.08H363.801V16.08ZM363.801 22.48V23.48H364.801V22.48H363.801ZM358.425 49.448C354.836 49.448 352.212 48.5328 350.404 46.8385L349.037 48.2975C351.325 50.4432 354.503 51.448 358.425 51.448V49.448ZM350.412 46.846C348.621 45.1293 347.649 42.5486 347.649 38.928H345.649C345.649 42.902 346.724 46.0813 349.029 48.29L350.412 46.846ZM347.649 38.928V8.272H345.649V38.928H347.649ZM346.649 9.272H354.649V7.272H346.649V9.272ZM353.649 8.272V38.736H355.649V8.272H353.649ZM353.649 38.736C353.649 40.5192 354.096 42.0479 355.123 43.1829L356.606 41.8411C356.012 41.1841 355.649 40.1955 355.649 38.736H353.649ZM355.14 43.2017C356.221 44.336 357.678 44.856 359.385 44.856V42.856C358.104 42.856 357.215 42.48 356.589 41.8223L355.14 43.2017ZM359.385 44.856C361.359 44.856 363.081 44.3352 364.482 43.2343L363.247 41.6617C362.258 42.4381 360.994 42.856 359.385 42.856V44.856ZM362.934 42.814L365.174 48.51L367.035 47.778L364.795 42.082L362.934 42.814ZM365.471 47.37C364.656 48.0374 363.633 48.5564 362.378 48.9093L362.919 50.8347C364.395 50.4196 365.676 49.7866 366.738 48.918L365.471 47.37ZM362.378 48.9093C361.103 49.268 359.786 49.448 358.425 49.448V51.448C359.965 51.448 361.464 51.244 362.919 50.8347L362.378 48.9093ZM342.017 22.48V16.08H340.017V22.48H342.017ZM341.017 17.08H363.801V15.08H341.017V17.08ZM362.801 16.08V22.48H364.801V16.08H362.801ZM363.801 21.48H341.017V23.48H363.801V21.48ZM393.742 50H392.742V51H393.742V50ZM393.742 43.088H394.742V42.9392L394.698 42.7968L393.742 43.088ZM393.294 41.616H392.294V41.7648L392.337 41.9072L393.294 41.616ZM391.182 24.08L390.497 24.8088L390.503 24.8144L390.509 24.8199L391.182 24.08ZM379.086 22.992L378.782 22.0391L378.776 22.0411L379.086 22.992ZM374.414 25.488L373.533 25.9621L374.113 27.0398L375.054 26.2562L374.414 25.488ZM371.278 19.664L370.669 18.8707L369.994 19.3888L370.397 20.1381L371.278 19.664ZM377.806 16.528L378.067 17.4932L378.078 17.4901L377.806 16.528ZM397.198 19.024L396.533 19.7714L396.539 19.777L396.546 19.7824L397.198 19.024ZM401.294 50V51H402.294V50H401.294ZM376.27 49.168L375.847 50.0742L375.855 50.0781L375.863 50.0818L376.27 49.168ZM371.79 45.52L370.951 46.0642L370.959 46.0774L370.968 46.0904L371.79 45.52ZM371.598 35.024L370.744 34.5025L370.739 34.5113L370.734 34.5201L371.598 35.024ZM376.142 31.376L376.535 32.2951L376.535 32.2951L376.142 31.376ZM394.382 30.032H395.382V29.032H394.382V30.032ZM394.382 35.344V36.344H395.382V35.344H394.382ZM379.534 36.688L380.206 37.4279L380.215 37.4198L380.224 37.4114L379.534 36.688ZM379.854 43.344L379.258 44.1476L379.258 44.1476L379.854 43.344ZM389.902 43.28L389.408 42.4103L389.398 42.4162L389.902 43.28ZM393.294 39.312L394.256 39.0424L393.45 36.161L392.362 38.9485L393.294 39.312ZM394.638 44.112L395.571 44.4696L395.69 44.1608L395.6 43.8424L394.638 44.112ZM390.478 48.784L389.993 47.9089L389.985 47.9134L390.478 48.784ZM394.742 50V43.088H392.742V50H394.742ZM394.698 42.7968L394.25 41.3248L392.337 41.9072L392.785 43.3792L394.698 42.7968ZM394.294 41.616V29.52H392.294V41.616H394.294ZM394.294 29.52C394.294 26.9624 393.518 24.8525 391.854 23.3401L390.509 24.8199C391.661 25.8675 392.294 27.3843 392.294 29.52H394.294ZM391.866 23.3511C390.201 21.7865 387.774 21.096 384.782 21.096V23.096C387.506 23.096 389.346 23.7281 390.497 24.8088L391.866 23.3511ZM384.782 21.096C382.756 21.096 380.755 21.4114 378.782 22.0391L379.389 23.9449C381.171 23.378 382.967 23.096 384.782 23.096V21.096ZM378.776 22.0411C376.839 22.6717 375.165 23.56 373.773 24.7198L375.054 26.2562C376.222 25.2827 377.662 24.507 379.395 23.9429L378.776 22.0411ZM375.294 25.0139L372.158 19.1899L370.397 20.1381L373.533 25.9621L375.294 25.0139ZM371.886 20.4573C373.605 19.1382 375.66 18.146 378.067 17.4931L377.544 15.5629C374.917 16.2753 372.619 17.3738 370.669 18.8707L371.886 20.4573ZM378.078 17.4901C380.547 16.7906 383.101 16.44 385.742 16.44V14.44C382.921 14.44 380.184 14.8148 377.533 15.5659L378.078 17.4901ZM385.742 16.44C390.538 16.44 394.087 17.5972 396.533 19.7714L397.862 18.2766C394.932 15.6721 390.843 14.44 385.742 14.44V16.44ZM396.546 19.7824C398.981 21.8755 400.294 25.1958 400.294 29.968H402.294C402.294 24.8415 400.875 20.8659 397.849 18.2656L396.546 19.7824ZM400.294 29.968V50H402.294V29.968H400.294ZM401.294 49H393.742V51H401.294V49ZM382.99 49.448C380.54 49.448 378.443 49.0397 376.676 48.2542L375.863 50.0818C377.936 51.003 380.319 51.448 382.99 51.448V49.448ZM376.692 48.2618C374.911 47.4304 373.564 46.3219 372.611 44.9496L370.968 46.0904C372.148 47.7901 373.788 49.1136 375.847 50.0742L376.692 48.2618ZM372.628 44.9758C371.714 43.5664 371.254 41.9863 371.254 40.208H369.254C369.254 42.3551 369.817 44.3163 370.951 46.0642L372.628 44.9758ZM371.254 40.208C371.254 38.4505 371.662 36.8988 372.461 35.5279L370.734 34.5201C369.741 36.2212 369.254 38.1255 369.254 40.208H371.254ZM372.451 35.5454C373.256 34.2282 374.585 33.1311 376.535 32.2951L375.748 30.4569C373.517 31.4129 371.817 32.7478 370.744 34.5025L372.451 35.5454ZM376.535 32.2951C378.454 31.4728 381.077 31.032 384.462 31.032V29.032C380.934 29.032 378.01 29.4872 375.748 30.4569L376.535 32.2951ZM384.462 31.032H394.382V29.032H384.462V31.032ZM393.382 30.032V35.344H395.382V30.032H393.382ZM394.382 34.344H385.038V36.344H394.382V34.344ZM385.038 34.344C383.624 34.344 382.397 34.4592 381.376 34.7085C380.361 34.9564 379.484 35.3528 378.843 35.9646L380.224 37.4114C380.522 37.1272 381.031 36.8516 381.851 36.6515C382.664 36.4528 383.72 36.344 385.038 36.344V34.344ZM378.861 35.9481C377.712 36.9929 377.126 38.3292 377.126 39.888H379.126C379.126 38.8868 379.478 38.0898 380.206 37.4279L378.861 35.9481ZM377.126 39.888C377.126 41.6511 377.848 43.103 379.258 44.1476L380.449 42.5404C379.555 41.8783 379.126 41.0263 379.126 39.888H377.126ZM379.258 44.1476C380.642 45.1728 382.48 45.624 384.654 45.624V43.624C382.731 43.624 381.369 43.2219 380.449 42.5404L379.258 44.1476ZM384.654 45.624C386.774 45.624 388.701 45.138 390.405 44.1438L389.398 42.4162C388.03 43.214 386.458 43.624 384.654 43.624V45.624ZM390.395 44.1497C392.181 43.1361 393.462 41.6309 394.225 39.6755L392.362 38.9485C391.76 40.4918 390.779 41.6319 389.408 42.4103L390.395 44.1497ZM392.331 39.5816L393.675 44.3816L395.6 43.8424L394.256 39.0424L392.331 39.5816ZM393.704 43.7544C393.026 45.5241 391.808 46.9054 389.993 47.909L390.962 49.659C393.158 48.4439 394.713 46.7105 395.571 44.4696L393.704 43.7544ZM389.985 47.9134C388.216 48.9137 385.903 49.448 382.99 49.448V51.448C386.134 51.448 388.814 50.873 390.97 49.6546L389.985 47.9134ZM438.249 17.04L437.801 17.9345L437.808 17.9379L438.249 17.04ZM443.369 21.968L442.495 22.4551L442.499 22.4623L443.369 21.968ZM445.225 50V51H446.225V50H445.225ZM437.225 50H436.225V51H437.225V50ZM435.049 24.656L434.321 25.342L434.326 25.3474L434.331 25.3528L435.049 24.656ZM424.105 23.568L424.572 24.4518L424.572 24.4518L424.105 23.568ZM420.713 27.024L419.828 26.5572L419.823 26.5667L420.713 27.024ZM419.561 50V51H420.561V50H419.561ZM411.561 50H410.561V51H411.561V50ZM411.561 15.824V14.824H410.561V15.824H411.561ZM419.177 15.824H420.177V14.824H419.177V15.824ZM419.177 25.04L418.274 25.4707L420.177 25.04H419.177ZM417.833 22.224L416.956 21.7427L416.709 22.1921L416.93 22.6547L417.833 22.224ZM423.017 17.232L423.47 18.1231L423.477 18.1198L423.017 17.232ZM430.953 16.44C433.551 16.44 435.826 16.9466 437.801 17.9344L438.696 16.1456C436.405 15 433.816 14.44 430.953 14.44V16.44ZM437.808 17.9379C439.792 18.9105 441.352 20.4052 442.495 22.4551L444.242 21.4809C442.91 19.0935 441.057 17.3029 438.689 16.1421L437.808 17.9379ZM442.499 22.4623C443.624 24.441 444.225 27.0704 444.225 30.416H446.225C446.225 26.8496 445.587 23.847 444.238 21.4737L442.499 22.4623ZM444.225 30.416V50H446.225V30.416H444.225ZM445.225 49H437.225V51H445.225V49ZM438.225 50V31.44H436.225V50H438.225ZM438.225 31.44C438.225 28.2684 437.466 25.7094 435.766 23.9592L434.331 25.3528C435.532 26.5892 436.225 28.553 436.225 31.44H438.225ZM435.776 23.97C434.134 22.2289 431.859 21.416 429.097 21.416V23.416C431.454 23.416 433.147 24.0964 434.321 25.342L435.776 23.97ZM429.097 21.416C427.08 21.416 425.251 21.8296 423.637 22.6842L424.572 24.4518C425.859 23.7704 427.359 23.416 429.097 23.416V21.416ZM423.637 22.6842C421.998 23.5518 420.727 24.8544 419.828 26.5572L421.597 27.4908C422.32 26.1216 423.31 25.1202 424.572 24.4518L423.637 22.6842ZM419.823 26.5667C418.961 28.2441 418.561 30.313 418.561 32.72H420.561C420.561 30.519 420.928 28.7905 421.602 27.4813L419.823 26.5667ZM418.561 32.72V50H420.561V32.72H418.561ZM419.561 49H411.561V51H419.561V49ZM412.561 50V15.824H410.561V50H412.561ZM411.561 16.824H419.177V14.824H411.561V16.824ZM418.177 15.824V25.04H420.177V15.824H418.177ZM420.079 24.6093L418.735 21.7933L416.93 22.6547L418.274 25.4707L420.079 24.6093ZM418.709 22.7053C419.805 20.7093 421.384 19.1861 423.47 18.123L422.563 16.341C420.127 17.5819 418.249 19.3867 416.956 21.7427L418.709 22.7053ZM423.477 18.1198C425.618 17.0093 428.102 16.44 430.953 16.44V14.44C427.83 14.44 425.023 15.0654 422.556 16.3442L423.477 18.1198ZM461.516 48.208L461.031 49.0828L461.039 49.0872L461.047 49.0915L461.516 48.208ZM454.988 41.936L454.129 42.4485L454.129 42.4485L454.988 41.936ZM454.988 23.888L455.843 24.4066L455.846 24.4005L454.988 23.888ZM461.516 17.68L461.047 16.7965L461.041 16.7995L461.516 17.68ZM479.884 17.488L479.407 18.367L479.416 18.3718L479.424 18.3764L479.884 17.488ZM485.708 23.376L486.211 24.2398L487.027 23.7643L486.599 22.923L485.708 23.376ZM479.564 26.96L478.718 27.494L479.234 28.3102L480.067 27.8238L479.564 26.96ZM475.788 23.376L475.32 24.2598L475.33 24.2653L475.788 23.376ZM465.74 23.504L465.264 22.6243L465.264 22.6243L465.74 23.504ZM462.028 27.216L462.897 27.7096L462.903 27.6997L462.028 27.216ZM462.028 38.672L461.152 39.1557L461.158 39.1656L462.028 38.672ZM465.74 42.32L466.215 41.4403L466.215 41.4403L465.74 42.32ZM475.788 42.448L475.33 41.5586L475.32 41.5642L475.788 42.448ZM479.564 38.864L480.067 38.0002L479.234 37.5138L478.718 38.33L479.564 38.864ZM485.708 42.448L486.596 42.907L487.032 42.0629L486.211 41.5842L485.708 42.448ZM479.884 48.4L480.36 49.279L480.365 49.2762L479.884 48.4ZM471.116 49.448C467.674 49.448 464.639 48.7322 461.984 47.3245L461.047 49.0915C464.024 50.6704 467.389 51.448 471.116 51.448V49.448ZM462 47.3332C459.377 45.8802 457.332 43.9126 455.846 41.4235L454.129 42.4485C455.801 45.2501 458.108 47.4638 461.031 49.0828L462 47.3332ZM455.846 41.4235C454.369 38.9475 453.62 36.1198 453.62 32.912H451.62C451.62 36.4456 452.449 39.6338 454.129 42.4485L455.846 41.4235ZM453.62 32.912C453.62 29.6588 454.37 26.8345 455.843 24.4066L454.132 23.3694C452.448 26.1468 451.62 29.3386 451.62 32.912H453.62ZM455.846 24.4005C457.33 21.9139 459.372 19.9702 461.99 18.5605L461.041 16.7995C458.113 18.3765 455.802 20.5714 454.129 23.3755L455.846 24.4005ZM461.984 18.5635C464.639 17.1558 467.674 16.44 471.116 16.44V14.44C467.389 14.44 464.024 15.2176 461.047 16.7965L461.984 18.5635ZM471.116 16.44C474.304 16.44 477.058 17.0931 479.407 18.367L480.36 16.609C477.674 15.1522 474.583 14.44 471.116 14.44V16.44ZM479.424 18.3764C481.796 19.6015 483.587 21.4106 484.816 23.829L486.599 22.923C485.183 20.1361 483.091 18.0198 480.343 16.5996L479.424 18.3764ZM485.204 22.5122L479.06 26.0962L480.067 27.8238L486.211 24.2398L485.204 22.5122ZM480.409 26.426C479.303 24.6755 477.918 23.3474 476.245 22.4867L475.33 24.2653C476.643 24.9406 477.776 26.0018 478.718 27.494L480.409 26.426ZM476.255 22.4922C474.655 21.6448 472.915 21.224 471.052 21.224V23.224C472.602 23.224 474.019 23.5712 475.32 24.2598L476.255 22.4922ZM471.052 21.224C468.939 21.224 467.002 21.6848 465.264 22.6243L466.215 24.3837C467.634 23.6166 469.239 23.224 471.052 23.224V21.224ZM465.264 22.6243C463.511 23.5717 462.138 24.9491 461.152 26.7323L462.903 27.6997C463.709 26.2402 464.81 25.143 466.215 24.3837L465.264 22.6243ZM461.158 26.7224C460.159 28.4816 459.684 30.5585 459.684 32.912H461.684C461.684 30.8282 462.104 29.1077 462.897 27.7096L461.158 26.7224ZM459.684 32.912C459.684 35.2665 460.16 37.3596 461.152 39.1557L462.903 38.1883C462.103 36.7418 461.684 34.9949 461.684 32.912H459.684ZM461.158 39.1656C462.145 40.9054 463.518 42.2561 465.264 43.1997L466.215 41.4403C464.803 40.6772 463.702 39.5959 462.897 38.1784L461.158 39.1656ZM465.264 43.1997C467.002 44.1392 468.939 44.6 471.052 44.6V42.6C469.239 42.6 467.634 42.2074 466.215 41.4403L465.264 43.1997ZM471.052 44.6C472.915 44.6 474.655 44.1792 476.255 43.3318L475.32 41.5642C474.019 42.2528 472.602 42.6 471.052 42.6V44.6ZM476.245 43.3373C477.918 42.4766 479.303 41.1485 480.409 39.398L478.718 38.33C477.776 39.8222 476.643 40.8834 475.33 41.5587L476.245 43.3373ZM479.06 39.7278L485.204 43.3118L486.211 41.5842L480.067 38.0002L479.06 39.7278ZM484.819 41.989C483.589 44.3701 481.79 46.21 479.402 47.5238L480.365 49.2762C483.097 47.774 485.181 45.6459 486.596 42.907L484.819 41.989ZM479.407 47.521C477.058 48.7949 474.304 49.448 471.116 49.448V51.448C474.583 51.448 477.674 50.7358 480.36 49.279L479.407 47.521ZM498.203 48.208L497.724 49.0859L497.732 49.0902L497.74 49.0943L498.203 48.208ZM491.611 41.936L490.746 42.4382L490.752 42.4485L491.611 41.936ZM491.547 23.888L490.682 23.3859L490.68 23.3903L491.547 23.888ZM497.819 17.68L497.333 16.8058L497.327 16.8092L497.819 17.68ZM515.867 17.616L516.354 16.7425L516.354 16.7425L515.867 17.616ZM524.187 34.256L523.192 34.1565L523.187 34.2061V34.256H524.187ZM524.123 35.472V36.472H525.018L525.117 35.5824L524.123 35.472ZM495.643 35.472H494.643V36.472H495.643V35.472ZM495.643 30.16V29.16H494.643V30.16H495.643ZM519.899 30.16L520.368 31.0433L519.899 29.16V30.16ZM516.763 31.824L515.763 31.8023L515.726 33.5062L517.232 32.7073L516.763 31.824ZM515.547 26.64L514.679 27.1361L514.679 27.1361L515.547 26.64ZM512.027 23.12L511.52 23.982L511.531 23.9882L512.027 23.12ZM501.787 23.12L501.291 22.2517L501.28 22.2581L501.787 23.12ZM498.331 26.704L497.457 26.2183L497.452 26.2269L498.331 26.704ZM502.491 42.384L502.044 43.2784L502.044 43.2784L502.491 42.384ZM513.563 42.768L513.925 43.7L513.925 43.7L513.563 42.768ZM517.659 39.952L518.413 39.2956L517.685 38.4585L516.928 39.2697L517.659 39.952ZM521.947 44.88L522.706 45.5308L523.268 44.8751L522.701 44.2236L521.947 44.88ZM516.123 49.04L516.5 49.9661L516.509 49.9626L516.123 49.04ZM508.187 49.448C504.522 49.448 501.358 48.7281 498.666 47.3217L497.74 49.0943C500.765 50.6745 504.257 51.448 508.187 51.448V49.448ZM498.682 47.3301C496.016 45.8761 493.953 43.9088 492.47 41.4235L490.752 42.4485C492.426 45.2539 494.758 47.4679 497.724 49.0859L498.682 47.3301ZM492.476 41.4339C491.037 38.9563 490.307 36.1248 490.307 32.912H488.307C488.307 36.4406 489.113 39.6251 490.746 42.4381L492.476 41.4339ZM490.307 32.912C490.307 29.6489 491.019 26.817 492.414 24.3857L490.68 23.3903C489.088 26.1643 488.307 29.3485 488.307 32.912H490.307ZM492.412 24.3901C493.859 21.8976 495.821 19.956 498.311 18.5508L497.327 16.8092C494.526 18.3906 492.307 20.5877 490.682 23.3859L492.412 24.3901ZM498.305 18.5542C500.828 17.1522 503.709 16.44 506.971 16.44V14.44C503.407 14.44 500.186 15.2212 497.333 16.8058L498.305 18.5542ZM506.971 16.44C510.149 16.44 512.943 17.1311 515.38 18.4895L516.354 16.7425C513.586 15.1995 510.449 14.44 506.971 14.44V16.44ZM515.38 18.4895C517.819 19.8488 519.735 21.7632 521.14 24.2516L522.882 23.2684C521.3 20.4662 519.12 18.2846 516.354 16.7425L515.38 18.4895ZM521.14 24.2516C522.535 26.722 523.251 29.6611 523.251 33.104H525.251C525.251 29.3789 524.474 26.0887 522.882 23.2684L521.14 24.2516ZM523.251 33.104C523.251 33.405 523.232 33.7549 523.192 34.1565L525.182 34.3555C525.227 33.9037 525.251 33.4857 525.251 33.104H523.251ZM523.187 34.256C523.187 34.6495 523.167 35.0178 523.129 35.3616L525.117 35.5824C525.164 35.1582 525.187 34.7158 525.187 34.256H523.187ZM524.123 34.472H495.643V36.472H524.123V34.472ZM496.643 35.472V30.16H494.643V35.472H496.643ZM495.643 31.16H519.899V29.16H495.643V31.16ZM519.43 29.2767L516.294 30.9407L517.232 32.7073L520.368 31.0433L519.43 29.2767ZM517.763 31.8457C517.809 29.7279 517.371 27.816 516.415 26.1439L514.679 27.1361C515.43 28.4507 515.803 29.9948 515.763 31.8023L517.763 31.8457ZM516.415 26.1439C515.473 24.4955 514.172 23.1937 512.523 22.2518L511.531 23.9882C512.869 24.753 513.914 25.7978 514.679 27.1361L516.415 26.1439ZM512.534 22.2581C510.909 21.3022 509.044 20.84 506.971 20.84V22.84C508.738 22.84 510.244 23.2311 511.52 23.9819L512.534 22.2581ZM506.971 20.84C504.859 20.84 502.956 21.3005 501.291 22.2518L502.283 23.9882C503.605 23.2328 505.157 22.84 506.971 22.84V20.84ZM501.28 22.2581C499.669 23.2059 498.393 24.5336 497.457 26.2184L499.205 27.1896C499.976 25.8024 501.004 24.7408 502.294 23.9819L501.28 22.2581ZM497.452 26.2269C496.547 27.8939 496.115 29.8354 496.115 32.016H498.115C498.115 30.1006 498.493 28.5007 499.21 27.1811L497.452 26.2269ZM496.115 32.016V33.296H498.115V32.016H496.115ZM496.115 33.296C496.115 35.5027 496.623 37.4965 497.663 39.2471L499.383 38.2249C498.546 36.8182 498.115 35.1853 498.115 33.296H496.115ZM497.663 39.2471C498.704 40.997 500.173 42.3429 502.044 43.2784L502.938 41.4896C501.396 40.7184 500.219 39.6323 499.383 38.2249L497.663 39.2471ZM502.044 43.2784C503.91 44.2117 506.03 44.664 508.379 44.664V42.664C506.29 42.664 504.485 42.263 502.938 41.4896L502.044 43.2784ZM508.379 44.664C510.403 44.664 512.257 44.349 513.925 43.7L513.201 41.836C511.797 42.3816 510.195 42.664 508.379 42.664V44.664ZM513.925 43.7C515.61 43.0448 517.099 42.0172 518.39 40.6343L516.928 39.2697C515.829 40.4468 514.588 41.2965 513.201 41.836L513.925 43.7ZM516.905 40.6084L521.193 45.5364L522.701 44.2236L518.413 39.2956L516.905 40.6084ZM521.188 44.2292C519.761 45.8936 517.951 47.1915 515.737 48.1174L516.509 49.9626C518.988 48.9258 521.061 47.4504 522.706 45.5308L521.188 44.2292ZM515.746 48.1139C513.583 48.995 511.07 49.448 508.187 49.448V51.448C511.278 51.448 514.055 50.9623 516.5 49.9661L515.746 48.1139Z" fill="#979797" mask="url(#path-1-outside-1_233_1048)"/>
</svg>
